<svg width="35" height="23" viewBox="0 0 35 23" fill="none" xmlns="http://www.w3.org/2000/svg">
<g clip-path="url(#clip0_1_6052)">
<path d="M0.442383 0.688477H34.4424V22.6885H0.442383V0.688477Z" fill="#0052B4"/>
<path d="M29.611 12.3384C29.6044 14.86 29.1868 17.5746 25.8067 18.8676C22.42 17.5746 22.0091 14.86 22.0024 12.3384H29.611Z" fill="white"/>
<path d="M29.5777 13.4062C29.3922 15.6513 28.7559 17.7419 25.8 18.8741C22.8573 17.7419 22.1879 15.5805 22.0288 13.4127" fill="#29DBFF"/>
<path d="M29.4585 14.4609C29.2464 16.0241 28.3517 17.9025 25.8066 18.8738C23.2616 17.9025 22.4597 16.1399 22.1548 14.4738" fill="white"/>
<path d="M29.2197 15.5031C28.8419 16.6417 27.9406 18.0376 25.8197 18.8996C23.6989 18.0891 22.824 16.7253 22.4131 15.4902" fill="#29DBFF"/>
<path d="M28.7225 16.571C28.2917 17.2979 27.5494 18.2049 25.8063 18.8803C23.9837 18.1406 23.3276 17.2528 22.8901 16.5581" fill="white"/>
<path d="M27.775 17.7417C27.2382 18.2049 26.9797 18.4622 25.8132 18.8932C24.481 18.385 24.3154 18.147 23.8779 17.7674" fill="#29DBFF"/>
<path d="M25.8463 15.5869C25.8331 15.574 23.9972 17.8834 23.9972 17.8834C23.8779 17.7998 23.3344 17.2723 23.1157 16.9185L25.853 13.6957L28.5173 16.8927C28.2588 17.3109 27.7617 17.7676 27.6424 17.8577M25.7999 6.17578L24.0436 9.07052H27.5563L25.7999 6.17578Z" fill="#5CC85C"/>
<path d="M20.7892 15.3439C21.0281 13.6293 20.76 12.1788 20.1905 12.1041C19.621 12.0293 18.9657 13.3587 18.7269 15.0732C18.4881 16.7878 18.7561 18.2383 19.3256 18.3131C19.8951 18.3878 20.5504 17.0584 20.7892 15.3439Z" fill="#F7A226"/>
<path d="M20.975 11.4538C21.1348 11.0682 21.0661 10.6782 20.8215 10.5828C20.577 10.4874 20.2493 10.7227 20.0895 11.1083C19.9298 11.494 19.9985 11.884 20.243 11.9794C20.4876 12.0748 20.8153 11.8395 20.975 11.4538Z" fill="#DDC7AB"/>
<path d="M19.9917 18.1966C20.0516 17.7958 20.0033 17.4572 19.8838 17.4404C19.7642 17.4235 19.6187 17.7348 19.5588 18.1356C19.4988 18.5364 19.5471 18.875 19.6666 18.8918C19.7862 18.9087 19.9317 18.5974 19.9917 18.1966Z" fill="#DDC7AB"/>
<path d="M20.3385 18.7256C20.4591 18.7193 20.5394 18.3979 20.5178 18.0076C20.4963 17.6174 20.381 17.3061 20.2604 17.3124C20.1398 17.3186 20.0595 17.6401 20.081 18.0303C20.1026 18.4206 20.2178 18.7319 20.3385 18.7256Z" fill="#DDC7AB"/>
<path d="M21.6205 14.4453C21.7602 14.3919 21.7242 13.9815 21.5403 13.5287C21.3564 13.0759 21.0941 12.7522 20.9545 12.8056C20.8148 12.859 20.8508 13.2694 21.0347 13.7222C21.2186 14.175 21.4809 14.4988 21.6205 14.4453Z" fill="#DDC7AB"/>
<path d="M21.5856 12.3906C22.0521 12.2121 22.3856 11.9575 22.3306 11.822C22.2755 11.6865 21.8527 11.7214 21.3862 11.8999C20.9197 12.0784 20.5861 12.333 20.6412 12.4685C20.6962 12.604 21.119 12.5691 21.5856 12.3906Z" fill="#DDC7AB"/>
<path d="M32.2643 18.3261C32.8338 18.2514 33.1018 16.8009 32.863 15.0863C32.6241 13.3717 31.9688 12.0424 31.3993 12.1171C30.8298 12.1919 30.5618 13.6424 30.8006 15.3569C31.0395 17.0715 31.6948 18.4009 32.2643 18.3261Z" fill="#F7A226"/>
<path d="M31.3528 11.9954C31.5973 11.8999 31.666 11.5099 31.5063 11.1243C31.3465 10.7386 31.0188 10.5033 30.7743 10.5987C30.5298 10.6941 30.461 11.0841 30.6208 11.4698C30.7805 11.8555 31.1083 12.0908 31.3528 11.9954Z" fill="#DDC7AB"/>
<path d="M31.9265 18.9038C32.046 18.8869 32.0943 18.5483 32.0342 18.1475C31.9742 17.7468 31.8287 17.4355 31.7091 17.4524C31.5896 17.4692 31.5413 17.8078 31.6014 18.2086C31.6614 18.6094 31.8069 18.9207 31.9265 18.9038Z" fill="#DDC7AB"/>
<path d="M31.5115 18.0412C31.533 17.651 31.4527 17.3295 31.3321 17.3232C31.2115 17.317 31.0962 17.6282 31.0747 18.0185C31.0531 18.4087 31.1334 18.7302 31.2541 18.7365C31.3747 18.7427 31.4899 18.4315 31.5115 18.0412Z" fill="#DDC7AB"/>
<path d="M30.5545 13.7271C30.7384 13.2743 30.7743 12.864 30.6347 12.8105C30.4951 12.7571 30.2328 13.0809 30.0489 13.5337C29.8649 13.9864 29.829 14.3968 29.9686 14.4503C30.1082 14.5037 30.3705 14.1799 30.5545 13.7271Z" fill="#DDC7AB"/>
<path d="M30.9541 12.4788C31.0092 12.3433 30.6756 12.0887 30.2091 11.9102C29.7426 11.7316 29.3198 11.6968 29.2647 11.8323C29.2097 11.9678 29.5432 12.2224 30.0097 12.4009C30.4763 12.5794 30.8991 12.6143 30.9541 12.4788Z" fill="#DDC7AB"/>
<path d="M25.1834 9.07031L24.0435 10.6592L25.2232 12.3381H26.6879L26.9994 10.7042L26.6415 9.07031H25.1834Z" fill="#B0C6CC"/>
<path d="M17.4092 0.688477V8.24052H14.3539L17.4092 10.2154V11.6692H15.9114L11.0467 8.52356V11.6692H6.80496V8.52356L1.94024 11.6692H0.442383V10.2154L3.49774 8.24052H0.442383V4.12356H3.49774L0.442383 2.14871V0.688477H1.94024L6.80496 3.83409V0.688477H11.0467V3.83409L15.9114 0.688477H17.4092Z" fill="white"/>
<path d="M9.98624 0.688477H7.86539V5.1528H0.442383V7.21128H7.86539V11.6692H9.98624V7.21128H17.4092V5.1528H9.98624V0.688477Z" fill="#D80027"/>
<path d="M17.4094 2.14893V4.12378H14.354L17.4094 2.14893Z" fill="#2E52B2"/>
<path d="M0.442383 11.6696V10.962L4.58468 8.24093H6.08254L0.926203 11.6696H0.442383ZM0.926203 0.695312L6.08254 4.11753H4.58468L0.442383 1.40291V0.695312H0.926203ZM17.4092 0.695312V1.40291L13.2669 4.12397H11.7691L16.9254 0.695312H17.4092ZM16.9254 11.6696L11.7691 8.24093H13.2669L17.4092 10.962V11.6696H16.9254Z" fill="#D80027"/>
</g>
<defs>
<clipPath id="clip0_1_6052">
<rect width="34" height="22" fill="white" transform="translate(0.442383 0.688477)"/>
</clipPath>
</defs>
</svg>
