<svg width="35" height="23" viewBox="0 0 35 23" fill="none" xmlns="http://www.w3.org/2000/svg">
<g clip-path="url(#clip0_1_6050)">
<path d="M0.409668 0.688477H34.4097V22.6885H0.409668V0.688477Z" fill="#FFDA44"/>
<path d="M0.409668 0.688477H11.743V22.6885H0.409668V0.688477Z" fill="#0052B4"/>
<path d="M23.0765 0.688477H34.4098V22.6885H23.0765V0.688477ZM13.5923 7.99608H17.3767V12.1645H13.5923V7.99608Z" fill="#D80027"/>
<path d="M18.1455 7.99609V12.1581V7.99609ZM19.2457 7.99609V12.1581V7.99609ZM20.3459 7.99609V12.1581V7.99609Z" fill="black"/>
<path d="M18.1455 7.99609V12.1581M19.2457 7.99609V12.1581M20.3459 7.99609V12.1581" stroke="#D80027" stroke-width="0.57377"/>
<path d="M16.8067 12.1646V16.3265V12.1646ZM15.9252 12.1646V16.3265V12.1646ZM15.0437 12.171V15.6382V12.171ZM14.1357 12.171V15.2008V12.171Z" fill="black"/>
<path d="M16.8067 12.1646V16.3265M15.9252 12.1646V16.3265M15.0437 12.171V15.6382M14.1357 12.171V15.2008" stroke="#D80027" stroke-width="0.409836"/>
<path d="M13.6582 10.0803L15.4874 7.99609L17.3763 10.0739L15.514 12.1581L13.6582 10.0803Z" fill="#FFDA44"/>
<path d="M12.4854 6.85742V12.7884C12.4854 14.9948 14.2947 16.275 15.7064 16.9375C15.6534 17.0276 17.37 17.4715 17.37 17.4715C17.37 17.4715 19.0865 17.0276 19.0335 16.9375C20.4518 16.275 22.2546 15.0013 22.2546 12.7884V6.85742H12.4854ZM21.0947 12.7884C21.0947 13.8756 20.4319 14.6796 18.9208 15.6124C18.3508 15.9662 17.761 16.1913 17.3766 16.32C16.9922 16.1913 16.4023 15.9662 15.8323 15.6124C14.3212 14.6796 13.6585 13.8112 13.6585 12.7884V7.99602H21.0947V12.7884Z" fill="#BC8B00"/>
<path d="M17.9331 12.8398H19.8883V13.3931H17.9331V12.8398ZM17.9331 13.972H19.8883V14.5252H17.9331V13.972Z" fill="#D80027"/>
</g>
<defs>
<clipPath id="clip0_1_6050">
<rect width="34" height="22" fill="white" transform="translate(0.409668 0.688477)"/>
</clipPath>
</defs>
</svg>
