<svg width="35" height="23" viewBox="0 0 35 23" fill="none" xmlns="http://www.w3.org/2000/svg">
<g clip-path="url(#clip0_1_6046)">
<path d="M0.278809 0.688477H34.2788V22.6885H0.278809V0.688477Z" fill="#DB3E00"/>
<path d="M22.2163 0.688477H34.2787V22.6885H22.2163V0.688477Z" fill="#479900"/>
<path d="M0.278809 0.688477H12.3279V22.6885H0.278809V0.688477Z" fill="black"/>
<path d="M17.2455 8.83887C15.9598 8.83887 14.9126 9.85524 14.9126 11.1032V14.4997H19.5785V11.1032C19.5785 9.84881 18.5313 8.83887 17.2455 8.83887Z" fill="white"/>
<path d="M17.2458 6.11133C14.0844 6.11133 11.5195 8.6008 11.5195 11.6692C11.5195 14.7376 14.0844 17.2207 17.2458 17.2207C20.4073 17.2207 22.9722 14.7312 22.9722 11.6628C22.9722 8.59437 20.4073 6.11133 17.2458 6.11133ZM17.2458 16.2558C14.6345 16.2558 12.5137 14.1973 12.5137 11.6628C12.5137 9.12829 14.6345 7.06981 17.2458 7.06981C19.8572 7.06981 21.978 9.12829 21.978 11.6628C21.978 14.2037 19.8572 16.2558 17.2458 16.2558Z" fill="white"/>
</g>
<defs>
<clipPath id="clip0_1_6046">
<rect width="34" height="22" fill="white" transform="translate(0.278809 0.688477)"/>
</clipPath>
</defs>
</svg>
