<svg width="35" height="23" viewBox="0 0 35 23" fill="none" xmlns="http://www.w3.org/2000/svg">
<g clip-path="url(#clip0_1_6045)">
<path d="M0.212891 0.688477H34.2129V22.6885H0.212891V0.688477Z" fill="black"/>
<path d="M6.09839 9.46924C5.95258 10.2991 5.87305 11.1546 5.87305 12.0295C5.87305 12.9043 5.95258 13.7663 6.09839 14.5897L17.1799 15.3745L28.2614 14.5961C28.4072 13.7663 28.4867 12.9108 28.4867 12.0359C28.4867 11.1611 28.4072 10.2991 28.2614 9.47567" fill="#0072C6"/>
<path d="M28.2611 14.7764H6.09814C7.14532 19.2664 11.7118 22.6436 17.1796 22.6436C22.6475 22.6436 27.2139 19.2664 28.2611 14.7764Z" fill="white"/>
<path d="M24.4636 9.46929H9.896L12.8718 8.11198L11.2878 5.31374L14.5221 5.91842L14.9264 2.74707L17.1798 5.07572L19.4332 2.74707L19.8375 5.91842L23.0718 5.31374L21.4878 8.11198L24.4636 9.46929Z" fill="#FFDA44"/>
<path d="M17.2129 22.6885L0.212891 0.688477V22.6885H17.2129Z" fill="#CE1126"/>
<path d="M34.2128 22.6885V0.688477L17.1797 22.6885H34.2128Z" fill="#CE1126"/>
</g>
<defs>
<clipPath id="clip0_1_6045">
<rect width="34" height="22" fill="white" transform="translate(0.212891 0.688477)"/>
</clipPath>
</defs>
</svg>
