<svg width="35" height="23" viewBox="0 0 35 23" fill="none" xmlns="http://www.w3.org/2000/svg">
<g clip-path="url(#clip0_1_6069)">
<path d="M0.278809 0.557617H34.2788V22.5576H0.278809V0.557617Z" fill="#00318B"/>
<path d="M30.4213 17.6291C30.9476 16.926 31.2988 16.0678 31.2988 15.0289V7.30513C30.6108 7.80772 29.7727 8.07895 28.9116 8.07771C27.6099 8.07771 26.4547 7.4711 25.7283 6.5332C25.0025 7.4711 23.8467 8.07771 22.545 8.07771C21.6489 8.07771 20.8225 7.79016 20.1577 7.30578V15.0289C20.1577 16.0685 20.509 16.9266 21.0352 17.6291H30.4213Z" fill="white"/>
<path d="M20.8398 17.3457C22.3258 19.6602 25.7291 20.4347 25.7291 20.4347C25.7291 20.4347 29.1324 19.6602 30.6183 17.3457H20.8398Z" fill="#8DCCFF"/>
<path d="M26.5681 11.6352C26.5893 11.7266 27.1461 12.2894 27.732 12.9314C27.8241 13.0324 27.1527 13.7439 27.274 13.7413C27.5888 13.7336 28.5511 12.631 28.5558 14.1691C28.5591 15.1945 26.5675 15.9387 26.5675 15.9387H27.7253L27.7684 16.9011C27.7684 16.9011 28.0978 16.0429 28.2714 15.8352C28.8083 15.1938 29.6089 13.9008 30.564 14.0919C31.519 14.2829 29.6586 13.1965 29.6586 13.1965C29.6586 13.1965 29.314 12.2193 28.5564 12.1048C27.8897 12.0038 27.6093 11.9434 26.7908 11.6352C26.6795 11.5934 26.5337 11.486 26.5681 11.6352Z" fill="#D87B00"/>
<path d="M24.1178 13.3387C24.1887 13.275 24.4134 12.5262 24.6937 11.7125C24.7381 11.5845 25.7084 11.7942 25.6448 11.6932C25.4811 11.432 24.0157 11.1734 25.3863 10.4015C26.3003 9.88688 27.9592 11.1908 27.9592 11.1908L27.3812 10.2169L28.219 9.70033C28.219 9.70033 27.2878 9.8515 27.0167 9.80904C26.1763 9.67781 24.6221 9.64951 24.3159 8.75086C24.0097 7.8522 23.968 9.95957 23.968 9.95957C23.968 9.95957 23.2681 10.7366 23.5438 11.4314C23.7864 12.0425 23.8725 12.3088 24.0058 13.1509C24.025 13.266 24.0018 13.4423 24.1178 13.3387Z" fill="#D87B00"/>
<path d="M26.5027 14.7011C26.4105 14.6735 25.6305 14.8613 24.7649 15.0344C24.6283 15.0614 24.3281 14.1415 24.2698 14.2457C24.1193 14.5139 24.625 15.8738 23.2485 15.1109C22.3312 14.6021 22.6593 12.5552 22.6593 12.5552L22.082 13.5291L21.2012 13.0852C21.2012 13.0852 21.8036 13.7903 21.9017 14.0399C22.2066 14.8111 22.9621 16.1299 22.3153 16.8375C21.6684 17.5457 23.5666 16.5223 23.5666 16.5223C23.5666 16.5223 24.6111 16.7197 25.091 16.1389C25.5138 15.6281 25.7073 15.4223 26.3906 14.8877C26.4854 14.8156 26.6538 14.7468 26.5027 14.7011Z" fill="#D87B00"/>
<path d="M17.2788 0.557617H15.7478L10.8831 3.70323V0.557617H6.64138V3.70323L1.77666 0.557617H0.278809V2.01785L3.33417 3.99271H0.278809V8.10966H3.33417L0.278809 10.0845V11.5576H1.77666L6.64138 8.3927V11.5576H10.8831V8.3927L15.7478 11.5576H17.2788V10.0845L14.1903 8.10966H17.2788V3.99271H14.1903L17.2788 2.01785V0.557617Z" fill="white"/>
<path d="M9.82267 0.557617H7.70181V5.02194H0.278809V7.08042H7.70181V11.5576H9.82267V7.08042H17.2788V5.02194H9.82267V0.557617Z" fill="#D80027"/>
<path d="M0.278809 11.558V10.8311L4.42111 8.11007H5.91896L0.762629 11.558H0.278809ZM0.762629 0.564453L5.91896 3.98668H4.42111L0.278809 1.27206V0.564453H0.762629ZM17.2788 0.564453V1.27206L13.1034 3.99311H11.6055L16.7619 0.564453H17.2788ZM16.7619 11.558L11.6055 8.11007H13.1034L17.2788 10.8311V11.558H16.7619Z" fill="#D80027"/>
</g>
<defs>
<clipPath id="clip0_1_6069">
<rect width="34" height="22" fill="white" transform="translate(0.278809 0.557617)"/>
</clipPath>
</defs>
</svg>
