<svg width="35" height="23" viewBox="0 0 35 23" fill="none" xmlns="http://www.w3.org/2000/svg">
<g clip-path="url(#clip0_1_6044)">
<path d="M0.180176 0.557617H34.1802V22.5576H0.180176V0.557617Z" fill="#ED2024"/>
<path d="M12.458 5.03077V10.8974L15.1402 11.8141L13.2513 13.6108L14.158 14.7108L16.1602 12.6941L16.6136 13.5374L15.4802 15.3341L16.8402 17.3874L16.1602 18.3408L17.218 19.6608L18.238 18.3041L17.6713 17.3508L18.8047 15.2241L17.7847 13.5374L18.238 12.6941L20.2025 14.7108L21.1469 13.6474L19.1825 11.7774L21.9025 10.8241V5.03077L19.938 5.72744L19.9002 7.12077L18.6536 7.23077V6.27744L19.2958 5.4341L21.4113 4.62744L20.5425 4.48077L21.0713 4.04077L21.4113 4.18743L21.1091 3.6741L20.5802 3.85743L20.2025 3.4541L18.1247 3.85743L18.6536 4.26077L17.218 6.05744L15.7825 4.29743L16.2736 3.8941L14.3847 3.4541L13.8558 3.85743L13.2891 3.71077L12.9869 4.2241L13.3269 4.0041L13.9313 4.40743L13.0625 4.59077L15.1402 5.3241L15.7447 6.16744V7.23077L14.498 7.12077V5.80077L12.458 5.03077Z" fill="#212121"/>
<path d="M10.0781 9.72436H12.4959V10.641H10.0781V9.72436ZM10.0781 8.22102H12.4959V9.21102H10.0781V8.22102ZM10.0781 6.68102H12.4959V7.63436H10.0781V6.68102ZM10.0781 5.21436H12.4959V6.13102H10.0781V5.21436Z" fill="#212121"/>
<path d="M21.8647 9.72436H24.2825V10.641H21.8647V9.72436ZM21.8647 8.22102H24.2825V9.21102H21.8647V8.22102ZM21.8647 6.68102H24.2825V7.63436H21.8647V6.68102ZM21.8647 5.21436H24.2825V6.13102H21.8647V5.21436Z" fill="#212121"/>
<path d="M20.3533 13.7944H22.7711V14.4911H20.3533V13.7944ZM11.5889 13.7944H14.0066V14.4911H11.5889V13.7944Z" fill="#212121"/>
</g>
<defs>
<clipPath id="clip0_1_6044">
<rect width="34" height="22" fill="white" transform="translate(0.180176 0.557617)"/>
</clipPath>
</defs>
</svg>
