<svg width="35" height="23" viewBox="0 0 35 23" fill="none" xmlns="http://www.w3.org/2000/svg">
<g clip-path="url(#clip0_1_6203)">
<path d="M0.0820312 11.5576H34.082V22.5576H0.0820312V11.5576Z" fill="black"/>
<path d="M0.0820312 0.557617H34.082V11.5576H0.0820312V0.557617Z" fill="#D80027"/>
<path d="M22.1322 9.28023L23.292 8.72701L22.8016 7.50479L21.5622 7.90362L22.1322 9.28023ZM19.11 5.67789L19.4745 4.46853L18.2086 4.00537L17.6784 5.16327L19.11 5.67789ZM21.0585 7.17028L21.8671 6.18607L20.8795 5.29192L19.9384 6.16677L21.0585 7.17028ZM22.3443 11.6024L23.6367 11.551V10.1808L22.1189 10.1937L22.3443 11.6024ZM21.5092 14.0533L22.7552 14.4071L23.239 13.1849L22.046 12.6703L21.5092 14.0533ZM19.5871 16.1375L20.5747 16.9545L21.5291 16.0282L20.6608 15.0826L19.5871 16.1375ZM16.4721 6.63637L17.1217 7.91648L18.5731 8.12876L17.5193 9.12584L17.7579 10.5346L16.4589 9.8656L15.1532 10.5217L15.4051 9.11297L14.3579 8.1159L15.816 7.91648L16.4721 6.63637Z" fill="#FFDA44"/>
<path d="M16.7042 4.50049L16.5252 5.67768C19.3818 5.88353 21.6285 8.19932 21.6285 11.0233C21.6285 13.9824 19.1564 16.356 16.1011 16.3882C14.1658 16.4075 12.7011 15.4362 11.6605 14.2204L10.7393 15.0116C11.7334 16.2338 13.4434 17.5783 16.1011 17.5783C19.8324 17.5783 22.8547 14.6449 22.8547 11.0233C22.8613 7.60107 20.1572 4.78996 16.7042 4.50049Z" fill="#FFDA44"/>
<path d="M19.4281 14.9282L18.646 15.8288C18.646 15.8288 22.0858 18.3311 22.1984 18.4276C22.3111 18.5241 22.5431 18.5563 22.8016 18.254C23.0468 17.9645 22.9871 17.7329 22.8612 17.63C22.7286 17.5335 19.4281 14.9282 19.4281 14.9282Z" fill="black"/>
<path d="M13.7417 10.6699C13.2313 11.3325 13.2446 12.1559 13.9272 12.6576C13.9272 12.6576 22.8879 19.1869 23.0005 19.2834C23.1132 19.3799 23.3452 19.412 23.6037 19.1097C23.8489 18.8202 23.7892 18.5886 23.6633 18.4857C23.5374 18.3892 13.7417 10.6699 13.7417 10.6699ZM16.9031 17.0448L17.3869 18.2155L18.6793 17.8296L18.3612 16.6009L16.9031 17.0448ZM14.2255 16.8068L14.0929 18.0612L15.4251 18.2927L15.7233 17.0641L14.2255 16.8068ZM11.8594 15.443L11.1768 16.5109L12.2637 17.2892L13.0922 16.3114L11.8594 15.443Z" fill="#FFDA44"/>
</g>
<defs>
<clipPath id="clip0_1_6203">
<rect width="34" height="22" fill="white" transform="translate(0.0820312 0.557617)"/>
</clipPath>
</defs>
</svg>
