<svg width="35" height="23" viewBox="0 0 35 23" fill="none" xmlns="http://www.w3.org/2000/svg">
<g clip-path="url(#clip0_1_6040)">
<path d="M0.409668 0.557617H34.4097V22.5576H0.409668V0.557617Z" fill="#10338C"/>
<path d="M34.4097 2.68042L6.72585 11.5576L34.4097 20.548V22.5145L0.409668 11.5576L34.4097 0.557617V2.68042Z" fill="#D80027"/>
<path d="M34.4095 19.031V20.6122L5.82568 11.5575L34.4095 2.4873V4.04146" fill="white"/>
<path d="M32.0225 9.57717L30.5717 10.2642L30.3609 9.2787L32.4281 7.36367C32.4281 7.36367 31.8038 4.74875 31.5168 4.47021L24.0726 8.06098L23.6193 10.4257L21.505 12.2648L21.4785 14.4648L23.7511 13.0007L28.2069 12.8296L28.1069 15.2811H29.5802L30.3689 12.4095L32.4599 10.8264L32.0225 9.57717Z" fill="#A2001D"/>
<path d="M21.4784 15.8937L20.0044 15.179L21.4784 14.4644H31.0527V15.8937H21.4784Z" fill="#EFC100" stroke="#231F20" stroke-width="0.0819672" stroke-miterlimit="10"/>
</g>
<defs>
<clipPath id="clip0_1_6040">
<rect width="34" height="22" fill="white" transform="translate(0.409668 0.557617)"/>
</clipPath>
</defs>
</svg>
