<svg width="35" height="23" viewBox="0 0 35 23" fill="none" xmlns="http://www.w3.org/2000/svg">
<g clip-path="url(#clip0_1_6039)">
<path d="M0.344238 0.557617H34.3442V22.5576H0.344238V0.557617Z" fill="#10338C"/>
<path d="M15.071 11.5385C15.0908 11.5192 15.1041 11.4999 15.124 11.4806C15.1107 11.4999 15.0908 11.5192 15.071 11.5385ZM12.8043 14.2338L13.5333 15.7069L15.1704 15.3402L14.4413 16.8069L15.7602 17.8233L14.1166 18.1835L14.1232 19.8174L12.8043 18.7946L11.492 19.8174L11.4986 18.1835L9.85498 17.8233L11.1739 16.8069L10.4382 15.3402L12.0819 15.7069L12.8043 14.2338ZM25.9205 16.0672L26.2651 16.7683L27.0472 16.5946L26.6959 17.2958L27.3255 17.7783L26.5435 17.9455V18.7303L25.9205 18.2414L25.2908 18.7303L25.2975 17.9455L24.5154 17.7783L25.145 17.2958L24.7938 16.5946L25.5758 16.7683L25.9205 16.0672ZM22.6994 8.60516L23.0441 9.30633L23.8261 9.13265L23.4749 9.83381L24.1045 10.3163L23.3224 10.49V11.2683L22.6994 10.7794L22.0698 11.2683L22.0764 10.49L21.2877 10.3163L21.9174 9.83381L21.5661 9.13265L22.3482 9.30633L22.6994 8.60516ZM25.9205 4.34668L26.2651 5.04785L27.0472 4.87416L26.6959 5.57533L27.3255 6.05779L26.5435 6.23147V7.00984L25.9205 6.52095L25.2908 7.00984L25.2975 6.23147L24.5154 6.05779L25.145 5.57533L24.7938 4.87416L25.5758 5.04785L25.9205 4.34668ZM28.7372 7.54376L29.0819 8.24493L29.8639 8.07124L29.5127 8.77241L30.1423 9.25487L29.3602 9.42212V10.2069L28.7372 9.71802L28.1076 10.2069V9.42212L27.3255 9.25487L27.9552 8.77241L27.6039 8.07124L28.386 8.24493L28.7372 7.54376ZM26.7224 11.2683L26.9942 12.0853H27.8756L27.1599 12.587L27.4382 13.404L26.7224 12.8958L26.0066 13.404L26.2784 12.587L25.5692 12.0853H26.4507L26.7224 11.2683Z" fill="white"/>
<path d="M17.2315 0.557617V2.52604L14.2424 4.14066H17.2315V7.95528H13.3146L17.2315 10.0652V11.5383H15.4619L10.5906 8.90732V11.5383H6.90558V8.412L1.11299 11.5383H0.264648V9.5699L3.26036 7.95528H0.264648V4.14066H4.18161L0.264648 2.02428V0.557617H2.03424L6.90558 3.18218V0.557617H10.5906V3.68393L16.3898 0.557617H17.2315Z" fill="white"/>
<path d="M9.80851 0.557617H7.68765V5.01551H0.264648V7.07399H7.68765V11.5383H9.80851V7.07399H17.2315V5.01551H9.80851V0.557617Z" fill="#D80027"/>
<path d="M10.5908 7.95508L17.2318 11.5381V10.5217L12.4731 7.95508H10.5908Z" fill="#0052B4"/>
<path d="M10.5908 7.95508L17.2318 11.5381V10.5217L12.4731 7.95508H10.5908Z" fill="white"/>
<path d="M10.5906 7.95508L17.2315 11.5381V10.5217L12.4728 7.95508H10.5906ZM5.02995 7.95508L0.264648 10.5217V11.5381L6.90558 7.95508H5.02995Z" fill="#D80027"/>
<path d="M6.90558 4.14066L0.264648 0.557617V1.56756L5.02995 4.14066H6.90558Z" fill="#0052B4"/>
<path d="M6.90558 4.14066L0.264648 0.557617V1.56756L5.02995 4.14066H6.90558Z" fill="white"/>
<path d="M6.90558 4.14066L0.264648 0.557617V1.56756L5.02995 4.14066H6.90558ZM12.4728 4.14066L17.2315 1.56756V0.557617L10.5906 4.14066H12.4728Z" fill="#D80027"/>
</g>
<defs>
<clipPath id="clip0_1_6039">
<rect width="34" height="22" fill="white" transform="translate(0.344238 0.557617)"/>
</clipPath>
</defs>
</svg>
