<svg width="35" height="23" viewBox="0 0 35 23" fill="none" xmlns="http://www.w3.org/2000/svg">
<g clip-path="url(#clip0_1_6038)">
<path d="M0.311523 0.557617H34.3115V22.5576H0.311523V0.557617Z" fill="#338AF3"/>
<path d="M5.65046 9.36692L1.68848 7.66692L5.65046 5.97601L7.39261 2.13965L9.13476 5.97601L13.0967 7.66692L9.13476 9.36692L7.39261 13.2033L5.65046 9.36692Z" fill="white"/>
<path d="M7.39237 4.24854L8.4695 6.62126L10.9141 7.66672L8.4695 8.71217L7.39237 11.0849L6.31523 8.71217L3.87061 7.66672L6.31523 6.62126L7.39237 4.24854Z" fill="#F30028"/>
<path d="M0.311523 14.394H34.3115V15.8213H0.311523V14.394ZM0.311523 17.2486H34.3115V18.6759H0.311523V17.2486Z" fill="#FFDA44"/>
</g>
<defs>
<clipPath id="clip0_1_6038">
<rect width="34" height="22" fill="white" transform="translate(0.311523 0.557617)"/>
</clipPath>
</defs>
</svg>
