<svg width="35" height="23" viewBox="0 0 35 23" fill="none" xmlns="http://www.w3.org/2000/svg">
<g clip-path="url(#clip0_1_6036)">
<path d="M0.212891 0.557617H34.2129V22.5576H0.212891V0.557617Z" fill="#EF3340"/>
<path d="M0.212891 0.557617H34.2129V7.89095H0.212891V0.557617Z" fill="#00B5E2"/>
<path d="M0.212891 15.2241H34.2129V22.5575H0.212891V15.2241Z" fill="#509E2F"/>
<path d="M17.8161 14.2338C16.2917 14.2338 15.059 13.0373 15.059 11.5577C15.059 10.0782 16.2917 8.8817 17.8161 8.8817C18.2933 8.8817 18.7374 8.99749 19.1284 9.20334C18.5186 8.62439 17.6769 8.26416 16.7557 8.26416C14.88 8.26416 13.3623 9.73726 13.3623 11.5577C13.3623 13.3782 14.88 14.8513 16.7557 14.8513C17.6769 14.8513 18.5186 14.4911 19.1284 13.9121C18.7374 14.118 18.2933 14.2338 17.8161 14.2338Z" fill="white"/>
<path d="M19.9371 9.70508L20.3016 10.7022L21.2891 10.2454L20.8186 11.2039L21.8459 11.5577L20.8186 11.9115L21.2891 12.87L20.3016 12.4133L19.9371 13.4103L19.5726 12.4133L18.585 12.87L19.0556 11.9115L18.0283 11.5577L19.0556 11.2039L18.585 10.2454L19.5726 10.7022L19.9371 9.70508Z" fill="white"/>
</g>
<defs>
<clipPath id="clip0_1_6036">
<rect width="34" height="22" fill="white" transform="translate(0.212891 0.557617)"/>
</clipPath>
</defs>
</svg>
