<svg width="35" height="23" viewBox="0 0 35 23" fill="none" xmlns="http://www.w3.org/2000/svg">
<g clip-path="url(#clip0_1_6035)">
<path d="M0.114746 0.557617H34.1214V22.5576H0.114746V0.557617Z" fill="#10338C"/>
<path d="M6.73584 0.557617H29.4025V22.5576" fill="#F6C500"/>
<path d="M1.43359 1.91493L2.78564 0.956448L4.15094 1.90849L3.69363 0.557617H1.88428L1.43359 1.91493Z" fill="white"/>
<path d="M6.232 2.19784L5.70841 0.641113L5.19145 2.19784H3.51465L4.87332 3.14989L4.35636 4.69375L5.70841 3.7417L7.07371 4.69375L6.55013 3.14989L7.9088 2.19141L6.232 2.19784Z" fill="white"/>
<path d="M9.14843 5.00919L8.63147 3.46533L8.11451 5.00919H6.44434L7.79638 5.96767L7.27942 7.51153L8.63147 6.55948L9.99677 7.51153L9.47981 5.96767L10.8319 5.00919H9.14843Z" fill="white"/>
<path d="M12.0047 7.78174L11.4877 6.23145L10.9707 7.78174H9.29395L10.6526 8.74022L10.1357 10.2841L11.4877 9.33203L12.853 10.2841L12.3294 8.74022L13.6881 7.77531L12.0047 7.78174Z" fill="white"/>
<path d="M14.8614 10.5478L14.3444 9.00391L13.8275 10.5478H12.144L13.5093 11.5127L12.9924 13.0565L14.3444 12.0981L15.6965 13.0565L15.1795 11.5127L16.5448 10.5478H14.8614Z" fill="white"/>
<path d="M17.7178 13.3202L17.2009 11.7764L16.6839 13.3202H15.0005L16.3658 14.2787L15.8488 15.829L17.2009 14.8705L18.5529 15.829L18.036 14.2723L19.3946 13.3202H17.7178Z" fill="white"/>
<path d="M20.5743 16.0927L20.0507 14.5488L19.5337 16.0927H17.8569L19.2156 17.0447L18.692 18.6015L20.0573 17.643L21.4094 18.595L20.8924 17.0447L22.2511 16.0927H20.5743Z" fill="white"/>
<path d="M23.4241 18.8653L22.9071 17.3086L22.3902 18.8653H20.7134L22.0654 19.8174L21.5485 21.3677L22.9071 20.4092L24.2658 21.3677L23.7489 19.8174L25.1009 18.8653H23.4241Z" fill="white"/>
<path d="M25.7639 20.0811L25.2403 21.6313L23.5635 21.6378L24.8758 22.5577H26.6387L27.9576 21.6313H26.2808L25.7639 20.0811Z" fill="white"/>
</g>
<defs>
<clipPath id="clip0_1_6035">
<rect width="34" height="22" fill="white" transform="translate(0.114746 0.557617)"/>
</clipPath>
</defs>
</svg>
