<svg width="35" height="23" viewBox="0 0 35 23" fill="none" xmlns="http://www.w3.org/2000/svg">
<g clip-path="url(#clip0_1_6034)">
<path d="M0.147461 0.344238H34.1475V22.3442H0.147461V0.344238Z" fill="#FFC726"/>
<path d="M0.147461 0.344238H11.4808V22.3442H0.147461V0.344238ZM22.8141 0.344238H34.1475V22.3442H22.8141V0.344238Z" fill="#00267F"/>
<path d="M21.7367 6.84284L19.6178 7.6405C19.5727 7.72734 19.234 8.12553 19.0756 11.0537H17.9456V7.16705L17.1145 5.40576L16.2834 7.1426V11.0537H15.1527C14.9943 8.12488 14.6358 7.67781 14.5913 7.59032L12.4917 6.84219C12.5016 6.86214 13.5124 8.85822 13.5124 11.8604V12.667H16.2834V17.2388H17.9456V12.667H20.7167V11.8604C20.7167 10.3082 20.993 9.02869 21.2257 8.22845C21.4788 7.35553 21.736 6.84605 21.7386 6.84091L21.7367 6.84284Z" fill="black"/>
</g>
<defs>
<clipPath id="clip0_1_6034">
<rect width="34" height="22" fill="white" transform="translate(0.147461 0.344238)"/>
</clipPath>
</defs>
</svg>
