<svg width="35" height="23" viewBox="0 0 35 23" fill="none" xmlns="http://www.w3.org/2000/svg">
<g clip-path="url(#clip0_1_6030)">
<path d="M0.278809 0.344238H34.2788V22.3442H0.278809V0.344238Z" fill="#D80027"/>
<path d="M14.588 11.3251L0.278809 20.5818V2.06836L14.588 11.3251ZM34.2788 2.06836V20.5818L19.9696 11.3251L34.2788 2.06836Z" fill="#47A644"/>
<path d="M34.2125 2.06821L19.9034 11.3249L34.2125 20.5817V22.2992H31.5548L17.2457 13.0425L2.93651 22.2992H0.278809V20.5817L14.588 11.3249L0.278809 2.06821V0.344238H2.93651L17.2457 9.60096L31.5548 0.344238H34.2125V2.06821Z" fill="#0052B4"/>
<path d="M34.2788 2.06821L19.9696 11.3249L34.2788 20.5817V22.3442H31.6277L17.2457 13.0425L2.8636 22.3442H0.278809V20.5817L14.588 11.3249L0.278809 2.06821V0.344238H2.93651L17.2457 9.60096L31.5548 0.344238H34.2788V2.06821Z" fill="white"/>
<path d="M16.9539 17.7706C20.6216 17.7706 23.5949 14.8848 23.5949 11.325C23.5949 7.76519 20.6216 4.87939 16.9539 4.87939C13.2862 4.87939 10.313 7.76519 10.313 11.325C10.313 14.8848 13.2862 17.7706 16.9539 17.7706Z" fill="white"/>
<path d="M16.9407 7.00879L17.4311 7.83861H18.412L17.9216 8.66201L18.412 9.4854H17.4311L16.9407 10.3152L16.4502 9.4854H15.4693L15.9598 8.66201L15.4693 7.83861H16.4502L16.9407 7.00879ZM19.5122 11.2994L20.0027 12.1293H20.9836L20.4931 12.9526L20.9836 13.776H20.0027L19.5122 14.6059L19.0218 13.776H18.0343L18.5247 12.9526L18.0343 12.1293H19.0218L19.5122 11.2994ZM14.3957 11.2994L14.8861 12.1293H15.8736L15.3832 12.9526L15.8736 13.776H14.8861L14.3957 14.6059L13.9052 13.776H12.9243L13.4148 12.9526L12.9243 12.1293H13.9052L14.3957 11.2994Z" fill="#D80027" stroke="#47A644" stroke-width="0.245902"/>
</g>
<defs>
<clipPath id="clip0_1_6030">
<rect width="34" height="22" fill="white" transform="translate(0.278809 0.344238)"/>
</clipPath>
</defs>
</svg>
