<svg width="35" height="23" viewBox="0 0 35 23" fill="none" xmlns="http://www.w3.org/2000/svg">
<g clip-path="url(#clip0_1_6028)">
<path d="M0.246094 0.344238H34.2461V22.3442H0.246094V0.344238Z" fill="white"/>
<path d="M10.6923 13.2197C10.6923 13.2197 10.092 16.0512 9.41004 15.823C8.70481 15.5948 8.24594 14.6138 8.24594 14.6138L7.28172 15.9828C7.28172 15.9828 9.81711 16.5294 10.005 16.3354C10.0861 16.2619 10.5502 15.3622 10.6917 14.6564V13.2197H10.6923ZM6.96496 17.1237C6.96496 17.1237 6.80027 18.4244 6.89457 18.5842C6.97691 18.7324 9.51629 19.3145 9.51629 19.3145C9.51629 19.3145 7.85879 20.3754 7.54137 20.6383L6.34207 18.7099L6.29492 17.1237H6.96496ZM7.71734 6.44434C7.71734 6.44434 10.3504 9.12561 10.3975 9.37698C10.4446 9.61675 10.1153 9.58259 10.1153 9.58259C10.1153 9.58259 7.14094 7.16364 6.80027 6.93547C6.44766 6.70666 7.71734 6.44434 7.71734 6.44434Z" fill="#E6BC00"/>
<path d="M6.84757 7.09453C6.84757 7.09453 7.97581 7.04877 7.95257 6.35267C7.92933 5.66817 7.21214 5.39424 6.68288 5.55409C6.15362 5.70233 5.15487 6.42099 5.77776 7.81319C6.40065 9.19379 7.32968 9.70749 7.51761 10.8941C7.51761 10.8941 7.15503 11.5296 6.24792 10.9166C5.12565 10.158 5.8362 8.45193 5.55464 8.0188C5.27241 7.56247 2.8353 5.51026 2.8353 5.51026C2.8353 5.51026 0.827178 8.04781 1.63999 10.3391C2.76558 13.5109 5.07585 12.4004 5.9305 12.7085C5.9305 12.7085 3.1328 16.702 2.63874 17.0327C2.63874 17.0327 4.2378 17.5689 5.81296 15.8235C5.81296 15.8235 6.20077 16.4513 6.28312 17.1242H6.96511C7.28253 15.4355 10.3857 12.9824 10.2801 11.8183C10.1626 10.4487 7.01226 8.63498 6.84757 7.09453Z" fill="#ADADAD"/>
<path d="M24.0974 13.317C24.0974 13.317 24.6924 16.0518 25.3744 15.8236C26.0796 15.5955 26.5385 14.6145 26.5385 14.6145L27.5027 15.9835C27.5027 15.9835 25.0457 16.5301 24.8578 16.3361C24.7774 16.2626 24.2389 15.4472 24.0928 14.7466L24.0974 13.317ZM27.8195 17.1237C27.8195 17.1237 27.9842 18.4244 27.8899 18.5842C27.8075 18.7324 25.2682 19.3145 25.2682 19.3145C25.2682 19.3145 26.9257 20.3754 27.2431 20.6383L28.4424 18.7099L28.4895 17.1237H27.8195ZM27.0671 6.44434C27.0671 6.44434 24.4341 9.12561 24.387 9.37698C24.3398 9.61675 24.6692 9.58259 24.6692 9.58259C24.6692 9.58259 27.6435 7.16364 27.9842 6.93547C28.3255 6.70666 27.0671 6.44434 27.0671 6.44434Z" fill="#E6BC00"/>
<path d="M10.6924 5.95557H24.0925V15.331C24.0925 16.3661 23.449 16.7097 22.6375 17.3839L19.5882 19.924C18.3763 20.9308 16.4066 20.9275 15.2007 19.924L12.1454 17.3826C11.3432 16.7155 10.6924 16.37 10.6924 15.3317V5.95557Z" fill="#125ECC"/>
<path d="M13.5638 9.86488C13.0353 9.86488 12.6069 9.44916 12.6069 8.9361C12.6069 8.42305 13.0353 8.00733 13.5638 8.00733C14.0924 8.00733 14.5208 8.42305 14.5208 8.9361C14.5208 9.44916 14.0924 9.86488 13.5638 9.86488ZM17.3922 9.67152C16.8636 9.67152 16.4353 9.2558 16.4353 8.74274C16.4353 8.22969 16.8636 7.81396 17.3922 7.81396C17.9208 7.81396 18.3491 8.22969 18.3491 8.74274C18.3491 9.2558 17.9208 9.67152 17.3922 9.67152ZM21.2205 9.86488C20.6919 9.86488 20.2636 9.44916 20.2636 8.9361C20.2636 8.42305 20.6919 8.00733 21.2205 8.00733C21.7491 8.00733 22.1774 8.42305 22.1774 8.9361C22.1774 9.44916 21.7491 9.86488 21.2205 9.86488ZM14.5208 18.0325C13.9922 18.0325 13.5638 17.6167 13.5638 17.1037C13.5638 16.5906 13.9922 16.1749 14.5208 16.1749C15.0494 16.1749 15.4777 16.5906 15.4777 17.1037C15.4783 17.6167 15.0494 18.0325 14.5208 18.0325ZM17.3922 18.9619C16.8636 18.9619 16.4353 18.5462 16.4353 18.0331C16.4353 17.5201 16.8636 17.1043 17.3922 17.1043C17.9208 17.1043 18.3491 17.5201 18.3491 18.0331C18.3491 18.5455 17.9208 18.9619 17.3922 18.9619ZM20.2636 18.0325C19.735 18.0325 19.3067 17.6167 19.3067 17.1037C19.3067 16.5906 19.735 16.1749 20.2636 16.1749C20.7922 16.1749 21.2205 16.5906 21.2205 17.1037C21.2205 17.6167 20.7922 18.0325 20.2636 18.0325Z" fill="#FFE600"/>
<path d="M10.6924 11.647H24.0925V15.3627H10.6924V11.647Z" fill="#D60537"/>
<path d="M9.73535 3.16852C9.73535 3.16852 13.5637 2.23975 17.3927 2.23975C21.2216 2.23975 25.05 3.16852 25.05 3.16852L24.093 6.88428C24.093 6.88428 20.7429 5.95551 17.3933 5.95551C14.0438 5.95551 10.6936 6.88428 10.6936 6.88428L9.73535 3.16852Z" fill="#EACE00"/>
<path d="M17.3922 5.02699C16.8636 5.02699 16.4353 4.61126 16.4353 4.09821C16.4353 3.58516 16.8636 3.16943 17.3922 3.16943C17.9208 3.16943 18.3491 3.58516 18.3491 4.09821C18.3491 4.61126 17.9208 5.02699 17.3922 5.02699ZM21.2205 5.34926C20.6919 5.34926 20.2636 4.93353 20.2636 4.42048C20.2636 3.90743 20.6919 3.4917 21.2205 3.4917C21.7491 3.4917 22.1774 3.90743 22.1774 4.42048C22.1774 4.93353 21.7491 5.34926 21.2205 5.34926ZM13.5638 5.34926C13.0353 5.34926 12.6069 4.93353 12.6069 4.42048C12.6069 3.90743 13.0353 3.4917 13.5638 3.4917C14.0924 3.4917 14.5208 3.90743 14.5208 4.42048C14.5208 4.93353 14.0924 5.34926 13.5638 5.34926Z" fill="#7A6920"/>
<path d="M24.4894 11.8183C24.3839 12.9824 27.487 15.4355 27.8045 17.1242H28.4864C28.5688 16.4513 28.9566 15.8235 28.9566 15.8235C30.5318 17.5696 32.1308 17.0327 32.1308 17.0327C31.6368 16.702 28.8391 12.7085 28.8391 12.7085C29.6944 12.4004 32.0046 13.5109 33.1296 10.3391C33.9424 8.04781 31.9343 5.51026 31.9343 5.51026C31.9343 5.51026 29.4971 7.56247 29.2149 8.0188C28.9327 8.45257 29.6439 10.1587 28.5216 10.9166C27.6145 11.5296 27.252 10.8941 27.252 10.8941C27.4399 9.70749 28.3689 9.19379 28.9918 7.81319C29.6147 6.42099 28.6159 5.70233 28.0867 5.55409C27.5574 5.39424 26.8409 5.66817 26.817 6.35267C26.7937 7.04877 27.922 7.09453 27.922 7.09453C27.7573 8.63498 24.607 10.4487 24.4894 11.8183Z" fill="#ADADAD"/>
<path d="M17.3923 14.5965C18.0132 14.5965 18.5166 14.1079 18.5166 13.5053C18.5166 12.9026 18.0132 12.4141 17.3923 12.4141C16.7714 12.4141 16.2681 12.9026 16.2681 13.5053C16.2681 14.1079 16.7714 14.5965 17.3923 14.5965Z" fill="white"/>
</g>
<defs>
<clipPath id="clip0_1_6028">
<rect width="34" height="22" fill="white" transform="translate(0.246094 0.344238)"/>
</clipPath>
</defs>
</svg>
