<svg width="35" height="23" viewBox="0 0 35 23" fill="none" xmlns="http://www.w3.org/2000/svg">
<g clip-path="url(#clip0_1_6027)">
<path d="M0.180176 0.344238H34.1802V22.3442H0.180176V0.344238Z" fill="#C8102E"/>
<path d="M0.180176 0.351074H17.1802V11.3511H0.180176V0.351074Z" fill="#012169"/>
<path d="M17.147 0.344238H15.6492L10.7845 3.48985V0.344238H6.54275V3.48985L1.67803 0.344238H0.180176V1.80447L3.23554 3.77933H0.180176V7.89629H3.23554L0.180176 9.87114V11.3249H1.67803L6.54275 8.17933V11.3249H10.7845V8.17933L15.6492 11.3249H17.147V9.87114L14.0917 7.89629H17.147V3.77933H14.0917L17.147 1.80447V0.344238Z" fill="white"/>
<path d="M9.72404 0.344238H7.60318V4.80857H0.180176V6.86705H7.60318V11.3249H9.72404V6.86705H17.147V4.80857H9.72404V0.344238Z" fill="#C8102E"/>
<path d="M0.180176 11.3253V10.6177L4.32248 7.89669H5.82033L0.663996 11.3253H0.180176ZM0.663996 0.351074L5.82033 3.7733H4.32248L0.180176 1.05868V0.351074H0.663996ZM17.147 0.351074V1.05868L13.0047 3.77973H11.5069L16.6632 0.351074H17.147ZM16.6632 11.3253L11.5069 7.89669H13.0047L17.147 10.6177V11.3253H16.6632Z" fill="#C8102E"/>
<path d="M21.1831 6.77295V13.1858C21.1831 17.0332 26.4687 19.5986 26.4687 19.5986C26.4687 19.5986 31.7543 17.0332 31.7543 13.1858V6.77295H21.1831Z" fill="white"/>
<path d="M29.9628 17.0332H22.9746C24.5076 18.6465 26.4687 19.5986 26.4687 19.5986C26.4687 19.5986 28.4299 18.6465 29.9628 17.0332Z" fill="#2F8F22"/>
<path d="M26.4688 17.0331C27.9286 17.0331 29.1119 15.8845 29.1119 14.4677C29.1119 13.0509 27.9286 11.9023 26.4688 11.9023C25.009 11.9023 23.8257 13.0509 23.8257 14.4677C23.8257 15.8845 25.009 17.0331 26.4688 17.0331Z" fill="#65B5D2"/>
<path d="M23.8255 14.4687C24.5553 14.4687 25.147 13.8944 25.147 13.186C25.147 12.4776 24.5553 11.9033 23.8255 11.9033C23.0956 11.9033 22.5039 12.4776 22.5039 13.186C22.5039 13.8944 23.0956 14.4687 23.8255 14.4687Z" fill="#C8102E"/>
<path d="M29.1111 14.4687C29.841 14.4687 30.4327 13.8944 30.4327 13.186C30.4327 12.4776 29.841 11.9033 29.1111 11.9033C28.3812 11.9033 27.7896 12.4776 27.7896 13.186C27.7896 13.8944 28.3812 14.4687 29.1111 14.4687Z" fill="#C8102E"/>
<path d="M26.4685 11.9033C27.1984 11.9033 27.7901 11.329 27.7901 10.6206C27.7901 9.91217 27.1984 9.33789 26.4685 9.33789C25.7387 9.33789 25.147 9.91217 25.147 10.6206C25.147 11.329 25.7387 11.9033 26.4685 11.9033Z" fill="#C8102E"/>
</g>
<defs>
<clipPath id="clip0_1_6027">
<rect width="34" height="22" fill="white" transform="translate(0.180176 0.344238)"/>
</clipPath>
</defs>
</svg>
