<svg width="35" height="23" viewBox="0 0 35 23" fill="none" xmlns="http://www.w3.org/2000/svg">
<g clip-path="url(#clip0_1_6180)">
<path d="M0.114746 0.344238H34.1147V22.3442H0.114746V0.344238Z" fill="#FFDA44"/>
<path d="M0.114746 12.8317L34.1147 21.0295V14.1543L0.114746 6.60156V12.8317Z" fill="black"/>
<path d="M34.1147 15.4431V9.8569L0.114746 1.65967V7.24587" fill="white"/>
<path d="M20.4619 8.98173C20.7272 9.45708 20.8657 9.9893 20.8649 10.5299C20.8649 11.9189 19.9678 13.1042 18.7054 13.5715V9.73584C19.0839 9.65914 19.3695 9.32527 19.3695 8.92437C19.8277 8.92437 20.1996 8.55376 20.1996 8.09614H20.1717C20.6299 8.09614 21.029 7.72553 21.029 7.26791H18.7054V5.28015L17.71 3.49414L16.7139 5.28015V7.26791H14.3903C14.3903 7.72553 14.7894 8.09614 15.2476 8.09614H15.2197C15.2197 8.55376 15.5916 8.92437 16.0498 8.92437C16.0498 9.32527 16.3347 9.65914 16.7132 9.73584V13.6914C15.2463 13.344 14.1579 12.0607 14.1579 10.5299C14.1579 9.96917 14.304 9.44193 14.561 8.98173C13.8332 9.70426 13.3843 10.6917 13.3843 11.7816C13.3843 13.9937 15.2317 15.7874 17.5114 15.7874C19.7912 15.7874 21.6386 13.9937 21.6386 11.7816C21.6386 10.6917 21.189 9.70362 20.4619 8.98173Z" fill="#D80027" stroke="#231F20" stroke-width="0.245902" stroke-miterlimit="10"/>
<path d="M13.2939 14.963C13.2939 14.963 14.6679 16.749 17.7099 16.749C20.752 16.749 22.1259 14.963 22.1259 14.963L23.0204 16.7916C23.0204 16.7916 21.6239 18.5776 17.7099 18.5776C13.7959 18.5776 12.3994 16.7916 12.3994 16.7916L13.2939 14.963ZM8.69727 8.92822H10.0838L11.7393 10.6852V15.4194H9.99418V11.0127L8.69727 8.92822ZM26.6774 8.92822H25.2909L23.6354 10.6852V15.4194H25.3798V11.0127L26.6774 8.92822Z" fill="#D80027" stroke="#231F20" stroke-width="0.245902" stroke-miterlimit="10"/>
</g>
<defs>
<clipPath id="clip0_1_6180">
<rect width="34" height="22" fill="white" transform="translate(0.114746 0.344238)"/>
</clipPath>
</defs>
</svg>
