<svg width="35" height="23" viewBox="0 0 35 23" fill="none" xmlns="http://www.w3.org/2000/svg">
<g clip-path="url(#clip0_1_6026)">
<path d="M0.409668 0.344238H34.4097V22.3442H0.409668V0.344238Z" fill="white"/>
<path d="M0.409668 22.3442H34.4097V0.344238L0.409668 22.3442Z" fill="#012A87"/>
<path d="M17.0378 0.344238H0.409668V11.1025L17.0378 0.344238Z" fill="#F9D90F"/>
<path d="M9.73301 7.96973L10.5432 9.33627H12.1701L11.3533 10.6964L12.1701 12.0629H10.5432L9.73301 13.4294L8.92285 12.0629H7.2959L8.1127 10.6964L7.2959 9.33627H8.92285L9.73301 7.96973Z" fill="#DC171D"/>
<path d="M9.73301 14.4157C11.8492 14.4157 13.5647 12.7505 13.5647 10.6964C13.5647 8.64224 11.8492 6.97705 9.73301 6.97705C7.61685 6.97705 5.90137 8.64224 5.90137 10.6964C5.90137 12.7505 7.61685 14.4157 9.73301 14.4157Z" stroke="black" stroke-width="0.737705" stroke-miterlimit="10"/>
</g>
<defs>
<clipPath id="clip0_1_6026">
<rect width="34" height="22" fill="white" transform="translate(0.409668 0.344238)"/>
</clipPath>
</defs>
</svg>
