<svg width="35" height="23" viewBox="0 0 35 23" fill="none" xmlns="http://www.w3.org/2000/svg">
<g clip-path="url(#clip0_1_6025)">
<path d="M0.409668 0.212891H34.4097V22.2129H0.409668V0.212891Z" fill="#009B3A"/>
<path d="M17.4096 1.45459L30.9897 11.1938L17.4096 20.9265L3.76318 11.1938L17.4096 1.45459Z" fill="#FEDF00"/>
<path d="M17.4097 16.3849C20.3526 16.3849 22.7384 14.0693 22.7384 11.2129C22.7384 8.35657 20.3526 6.04102 17.4097 6.04102C14.4668 6.04102 12.0811 8.35657 12.0811 11.2129C12.0811 14.0693 14.4668 16.3849 17.4097 16.3849Z" fill="white"/>
<path d="M14.7187 10.8719C13.7975 10.8719 12.9028 11.0069 12.061 11.2578C12.1008 14.0818 14.4669 16.359 17.3831 16.359C19.1858 16.359 20.7831 15.4841 21.7441 14.1526C20.0938 12.1584 17.5554 10.8719 14.7187 10.8719ZM22.6057 12.1777C22.6653 11.8561 22.7051 11.528 22.7051 11.1871C22.7051 8.33093 20.3191 6.01514 17.3764 6.01514C15.1827 6.01514 13.3004 7.30812 12.4786 9.14145C13.201 8.99993 13.9433 8.92274 14.7055 8.92274C17.8072 8.92917 20.6041 10.1771 22.6057 12.1777Z" fill="#002776"/>
</g>
<defs>
<clipPath id="clip0_1_6025">
<rect width="34" height="22" fill="white" transform="translate(0.409668 0.212891)"/>
</clipPath>
</defs>
</svg>
