<svg width="35" height="23" viewBox="0 0 35 23" fill="none" xmlns="http://www.w3.org/2000/svg">
<g clip-path="url(#clip0_1_6020)">
<path d="M0.147461 0.212891H34.1475V22.2129H0.147461V0.212891Z" fill="#007C30"/>
<path d="M0.147461 15.0082H34.1475V0.212891H0.147461" fill="#CE1720"/>
<path d="M6.77514 15.0082V0.212891H0.147461V22.2129H34.1475H6.77514V15.0082Z" fill="white"/>
<path d="M2.00306 10.4797L0.717285 8.4598L2.00306 6.47852L3.2822 8.4598L2.00306 10.4797ZM4.959 10.4797L3.67986 8.4598L4.959 6.47852L6.24477 8.4598L4.959 10.4797ZM2.00306 15.7288L0.717285 13.7089L2.00306 11.7276L3.2822 13.7089L2.00306 15.7288ZM4.959 15.7288L3.67986 13.7089L4.959 11.7276L6.24477 13.7089L4.959 15.7288Z" fill="#CE1720"/>
<path d="M2.00309 4.96041L0.936035 3.2879L2.00309 1.64111L3.06352 3.2879L2.00309 4.96041ZM4.95904 4.96041L3.89861 3.2879L4.95904 1.64111L6.02609 3.2879L4.95904 4.96041ZM2.00309 20.6692L0.936035 18.9902L2.00309 17.3435L3.06352 18.9902L2.00309 20.6692ZM4.95904 20.6692L3.89861 18.9902L4.95904 17.3435L6.02609 18.9902L4.95904 20.6692Z" stroke="#CE1720" stroke-width="0.57377"/>
</g>
<defs>
<clipPath id="clip0_1_6020">
<rect width="34" height="22" fill="white" transform="translate(0.147461 0.212891)"/>
</clipPath>
</defs>
</svg>
