<svg width="35" height="23" viewBox="0 0 35 23" fill="none" xmlns="http://www.w3.org/2000/svg">
<g clip-path="url(#clip0_1_6145)">
<path d="M0.114746 0.212891H34.1147V22.2129H0.114746V0.212891Z" fill="#003E87"/>
<path d="M17.4401 18.8934C21.8008 18.8934 25.3358 15.462 25.3358 11.2292C25.3358 6.99633 21.8008 3.56494 17.4401 3.56494C13.0795 3.56494 9.54443 6.99633 9.54443 11.2292C9.54443 15.462 13.0795 18.8934 17.4401 18.8934Z" fill="white"/>
<path d="M17.5063 17.4621C20.9721 17.4621 23.7817 14.7349 23.7817 11.3707C23.7817 8.00652 20.9721 5.2793 17.5063 5.2793C14.0405 5.2793 11.231 8.00652 11.231 11.3707C11.231 14.7349 14.0405 17.4621 17.5063 17.4621Z" stroke="#6DA544" stroke-width="1.47541" stroke-miterlimit="10"/>
<path d="M17.5066 9.97852L14.1465 11.4869V12.7761C14.1465 13.5367 14.5516 14.2457 15.2223 14.6389L17.5133 15.6187L19.8043 14.6389C20.4684 14.2393 20.8801 13.5367 20.8801 12.7761V11.4869L17.5066 9.97852Z" fill="#003E87" stroke="black" stroke-width="0.0819672"/>
<path d="M14.1465 8.47021H20.8734V11.4805H14.1465V8.47021Z" fill="#FFDA44" stroke="black" stroke-width="0.0819672"/>
<path d="M0.114746 0.212891H34.1147V2.46897H0.114746V0.212891ZM0.114746 19.9375H34.1147V22.1936H0.114746V19.9375Z" fill="#CE1127"/>
</g>
<defs>
<clipPath id="clip0_1_6145">
<rect width="34" height="22" fill="white" transform="translate(0.114746 0.212891)"/>
</clipPath>
</defs>
</svg>
