<svg width="35" height="23" viewBox="0 0 35 23" fill="none" xmlns="http://www.w3.org/2000/svg">
<g clip-path="url(#clip0_1_6252)">
<path d="M0.0493164 0.212891H34.0493V22.2129H0.0493164V0.212891Z" fill="#008000"/>
<path d="M28.1191 16.4824L28.5309 17.3075L29.4473 17.1012L29.0355 17.9263L29.7793 18.4935L28.8562 18.6998V19.6151L28.1191 19.0414L27.382 19.6151V18.6998L26.4656 18.4935L27.2027 17.9263L26.791 17.1012L27.7141 17.3075L28.1191 16.4824ZM25.0246 7.69658L25.4363 8.52811L26.3527 8.32184L25.941 9.14692L26.6848 9.71416L25.7617 9.91399V10.8358L25.0246 10.2621L24.2875 10.8358L24.2941 9.91399L23.3711 9.71416L24.1082 9.14692L23.6965 8.32184L24.6195 8.52811L25.0246 7.69658ZM27.4816 2.68164L27.8934 3.50672L28.8098 3.30045L28.398 4.12553L29.1418 4.69922L28.2188 4.89904V5.81437L27.4816 5.24068L26.7445 5.81437L26.7512 4.89904L25.8281 4.69922L26.5652 4.12553L26.1535 3.30045L27.0766 3.50672L27.4816 2.68164ZM30.9215 6.44607L31.3332 7.27115L32.2562 7.06488L31.8379 7.88996L32.5816 8.46365L31.6586 8.66348L31.6652 9.5788L30.9215 9.00511L30.1844 9.5788L30.191 8.66348L29.268 8.46365L30.0117 7.88996L29.5934 7.06488L30.5164 7.27115L30.9215 6.44607ZM29.0621 10.8358L29.3875 11.7898H30.4234L29.5867 12.3828L29.9055 13.3432L29.0621 12.7502L28.2254 13.3432L28.5441 12.3828L27.7074 11.7898H28.7434L29.0621 10.8358Z" fill="#FFDA44"/>
<path d="M20.4228 16.6309C17.1556 16.6309 14.506 14.059 14.506 10.8876C14.506 7.71618 17.1556 5.14425 20.4228 5.14425C21.4388 5.14425 22.4017 5.39564 23.2384 5.83396C21.9235 4.5899 20.1239 3.82283 18.145 3.82283C14.1274 3.82283 10.8669 6.98779 10.8669 10.8876C10.8669 14.7874 14.1274 17.9588 18.145 17.9588C20.1239 17.9588 21.9235 17.1917 23.2317 15.9412C22.395 16.3795 21.4388 16.6309 20.4228 16.6309ZM9.37275 4.04844C8.66221 2.85594 7.33408 2.05664 5.81338 2.05664C4.29268 2.05664 2.97119 2.85594 2.26064 4.04844H9.37275ZM9.38604 4.07422L5.81338 7.54214L2.24736 4.07422C1.90869 4.65436 1.70947 5.32473 1.70947 6.04668C1.70947 8.25119 3.54893 10.0367 5.82002 10.0367C8.09111 10.0367 9.93057 8.25119 9.93057 6.04668C9.92393 5.32473 9.72471 4.65436 9.38604 4.07422Z" fill="#FFDA44"/>
<path d="M4.79053 6.54297V9.90775C5.11592 9.99155 5.46123 10.0302 5.81982 10.0302C6.17842 10.0302 6.51709 9.9851 6.84912 9.90775V6.54297H4.79053Z" fill="#A2001D"/>
</g>
<defs>
<clipPath id="clip0_1_6252">
<rect width="34" height="22" fill="white" transform="translate(0.0493164 0.212891)"/>
</clipPath>
</defs>
</svg>
