<svg width="35" height="23" viewBox="0 0 35 23" fill="none" xmlns="http://www.w3.org/2000/svg">
<g clip-path="url(#clip0_1_6017)">
<path d="M0.376953 0.212891H34.377V22.2129H0.376953V0.212891Z" fill="#D21034"/>
<path d="M0.376953 11.2163H14.4219V16.7147H0.376953V11.2163ZM20.332 11.2163H34.377V16.7147H20.332V11.2163Z" fill="#3A9927"/>
<path d="M0.376953 0.212891V5.71128H14.4219V0.212891H20.332V5.71128H34.377V0.212891H0.376953Z" fill="#003082"/>
<path d="M20.332 5.71143H34.377V11.2098H20.332V5.71143ZM0.376953 5.71143H14.4219V11.2098H0.376953V5.71143Z" fill="white"/>
<path d="M20.332 22.2127H14.4219V16.7144H0.376953V22.2127H34.377V16.7144H20.332V22.2127ZM7.39609 0.76709L7.96719 2.45593H9.79336L8.3125 3.50017L8.88359 5.18901L7.39609 4.14476L5.91523 5.18901L6.47969 3.50017L4.99883 2.45593H6.83164L7.39609 0.76709Z" fill="#FFCE00"/>
</g>
<defs>
<clipPath id="clip0_1_6017">
<rect width="34" height="22" fill="white" transform="translate(0.376953 0.212891)"/>
</clipPath>
</defs>
</svg>
