<svg width="35" height="23" viewBox="0 0 35 23" fill="none" xmlns="http://www.w3.org/2000/svg">
<g clip-path="url(#clip0_1_6049)">
<path d="M0.246094 0.0820312H34.2461V22.082H0.246094V0.0820312Z" fill="#01237A"/>
<path d="M25.6964 4.67334L26.0465 5.71892H27.1791L26.2628 6.36509L26.6128 7.41067L25.6964 6.76437L24.7801 7.41067L25.1301 6.36509L24.2138 5.71892H25.3464L25.6964 4.67334ZM21.0432 6.54405L22.0524 7.0431L22.8533 6.26583L22.6762 7.35162L23.6854 7.85073L22.5667 8.02268L22.3894 9.10853L21.8751 8.12901L20.7565 8.30096L21.5575 7.52363L21.0432 6.54405ZM19.1158 11.0604L20.193 10.7207L20.1931 9.62141L20.8588 10.5107L21.936 10.171L21.2702 11.0604L21.936 11.9498L20.8588 11.6102L20.1931 12.4995V11.4001L19.1158 11.0604ZM21.0432 15.5768L21.5574 14.5971L20.7565 13.8198L21.8753 13.9918L22.3894 13.0123L22.5667 14.0981L23.6854 14.27L22.6762 14.7691L22.8533 15.8551L22.0524 15.0775L21.0432 15.5768ZM25.6964 17.4474L25.3464 16.4019H24.2136L25.1301 15.7557L24.7801 14.7102L25.6964 15.3563L26.6128 14.7102L26.2628 15.7557L27.1791 16.4019H26.0465L25.6964 17.4474ZM30.3496 15.5768L29.3403 15.0777L28.5395 15.8551L28.7166 14.7691L27.7074 14.2702L28.8261 14.0981L29.0034 13.0123L29.5174 13.9918L30.6363 13.8198L29.8352 14.5972L30.3496 15.5768ZM32.277 11.0604L31.1997 11.4001V12.4995L30.534 11.6101L29.4567 11.9498L30.1225 11.0604L29.4567 10.171L30.534 10.5107L31.1997 9.62141V10.7207L32.277 11.0604ZM30.3496 6.54418L29.8355 7.52363L30.6363 8.30096L29.5174 8.12901L29.0034 9.10853L28.8261 8.02268L27.7074 7.8506L28.7166 7.35162L28.5395 6.2659L29.3404 7.0431L30.3496 6.54418ZM0.246094 6.60059V7.62983H3.2994L0.246094 9.60546V10.0904L4.04886 7.62977H5.54824L0.246094 11.0606H7.6691V6.60053L0.246094 6.60059ZM6.60867 11.0605H1.74581L6.60867 7.91403V11.0605ZM11.9108 3.51287L17.213 0.0820312H9.78995V4.54211H17.213V3.51287H14.1596L17.213 1.53712V1.05215L13.4102 3.51274H11.9108V3.51287ZM10.8504 0.0821598H15.7132L10.8504 3.22861V0.0821598ZM9.78995 11.0606H17.213L11.9108 7.62977H13.4102L17.213 10.0905V9.60552L14.1596 7.62983H17.213V6.60059H9.78995V11.0606ZM10.8504 7.91403L15.7132 11.0605H10.8504V7.91403ZM7.6691 0.0820312H0.246094L5.54824 3.51287H4.04886L0.246094 1.05222V1.53718L3.2994 3.51281H0.246094V4.54205H7.6691V0.0820312ZM6.60867 3.22861L1.74581 0.0821598H6.60867V3.22861Z" fill="white"/>
<path d="M9.78995 0.0820312H7.6691V4.54211H0.246094V6.60059H7.6691V11.0606H9.78995V6.60059H17.213V4.54211H9.78995V0.0820312Z" fill="#D80027"/>
<path d="M5.54824 3.51287L0.246094 0.0820312V1.05222L4.04886 3.51287H5.54824ZM11.9108 3.51287H13.4102L17.213 1.05222V0.0820312L11.9108 3.51287ZM4.04886 7.62983L0.246094 10.0905V11.0606L5.54824 7.62983H4.04886ZM11.9108 7.62983L17.213 11.0606V10.0905L13.4102 7.62983H11.9108Z" fill="#D80027"/>
</g>
<defs>
<clipPath id="clip0_1_6049">
<rect width="34" height="22" fill="white" transform="translate(0.246094 0.0820312)"/>
</clipPath>
</defs>
</svg>
