<svg width="35" height="23" viewBox="0 0 35 23" fill="none" xmlns="http://www.w3.org/2000/svg">
<g clip-path="url(#clip0_1_6199)">
<path d="M0.0820312 0.0820312H34.082V22.082H0.0820312V0.0820312Z" fill="#D80027"/>
<path d="M15.1134 15.469L14.4705 14.4655L13.2842 14.7486L14.0729 13.8416L13.43 12.838L14.5633 13.2819L15.3454 12.3749L15.2592 13.5585L16.3925 14.0024L15.2062 14.2854L15.1134 15.469ZM19.3419 5.35676L18.6725 6.3474L19.4413 7.26728L18.2682 6.95851L17.5988 7.95559L17.5325 6.77196L16.3594 6.46319L17.4994 6.03863L17.4331 4.855L18.2019 5.77488L19.3419 5.35676ZM15.7364 1.71582L15.6039 2.89301L16.7173 3.3819L15.5243 3.62635L15.3918 4.80354L14.782 3.7743L13.5957 4.01874L14.4109 3.13746L13.8011 2.11465L14.9146 2.59711L15.7364 1.71582ZM19.4877 10.4901L18.5001 11.1913L18.8846 12.317L17.897 11.6223L16.9095 12.3299L17.2807 11.1977L16.2931 10.5094L17.5126 10.503L17.8838 9.37079L18.2682 10.4965L19.4877 10.4901ZM7.70366 3.06026L8.85024 6.50179H12.575L9.56603 8.61816L10.7126 12.0597L7.70366 9.93687L4.68806 12.0597L5.84128 8.61816L2.82568 6.50179H6.55707L7.70366 3.06026Z" fill="#FFDA44"/>
</g>
<defs>
<clipPath id="clip0_1_6199">
<rect width="34" height="22" fill="white" transform="translate(0.0820312 0.0820312)"/>
</clipPath>
</defs>
</svg>
