<svg width="35" height="23" viewBox="0 0 35 23" fill="none" xmlns="http://www.w3.org/2000/svg">
<g clip-path="url(#clip0_1_6055)">
<path d="M0.376953 0.0820312H34.377V22.082H0.376953V0.0820312Z" fill="#003893"/>
<path d="M0.376953 11.8027H34.377V14.4659H0.376953V11.8027Z" fill="#CF2027"/>
<path d="M0.376953 9.13916H34.377V11.8023H0.376953V9.13916ZM0.376953 14.4655H34.377V17.1286H0.376953V14.4655Z" fill="white"/>
<path d="M10.3452 4.58496L10.8025 5.94227H12.2739L11.0809 6.78496L11.5382 8.14227L10.3452 7.29958L9.15888 8.14227L9.60956 6.78496L8.42321 5.94227H9.89455L10.3452 4.58496ZM10.3452 18.0744L10.8025 19.4317H12.2739L11.0809 20.268L11.5382 21.6317L10.3452 20.7891L9.15888 21.6317L9.60956 20.268L8.42321 19.4317H9.89455L10.3452 18.0744ZM3.87662 13.5136L4.33393 14.8709H5.80527L4.61229 15.7072L5.0696 17.0709L3.87662 16.2282L2.69026 17.0709L3.14094 15.7072L1.95459 14.8709H3.42593L3.87662 13.5136ZM6.34874 5.93584L6.80605 7.29315H8.2774L7.08441 8.12941L7.54172 9.49315L6.34874 8.65046L5.16239 9.49315L5.61307 8.12941L4.42009 7.29315H5.89806L6.34874 5.93584ZM1.95459 10.5031H3.42593L3.87662 9.14578L4.33393 10.5031H5.80527L4.61229 11.3458L5.0696 12.7031L3.87662 11.8668L2.69026 12.7031L3.14094 11.3458L1.95459 10.5031ZM5.16239 20.0815L5.61307 18.7241L4.42009 17.8879H5.89806L6.34874 16.5241L6.80605 17.8879H8.2774L7.08441 18.7241L7.54172 20.0815L6.34874 19.2452L5.16239 20.0815ZM16.8138 13.5136L16.3565 14.8709H14.8852L16.0782 15.7072L15.6209 17.0709L16.8138 16.2282L18.0068 17.0709L17.5495 15.7072L18.7425 14.8709H17.2712L16.8138 13.5136ZM14.3417 5.93584L13.891 7.29315H12.4197L13.6061 8.12941L13.1554 9.49315L14.3417 8.65046L15.5347 9.49315L15.0774 8.12941L16.2704 7.29315H14.799L14.3417 5.93584ZM18.7425 10.5031H17.2712L16.8138 9.14578L16.3565 10.5031H14.8852L16.0782 11.3458L15.6209 12.7031L16.8138 11.8668L18.0068 12.7031L17.5495 11.3458L18.7425 10.5031ZM15.5347 20.0815L15.0774 18.7241L16.2704 17.8879H14.799L14.3417 16.5241L13.891 17.8879H12.4197L13.6061 18.7241L13.1554 20.0815L14.3417 19.2452L15.5347 20.0815Z" fill="#F7D116" stroke="black" stroke-width="0.0819672"/>
</g>
<defs>
<clipPath id="clip0_1_6055">
<rect width="34" height="22" fill="white" transform="translate(0.376953 0.0820312)"/>
</clipPath>
</defs>
</svg>
