<svg width="35" height="23" viewBox="0 0 35 23" fill="none" xmlns="http://www.w3.org/2000/svg">
<g clip-path="url(#clip0_1_6247)">
<path d="M0.278809 0.0820312H34.2788V22.082H0.278809V0.0820312Z" fill="#0021AD"/>
<path d="M0.278809 0.0820312H34.2788V22.082" fill="#1C8A42"/>
<path d="M5.43174 17.6152L5.81025 18.3823L6.66025 18.1889L6.28174 18.9559L6.96572 19.4781L6.11572 19.665V20.5159L5.43174 19.9809L4.75439 20.5159V19.665L3.90439 19.4781L4.58838 18.9559L4.20322 18.1889L5.05986 18.3823L5.43174 17.6152ZM2.96807 11.2402L3.34658 12.0072L4.19658 11.8138L3.81807 12.5745L4.50205 13.103L3.64541 13.29L3.65205 14.1408L2.96807 13.6058L2.28408 14.1408L2.29072 13.29L1.43408 13.103L2.12471 12.5745L1.73955 11.8138L2.58955 12.0072L2.96807 11.2402ZM5.43174 6.02539L5.81025 6.78601L6.66025 6.59908L6.28174 7.3597L6.96572 7.88827L6.11572 8.0752V8.91962L5.43174 8.39105L4.75439 8.91962V8.0752L3.90439 7.88827L4.58838 7.3597L4.20322 6.59908L5.05986 6.78601L5.43174 6.02539ZM8.49307 10.0799L8.87158 10.847L9.72158 10.6536L9.34307 11.4206L10.0271 11.9428L9.17705 12.1297V12.9806L8.49307 12.452L7.81572 12.9806V12.1297L6.96572 11.9428L7.64971 11.4206L7.27119 10.6536L8.12119 10.847L8.49307 10.0799ZM6.3083 13.5607L6.60049 14.4438H7.56338L6.78643 14.9917L7.08525 15.8748L6.3083 15.3333L5.53135 15.8748L5.83018 14.9917L5.05322 14.4438H6.00947L6.3083 13.5607Z" fill="white"/>
<path d="M18.0161 15.8877C20.7484 15.8877 22.9634 13.7376 22.9634 11.0854C22.9634 8.43323 20.7484 6.2832 18.0161 6.2832C15.2838 6.2832 13.0688 8.43323 13.0688 11.0854C13.0688 13.7376 15.2838 15.8877 18.0161 15.8877Z" fill="#FFC639"/>
<path d="M18.0159 14.2826H19.6628C19.6628 14.2826 20.38 13.0578 19.6628 11.8847L21.3097 10.2861L20.4862 8.6875H19.6628C19.6628 8.6875 19.2511 9.88645 17.6042 9.88645C15.9573 9.88645 15.5456 8.6875 15.5456 8.6875H14.7222L15.5456 10.2861L14.7222 11.8847L15.5456 12.684C15.5456 12.684 16.369 11.0854 18.0159 11.8847C18.0159 11.8847 18.7132 12.8838 18.0159 14.2826Z" fill="#1C8A42"/>
<path d="M31.1181 6.02522C31.1579 5.83829 31.1048 4.89074 31.1048 4.69091C31.1048 3.31793 30.1817 2.15121 28.9001 1.74512C29.2919 2.51863 29.511 3.38239 29.511 4.30416C29.511 4.61356 29.4845 4.91652 29.438 5.21303C29.2454 4.91007 28.9997 4.63935 28.6942 4.40085C27.5587 3.5242 25.9981 3.49841 24.8493 4.2397C25.7392 4.42663 26.5958 4.81339 27.3528 5.39997C27.9505 5.85763 28.4286 6.48288 28.7938 7.08236C28.7938 7.08236 27.6118 7.78496 26.7353 8.05569C25.8587 8.32642 23.9263 8.56492 23.9263 8.56492C28.7075 9.33844 32.6919 6.24438 32.6919 6.24438C32.2603 5.38063 31.6427 5.98655 31.1181 6.02522Z" fill="#FFC639"/>
</g>
<defs>
<clipPath id="clip0_1_6247">
<rect width="34" height="22" fill="white" transform="translate(0.278809 0.0820312)"/>
</clipPath>
</defs>
</svg>
