<svg width="35" height="23" viewBox="0 0 35 23" fill="none" xmlns="http://www.w3.org/2000/svg">
<g clip-path="url(#clip0_1_6011)">
<path d="M0.212891 0.0820312H34.2129V22.082H0.212891V0.0820312Z" fill="white"/>
<path d="M9.60414 10.0336C9.60414 10.0336 9.6174 14.35 14.555 14.2342L14.8533 15.1284H15.4431C15.4431 15.1284 14.9527 12.4845 19.4264 12.4588C19.4264 12.4588 19.4264 10.6833 21.2556 10.6833H24.0061C24.0061 10.6833 19.6318 7.35117 27.9098 3.09269L28.0291 2.25C28.0291 2.25 19.4197 6.81725 14.8466 5.92953C14.8466 5.92953 15.5558 8.66345 14.1308 8.66345C13.4151 8.66345 13.488 8.1424 11.9901 8.1424C10.7507 8.1424 10.8435 9.40965 10.247 9.39678C9.65716 9.38392 9.00102 8.60556 8.948 8.74064C8.90161 8.87573 9.60414 10.0336 9.60414 10.0336Z" fill="#DB7D00"/>
<path d="M15.9336 19.9013C16.3909 19.5796 16.7952 19.4767 17.4182 19.3673C18.0412 19.258 18.704 19.0843 19.0486 18.9942C19.3932 18.9042 17.8755 19.4188 17.4911 19.5282C17.1067 19.6311 15.9336 19.9013 15.9336 19.9013ZM18.4455 18.9556C18.3196 18.1901 18.6311 17.3925 19.3402 17.0708C19.5059 17.6241 18.9956 18.5632 18.4455 18.9556ZM19.6517 18.5568C19.2673 17.9264 19.9168 17.103 20.3874 16.7042C20.6061 17.0901 20.2217 18.2287 19.6517 18.5568ZM20.7718 18.0679C20.3609 17.5276 20.8447 16.5755 21.355 16.2024C21.5605 16.7299 21.3617 17.6948 20.7718 18.0679ZM21.8919 17.386C21.5207 16.8714 21.7792 16.0738 22.3094 15.5591C22.6938 15.9837 22.3691 16.91 21.8919 17.386ZM22.7866 16.6977C22.4751 16.2153 22.8595 15.0638 23.3566 14.7422C23.5753 15.1667 23.4096 16.3761 22.7866 16.6977ZM23.5024 16.5176C23.4096 15.8229 24.6556 15.0574 25.1726 15.0767C25.1129 15.6492 24.5827 16.2732 23.5024 16.5176ZM22.8065 17.3024C23.3897 16.717 24.5297 16.717 24.934 16.8393C24.8213 17.1802 23.4825 17.9264 22.8065 17.3024Z" fill="#006651"/>
<path d="M21.998 17.8878C22.8198 17.6755 23.3566 17.4954 23.8471 17.9972C23.5024 18.4217 22.1637 18.2995 21.998 17.8878ZM20.8249 18.4024C21.6136 17.9907 22.5679 18.5954 22.7137 18.9556C21.8323 19.3094 20.8116 18.4925 20.8249 18.4024ZM19.7445 18.9942C20.4603 18.7305 21.2822 19.0843 21.6136 19.4767C21.2291 19.6504 20.2217 19.8434 19.7445 18.9942ZM18.757 19.2966C19.5789 19.2065 20.3742 19.8112 20.5465 20.1586C19.4927 20.2551 19.0884 19.9527 18.757 19.2966ZM18.4919 19.9013C18.0346 19.5796 17.6303 19.4767 17.0073 19.3673C16.3843 19.258 15.7215 19.0843 15.3769 18.9942C15.0256 18.9042 16.55 19.4188 16.9344 19.5282C17.3188 19.6311 18.4919 19.9013 18.4919 19.9013ZM15.98 18.9556C16.106 18.1901 15.7945 17.3925 15.0853 17.0708C14.9196 17.6241 15.4299 18.5632 15.98 18.9556ZM14.7738 18.5568C15.1582 17.9264 14.5087 17.103 14.0381 16.7042C13.8194 17.0901 14.2038 18.2287 14.7738 18.5568ZM13.6537 18.0679C14.0646 17.5276 13.5808 16.5755 13.0705 16.2024C12.865 16.7299 13.0638 17.6948 13.6537 18.0679ZM12.5336 17.386C12.9048 16.8714 12.6463 16.0738 12.1161 15.5591C11.7317 15.9837 12.0564 16.91 12.5336 17.386ZM11.6389 16.6977C11.9504 16.2153 11.566 15.0638 11.0689 14.7422C10.8502 15.1667 11.0159 16.3761 11.6389 16.6977ZM10.9231 16.5176C11.0159 15.8229 9.76989 15.0574 9.25293 15.0767C9.31258 15.6492 9.84279 16.2732 10.9231 16.5176ZM11.619 17.3024C11.0358 16.717 9.89582 16.717 9.49153 16.8393C9.6042 17.1802 10.943 17.9264 11.619 17.3024Z" fill="#006651"/>
<path d="M12.4277 17.8876C11.6059 17.6753 11.0691 17.4952 10.5786 17.9969C10.9233 18.4215 12.262 18.2993 12.4277 17.8876ZM13.6008 18.4022C12.8121 17.9905 11.8578 18.5952 11.7119 18.9554C12.5934 19.3092 13.6141 18.4922 13.6008 18.4022ZM14.6811 18.994C13.9654 18.7303 13.1435 19.0841 12.8121 19.4764C13.1965 19.6501 14.204 19.8431 14.6811 18.994ZM15.6687 19.2963C14.8468 19.2063 14.0515 19.811 13.8792 20.1583C14.933 20.2548 15.3373 19.9525 15.6687 19.2963Z" fill="#006651"/>
</g>
<defs>
<clipPath id="clip0_1_6011">
<rect width="34" height="22" fill="white" transform="translate(0.212891 0.0820312)"/>
</clipPath>
</defs>
</svg>
