<svg width="35" height="23" viewBox="0 0 35 23" fill="none" xmlns="http://www.w3.org/2000/svg">
<g clip-path="url(#clip0_1_6008)">
<path d="M0.376953 0.869141H34.377V22.8691H0.376953V0.869141Z" fill="#496E2D"/>
<path d="M0.376953 8.00488V15.74H34.377V8.00488H0.376953Z" fill="black"/>
<path d="M0.376953 8.00488H34.377V10.5833H0.376953V8.00488Z" fill="#FFDA44"/>
<path d="M0.376953 13.1616H34.377V15.74H0.376953V13.1616Z" fill="white"/>
<path d="M13.3926 0.869141H21.3613V22.8691H13.3926V0.869141Z" fill="black"/>
<path d="M13.3926 0.869141H16.0488V22.8691H13.3926V0.869141Z" fill="#FFDA44"/>
<path d="M18.6187 0.869141H21.2749V22.8691H18.6187V0.869141Z" fill="white"/>
<path d="M17.3768 19.8074C21.8915 19.8074 25.5514 16.2548 25.5514 11.8725C25.5514 7.4901 21.8915 3.9375 17.3768 3.9375C12.862 3.9375 9.20215 7.4901 9.20215 11.8725C9.20215 16.2548 12.862 19.8074 17.3768 19.8074Z" fill="#D80027"/>
<path d="M17.3768 4.64648L17.6822 5.56181H18.6783L17.8748 6.1355L18.1803 7.05082L17.3768 6.48358L16.5732 7.05082L16.8787 6.1355L16.0752 5.56181H17.0713L17.3768 4.64648ZM13.0006 6.02592L13.8107 6.59316L14.6143 6.02592L14.3088 6.94769L15.1123 7.51493H14.1162L13.8107 8.43025L13.4986 7.51493H12.5025L13.3061 6.94769L13.0006 6.02592ZM10.2979 9.63564H11.2939L11.5994 8.72032L11.9115 9.63564H12.9076L12.0975 10.2029L12.4096 11.1247L11.5994 10.5574L10.7959 11.1247L11.1014 10.2029L10.2979 9.63564ZM10.2979 14.1027L11.1014 13.5354L10.7959 12.6137L11.5994 13.1809L12.4096 12.6137L12.0975 13.5354L12.9076 14.1027H11.9115L11.5994 15.0245L11.2939 14.1027H10.2979ZM13.0006 17.7189L13.3061 16.7971L12.5025 16.2298H13.4986L13.8107 15.3081L14.1162 16.2298H15.1123L14.3088 16.7971L14.6143 17.7189L13.8107 17.1452L13.0006 17.7189ZM17.3768 19.0983L17.0713 18.1765H16.0752L16.8787 17.6093L16.5732 16.6875L17.3768 17.2547L18.1803 16.6875L17.8748 17.6093L18.6783 18.1765H17.6822L17.3768 19.0983ZM21.7529 17.7189L20.9428 17.1452L20.1393 17.7189L20.4447 16.7971L19.6412 16.2298H20.6373L20.9428 15.3081L21.2549 16.2298H22.251L21.4475 16.7971L21.7529 17.7189ZM24.4557 14.1027H23.4596L23.1541 15.0245L22.842 14.1027H21.8459L22.6561 13.5354L22.3439 12.6137L23.1541 13.1809L23.9576 12.6137L23.6521 13.5354L24.4557 14.1027ZM24.4557 9.63564L23.6521 10.2029L23.9576 11.1247L23.1541 10.5574L22.3439 11.1247L22.6561 10.2029L21.8459 9.63564H22.842L23.1541 8.72032L23.4596 9.63564H24.4557ZM21.7529 6.02592L21.4475 6.94769L22.251 7.51493H21.2549L20.9428 8.43025L20.6373 7.51493H19.6412L20.4447 6.94769L20.1393 6.02592L20.9428 6.59316L21.7529 6.02592Z" fill="#496E2D"/>
<path d="M18.9244 11.7435C18.1939 10.3834 17.9615 10.1256 17.9615 10.1256C17.9615 10.1256 17.9881 9.50033 17.9881 9.12002C17.9881 8.55278 17.4967 8.10156 16.8924 8.10156C16.3213 8.10156 15.8498 8.28849 15.7967 8.81062C15.5178 8.86863 15.2256 9.0749 15.2256 9.50033C15.2256 9.80974 15.292 9.97089 15.5709 10.0998C15.7104 9.80329 15.8564 9.7904 16.1885 9.68726C16.2416 9.72594 16.3014 9.88064 16.3611 9.90643L16.3811 9.97089C16.3811 9.97089 15.4979 10.3963 15.4979 11.9627C15.4979 13.8642 16.9588 14.8891 16.9588 14.8891L16.8393 14.9085L16.7131 15.3661H18.174V14.902L18.9045 16.0301C18.9244 16.0107 19.5818 12.9618 18.9244 11.7435Z" fill="#496E2D"/>
</g>
<defs>
<clipPath id="clip0_1_6008">
<rect width="34" height="22" fill="white" transform="translate(0.376953 0.869141)"/>
</clipPath>
</defs>
</svg>
