<svg width="35" height="23" viewBox="0 0 35 23" fill="none" xmlns="http://www.w3.org/2000/svg">
<g clip-path="url(#clip0_1_6051)">
<path d="M0.311523 0.869141H34.3115V22.8691H0.311523V0.869141Z" fill="#41662E"/>
<path d="M17.3115 0.869141H34.3115V22.8691H17.3115V0.869141Z" fill="white"/>
<path d="M22.989 7.65674L21.0366 10.2609L17.8823 9.26822L19.8347 11.8724L17.8823 14.4765L21.0366 13.4839L22.989 16.088V12.8651L26.1433 11.8659L22.989 10.8733V7.65674Z" fill="#D80027"/>
<path d="M20.8907 18.7051C17.006 18.7051 13.8517 15.6433 13.8517 11.8724C13.8517 8.10153 17.006 5.0397 20.8907 5.0397C22.106 5.0397 23.2415 5.33622 24.2376 5.85834C22.6771 4.37577 20.5388 3.46045 18.1813 3.46045C13.4001 3.46045 9.52197 7.22488 9.52197 11.866C9.52197 16.507 13.4001 20.2715 18.1813 20.2715C20.5388 20.2715 22.6771 19.3561 24.2376 17.8736C23.2481 18.4021 22.106 18.7051 20.8907 18.7051Z" fill="#D80027"/>
</g>
<defs>
<clipPath id="clip0_1_6051">
<rect width="34" height="22" fill="white" transform="translate(0.311523 0.869141)"/>
</clipPath>
</defs>
</svg>
