<svg width="35" height="23" viewBox="0 0 35 23" fill="none" xmlns="http://www.w3.org/2000/svg">
<g clip-path="url(#clip0_1_6007)">
<path d="M0.278809 0.869141H34.2788V22.8691H0.278809V0.869141Z" fill="#FFDA44"/>
<path d="M0.278809 11.8726H34.2788V17.3709H0.278809V11.8726Z" fill="#0052B4"/>
<path d="M0.278809 17.3706H34.2788V22.869H0.278809V17.3706Z" fill="#D80027"/>
<path d="M17.279 15.7012C19.4575 15.7012 21.2235 13.987 21.2235 11.8723C21.2235 9.75771 19.4575 8.04346 17.279 8.04346C15.1005 8.04346 13.3345 9.75771 13.3345 11.8723C13.3345 13.987 15.1005 15.7012 17.279 15.7012Z" fill="#FFDA44"/>
<path d="M24.7962 6.01926C24.7962 6.01926 22.9899 5.12972 22.545 4.98791C22.1001 4.8461 19.2845 4.13705 19.2845 4.5367C19.2845 5.20063 18.388 5.31021 18.2552 5.31021C18.1224 5.31021 18.1224 4.96857 17.2724 4.96857C16.4224 4.96857 16.3626 5.27798 16.2231 5.27798C16.0771 5.27798 15.2603 5.21352 15.2603 4.5367C15.2603 4.20151 12.4114 4.79453 11.9997 4.98791C11.5946 5.18774 9.74854 6.01926 9.74854 6.01926C9.74854 6.01926 12.7899 6.1933 13.3278 6.41891C13.8657 6.64452 16.2364 7.48249 16.2364 7.48249L16.0505 8.3398H18.5606L18.3083 7.48249C18.3083 7.48249 20.6392 6.66386 21.2169 6.41891C21.7946 6.17396 24.7962 6.01926 24.7962 6.01926Z" fill="#4C1F00"/>
<path d="M14.7354 11.9366C14.7354 13.2967 15.8775 14.4054 17.2787 14.4054C18.6799 14.4054 19.8221 13.2967 19.8221 11.9366V11.1953H14.742V11.9366H14.7354Z" fill="#57BA17"/>
<path d="M17.2787 7.9917C15.8775 7.9917 14.7354 9.1004 14.7354 10.4605V11.2018H19.8154V10.4605C19.8221 9.1004 18.6799 7.9917 17.2787 7.9917Z" fill="#338AF3"/>
</g>
<defs>
<clipPath id="clip0_1_6007">
<rect width="34" height="22" fill="white" transform="translate(0.278809 0.869141)"/>
</clipPath>
</defs>
</svg>
