<svg width="35" height="23" viewBox="0 0 35 23" fill="none" xmlns="http://www.w3.org/2000/svg">
<g clip-path="url(#clip0_1_6005)">
<path d="M0.212891 0.869141H34.2129V22.8691H0.212891V0.869141Z" fill="white"/>
<path d="M0.212891 0.869141H34.2129V8.20462H0.212891V0.869141Z" fill="#D80027"/>
<path d="M0.212891 15.54H34.2129V22.8755H0.212891V15.54Z" fill="black"/>
<path d="M14.8423 14.0444C14.8423 14.0444 14.8423 10.28 15.1411 9.8739C15.347 9.59673 16.2567 10.2091 16.6485 10.164C16.6485 10.164 16.9274 9.68053 16.9474 9.39046C16.9673 9.09395 16.8743 8.90057 16.622 8.99081C16.622 8.99081 16.5423 8.85545 16.6552 8.77809C16.7614 8.70074 17.0271 8.78454 17.0271 8.78454C17.0271 8.78454 16.9938 8.72008 17.1333 8.72653C17.3259 8.73942 17.6114 8.81677 17.6247 9.0875C17.638 9.28732 17.6446 9.58384 17.6513 9.6483C17.6978 10.0866 17.8306 10.2091 17.8306 10.2091C17.8306 10.2091 19.0524 9.61607 19.2915 9.8739C19.5106 10.1189 19.5903 14.0444 19.5903 14.0444L18.3884 12.9615L19.1919 14.8631C19.1919 14.8631 18.2356 15.0178 17.2728 15.0178C16.3099 15.0178 15.2075 14.747 15.2075 14.747L16.1239 12.9293L14.8423 14.0444Z" fill="#C09300"/>
</g>
<defs>
<clipPath id="clip0_1_6005">
<rect width="34" height="22" fill="white" transform="translate(0.212891 0.869141)"/>
</clipPath>
</defs>
</svg>
