<svg width="35" height="23" viewBox="0 0 35 23" fill="none" xmlns="http://www.w3.org/2000/svg">
<g clip-path="url(#clip0_1_6248)">
<path d="M0.442383 0.93457H34.4424V22.9346H0.442383V0.93457Z" fill="white"/>
<path d="M0.442383 0.93457H34.4424V8.27005H0.442383V0.93457Z" fill="black"/>
<path d="M0.442383 15.6055H34.4424V22.941H0.442383V15.6055Z" fill="#428823"/>
<path d="M17.4424 11.9378L0.442383 22.9346V0.93457L17.4424 11.9378ZM20.9686 11.9378C20.9686 10.4617 21.8385 9.22405 23.2662 8.92109C23.0471 8.87597 22.8213 8.85019 22.5822 8.85019C20.8291 8.85019 19.4014 10.2296 19.4014 11.9378C19.4014 13.646 20.8225 15.0254 22.5822 15.0254C22.8146 15.0254 23.0471 14.9996 23.2662 14.9545C21.8385 14.6451 20.9686 13.4139 20.9686 11.9378Z" fill="#D80027"/>
<path d="M24.6808 9.2627L25.3647 11.3061H27.5761L25.7831 12.5695L26.4671 14.6128L24.6808 13.3494L22.8878 14.6128L23.5718 12.5695L21.7788 11.3061H23.9968L24.6808 9.2627Z" fill="#D80027"/>
</g>
<defs>
<clipPath id="clip0_1_6248">
<rect width="34" height="22" fill="white" transform="translate(0.442383 0.93457)"/>
</clipPath>
</defs>
</svg>
