<svg width="35" height="23" viewBox="0 0 35 23" fill="none" xmlns="http://www.w3.org/2000/svg">
<g clip-path="url(#clip0_1_6063)">
<path d="M0.376953 0.93457H34.377V22.9346H0.376953V0.93457Z" fill="#338AF3"/>
<path d="M0.376953 0.93457H34.377V11.9378H0.376953V0.93457Z" fill="#56AF35"/>
<path d="M0.376953 22.9346L34.377 11.9313L0.376953 0.93457V22.9346Z" fill="#D80027"/>
<path d="M9.32187 15.857C11.5531 15.857 13.3594 14.1037 13.3594 11.9378C13.3594 9.77201 11.5531 8.01871 9.32187 8.01871C7.09062 8.01871 5.28438 9.77201 5.28438 11.9378C5.28438 14.1037 7.09062 15.857 9.32187 15.857ZM9.32187 17.4233C6.20078 17.4233 3.66406 14.9674 3.66406 11.9314C3.66406 8.89536 6.19414 6.43945 9.32187 6.43945C12.4496 6.43945 14.9797 8.89536 14.9797 11.9314C14.9797 14.9674 12.443 17.4233 9.32187 17.4233Z" fill="#FFC945"/>
<path d="M8.3125 11.6218C8.95432 11.6218 9.47461 11.1168 9.47461 10.4938C9.47461 9.87076 8.95432 9.36572 8.3125 9.36572C7.67068 9.36572 7.15039 9.87076 7.15039 10.4938C7.15039 11.1168 7.67068 11.6218 8.3125 11.6218Z" fill="#FFC945"/>
<path d="M10.2646 12.2795C10.9065 12.2795 11.4268 11.7745 11.4268 11.1515C11.4268 10.5285 10.9065 10.0234 10.2646 10.0234C9.62283 10.0234 9.10254 10.5285 9.10254 11.1515C9.10254 11.7745 9.62283 12.2795 10.2646 12.2795Z" fill="#FFC945"/>
<path d="M9.32178 10.7776C9.96359 10.7776 10.4839 10.2725 10.4839 9.64952C10.4839 9.02653 9.96359 8.52148 9.32178 8.52148C8.67996 8.52148 8.15967 9.02653 8.15967 9.64952C8.15967 10.2725 8.67996 10.7776 9.32178 10.7776Z" fill="#FFC945"/>
<path d="M8.3125 13.1946C8.95432 13.1946 9.47461 12.6895 9.47461 12.0665C9.47461 11.4435 8.95432 10.9385 8.3125 10.9385C7.67068 10.9385 7.15039 11.4435 7.15039 12.0665C7.15039 12.6895 7.67068 13.1946 8.3125 13.1946Z" fill="#FFC945"/>
<path d="M10.3311 13.8459C10.9729 13.8459 11.4932 13.3409 11.4932 12.7179C11.4932 12.0949 10.9729 11.5898 10.3311 11.5898C9.68924 11.5898 9.16895 12.0949 9.16895 12.7179C9.16895 13.3409 9.68924 13.8459 10.3311 13.8459Z" fill="#FFC945"/>
<path d="M8.51172 14.8254C9.15353 14.8254 9.67383 14.3204 9.67383 13.6974C9.67383 13.0744 9.15353 12.5693 8.51172 12.5693C7.8699 12.5693 7.34961 13.0744 7.34961 13.6974C7.34961 14.3204 7.8699 14.8254 8.51172 14.8254Z" fill="#FFC945"/>
<path d="M10.0654 15.2898C10.7072 15.2898 11.2275 14.7847 11.2275 14.1617C11.2275 13.5387 10.7072 13.0337 10.0654 13.0337C9.42361 13.0337 8.90332 13.5387 8.90332 14.1617C8.90332 14.7847 9.42361 15.2898 10.0654 15.2898Z" fill="#FFC945"/>
</g>
<defs>
<clipPath id="clip0_1_6063">
<rect width="34" height="22" fill="white" transform="translate(0.376953 0.93457)"/>
</clipPath>
</defs>
</svg>
