<svg width="35" height="23" viewBox="0 0 35 23" fill="none" xmlns="http://www.w3.org/2000/svg">
<g clip-path="url(#clip0_1_6107)">
<path d="M0.344238 0.93457H34.3442V22.9346H0.344238V0.93457Z" fill="white"/>
<path d="M0.344238 0.93457H34.3442V6.80124H0.344238V0.93457ZM0.344238 17.0679H34.3442V22.9346H0.344238V17.0679Z" fill="#D03433"/>
<path d="M0.344238 6.80127H34.3442V17.0679H0.344238V6.80127Z" fill="#FBCA46"/>
<path d="M12.1309 11.2012H13.642V11.9345H12.1309V11.2012Z" fill="white"/>
<path d="M11.224 13.4011C11.224 13.8411 11.6774 14.1344 12.1307 14.1344C12.584 14.1344 13.0374 13.8411 13.0374 13.4011L13.1885 11.2011H11.0729L11.224 13.4011ZM10.3174 11.2011C10.3174 10.7611 10.6196 10.4678 10.9218 10.4678H13.1885C13.6418 10.4678 13.944 10.7611 13.944 11.0544V11.2011L13.7929 13.4011C13.6418 14.2811 13.0374 14.8678 12.1307 14.8678C11.224 14.8678 10.6196 14.2811 10.4685 13.4011L10.3174 11.2011Z" fill="#A41517"/>
<path d="M10.6197 11.9347H13.6419V12.6681H12.8864L12.1308 14.1347L11.3752 12.6681H10.6197V11.9347ZM8.35303 9.73473H9.86414V14.8681H8.35303V9.73473ZM14.3975 9.73473H15.9086V14.8681H14.3975V9.73473ZM10.6197 9.0014C10.6197 8.5614 10.9219 8.26807 11.3752 8.26807H12.8864C13.3397 8.26807 13.6419 8.5614 13.6419 9.0014V9.29473C13.6419 9.58807 13.4908 9.73473 13.1886 9.73473H10.9219C10.7708 9.73473 10.6197 9.58807 10.6197 9.4414V9.0014Z" fill="#A41517"/>
</g>
<defs>
<clipPath id="clip0_1_6107">
<rect width="34" height="22" fill="white" transform="translate(0.344238 0.93457)"/>
</clipPath>
</defs>
</svg>
