<svg width="35" height="23" viewBox="0 0 35 23" fill="none" xmlns="http://www.w3.org/2000/svg">
<g clip-path="url(#clip0_1_6243)">
<path d="M0.311523 0.93457H35.3418V8.2679H0.311523V0.93457Z" fill="#20AA46"/>
<path d="M0.311523 15.6011H35.3418V22.9344H0.311523V15.6011Z" fill="#E92F3B"/>
<path d="M0.311523 8.26807H35.3418V15.6014H0.311523V8.26807Z" fill="#FADF50"/>
<path d="M17.8269 19.5614C22.039 19.5614 25.4535 16.1469 25.4535 11.9348C25.4535 7.72268 22.039 4.30811 17.8269 4.30811C13.6148 4.30811 10.2002 7.72268 10.2002 11.9348C10.2002 16.1469 13.6148 19.5614 17.8269 19.5614Z" fill="#205CCA"/>
<path d="M15.9197 12.5211L14.7463 16.0411L17.8263 13.8411L20.9063 16.0411L19.733 12.5211M15.9197 12.5211L12.9863 10.3211H16.653L17.8263 6.94775L18.9997 10.3211H22.813L19.733 12.5211M15.9197 12.5211L16.7997 9.88109M19.733 12.5211L17.3863 14.1344M16.3597 10.3211H19.1463M15.773 12.3744L17.6797 13.8411M18.853 10.0278L19.8797 12.6678" stroke="#FFDB3D" stroke-width="0.0409836"/>
<path d="M14.0132 6.65448L15.6265 9.00115M21.4932 6.50781L20.0265 8.85448M17.8265 15.7478V18.5345M14.3065 13.1078L11.6665 14.1345M23.9865 14.1345L21.3465 13.1078" stroke="#FFDB3D" stroke-width="0.0204918"/>
</g>
<defs>
<clipPath id="clip0_1_6243">
<rect width="34" height="22" fill="white" transform="translate(0.311523 0.93457)"/>
</clipPath>
</defs>
</svg>
