<svg width="35" height="23" viewBox="0 0 35 23" fill="none" xmlns="http://www.w3.org/2000/svg">
<g clip-path="url(#clip0_6_68)">
<path d="M0.278809 0.494629H34.2788V22.4946H0.278809V0.494629Z" fill="#003399"/>
<path d="M17.2766 2.67236L17.5593 3.5548H18.4783L17.7382 4.10049L18.0168 4.98386L17.2766 4.43817L16.5364 4.98386L16.8191 4.10096L16.079 3.55527H16.9939L17.2766 2.67236ZM13.4988 3.69459L13.7815 4.57702H14.7005L13.9604 5.12271L14.239 6.00608L13.4988 5.46039L12.7586 6.00608L13.0414 5.12318L12.3012 4.57749H13.2161L13.4988 3.69459ZM10.7284 6.5057L11.0111 7.38813H11.9302L11.19 7.93383L11.4686 8.8172L10.7284 8.2715L9.98825 8.8172L10.271 7.93429L9.53084 7.3886H10.4457L10.7284 6.5057ZM9.72104 10.339L10.0037 11.2215H10.9227L10.1826 11.7672L10.4612 12.6506L9.72104 12.1048L8.98084 12.6506L9.26359 11.7676L8.52344 11.2219H9.43833L9.72104 10.339ZM10.7284 14.1724L11.0111 15.0548H11.9302L11.19 15.6005L11.4686 16.4839L10.7284 15.9382L9.98825 16.4839L10.271 15.601L9.53084 15.0553H10.4457L10.7284 14.1724ZM13.4988 16.9835L13.7815 17.8659H14.7005L13.9604 18.4116L14.239 19.295L13.4988 18.7493L12.7586 19.295L13.0414 18.4121L12.3012 17.8664H13.2161L13.4988 16.9835ZM21.0544 3.69459L21.3371 4.57702H22.2561L21.5159 5.12271L21.7945 6.00608L21.0544 5.46039L20.3141 6.00608L20.5969 5.12318L19.8568 4.57749H20.7716L21.0544 3.69459ZM23.8247 6.5057L24.1074 7.38813H25.0265L24.2863 7.93383L24.5649 8.8172L23.8247 8.2715L23.0845 8.8172L23.3673 7.93429L22.6271 7.3886H23.542L23.8247 6.5057ZM24.8321 10.339L25.1148 11.2215H26.0339L25.2937 11.7672L25.5723 12.6506L24.8321 12.1048L24.092 12.6506L24.3747 11.7676L23.6345 11.2219H24.5494L24.8321 10.339ZM23.8247 14.1724L24.1074 15.0548H25.0265L24.2863 15.6005L24.5649 16.4839L23.8247 15.9382L23.0845 16.4839L23.3673 15.601L22.6271 15.0553H23.542L23.8247 14.1724ZM17.2766 18.0057L17.5593 18.8882H18.4783L17.7382 19.4338L18.0168 20.3172L17.2766 19.7715L16.5364 20.3172L16.8191 19.4343L16.079 18.8886H16.9939L17.2766 18.0057ZM21.0544 16.9834L21.3371 17.8659H22.2561L21.5159 18.4116L21.7946 19.295L21.0544 18.7493L20.3142 19.295L20.5969 18.412L19.8568 17.8664H20.7717L21.0544 16.9834Z" fill="#FFCC00"/>
</g>
<defs>
<clipPath id="clip0_6_68">
<rect width="34" height="22" fill="white" transform="translate(0.278809 0.494629)"/>
</clipPath>
</defs>
</svg>
