<svg width="35" height="23" viewBox="0 0 35 23" fill="none" xmlns="http://www.w3.org/2000/svg">
<g clip-path="url(#clip0_1_6256)">
<path d="M0.180176 0.93457H34.1802V22.9346H0.180176V0.93457Z" fill="#2E52B2"/>
<path d="M17.1802 0.93457V2.39135L14.1188 4.37026H17.1802V8.49566H14.1188L17.1802 10.4746V11.9378H15.6794L10.8052 8.77928V11.9378H6.55518V8.77928L1.68096 11.9378H0.180176V10.4746L3.2415 8.49566H0.180176V4.37026H3.2415L0.180176 2.39135V0.93457H1.68096L6.55518 4.08664V0.93457H10.8052V4.08664L15.6794 0.93457H17.1802Z" fill="white"/>
<path d="M9.74268 0.93457H7.61768V5.40161H0.180176V7.46431H7.61768V11.9378H9.74268V7.46431H17.1802V5.40161H9.74268V0.93457Z" fill="#D80027"/>
<path d="M0.180176 0.93457V1.90791L3.99189 4.37026H5.49268L0.180176 0.93457ZM17.1802 0.93457V1.90791L13.3685 4.37026H11.8677L17.1802 0.93457Z" fill="#D80027"/>
<path d="M0.180176 0.93457V1.90791L3.99189 4.37026H5.49268L0.180176 0.93457ZM17.1802 0.93457V1.90791L13.3685 4.37026H11.8677L17.1802 0.93457ZM0.180176 11.9378V10.9645L3.99189 8.49566H5.49268L0.180176 11.9378ZM17.1802 11.9378V10.9645L13.3685 8.49566H11.8677L17.1802 11.9378Z" fill="#D80027"/>
<path d="M20.5737 9.1272V15.0575C20.5737 19.0282 25.9194 20.2464 25.9194 20.2464C25.9194 20.2464 31.2585 19.0217 31.2585 15.051V9.12075L25.9128 7.63818L20.5737 9.1272Z" fill="#F3F3F3"/>
<path d="M31.2585 9.49485V7.271H20.5737V9.49485H25.1558V13.9425H20.5737V15.4251H25.1558V20.0146C25.614 20.1758 25.9194 20.2402 25.9194 20.2402C25.9194 20.2402 26.2249 20.1693 26.6831 20.0146V15.4251H31.2651V13.9425H26.6831V9.49485H31.2585Z" fill="#D80027"/>
</g>
<defs>
<clipPath id="clip0_1_6256">
<rect width="34" height="22" fill="white" transform="translate(0.180176 0.93457)"/>
</clipPath>
</defs>
</svg>
