<svg width="35" height="23" viewBox="0 0 35 23" fill="none" xmlns="http://www.w3.org/2000/svg">
<g clip-path="url(#clip0_1_6253)">
<path d="M0.114746 0.93457H34.1147V22.9346H0.114746V0.93457Z" fill="#0052B4"/>
<path d="M17.1147 0.93457V2.90703L14.1132 4.52496H17.1147V8.3474H13.1901L17.1147 10.4617V11.9378H15.3417L10.4608 9.3014V11.9378H6.76865V8.80507L0.958105 11.9378H0.114746V9.96534L3.11631 8.3474H0.114746V4.52496H4.03936L0.114746 2.40425V0.93457H1.88779L6.76865 3.56451V0.93457H10.4608V4.0673L16.2714 0.93457H17.1147Z" fill="white"/>
<path d="M9.67725 0.93457H7.55225V5.40161H0.114746V7.46431H7.55225V11.9378H9.67725V7.46431H17.1147V5.40161H9.67725V0.93457Z" fill="#D80027"/>
<path d="M10.4609 8.34717L17.1148 11.9376V10.9191L12.3469 8.34717H10.4609Z" fill="#0052B4"/>
<path d="M10.4609 8.34717L17.1148 11.9376V10.9191L12.3469 8.34717H10.4609Z" fill="white"/>
<path d="M10.4608 8.34717L17.1147 11.9376V10.9191L12.3468 8.34717H10.4608ZM4.88272 8.34717L0.114746 10.9191V11.9376L6.76865 8.34717H4.88272Z" fill="#D80027"/>
<path d="M6.76865 4.51851L0.114746 0.93457V1.94658L4.88272 4.51851H6.76865Z" fill="#0052B4"/>
<path d="M6.76865 4.51851L0.114746 0.93457V1.94658L4.88272 4.51851H6.76865Z" fill="white"/>
<path d="M6.76865 4.51851L0.114746 0.93457V1.94658L4.88272 4.51851H6.76865ZM12.3468 4.51851L17.1147 1.94658V0.93457L10.4608 4.51851H12.3468Z" fill="#D80027"/>
<path d="M20.8467 13.4526V7.65127C20.8467 7.10336 21.2783 6.66504 21.8428 6.66504H29.8447C30.3959 6.66504 30.8408 7.10336 30.8408 7.65127V13.4526C30.8408 18.3 25.8471 20.2402 25.8471 20.2402C25.8471 20.2402 20.8467 18.3 20.8467 13.4526Z" fill="#1F8BDE"/>
<path d="M20.8467 13.4526V7.65127C20.8467 7.10336 21.2783 6.66504 21.8428 6.66504H29.8447C30.3959 6.66504 30.8408 7.10336 30.8408 7.65127V13.4526C30.8408 18.3 25.8471 20.2402 25.8471 20.2402C25.8471 20.2402 20.8467 18.3 20.8467 13.4526ZM26.1326 19.0155C26.6572 18.7254 27.1885 18.3709 27.6732 17.939C29.0346 16.7465 29.8381 15.2704 29.8381 13.4462V7.64482C29.8381 7.62548 21.8428 7.62548 21.8428 7.62548V13.4462C21.8428 15.2704 22.6463 16.7465 24.0076 17.939C24.5588 18.4224 25.1764 18.835 25.8404 19.1637C25.9334 19.125 26.0264 19.0735 26.1326 19.0155Z" fill="white"/>
<path d="M23.1644 13.4013C22.9917 12.892 23.2773 12.4795 23.8351 12.4795H27.8527C28.3972 12.4795 28.7027 12.8856 28.5234 13.4013L28.1581 14.4648C27.9855 14.9741 27.5671 15.0579 27.1089 14.7227C27.1089 14.7227 27.2816 14.4133 25.8405 14.4133C24.3995 14.4133 24.5722 14.7227 24.5722 14.7227C24.1671 15.0901 23.7023 14.9805 23.523 14.4648C23.5296 14.4713 23.1644 13.4013 23.1644 13.4013Z" fill="#187536"/>
<path d="M23.8482 12.4791C24.3861 12.5822 25.0302 11.5122 25.847 11.5122C26.7169 11.5122 27.2947 12.6145 27.8458 12.4791C28.3372 12.3631 28.8419 11.0481 28.8419 10.5389C28.8419 9.46883 27.5005 8.59863 25.847 8.59863C24.1935 8.59863 22.8521 9.46883 22.8521 10.5389C22.8454 11.0868 23.2904 12.376 23.8482 12.4791ZM23.7552 18.3836C24.1669 18.4094 24.5853 18.2675 24.8974 17.9646L25.495 17.3845C25.6876 17.1975 25.9931 17.1975 26.1857 17.3845L26.7833 17.9646C27.0954 18.2675 27.5138 18.4094 27.9189 18.3836C28.2708 18.3642 30.0771 16.2242 29.6255 16.2822C29.32 16.3209 29.0212 16.4627 28.7822 16.6883L28.7755 16.6947L28.1779 17.2749C27.9853 17.4618 27.6798 17.4618 27.4872 17.2749L26.8896 16.6947C26.3118 16.1275 25.3689 16.1275 24.7845 16.6883L24.7779 16.6947L24.1802 17.2749C23.9876 17.4618 23.6822 17.4618 23.4896 17.2749L22.8919 16.6947C22.6595 16.4691 22.3739 16.3338 22.0751 16.2886C21.6302 16.2177 23.4099 18.3642 23.7552 18.3836ZM21.504 14.4709C21.6966 14.284 22.0021 14.284 22.1947 14.4709L22.7923 15.051C23.3767 15.6118 24.313 15.6118 24.8974 15.051L25.495 14.4709C25.6876 14.284 25.9931 14.284 26.1857 14.4709L26.7833 15.051C27.3677 15.6118 28.304 15.6118 28.8884 15.051L29.4861 14.4709C29.6786 14.284 29.9841 14.284 30.1767 14.4709C30.1767 14.4709 30.5419 13.5169 30.3427 13.446C29.8181 13.259 29.2005 13.3686 28.7822 13.7812L28.7755 13.7876L28.1779 14.3678C27.9853 14.5547 27.6798 14.5547 27.4872 14.3678L26.8896 13.7876C26.3118 13.2204 25.3689 13.2204 24.7845 13.7812L24.7779 13.7876L24.1802 14.3678C23.9876 14.5547 23.6822 14.5547 23.4896 14.3678L22.8919 13.7876C22.4802 13.388 21.8892 13.2719 21.3779 13.4331C21.172 13.504 21.504 14.4709 21.504 14.4709Z" fill="white"/>
</g>
<defs>
<clipPath id="clip0_1_6253">
<rect width="34" height="22" fill="white" transform="translate(0.114746 0.93457)"/>
</clipPath>
</defs>
</svg>
