<svg width="35" height="23" viewBox="0 0 35 23" fill="none" xmlns="http://www.w3.org/2000/svg">
<g clip-path="url(#clip0_1_6250)">
<path d="M0.0493164 0.93457H34.0493V22.9346H0.0493164V0.93457Z" fill="#338AF3"/>
<path d="M17.0492 3.37744L17.7199 5.38858H19.9047L18.1383 6.63264L18.8156 8.64378L17.0492 7.39971L15.2828 8.64378L15.9602 6.63264L14.1938 5.38858H16.3785L17.0492 3.37744ZM8.23047 11.9377L10.3023 11.2802V9.1659L11.584 10.8805L13.6559 10.223L12.3742 11.9377L13.6559 13.6458L11.584 12.9948L10.3023 14.703V12.5887L8.23047 11.9377ZM17.0492 20.4979L16.3785 18.4867H14.1938L15.9602 17.2427L15.2828 15.2251L17.0492 16.4692L18.8156 15.2251L18.1383 17.2427L19.9047 18.4867H17.7199L17.0492 20.4979ZM25.868 11.9377L23.7961 12.5887V14.703L22.5145 12.9948L20.4426 13.6458L21.7242 11.9377L20.4426 10.223L22.5145 10.8805L23.7961 9.1659V11.2802L25.868 11.9377Z" fill="white"/>
</g>
<defs>
<clipPath id="clip0_1_6250">
<rect width="34" height="22" fill="white" transform="translate(0.0493164 0.93457)"/>
</clipPath>
</defs>
</svg>
