<svg width="35" height="23" viewBox="0 0 35 23" fill="none" xmlns="http://www.w3.org/2000/svg">
<g clip-path="url(#clip0_1_6152)">
<path d="M0.376953 0.721191H34.377V22.7214H0.376953V0.721191Z" fill="white"/>
<path d="M19.502 0.720703H15.252V9.65817H0.376953V13.7832H15.252V22.7206H19.502V13.7832H34.377V9.65817H19.502V0.720703Z" fill="#D80027"/>
<path d="M26.5269 15.5469L34.3771 19.7799V15.5469H26.5269ZM21.0728 15.5469L34.3771 22.7208V20.6922L24.835 15.5469H21.0728ZM30.8333 22.7208L21.0728 17.4573V22.7208H30.8333Z" fill="#0052B4"/>
<path d="M21.0728 15.5469L34.3771 22.7208V20.6922L24.835 15.5469H21.0728Z" fill="white"/>
<path d="M21.0728 15.5469L34.3771 22.7208V20.6922L24.835 15.5469H21.0728Z" fill="#D80027"/>
<path d="M6.37616 15.5469L0.376953 18.7818V15.5469H6.37616ZM13.6813 16.4591V22.7208H2.06971L13.6813 16.4591Z" fill="#0052B4"/>
<path d="M9.91907 15.5469L0.376953 20.6922V22.7208L13.6813 15.5469H9.91907Z" fill="#D80027"/>
<path d="M8.22717 7.8946L0.376953 3.66157V7.8946H8.22717ZM13.6813 7.8946L0.376953 0.720703V2.7493L9.91907 7.8946H13.6813ZM3.92079 0.720703L13.6813 5.98421V0.720703H3.92079Z" fill="#0052B4"/>
<path d="M13.6813 7.8946L0.376953 0.720703V2.7493L9.91907 7.8946H13.6813Z" fill="white"/>
<path d="M13.6813 7.8946L0.376953 0.720703V2.7493L9.91907 7.8946H13.6813Z" fill="#D80027"/>
<path d="M28.3779 7.89515L34.3771 4.66025V7.89515H28.3779ZM21.0728 6.98288V0.721191H32.6844L21.0728 6.98288Z" fill="#0052B4"/>
<path d="M24.835 7.89509L34.3771 2.74979V0.721191L21.0728 7.89509H24.835Z" fill="#D80027"/>
</g>
<defs>
<clipPath id="clip0_1_6152">
<rect width="34" height="22" fill="white" transform="translate(0.376953 0.721191)"/>
</clipPath>
</defs>
</svg>
