<svg width="35" height="23" viewBox="0 0 35 23" fill="none" xmlns="http://www.w3.org/2000/svg">
<g clip-path="url(#clip0_1_6233)">
<path d="M0.196777 0.458984H34.1968V22.459H0.196777V0.458984Z" fill="#C60A0A"/>
<path d="M17.1968 11.4624L3.15186 19.5907V3.32764L17.1968 11.4624Z" fill="#3E8446"/>
<path d="M17.1968 11.4624L31.2417 19.5907H3.15186L17.1968 11.4624ZM31.2417 3.32764L17.1968 11.4624L3.15186 3.32764H31.2417Z" fill="#FFDA44"/>
<path d="M31.2417 3.32764V19.5907L17.1968 11.4624L31.2417 3.32764Z" fill="#3E8446"/>
<path d="M17.197 1.12939L17.4161 1.78688H18.1267L17.5556 2.19297L17.7747 2.85046L17.197 2.44437L16.6192 2.85046L16.8384 2.19297L16.2673 1.78688H16.9778L17.197 1.12939ZM11.4927 1.12939L11.7118 1.78688H12.4224L11.8513 2.19297L12.0704 2.85046L11.4927 2.44437L10.9149 2.85046L11.1341 2.19297L10.563 1.78688H11.2735L11.4927 1.12939ZM22.9013 1.12939L23.1204 1.78688H23.8376L23.2599 2.19297L23.479 2.85046L22.9013 2.44437L22.3235 2.85046L22.5427 2.19297L21.9716 1.78688H22.6821L22.9013 1.12939ZM17.197 20.0676L17.4161 20.7251H18.1267L17.5556 21.1312L17.7747 21.7886L17.197 21.3825L16.6192 21.7886L16.8384 21.1312L16.2673 20.7251H16.9778L17.197 20.0676ZM11.4927 20.0676L11.7118 20.7251H12.4224L11.8513 21.1312L12.0704 21.7886L11.4927 21.3825L10.9149 21.7886L11.1341 21.1312L10.563 20.7251H11.2735L11.4927 20.0676ZM22.9013 20.0676L23.1204 20.7251H23.8376L23.2599 21.1312L23.479 21.7886L22.9013 21.3825L22.3235 21.7886L22.5427 21.1312L21.9716 20.7251H22.6821L22.9013 20.0676Z" fill="#FFDA44"/>
<path d="M16.4332 16.3739C19.2278 16.3739 21.4934 14.1748 21.4934 11.4621C21.4934 8.74938 19.2278 6.55029 16.4332 6.55029C13.6386 6.55029 11.373 8.74938 11.373 11.4621C11.373 14.1748 13.6386 16.3739 16.4332 16.3739Z" fill="#C60A0A"/>
<path d="M16.4332 7.55615L17.3364 10.2506H20.2582L17.8942 11.9136L18.7973 14.608L16.4332 12.945L14.0758 14.608L14.9789 11.9136L12.6149 10.2506H15.5368L16.4332 7.55615ZM7.34887 11.2755C7.64106 11.7202 7.5016 12.3133 7.0434 12.5969C6.5852 12.8805 5.97426 12.7451 5.68207 12.3004C5.15746 11.4946 5.46293 10.1732 5.46293 10.1732C5.46293 10.1732 6.81762 10.4697 7.34887 11.2755Z" fill="#FFDA44"/>
<path d="M6.77754 12.6742C7.04894 12.6742 7.26895 12.4607 7.26895 12.1972C7.26895 11.9338 7.04894 11.7202 6.77754 11.7202C6.50614 11.7202 6.28613 11.9338 6.28613 12.1972C6.28613 12.4607 6.50614 12.6742 6.77754 12.6742Z" fill="#A2001D"/>
</g>
<defs>
<clipPath id="clip0_1_6233">
<rect width="34" height="22" fill="white" transform="translate(0.196777 0.458984)"/>
</clipPath>
</defs>
</svg>
