<svg width="35" height="23" viewBox="0 0 35 23" fill="none" xmlns="http://www.w3.org/2000/svg">
<g clip-path="url(#clip0_1_6204)">
<path d="M0.278809 0.246094H34.2788V22.2461H0.278809V0.246094Z" fill="white"/>
<path d="M0.278809 0.246094H34.2788V3.39171H0.278809V0.246094ZM0.278809 6.53089H34.2788V9.67651H0.278809V6.53089ZM0.278809 12.8157H34.2788V15.9613H0.278809V12.8157ZM0.278809 19.1069H34.2788V22.2525H0.278809V19.1069Z" fill="#6DA544"/>
<path d="M0.278809 0.246094H17.2788V9.67651H0.278809V0.246094Z" fill="#D80027"/>
<path d="M8.0415 7.62037L7.54346 6.66637V4.75192L8.77861 4.04932L10.0138 4.75192V6.18937L10.5052 5.71237L10.7841 5.90575L10.5052 6.66637L9.51572 7.62037H8.0415Z" fill="white"/>
<path d="M5.72432 5.93151C5.92236 5.93151 6.08291 5.77567 6.08291 5.58343C6.08291 5.39119 5.92236 5.23535 5.72432 5.23535C5.52627 5.23535 5.36572 5.39119 5.36572 5.58343C5.36572 5.77567 5.52627 5.93151 5.72432 5.93151Z" fill="white"/>
<path d="M6.3083 4.57116C6.50635 4.57116 6.66689 4.41532 6.66689 4.22308C6.66689 4.03084 6.50635 3.875 6.3083 3.875C6.11026 3.875 5.94971 4.03084 5.94971 4.22308C5.94971 4.41532 6.11026 4.57116 6.3083 4.57116Z" fill="white"/>
<path d="M7.35762 3.57214C7.55566 3.57214 7.71621 3.4163 7.71621 3.22406C7.71621 3.03182 7.55566 2.87598 7.35762 2.87598C7.15957 2.87598 6.99902 3.03182 6.99902 3.22406C6.99902 3.4163 7.15957 3.57214 7.35762 3.57214Z" fill="white"/>
<path d="M8.779 3.22399C8.97705 3.22399 9.1376 3.06815 9.1376 2.87591C9.1376 2.68367 8.97705 2.52783 8.779 2.52783C8.58096 2.52783 8.42041 2.68367 8.42041 2.87591C8.42041 3.06815 8.58096 3.22399 8.779 3.22399Z" fill="white"/>
<path d="M10.1999 3.57214C10.3979 3.57214 10.5585 3.4163 10.5585 3.22406C10.5585 3.03182 10.3979 2.87598 10.1999 2.87598C10.0019 2.87598 9.84131 3.03182 9.84131 3.22406C9.84131 3.4163 10.0019 3.57214 10.1999 3.57214Z" fill="white"/>
<path d="M11.2492 4.57116C11.4473 4.57116 11.6078 4.41532 11.6078 4.22308C11.6078 4.03084 11.4473 3.875 11.2492 3.875C11.0512 3.875 10.8906 4.03084 10.8906 4.22308C10.8906 4.41532 11.0512 4.57116 11.2492 4.57116Z" fill="white"/>
<path d="M11.8337 5.93151C12.0317 5.93151 12.1923 5.77567 12.1923 5.58343C12.1923 5.39119 12.0317 5.23535 11.8337 5.23535C11.6356 5.23535 11.4751 5.39119 11.4751 5.58343C11.4751 5.77567 11.6356 5.93151 11.8337 5.93151Z" fill="white"/>
</g>
<defs>
<clipPath id="clip0_1_6204">
<rect width="34" height="22" fill="white" transform="translate(0.278809 0.246094)"/>
</clipPath>
</defs>
</svg>
