<svg width="35" height="23" viewBox="0 0 35 23" fill="none" xmlns="http://www.w3.org/2000/svg">
<g clip-path="url(#clip0_1_6232)">
<path d="M0.442383 0.721191H34.4424V22.7212H0.442383V0.721191Z" fill="white"/>
<path d="M0.442383 15.5166H34.4424V22.7213H0.442383V15.5166Z" fill="#D80027"/>
<path d="M24.5077 9.19969V7.09618H25.2301V5.69384H23.7787V6.39501H22.3338V5.69384H20.889V7.09618H21.6114V9.19969H20.1666V4.2915H20.889V2.88916H19.4442V3.59033H18.7217V2.88916H17.2769V3.59033H16.5545V2.88916H15.1097V4.2915H15.8321V9.19969H14.3872V7.09618H15.1097V5.69384H13.6648V6.39501H12.22V5.69384H10.7752V7.09618H11.4976V9.19969H10.0527V14.809H25.9525V9.19969H24.5077Z" fill="#D80027" stroke="black" stroke-width="0.0819672" stroke-miterlimit="10"/>
<path d="M17.9992 15.8701L16.3953 17.0409L17.6612 17.9608V19.9742H16.1235V20.5532H17.6479V21.0613H16.1235V21.6596H18.3372V17.9608L19.6031 17.0409L17.9992 15.8701ZM17.9992 17.4976L17.3298 17.0409L17.9992 16.5842L18.6686 17.0409L17.9992 17.4976Z" fill="#FFDA44" stroke="black" stroke-width="0.0819672" stroke-miterlimit="10"/>
<path d="M16.3224 14.2107V12.4159C16.3224 12.4159 16.329 10.9814 17.9793 10.9814C19.623 10.9814 19.6826 12.3966 19.6826 12.3966V14.2107H16.3224ZM11.7427 14.2107V12.6475C11.7427 12.6475 11.7493 11.4446 13.0417 11.4446C14.3341 11.4446 14.3805 12.6282 14.3805 12.6282V14.2043H11.7427V14.2107Z" fill="black"/>
<path d="M11.6499 14.2107V12.6476C11.6499 12.6476 11.6565 11.4447 12.9489 11.4447C14.2413 11.4447 14.2877 12.6283 14.2877 12.6283V14.2043H11.6499V14.2107ZM21.7107 14.2107V12.6476C21.7107 12.6476 21.7173 11.4447 23.0097 11.4447C24.3021 11.4447 24.3485 12.6283 24.3485 12.6283V14.2043H21.7107V14.2107ZM22.2674 9.2125V8.20256C22.2674 8.20256 22.2741 7.42419 23.0164 7.42419C23.7653 7.42419 23.7918 8.18969 23.7918 8.18969V9.2125H22.2674ZM17.0448 9.2125V7.68794C17.0448 7.68794 17.0515 6.51074 17.9926 6.51074C18.9337 6.51074 18.9669 7.66864 18.9669 7.66864V9.2125H17.0448ZM12.2066 9.2125V8.20256C12.2066 8.20256 12.2133 7.42419 12.9556 7.42419C13.6979 7.42419 13.731 8.18969 13.731 8.18969V9.2125H12.2066Z" fill="black"/>
</g>
<defs>
<clipPath id="clip0_1_6232">
<rect width="34" height="22" fill="white" transform="translate(0.442383 0.721191)"/>
</clipPath>
</defs>
</svg>
