<svg width="35" height="23" viewBox="0 0 35 23" fill="none" xmlns="http://www.w3.org/2000/svg">
<g clip-path="url(#clip0_1_6216)">
<path d="M0.212891 0.721191H34.2129V22.7212H0.212891V0.721191Z" fill="white"/>
<path d="M0.212891 0.721191H34.2129V8.04166H0.212891V0.721191Z" fill="#6DA544"/>
<path d="M0.212891 15.3623H34.2129V22.7214H0.212891V15.3623Z" fill="#D80027"/>
<path d="M8.56377 11.7019L0.212891 22.6762V0.721191L8.56377 11.7019Z" fill="#0070C8"/>
<path d="M15.7085 9.68848V12.2873C15.7085 14.5774 18.0679 14.5774 18.0679 14.5774C18.0679 14.5774 20.4274 14.5774 20.4274 12.2873V9.68848H15.7085Z" stroke="black" stroke-width="0.0819672" stroke-miterlimit="10"/>
<path d="M17.7431 12.2871H18.3926L18.6578 13.9468H17.478L17.7431 12.2871Z" fill="#786145"/>
<path d="M19.2477 11.1425C19.2477 10.5121 18.7174 10.1904 18.0679 10.1904C17.4184 10.1904 16.8882 10.5121 16.8882 11.1425C16.5634 11.1425 16.2983 11.3998 16.2983 11.715C16.2983 12.0302 16.5634 12.2875 16.8882 12.2875H19.2477C19.5724 12.2875 19.8375 12.0302 19.8375 11.715C19.8375 11.3998 19.5724 11.1425 19.2477 11.1425Z" fill="#6DA544"/>
<path d="M15.5028 8.44043L15.6287 8.65271H15.8806L15.7546 8.86499L15.8806 9.07084H15.6287L15.5028 9.28312L15.3769 9.07084H15.125L15.2509 8.86499L15.125 8.65271H15.3769L15.5028 8.44043ZM16.5168 8.44043L16.6427 8.65271H16.888L16.762 8.86499L16.888 9.07084H16.6427L16.5168 9.28312L16.3909 9.07084H16.139L16.265 8.86499L16.139 8.65271H16.3909L16.5168 8.44043ZM17.5308 8.44043L17.6568 8.65271H17.902L17.7761 8.86499L17.902 9.07084H17.6568L17.5308 9.28312L17.4049 9.07084H17.1531L17.279 8.86499L17.1531 8.65271H17.4049L17.5308 8.44043ZM18.578 8.44043L18.7039 8.65271H18.9558L18.8299 8.86499L18.9558 9.07084H18.7039L18.578 9.28312L18.4521 9.07084H18.2069L18.3262 8.86499L18.2069 8.65271H18.4521L18.578 8.44043ZM19.6385 8.44043L19.7644 8.65271H20.0162L19.8903 8.86499L20.0162 9.07084H19.7644L19.6385 9.28312L19.5125 9.07084H19.2673L19.3866 8.86499L19.2673 8.65271H19.5125L19.6385 8.44043ZM20.6326 8.44043L20.7585 8.65271H21.0038L20.8778 8.86499L21.0038 9.07084H20.7585L20.6326 9.28312L20.5067 9.07084H20.2548L20.3807 8.86499L20.2548 8.65271H20.5067L20.6326 8.44043Z" fill="#FFDA00" stroke="black" stroke-width="0.0819672" stroke-miterlimit="10"/>
</g>
<defs>
<clipPath id="clip0_1_6216">
<rect width="34" height="22" fill="white" transform="translate(0.212891 0.721191)"/>
</clipPath>
</defs>
</svg>
