<svg width="35" height="23" viewBox="0 0 35 23" fill="none" xmlns="http://www.w3.org/2000/svg">
<g clip-path="url(#clip0_1_6138)">
<path d="M0.147461 0.721191H34.1475V22.7212H0.147461V0.721191Z" fill="white"/>
<path d="M0.147461 0.721191H34.1475V3.16564H0.147461V0.721191ZM0.147461 5.61008H34.1475V8.05452H0.147461V5.61008ZM0.147461 10.499H34.1475V12.9434H0.147461V10.499ZM0.147461 15.3879H34.1475V17.8323H0.147461V15.3879ZM0.147461 20.2767H34.1475V22.7212H0.147461V20.2767Z" fill="#0D5EAF"/>
<path d="M0.147461 0.721191H12.7401V12.9434H0.147461V0.721191Z" fill="#0D5EAF"/>
<path d="M0.147461 5.60986H12.7401V8.05431H0.147461V5.60986Z" fill="white"/>
<path d="M5.18457 0.721191H7.70309V12.9434H5.18457V0.721191Z" fill="white"/>
</g>
<defs>
<clipPath id="clip0_1_6138">
<rect width="34" height="22" fill="white" transform="translate(0.147461 0.721191)"/>
</clipPath>
</defs>
</svg>
