<svg width="35" height="23" viewBox="0 0 35 23" fill="none" xmlns="http://www.w3.org/2000/svg">
<g clip-path="url(#clip0_1_6210)">
<path d="M0.0986328 0.458984H34.0986V22.459H0.0986328V0.458984Z" fill="#0052B4"/>
<path d="M17.0986 0.458984V8.02652H14.0373L17.0986 10.0054V11.4622H15.5979L10.7236 8.31014V11.4622H6.47363V8.31014L1.59941 11.4622H0.0986328V10.0054L3.15996 8.02652H0.0986328V3.90112H3.15996L0.0986328 1.92221V0.458984H1.59941L6.47363 3.61105V0.458984H10.7236V3.61105L15.5979 0.458984H17.0986Z" fill="white"/>
<path d="M9.66113 0.458984H7.53613V4.93247H0.0986328V6.99517H7.53613V11.4622H9.66113V6.99517H17.0986V4.93247H9.66113V0.458984Z" fill="#D80027"/>
<path d="M17.0984 1.92236V3.90127H14.0371L17.0984 1.92236Z" fill="#2E52B2"/>
<path d="M0.0986328 11.4626V10.7535L4.24902 8.02691H5.7498L0.583398 11.4626H0.0986328ZM0.583398 0.46582L5.7498 3.89506H4.24902L0.0986328 1.17487V0.46582H0.583398ZM17.0986 0.46582V1.17487L12.9482 3.90151H11.4475L16.6139 0.46582H17.0986ZM16.6139 11.4626L11.4475 8.02691H12.9482L17.0986 10.7535V11.4626H16.6139Z" fill="#D80027"/>
<path d="M29.543 18.3209C30.6065 18.3209 31.4688 17.0655 31.4688 15.5169C31.4688 13.9683 30.6065 12.7129 29.543 12.7129C28.4794 12.7129 27.6172 13.9683 27.6172 15.5169C27.6172 17.0655 28.4794 18.3209 29.543 18.3209Z" fill="white"/>
<path d="M27.1191 21.5373C27.926 21.5373 28.5801 21.2689 28.5801 20.9379C28.5801 20.6068 27.926 20.3384 27.1191 20.3384C26.3123 20.3384 25.6582 20.6068 25.6582 20.9379C25.6582 21.2689 26.3123 21.5373 27.1191 21.5373Z" fill="#FFCE00"/>
<path d="M24.2705 21.5373C25.0774 21.5373 25.7314 21.2689 25.7314 20.9379C25.7314 20.6068 25.0774 20.3384 24.2705 20.3384C23.4637 20.3384 22.8096 20.6068 22.8096 20.9379C22.8096 21.2689 23.4637 21.5373 24.2705 21.5373Z" fill="#FFCE00"/>
<path d="M22.8096 12.7129L25.6916 18.3144L28.5803 12.7129H22.8096Z" fill="#39B200"/>
<path d="M21.8467 18.3209C22.9103 18.3209 23.7725 17.0655 23.7725 15.5169C23.7725 13.9683 22.9103 12.7129 21.8467 12.7129C20.7831 12.7129 19.9209 13.9683 19.9209 15.5169C19.9209 17.0655 20.7831 18.3209 21.8467 18.3209Z" fill="#9B9B9B"/>
<path d="M24.7352 11.7783L23.7723 12.713H27.6172L26.6543 11.7783L27.6172 8.9743C27.6172 8.9743 26.7539 7.10498 25.6914 7.10498C24.6289 7.10498 23.7656 8.9743 23.7656 8.9743L24.7352 11.7783Z" fill="#757575"/>
<path d="M25.6914 6.64685C26.755 6.64685 27.6172 5.80993 27.6172 4.77753C27.6172 3.74513 26.755 2.9082 25.6914 2.9082C24.6278 2.9082 23.7656 3.74513 23.7656 4.77753C23.7656 5.80993 24.6278 6.64685 25.6914 6.64685Z" fill="#C6B56F"/>
<path d="M25.7314 8.04578C26.795 8.04578 27.6572 7.20885 27.6572 6.17645C27.6572 5.14405 26.795 4.30713 25.7314 4.30713C24.6679 4.30713 23.8057 5.14405 23.8057 6.17645C23.8057 7.20885 24.6679 8.04578 25.7314 8.04578Z" fill="#A54A00"/>
<path d="M29.543 9.9154C30.6065 9.9154 31.4688 9.07848 31.4688 8.04608C31.4688 7.01368 30.6065 6.17676 29.543 6.17676C28.4794 6.17676 27.6172 7.01368 27.6172 8.04608C27.6172 9.07848 28.4794 9.9154 29.543 9.9154Z" fill="white"/>
<path d="M22.8228 11.7845C23.8863 11.7845 24.7485 10.9476 24.7485 9.91522C24.7485 8.88282 23.8863 8.0459 22.8228 8.0459C21.7592 8.0459 20.897 8.88282 20.897 9.91522C20.897 10.9476 21.7592 11.7845 22.8228 11.7845Z" fill="#0049FF"/>
<path d="M28.6401 11.7845C29.7037 11.7845 30.5659 10.9476 30.5659 9.91522C30.5659 8.88282 29.7037 8.0459 28.6401 8.0459C27.5766 8.0459 26.7144 8.88282 26.7144 9.91522C26.7144 10.9476 27.5766 11.7845 28.6401 11.7845Z" fill="#0041F9"/>
<path d="M25.7314 17.3861C26.795 17.3861 27.6572 16.5492 27.6572 15.5168C27.6572 14.4844 26.795 13.6475 25.7314 13.6475C24.6679 13.6475 23.8057 14.4844 23.8057 15.5168C23.8057 16.5492 24.6679 17.3861 25.7314 17.3861Z" fill="#F7D71E"/>
<path d="M30.5059 14.5819C31.5694 14.5819 32.4316 13.745 32.4316 12.7126C32.4316 11.6802 31.5694 10.8433 30.5059 10.8433C29.4423 10.8433 28.5801 11.6802 28.5801 12.7126C28.5801 13.745 29.4423 14.5819 30.5059 14.5819Z" fill="#CEC851"/>
<path d="M25.6914 20.9891C26.755 20.9891 27.6172 20.1522 27.6172 19.1198C27.6172 18.0874 26.755 17.2505 25.6914 17.2505C24.6278 17.2505 23.7656 18.0874 23.7656 19.1198C23.7656 20.1522 24.6278 20.9891 25.6914 20.9891Z" fill="white"/>
<path d="M24.7354 9.20608L25.6982 8.98047L26.6611 9.20608C26.6611 9.68952 25.6982 9.91513 25.6982 9.91513C25.6982 9.91513 24.7354 9.68952 24.7354 9.20608Z" fill="#7C0B29"/>
<path d="M21.8467 9.89587C22.9103 9.89587 23.7725 9.05895 23.7725 8.02655C23.7725 6.99415 22.9103 6.15723 21.8467 6.15723C20.7831 6.15723 19.9209 6.99415 19.9209 8.02655C19.9209 9.05895 20.7831 9.89587 21.8467 9.89587Z" fill="white"/>
</g>
<defs>
<clipPath id="clip0_1_6210">
<rect width="34" height="22" fill="white" transform="translate(0.0986328 0.458984)"/>
</clipPath>
</defs>
</svg>
