<svg width="35" height="23" viewBox="0 0 35 23" fill="none" xmlns="http://www.w3.org/2000/svg">
<g clip-path="url(#clip0_1_6207)">
<path d="M0.0493164 0.721191H33.983V22.6762H0.0493164V0.721191Z" fill="#D80027"/>
<path d="M0.785156 1.43506H33.2409V21.962H0.785156V1.43506Z" fill="#0052B4"/>
<path d="M17.0162 19.074C17.0162 19.074 22.0797 15.774 22.0797 11.7021C22.0797 7.63016 17.0162 4.32373 17.0162 4.32373C17.0162 4.32373 11.9526 7.62373 11.9526 11.6957C11.9526 15.7676 17.0162 19.074 17.0162 19.074Z" fill="#7DBEF1"/>
<path d="M11.9658 12.3452H22.0797L20.1378 16.5201H13.8282L11.9658 12.3452Z" fill="#1C8AE6"/>
<path d="M12.7944 13.9663C12.7944 13.9663 15.4786 16.4236 16.1746 16.4236C16.9964 16.4236 17.0096 15.24 17.8646 14.7833C19.2034 14.0692 21.2447 13.9663 21.2447 13.9663L19.7336 16.7195L17.0163 19.0739L13.9145 16.5201L12.7944 13.9663Z" fill="#FFF042"/>
<path d="M17.016 10.8527L15.5248 11.8562L16.0483 10.1708L14.6035 9.10938L16.4195 9.07721L17.016 7.41113L17.6125 9.07721L19.4285 9.10938L17.9836 10.1772L18.5072 11.8626L17.016 10.8527Z" fill="#259C7B"/>
<path d="M16.5985 10.0231C16.5389 10.6149 16.4991 11.2067 16.4859 11.7985C16.466 12.564 16.5058 13.1301 16.6184 13.471C16.7642 13.8956 17.0956 14.3008 17.5596 14.6868C17.9108 14.9827 18.2621 15.2078 18.5007 15.3365C18.7061 15.4459 18.9646 15.3751 19.0773 15.1821C19.19 14.9827 19.1171 14.7318 18.9182 14.6225C18.6332 14.4616 18.3615 14.2751 18.1096 14.0628C17.7518 13.7669 17.5065 13.471 17.4204 13.2073C17.3475 12.9885 17.3143 12.4804 17.3276 11.8114C17.3408 11.2388 17.3806 10.6663 17.4403 10.1002C17.4668 9.8751 17.2944 9.67568 17.0625 9.64995C16.8239 9.63065 16.6184 9.79791 16.5985 10.0231Z" fill="#8E5715"/>
<path d="M14.4844 11.7017L16.1744 14.159H14.4844V11.7017Z" fill="white"/>
<path d="M17.0162 19.074C17.0162 19.074 22.0797 15.774 22.0797 11.7021C22.0797 7.63016 17.0162 4.32373 17.0162 4.32373C17.0162 4.32373 11.9526 7.62373 11.9526 11.6957C11.9526 15.7676 17.0162 19.074 17.0162 19.074Z" stroke="#D80027" stroke-width="0.983607" stroke-miterlimit="10"/>
</g>
<defs>
<clipPath id="clip0_1_6207">
<rect width="34" height="22" fill="white" transform="translate(0.0493164 0.721191)"/>
</clipPath>
</defs>
</svg>
