<svg width="35" height="23" viewBox="0 0 35 23" fill="none" xmlns="http://www.w3.org/2000/svg">
<g clip-path="url(#clip0_1_6129)">
<path fill-rule="evenodd" clip-rule="evenodd" d="M0.212891 -0.195312H34.2129V23.3761H0.212891V-0.195312Z" fill="white"/>
<path fill-rule="evenodd" clip-rule="evenodd" d="M0.212891 -0.195312H34.2129V23.3761H0.212891V-0.195312Z" fill="#EE1C25"/>
<path fill-rule="evenodd" clip-rule="evenodd" d="M19.6415 11.1031C18.3495 10.3174 18.0224 11.7458 18.0224 11.1031C18.0224 9.80197 19.4715 8.74597 21.2605 8.74597C23.0496 8.74597 24.4986 9.80197 24.4986 11.1031C22.9621 11.1031 22.8083 11.8888 22.07 11.8888C21.1634 11.8888 20.9335 11.8888 19.6415 11.1031ZM21.6653 10.8045C21.7726 10.8045 21.8756 10.7631 21.9515 10.6895C22.0274 10.6158 22.07 10.5159 22.07 10.4117C22.07 10.3075 22.0274 10.2076 21.9515 10.1339C21.8756 10.0602 21.7726 10.0188 21.6653 10.0188C21.5579 10.0188 21.455 10.0602 21.3791 10.1339C21.3031 10.2076 21.2605 10.3075 21.2605 10.4117C21.2605 10.5159 21.3031 10.6158 21.3791 10.6895C21.455 10.7631 21.5579 10.8045 21.6653 10.8045ZM18.7348 13.8877C19.1039 12.453 17.6047 12.5928 18.2329 12.3948C19.5087 11.991 20.9901 13.003 21.5438 14.6545C22.0959 16.3045 21.5098 17.9703 20.234 18.3725C19.7596 16.9535 18.942 17.0557 18.7137 16.3737C18.4336 15.5361 18.364 15.324 18.7348 13.8877ZM19.6512 15.6634C19.6675 15.7125 19.6937 15.758 19.7282 15.7973C19.7627 15.8366 19.8048 15.8689 19.8522 15.8924C19.8995 15.9159 19.9512 15.9301 20.0042 15.9342C20.0572 15.9383 20.1106 15.9323 20.1612 15.9164C20.2118 15.9005 20.2587 15.8751 20.2991 15.8416C20.3396 15.8081 20.3729 15.7673 20.3971 15.7213C20.4213 15.6753 20.436 15.6252 20.4402 15.5737C20.4445 15.5223 20.4382 15.4705 20.4218 15.4214C20.3888 15.3222 20.3165 15.2398 20.2208 15.1924C20.1252 15.1449 20.014 15.1363 19.9118 15.1684C19.8096 15.2005 19.7248 15.2707 19.6759 15.3635C19.627 15.4563 19.6181 15.5642 19.6512 15.6634ZM15.7234 13.9113C17.2453 13.8091 16.6462 12.4671 17.0348 12.9873C17.8216 14.0401 17.289 15.7215 15.8416 16.7414C14.3941 17.7628 12.5824 17.7345 11.7939 16.6817C13.0374 15.8048 12.6844 15.082 13.2835 14.6608C14.0169 14.1423 14.2031 14.0118 15.7234 13.9113ZM14.2678 15.3067C14.2248 15.337 14.1883 15.3753 14.1605 15.4193C14.1327 15.4633 14.1141 15.5122 14.1057 15.5632C14.0974 15.6142 14.0995 15.6663 14.1119 15.7165C14.1243 15.7668 14.1467 15.8141 14.178 15.8559C14.2092 15.8977 14.2487 15.9331 14.294 15.9601C14.3394 15.9871 14.3898 16.0051 14.4423 16.0132C14.4948 16.0213 14.5485 16.0193 14.6003 16.0073C14.652 15.9953 14.7008 15.9734 14.7438 15.9431C14.8308 15.8818 14.8891 15.7896 14.906 15.6866C14.9228 15.5836 14.8968 15.4783 14.8337 15.3939C14.7706 15.3095 14.6755 15.2529 14.5694 15.2365C14.4633 15.2202 14.3548 15.2454 14.2678 15.3067ZM14.773 11.1393C15.3413 12.5127 16.4714 11.5447 16.0828 12.0633C15.2943 13.1161 13.4826 13.1428 12.0352 12.123C10.5877 11.1015 10.0551 9.42168 10.8436 8.36725C12.0854 9.24568 12.686 8.69725 13.2835 9.1184C14.0169 9.63697 14.2031 9.7674 14.773 11.1393ZM12.9532 10.2278C12.9105 10.1938 12.8611 10.1685 12.8081 10.1537C12.755 10.1388 12.6993 10.1347 12.6445 10.1415C12.5898 10.1483 12.537 10.1659 12.4895 10.1933C12.442 10.2206 12.4007 10.2571 12.3683 10.3005C12.3359 10.3439 12.3129 10.3933 12.3009 10.4456C12.2889 10.4979 12.288 10.5521 12.2984 10.6048C12.3087 10.6574 12.3301 10.7075 12.3611 10.7518C12.3921 10.7962 12.4322 10.8339 12.4788 10.8627C12.5658 10.9163 12.6706 10.9358 12.7718 10.917C12.873 10.8983 12.9631 10.8428 13.0236 10.7618C13.0841 10.6808 13.1105 10.5805 13.0974 10.4813C13.0843 10.382 13.0327 10.2914 12.9532 10.2278ZM17.1935 9.4044C16.0245 10.3551 17.323 11.0984 16.6932 10.8988C15.4174 10.4965 14.8313 8.8324 15.3834 7.1824C15.9371 5.5324 17.4185 4.51882 18.6943 4.92111C18.2199 6.34011 18.942 6.72354 18.7137 7.40554C18.4336 8.24311 18.3624 8.45525 17.1935 9.4044ZM17.5254 7.44482C17.5442 7.39525 17.5525 7.3425 17.5498 7.28974C17.5471 7.23698 17.5335 7.18528 17.5098 7.13774C17.486 7.0902 17.4527 7.04779 17.4117 7.01306C17.3707 6.97833 17.3228 6.95198 17.2711 6.93559C17.2194 6.9192 17.1647 6.91311 17.1105 6.91768C17.0563 6.92225 17.0036 6.93739 16.9555 6.96219C16.9075 6.98699 16.865 7.02095 16.8308 7.06202C16.7966 7.1031 16.7713 7.15045 16.7563 7.20125C16.7276 7.299 16.739 7.40375 16.7882 7.4935C16.8373 7.58325 16.9204 7.65101 17.02 7.68254C17.1195 7.71407 17.2278 7.70692 17.3221 7.6626C17.4163 7.61827 17.4892 7.54021 17.5254 7.44482Z" fill="white"/>
</g>
<defs>
<clipPath id="clip0_1_6129">
<rect width="34" height="22" fill="white" transform="translate(0.212891 0.590332)"/>
</clipPath>
</defs>
</svg>
