<svg width="35" height="23" viewBox="0 0 35 23" fill="none" xmlns="http://www.w3.org/2000/svg">
<g clip-path="url(#clip0_1_6206)">
<path d="M0.311523 0.721191H34.3115V22.7214H0.311523V0.721191Z" fill="#0052B4"/>
<path d="M15.1466 11.7209C15.1648 11.7013 15.1827 11.6816 15.2006 11.6618C15.1827 11.6817 15.1644 11.7012 15.1462 11.7209H15.1466ZM12.8769 14.4232L13.6046 15.9L15.2479 15.5315L14.5119 17.0044L15.8334 18.0216L14.1881 18.3815L14.1927 20.0185L12.8769 18.9944L11.5611 20.0185L11.5657 18.3815L9.92041 18.0216L11.2419 17.0044L10.5059 15.5315L12.1492 15.9L12.8769 14.4232ZM26.016 16.2578L26.3631 16.9622L27.1469 16.7864L26.7958 17.4889L27.4262 17.9741L26.6414 18.1458L26.6435 18.9265L26.016 18.4381L25.3884 18.9265L25.3905 18.1458L24.6058 17.9741L25.2361 17.4889L24.8851 16.7864L25.6689 16.9622L26.016 16.2578ZM22.7871 8.78516L23.1342 9.48963L23.918 9.31374L23.567 10.0163L24.1972 10.5015L23.4125 10.6732L23.4146 11.454L22.7871 10.9655L22.1595 11.454L22.1617 10.6732L21.3769 10.5015L22.0071 10.0163L21.6563 9.31374L22.44 9.48963L22.7871 8.78516ZM26.016 4.51514L26.3631 5.21961L27.1469 5.04365L26.7958 5.74632L27.4261 6.23146L26.6414 6.40316L26.6435 7.18395L26.016 6.69539L25.3884 7.18395L25.3905 6.40316L24.6058 6.23146L25.2361 5.74632L24.8851 5.04365L25.6689 5.21961L26.016 4.51514ZM28.8363 7.71769L29.1834 8.4221L29.9671 8.24627L29.6162 8.94881L30.2465 9.43395L29.4617 9.60565L29.4639 10.3864L28.8363 9.89801L28.2088 10.3864L28.2109 9.60565L27.4262 9.43395L28.0564 8.94881L27.7054 8.24627L28.4892 8.4221L28.8363 7.71769ZM26.8197 11.454L27.0926 12.2695H27.9761L27.2613 12.7735L27.5344 13.589L26.8197 13.085L26.1048 13.589L26.3779 12.7735L25.6631 12.2695H26.5466L26.8197 11.454Z" fill="white"/>
<path d="M17.3115 0.721191V2.69043L14.3122 4.30814H17.3115V8.13402H13.3867L17.3115 10.2503V11.721H15.5398L10.6593 9.0896V11.721H6.9637V8.59028L1.1578 11.721H0.311523V9.75173L3.31089 8.13402H0.311523V4.30814H4.23633L0.311523 2.19111V0.721191H2.08324L6.9637 3.35262V0.721191H10.6593V3.85188L16.4652 0.721191H17.3115Z" fill="white"/>
<path d="M9.87402 0.720703H7.74902V5.18937H0.311523V7.25187H7.74902V11.7207H9.87402V7.25187H17.3115V5.18937H9.87402V0.720703Z" fill="#D80027"/>
<path d="M10.6592 8.13379L17.3114 11.7207V10.7064L12.5403 8.13379H10.6592Z" fill="#0052B4"/>
<path d="M10.6592 8.13379L17.3114 11.7207V10.7064L12.5403 8.13379H10.6592Z" fill="white"/>
<path d="M10.6593 8.13379L17.3115 11.7207V10.7064L12.5404 8.13379H10.6593ZM5.08255 8.13379L0.311523 10.7064V11.7207L6.9637 8.13379H5.08255Z" fill="#D80027"/>
<path d="M6.9637 4.30765L0.311523 0.720703V1.735L5.08261 4.30765H6.9637Z" fill="#0052B4"/>
<path d="M6.9637 4.30765L0.311523 0.720703V1.735L5.08261 4.30765H6.9637Z" fill="white"/>
<path d="M6.9637 4.30765L0.311523 0.720703V1.735L5.08261 4.30765H6.9637ZM12.5405 4.30765L17.3115 1.735V0.720703L10.6593 4.30765H12.5405Z" fill="#D80027"/>
</g>
<defs>
<clipPath id="clip0_1_6206">
<rect width="34" height="22" fill="white" transform="translate(0.311523 0.721191)"/>
</clipPath>
</defs>
</svg>
