<svg width="35" height="23" viewBox="0 0 35 23" fill="none" xmlns="http://www.w3.org/2000/svg">
<g clip-path="url(#clip0_1_6192)">
<path d="M0.147461 0.590332H34.1475V22.5903H0.147461V0.590332Z" fill="white"/>
<path d="M0.147461 0.590332H34.1475V7.92367H0.147461V0.590332ZM0.147461 15.257H34.1475V22.5903H0.147461V15.257ZM13.6348 8.17454L14.0788 9.24238L15.2453 9.30671L14.3174 10.0079L14.6289 11.1465L13.6348 10.5096L12.6406 11.1465L12.9521 10.0079L12.0243 9.30671L13.1907 9.24238L13.6348 8.17454ZM20.5939 8.17454L21.0379 9.24238L22.2044 9.30671L21.2765 10.0079L21.588 11.1465L20.5939 10.5096L19.5997 11.1465L19.9112 10.0079L18.9833 9.30671L20.1498 9.24238L20.5939 8.17454ZM17.1143 10.0851L17.5584 11.1529L18.7248 11.2172L17.797 11.9184L18.1085 13.057L17.1143 12.4202L16.1202 13.057L16.4317 11.9184L15.5038 11.2172L16.6703 11.1529L17.1143 10.0851ZM13.6348 11.9956L14.0788 13.0634L15.2453 13.1278L14.3174 13.8289L14.6289 14.9611L13.6348 14.3243L12.6406 14.9611L12.9521 13.8289L12.0243 13.1278L13.1907 13.0634L13.6348 11.9956ZM20.5939 11.9956L21.0379 13.0634L22.2044 13.1278L21.2765 13.8289L21.588 14.9611L20.5939 14.3243L19.5997 14.9611L19.9112 13.8289L18.9833 13.1278L20.1498 13.0634L20.5939 11.9956Z" fill="#338AF3"/>
</g>
<defs>
<clipPath id="clip0_1_6192">
<rect width="34" height="22" fill="white" transform="translate(0.147461 0.590332)"/>
</clipPath>
</defs>
</svg>
