<svg width="34" height="23" viewBox="0 0 34 23" fill="none" xmlns="http://www.w3.org/2000/svg">
<g clip-path="url(#clip0_1_6201)">
<path d="M0 0.719238H34V22.7192H0V0.719238Z" fill="white"/>
<path d="M0 0.719238H34V8.05257H0V0.719238Z" fill="#D80027"/>
<path d="M0 15.3857H34V22.7191H0V15.3857Z" fill="#0052B4"/>
<path d="M20.4993 8.00135V5.17094L21.6591 4.24463L22.8322 5.17094V8.00135H20.4993ZM13.5004 8.00135V5.17094L12.3538 4.24463L11.1675 5.17094V8.00135H13.5004ZM15.8334 8.00135V5.17094L16.9998 4.24463L18.1663 5.17094V8.00135H15.8334Z" fill="#338AF3"/>
<path d="M20.4993 8.00087H18.1664V5.17046L19.3262 4.24414L20.4993 5.17046V8.00087ZM15.8334 8.00087H13.5005V5.17046L14.6603 4.24414L15.8334 5.17046V8.00087Z" fill="#0052B4"/>
<path d="M11.1675 8.00098V14.5559C11.1675 16.1191 12.1219 17.5279 13.5137 18.377C14.9254 19.239 16.3039 19.3226 16.9998 19.3226C17.6957 19.3226 19.0809 19.2133 20.486 18.3706C21.8778 17.5343 22.8322 16.1127 22.8322 14.5559V8.00098H11.1675Z" fill="white" stroke="#D80027" stroke-width="0.0819672"/>
<path d="M11.1675 8.00098H13.5004V10.2653H11.1675V8.00098ZM15.8334 8.00098H18.1663V10.2653H15.8334V8.00098ZM20.4993 8.00098H22.8322V10.2653H20.4993V8.00098ZM13.5004 10.2653H15.8334V12.5296H13.5004V10.2653ZM18.1663 10.2653H20.4993V12.5296H18.1663V10.2653ZM11.1675 12.5296H13.5004V14.794H11.1675V12.5296ZM13.5004 14.794H15.8334V17.0583H13.5004V14.794ZM15.8334 12.5296H18.1663V14.794H15.8334V12.5296ZM20.4993 12.5296H22.8322V14.794H20.4993V12.5296ZM18.1663 14.794H20.4993V17.0583H18.1663V14.794ZM20.4993 18.3641C21.0692 18.0168 21.5729 17.5729 21.9573 17.0583H20.4993V18.3641ZM12.0423 17.0583C12.4267 17.5729 12.9238 18.0168 13.5004 18.3706V17.0583H12.0423ZM15.8334 17.0583V19.2261C16.3106 19.3033 16.7148 19.3226 16.9998 19.3226C17.2848 19.3226 17.6891 19.3033 18.1663 19.2197V17.0583H15.8334Z" fill="#D80027"/>
</g>
<defs>
<clipPath id="clip0_1_6201">
<rect width="34" height="22" fill="white" transform="translate(0 0.719238)"/>
</clipPath>
</defs>
</svg>
