<svg width="35" height="23" viewBox="0 0 35 23" fill="none" xmlns="http://www.w3.org/2000/svg">
<g clip-path="url(#clip0_1_6213)">
<path d="M0.0820312 0.590332H34.082V11.6547H0.0820312V0.590332Z" fill="#A2001D"/>
<path d="M0.0820312 11.6548H34.082V22.7191H0.0820312V11.6548Z" fill="#0052B4"/>
<path d="M25.36 16.7688L18.0232 15.8811L10.6797 16.7688V6.08398H25.36V16.7688Z" fill="white"/>
<path d="M18.0233 15.8809C20.0511 15.8809 21.695 14.2854 21.695 12.3172C21.695 10.349 20.0511 8.75342 18.0233 8.75342C15.9955 8.75342 14.3516 10.349 14.3516 12.3172C14.3516 14.2854 15.9955 15.8809 18.0233 15.8809Z" fill="#0052B4"/>
<path d="M18.0234 14.0989C19.0373 14.0989 19.8592 13.3011 19.8592 12.317C19.8592 11.3329 19.0373 10.5352 18.0234 10.5352C17.0094 10.5352 16.1875 11.3329 16.1875 12.317C16.1875 13.3011 17.0094 14.0989 18.0234 14.0989Z" fill="#A2001D"/>
<path d="M15.2661 7.86572H20.7737L18.0232 10.5353L15.2661 7.86572Z" fill="#6DA544"/>
<path d="M17.1021 9.64746H18.9379V14.9866H17.1021V9.64746Z" fill="#FFDA44"/>
<path d="M20.9526 14.4531H15.0871L10.6797 16.7689H25.36L20.9526 14.4531Z" fill="#6DA544"/>
</g>
<defs>
<clipPath id="clip0_1_6213">
<rect width="34" height="22" fill="white" transform="translate(0.0820312 0.590332)"/>
</clipPath>
</defs>
</svg>
