<svg width="35" height="23" viewBox="0 0 35 23" fill="none" xmlns="http://www.w3.org/2000/svg">
<g clip-path="url(#clip0_1_6111)">
<path d="M0.782715 0.671387H34.7827V22.6714H0.782715V0.671387Z" fill="white"/>
<path d="M23.3566 8.54501H19.6385L17.7827 5.4187L15.927 8.54501H12.2088L14.0646 11.6713L12.2088 14.7976H15.927L17.7827 17.924L19.6385 14.7976H23.3566L21.5008 11.6713L23.3566 8.54501ZM20.2151 11.6713L19.0751 13.807H16.4969L15.3504 11.6713L16.4903 9.53566H19.0685L20.2151 11.6713ZM17.7827 7.05261L18.5714 8.55145H16.9874L17.7827 7.05261ZM13.9188 9.53566H15.5028L14.787 10.8865L13.9188 9.53566ZM13.9188 13.807L14.7804 12.3854L15.5691 13.807H13.9188ZM17.7827 16.2193L16.994 14.7976H18.578L17.7827 16.2193ZM21.7196 13.807H20.0626L20.8513 12.3854L21.7196 13.807ZM19.9897 9.53566H21.7196L20.858 10.9573L19.9897 9.53566ZM0.782715 2.0415H34.7164V4.78829H0.782715V2.0415ZM0.782715 18.5093H34.7164V21.2561H0.782715V18.5093Z" fill="#2E52B2"/>
</g>
<defs>
<clipPath id="clip0_1_6111">
<rect width="34" height="22" fill="white" transform="translate(0.782715 0.671387)"/>
</clipPath>
</defs>
</svg>
