<svg width="35" height="23" viewBox="0 0 35 23" fill="none" xmlns="http://www.w3.org/2000/svg">
<g clip-path="url(#clip0_1_6259)">
<path d="M0.311523 0.590332H34.3115V22.5903H0.311523V0.590332Z" fill="#E52D42"/>
<path d="M26.3784 4.97753H23.343L21.1028 10.1366L18.8229 8.66349C18.8229 8.66349 17.1858 4.86174 16.543 4.27636C15.9001 3.65238 15.3036 4.23776 13.302 4.77811C11.3402 5.31846 11.2607 5.98104 10.5051 5.98104C10.187 5.98104 9.18623 4.85531 8.66927 4.54654C7.86732 4.04478 7.54919 4.27636 7.74802 5.00969C7.82755 5.31846 8.47044 5.71086 8.8681 6.28981C9.38506 7.02958 9.70982 7.95589 9.70982 7.95589C9.70982 7.95589 10.4322 7.29332 10.8299 7.17753C11.4264 7.02314 12.109 7.29332 12.911 7.17753C13.9118 7.02314 14.9921 6.47636 14.9921 6.47636L15.2704 9.26817C15.2704 9.26817 11.6716 12.5296 11.9897 13.8097C12.3079 15.0898 15.7079 16.6787 16.5098 17.843C17.3118 18.9688 16.0326 19.3933 16.0326 19.9401C16.0326 20.4869 15.9133 21.2202 16.5098 20.9886C17.1063 20.7571 17.1925 19.8243 17.7492 18.9688C18.1469 18.3898 18.4318 18.0746 18.5114 17.843C18.6307 17.2641 16.9539 15.7845 16.0326 14.6974C15.5952 14.1957 14.7137 13.4945 14.7137 13.4945L17.3118 11.5904C17.3118 11.5904 21.7921 13.3723 22.7862 12.7933C23.787 12.2144 24.0654 6.46993 24.0654 6.46993L27.1804 5.73016L26.3784 4.97753Z" fill="white"/>
<path d="M18.8226 17.47C18.4249 17.47 18.0604 17.1613 18.0604 16.7303C18.0604 16.2993 18.3785 15.9905 18.8226 15.9905C19.2202 15.9905 19.5848 16.2993 19.5848 16.7303C19.5848 17.1613 19.2202 17.47 18.8226 17.47ZM21.8581 5.71098C21.4604 5.71098 21.0959 5.40221 21.0959 4.97121C21.0959 4.54022 21.414 4.23145 21.8581 4.23145C22.2557 4.23145 22.6202 4.54022 22.6202 4.97121C22.6202 5.40221 22.2557 5.71098 21.8581 5.71098ZM21.8581 11.5712C21.4604 11.5712 21.0959 11.2624 21.0959 10.8314C21.0959 10.4455 21.414 10.0917 21.8581 10.0917C22.2557 10.0917 22.6202 10.4005 22.6202 10.8314C22.5805 11.2624 22.2557 11.5712 21.8581 11.5712ZM12.7848 14.5174C12.3871 14.5174 12.0226 14.2086 12.0226 13.7776C12.0226 13.3917 12.3407 13.0379 12.7848 13.0379C13.2222 13.0379 13.5469 13.3467 13.5469 13.7776C13.5469 14.2086 13.1824 14.5174 12.7848 14.5174ZM15.7805 5.71098C15.3828 5.71098 15.0183 5.40221 15.0183 4.97121C15.0183 4.54022 15.3364 4.23145 15.7805 4.23145C16.1781 4.23145 16.5427 4.54022 16.5427 4.97121C16.5427 5.40221 16.2245 5.71098 15.7805 5.71098ZM17.2982 11.5712C16.9005 11.5712 16.536 10.9086 16.536 10.0981C16.536 9.28759 16.8542 8.62501 17.2982 8.62501C17.6959 8.62501 18.0604 9.28759 18.0604 10.0981C18.0604 10.9086 17.7423 11.5712 17.2982 11.5712ZM9.74265 8.66361C9.34499 8.66361 8.98047 8.35484 8.98047 7.92384C8.98047 7.49928 9.2986 7.18408 9.74265 7.18408C10.1801 7.18408 10.5048 7.49285 10.5048 7.92384C10.5048 8.3484 10.1867 8.66361 9.74265 8.66361Z" fill="#F8DD4E"/>
</g>
<defs>
<clipPath id="clip0_1_6259">
<rect width="34" height="22" fill="white" transform="translate(0.311523 0.590332)"/>
</clipPath>
</defs>
</svg>
