<svg width="35" height="23" viewBox="0 0 35 23" fill="none" xmlns="http://www.w3.org/2000/svg">
<g clip-path="url(#clip0_1_6194)">
<path d="M1.42529 0.590332H33.1321V22.5903H1.42529V0.590332Z" fill="#181A93"/>
<path d="M0.278809 0.590332H34.2788V7.92367H0.278809V0.590332Z" fill="#FFA44A"/>
<path d="M0.278809 15.2568H34.2788V22.5902H0.278809V15.2568Z" fill="#1A9F0B"/>
<path d="M0.278809 7.92383H34.2788V15.2572H0.278809V7.92383Z" fill="white"/>
<path d="M17.2789 13.7901C18.5307 13.7901 19.5455 12.8052 19.5455 11.5901C19.5455 10.3751 18.5307 9.39014 17.2789 9.39014C16.027 9.39014 15.0122 10.3751 15.0122 11.5901C15.0122 12.8052 16.027 13.7901 17.2789 13.7901Z" fill="white"/>
<path d="M17.2786 14.5239C15.615 14.5239 14.2563 13.2052 14.2563 11.5906C14.2563 9.97594 15.615 8.65723 17.2786 8.65723C18.9421 8.65723 20.3008 9.97594 20.3008 11.5906C20.3008 13.2052 18.9421 14.5239 17.2786 14.5239ZM17.2786 13.7906C18.4848 13.7906 19.5452 12.7613 19.5452 11.5906C19.5452 10.4198 18.4914 9.39056 17.2786 9.39056C16.0657 9.39056 15.0119 10.4198 15.0119 11.5906C15.0119 12.7613 16.0723 13.7906 17.2786 13.7906Z" fill="#181A93"/>
<path d="M17.2787 13.0569C18.1133 13.0569 18.7898 12.4002 18.7898 11.5902C18.7898 10.7802 18.1133 10.1235 17.2787 10.1235C16.4441 10.1235 15.7676 10.7802 15.7676 11.5902C15.7676 12.4002 16.4441 13.0569 17.2787 13.0569Z" fill="#181A93"/>
</g>
<defs>
<clipPath id="clip0_1_6194">
<rect width="34" height="22" fill="white" transform="translate(0.278809 0.590332)"/>
</clipPath>
</defs>
</svg>
