<svg width="35" height="23" viewBox="0 0 35 23" fill="none" xmlns="http://www.w3.org/2000/svg">
<g clip-path="url(#clip0_1_6079)">
<path d="M0.246094 0.570801H34.2461V22.5901H0.246094V0.570801Z" fill="white"/>
<path d="M30.9256 13.3337C30.6605 13.3337 29.9978 13.012 29.5338 12.7547C28.8048 12.3687 28.142 11.9828 27.4726 11.9828C26.8032 11.9828 26.1471 12.3687 25.4114 12.7547C24.9475 13.012 24.351 13.3337 24.0859 13.3337C23.8208 13.3337 23.158 13.012 22.7603 12.7547C22.0313 12.3687 21.3022 11.9828 20.6328 11.9828C20.0363 11.9828 19.3073 12.3687 18.5716 12.7547C18.1077 13.012 17.5112 13.3337 17.2461 13.3337C16.981 13.3337 16.3845 13.012 15.9206 12.7547C15.1915 12.3687 14.4625 11.9828 13.8593 11.9828C13.1966 11.9828 12.4675 12.3687 11.7319 12.7547C11.3342 13.012 10.6714 13.3337 10.4063 13.3337C10.1412 13.3337 9.54473 13.012 9.08079 12.7547C8.35175 12.3687 7.68898 11.9828 7.01958 11.9828C6.35019 11.9828 5.69405 12.3687 4.95837 12.7547C4.49444 13.012 3.83167 13.3337 3.56656 13.3337C3.30145 13.3337 2.70496 13.012 2.24103 12.7547C1.57826 12.3687 0.915489 11.9828 0.246094 11.9828V13.398L1.50535 14.0413C2.2344 14.4272 2.89717 14.8132 3.56656 14.8132C4.23596 14.8132 4.95837 14.4272 5.69405 14.0413C6.09171 13.7839 6.75448 13.398 7.01958 13.398C7.28469 13.398 7.88118 13.7839 8.34512 14.0413C9.07416 14.4272 9.73693 14.8132 10.4063 14.8132C11.0757 14.8132 11.7319 14.4272 12.4675 14.0413C12.9315 13.7839 13.5942 13.398 13.8593 13.398C14.1245 13.398 14.7209 13.7839 15.1849 14.0413C15.9139 14.4272 16.5767 14.8132 17.2461 14.8132C17.9155 14.8132 18.5716 14.4272 19.3073 14.0413C19.7712 13.7839 20.3677 13.398 20.6328 13.398C20.8979 13.398 21.5607 13.7839 22.0247 14.0413C22.7537 14.4272 23.4165 14.8132 24.0859 14.8132C24.7553 14.8132 25.4114 14.4272 26.1471 14.0413C26.611 13.7839 27.2075 13.398 27.4726 13.398C27.7377 13.398 28.4005 13.7839 28.7981 14.0413C29.5272 14.4272 30.2562 14.8132 30.9256 14.8132C31.595 14.8132 32.2512 14.4272 32.9868 14.0413L34.2461 13.398V11.9828C33.5833 11.9828 32.9206 12.3687 32.2512 12.7547C31.7872 13.012 31.1907 13.3337 30.9256 13.3337ZM0.246094 2.62956L1.50535 3.27284C2.2344 3.6588 2.89717 4.04476 3.56656 4.04476C4.23596 4.04476 4.95837 3.6588 5.69405 3.27284C6.09171 3.01553 6.75448 2.62956 7.01958 2.62956C7.28469 2.62956 7.88118 3.01553 8.34512 3.27284C9.07416 3.6588 9.73693 4.04476 10.4063 4.04476C11.0757 4.04476 11.7319 3.6588 12.4675 3.27284C12.9315 3.01553 13.5942 2.62956 13.8593 2.62956C14.1245 2.62956 14.7209 3.01553 15.1849 3.27284C15.9139 3.6588 16.5767 4.04476 17.2461 4.04476C17.9155 4.04476 18.5716 3.6588 19.3073 3.27284C19.7712 3.01553 20.3677 2.62956 20.6328 2.62956C20.8979 2.62956 21.5607 3.01553 22.0247 3.27284C22.7537 3.6588 23.4165 4.04476 24.0859 4.04476C24.7553 4.04476 25.4114 3.6588 26.1471 3.27284C26.611 3.01553 27.2075 2.62956 27.4726 2.62956C27.7377 2.62956 28.4005 3.01553 28.7981 3.27284C29.5272 3.6588 30.2562 4.04476 30.9256 4.04476C31.595 4.04476 32.2512 3.6588 32.9868 3.27284L34.2461 2.62956V1.21436C33.5833 1.27868 32.9206 1.60032 32.2512 1.98629C31.7872 2.2436 31.1907 2.56523 30.9256 2.56523C30.6605 2.56523 29.9978 2.2436 29.5338 1.98629C28.8048 1.60032 28.142 1.21436 27.4726 1.21436C26.8032 1.21436 26.1471 1.60032 25.4114 1.98629C24.9475 2.2436 24.351 2.56523 24.0859 2.56523C23.8208 2.56523 23.158 2.2436 22.7603 1.98629C22.0313 1.60032 21.3022 1.21436 20.6328 1.21436C19.9634 1.21436 19.3073 1.60032 18.5716 1.98629C18.1077 2.2436 17.5112 2.56523 17.2461 2.56523C16.981 2.56523 16.3845 2.2436 15.9206 1.98629C15.1915 1.60032 14.4625 1.21436 13.8593 1.21436C13.2562 1.21436 12.4675 1.60032 11.7319 1.98629C11.3342 2.2436 10.6714 2.56523 10.4063 2.56523C10.1412 2.56523 9.54473 2.2436 9.08079 1.98629C8.35175 1.60032 7.68898 1.21436 7.01958 1.21436C6.35019 1.21436 5.69405 1.60032 4.95837 1.98629C4.49444 2.2436 3.83167 2.56523 3.56656 2.56523C3.30145 2.56523 2.70496 2.2436 2.24103 1.98629C1.57826 1.60032 0.915489 1.27868 0.246094 1.21436L0.246094 2.62956ZM30.9256 6.18044C30.6605 6.18044 29.9978 5.8588 29.5338 5.60149C28.8048 5.21553 28.142 4.82956 27.4726 4.82956C26.8032 4.82956 26.1471 5.21553 25.4114 5.60149C24.9475 5.8588 24.351 6.18044 24.0859 6.18044C23.8208 6.18044 23.158 5.8588 22.7603 5.60149C22.0313 5.21553 21.3022 4.82956 20.6328 4.82956C20.0363 4.82956 19.3073 5.21553 18.5716 5.60149C18.1077 5.8588 17.5112 6.18044 17.2461 6.18044C16.981 6.18044 16.3845 5.8588 15.9206 5.60149C15.1915 5.21553 14.4625 4.82956 13.8593 4.82956C13.1966 4.82956 12.4675 5.21553 11.7319 5.60149C11.3342 5.8588 10.6714 6.18044 10.4063 6.18044C10.1412 6.18044 9.54473 5.8588 9.08079 5.60149C8.35175 5.21553 7.68898 4.82956 7.01958 4.82956C6.35019 4.82956 5.69405 5.21553 4.95837 5.60149C4.49444 5.8588 3.83167 6.18044 3.56656 6.18044C3.30145 6.18044 2.70496 5.8588 2.24103 5.60149C1.57826 5.21553 0.915489 4.82956 0.246094 4.82956V6.24477L1.50535 6.82371C2.2344 7.20968 2.89717 7.59564 3.56656 7.59564C4.23596 7.59564 4.95837 7.20968 5.69405 6.82371C6.09171 6.5664 6.75448 6.24477 7.01958 6.24477C7.28469 6.24477 7.88118 6.5664 8.34512 6.82371C9.07416 7.20968 9.73693 7.59564 10.4063 7.59564C11.0757 7.59564 11.7319 7.20968 12.4675 6.82371C12.9315 6.5664 13.5942 6.24477 13.8593 6.24477C14.1245 6.24477 14.7209 6.5664 15.1849 6.82371C15.9139 7.20968 16.5767 7.59564 17.2461 7.59564C17.9155 7.59564 18.5716 7.20968 19.3073 6.82371C19.7712 6.5664 20.3677 6.24477 20.6328 6.24477C20.8979 6.24477 21.5607 6.5664 22.0247 6.82371C22.7537 7.20968 23.4165 7.59564 24.0859 7.59564C24.7553 7.59564 25.4114 7.20968 26.1471 6.82371C26.611 6.5664 27.2075 6.24477 27.4726 6.24477C27.7377 6.24477 28.4005 6.5664 28.7981 6.82371C29.5272 7.20968 30.2562 7.59564 30.9256 7.59564C31.595 7.59564 32.2512 7.20968 32.9868 6.82371L34.2461 6.24477V4.82956C33.5833 4.82956 32.9206 5.21553 32.2512 5.60149C31.7872 5.85237 31.1907 6.18044 30.9256 6.18044ZM34.2461 8.36757C33.5833 8.4319 32.9206 8.75354 32.2512 9.1395C31.7872 9.39681 31.1907 9.78278 30.9256 9.78278C30.6605 9.78278 29.9978 9.39681 29.5338 9.1395C28.8048 8.75354 28.142 8.36757 27.4726 8.36757C26.8032 8.36757 26.1471 8.75354 25.4114 9.1395C24.9475 9.39681 24.351 9.78278 24.0859 9.78278C23.8208 9.78278 23.158 9.39681 22.7603 9.1395C22.0313 8.75354 21.3022 8.36757 20.6328 8.36757C19.9634 8.36757 19.3073 8.75354 18.5716 9.1395C18.1077 9.39681 17.5112 9.78278 17.2461 9.78278C16.981 9.78278 16.3845 9.39681 15.9206 9.1395C15.1915 8.75354 14.4625 8.36757 13.8593 8.36757C13.2562 8.36757 12.4675 8.75354 11.7319 9.1395C11.3342 9.39681 10.6714 9.78278 10.4063 9.78278C10.1412 9.78278 9.54473 9.39681 9.08079 9.1395C8.35175 8.75354 7.68898 8.36757 7.01958 8.36757C6.35019 8.36757 5.69405 8.75354 4.95837 9.1395C4.49444 9.39681 3.83167 9.78278 3.56656 9.78278C3.30145 9.78278 2.70496 9.39681 2.24103 9.1395C1.57826 8.75354 0.915489 8.4319 0.246094 8.36757V9.8471C0.511201 9.91143 1.10769 10.1687 1.50535 10.4261C2.2344 10.812 2.89717 11.198 3.56656 11.198C4.23596 11.198 4.95837 10.812 5.69405 10.4261C6.09171 10.1687 6.75448 9.8471 7.01958 9.8471C7.28469 9.8471 7.88118 10.1687 8.34512 10.4261C9.07416 10.812 9.73693 11.198 10.4063 11.198C11.0757 11.198 11.7319 10.812 12.4675 10.4261C12.9315 10.1687 13.5942 9.8471 13.8593 9.8471C14.1245 9.8471 14.7209 10.1687 15.1849 10.4261C15.9139 10.812 16.5767 11.198 17.2461 11.198C17.9155 11.198 18.5716 10.812 19.3073 10.4261C19.7712 10.1687 20.3677 9.8471 20.6328 9.8471C20.8979 9.8471 21.5607 10.1687 22.0247 10.4261C22.7537 10.812 23.4165 11.198 24.0859 11.198C24.7553 11.198 25.4114 10.812 26.1471 10.4261C26.611 10.1687 27.2075 9.8471 27.4726 9.8471C27.7377 9.8471 28.4005 10.1687 28.7981 10.4261C29.5272 10.812 30.2562 11.198 30.9256 11.198C31.595 11.198 32.2512 10.812 32.9868 10.4261C33.3845 10.1687 33.981 9.91143 34.2461 9.8471V8.36757ZM30.9256 16.9424C30.6605 16.9424 29.9978 16.6208 29.5338 16.3635C28.8048 15.9775 28.142 15.5915 27.4726 15.5915C26.8032 15.5915 26.1471 15.9775 25.4114 16.3635C24.9475 16.6208 24.351 16.9424 24.0859 16.9424C23.8208 16.9424 23.158 16.6208 22.7603 16.3635C22.0313 15.9775 21.3022 15.5915 20.6328 15.5915C20.0363 15.5915 19.3073 15.9775 18.5716 16.3635C18.1077 16.6208 17.5112 16.9424 17.2461 16.9424C16.981 16.9424 16.3845 16.6208 15.9206 16.3635C15.1915 15.9775 14.4625 15.5915 13.8593 15.5915C13.1966 15.5915 12.4675 15.9775 11.7319 16.3635C11.3342 16.6208 10.6714 16.9424 10.4063 16.9424C10.1412 16.9424 9.54473 16.6208 9.08079 16.3635C8.35175 15.9775 7.68898 15.5915 7.01958 15.5915C6.35019 15.5915 5.69405 15.9775 4.95837 16.3635C4.49444 16.6208 3.83167 16.9424 3.56656 16.9424C3.30145 16.9424 2.70496 16.6208 2.24103 16.3635C1.57826 15.9775 0.915489 15.5915 0.246094 15.5915V17.0068L1.50535 17.5857C2.2344 17.9717 2.89717 18.3576 3.56656 18.3576C4.23596 18.3576 4.95837 17.9717 5.69405 17.5857C6.09171 17.3284 6.75448 17.0068 7.01958 17.0068C7.28469 17.0068 7.88118 17.3284 8.34512 17.5857C9.07416 17.9717 9.73693 18.3576 10.4063 18.3576C11.0757 18.3576 11.7319 17.9717 12.4675 17.5857C12.9315 17.3284 13.5942 17.0068 13.8593 17.0068C14.1245 17.0068 14.7209 17.3284 15.1849 17.5857C15.9139 17.9717 16.5767 18.3576 17.2461 18.3576C17.9155 18.3576 18.5716 17.9717 19.3073 17.5857C19.7712 17.3284 20.3677 17.0068 20.6328 17.0068C20.8979 17.0068 21.5607 17.3284 22.0247 17.5857C22.7537 17.9717 23.4165 18.3576 24.0859 18.3576C24.7553 18.3576 25.4114 17.9717 26.1471 17.5857C26.611 17.3284 27.2075 17.0068 27.4726 17.0068C27.7377 17.0068 28.4005 17.3284 28.7981 17.5857C29.5272 17.9717 30.2562 18.3576 30.9256 18.3576C31.595 18.3576 32.2512 17.9717 32.9868 17.5857L34.2461 17.0068V15.5915C33.5833 15.5915 32.9206 15.9775 32.2512 16.3635C31.7872 16.6208 31.1907 16.9424 30.9256 16.9424ZM34.2461 19.1296C33.5833 19.1939 32.9206 19.5155 32.2512 19.9015C31.7872 20.1588 31.1907 20.5448 30.9256 20.5448C30.6605 20.5448 29.9978 20.1588 29.5338 19.9015C28.8048 19.5155 28.142 19.1296 27.4726 19.1296C26.8032 19.1296 26.1471 19.5155 25.4114 19.9015C24.9475 20.1588 24.351 20.5448 24.0859 20.5448C23.8208 20.5448 23.158 20.1588 22.7603 19.9015C22.0313 19.5155 21.3022 19.1296 20.6328 19.1296C19.9634 19.1296 19.3073 19.5155 18.5716 19.9015C18.1077 20.1588 17.5112 20.5448 17.2461 20.5448C16.981 20.5448 16.3845 20.1588 15.9206 19.9015C15.1915 19.5155 14.4625 19.1296 13.8593 19.1296C13.2562 19.1296 12.4675 19.5155 11.7319 19.9015C11.3342 20.1588 10.6714 20.5448 10.4063 20.5448C10.1412 20.5448 9.54473 20.1588 9.08079 19.9015C8.35175 19.5155 7.68898 19.1296 7.01958 19.1296C6.35019 19.1296 5.69405 19.5155 4.95837 19.9015C4.49444 20.1588 3.83167 20.5448 3.56656 20.5448C3.30145 20.5448 2.70496 20.1588 2.24103 19.9015C1.57826 19.5155 0.915489 19.1939 0.246094 19.1296V20.6091C0.511201 20.6091 1.10769 20.9307 1.50535 21.188C2.2344 21.574 2.89717 21.96 3.56656 21.96C4.23596 21.96 4.95837 21.574 5.69405 21.188C6.09171 20.9307 6.75448 20.6091 7.01958 20.6091C7.28469 20.6091 7.88118 20.9307 8.34512 21.188C9.07416 21.574 9.73693 21.96 10.4063 21.96C11.0757 21.96 11.7319 21.574 12.4675 21.188C12.9315 20.9307 13.5942 20.6091 13.8593 20.6091C14.1245 20.6091 14.7209 20.9307 15.1849 21.188C15.9139 21.574 16.5767 21.96 17.2461 21.96C17.9155 21.96 18.5716 21.574 19.3073 21.188C19.7712 20.9307 20.3677 20.6091 20.6328 20.6091C20.8979 20.6091 21.5607 20.9307 22.0247 21.188C22.7537 21.574 23.4165 21.96 24.0859 21.96C24.7553 21.96 25.4114 21.574 26.1471 21.188C26.611 20.9307 27.2075 20.6091 27.4726 20.6091C27.7377 20.6091 28.4005 20.9307 28.7981 21.188C29.5272 21.574 30.2562 21.96 30.9256 21.96C31.595 21.96 32.2512 21.574 32.9868 21.188C33.3845 20.9307 33.981 20.6091 34.2461 20.6091V19.1296Z" fill="#0052B4"/>
<path d="M0.246094 0.570801H17.213V11.5708H0.246094V0.570801Z" fill="white"/>
<path d="M26.0808 8.30322H27.2871V13.3722H26.0742L26.0808 8.30322ZM26.0808 15.881H27.2871V20.712H26.0742L26.0808 15.881Z" fill="#A2001D"/>
<path d="M9.78995 0.570801H7.6691V5.07372H0.246094V7.1322H7.6691V11.5708H9.78995V7.1322H17.213V5.07372H9.78995V0.570801Z" fill="#D80027"/>
<path d="M0.246094 0.570801V1.53571L4.02387 4.04449H5.54824L0.246094 0.570801ZM17.213 0.570801V1.53571L13.4352 4.04449H11.9108L17.213 0.570801Z" fill="#D80027"/>
<path d="M0.246094 0.570801V1.53571L4.02387 4.04449H5.54824L0.246094 0.570801ZM17.213 0.570801V1.53571L13.4352 4.04449H11.9108L17.213 0.570801ZM0.246094 11.5708V10.6059L4.02387 8.16144H5.54824L0.246094 11.5708ZM17.213 11.5708V10.6059L13.4352 8.16144H11.9108L17.213 11.5708Z" fill="#D80027"/>
<path d="M0.246094 2.05033V4.04449H3.29483L0.246094 2.05033ZM6.60867 0.570801V3.72285L1.77046 0.570801H6.60867ZM17.213 2.05033V4.04449H14.1642L17.213 2.05033ZM10.8504 0.570801V3.72285L15.6886 0.570801H10.8504Z" fill="#2E52B2"/>
<path d="M0.246094 2.05033V4.04449H3.29483L0.246094 2.05033ZM6.60867 0.570801V3.72285L1.77046 0.570801H6.60867ZM17.213 2.05033V4.04449H14.1642L17.213 2.05033ZM10.8504 0.570801V3.72285L15.6886 0.570801H10.8504ZM0.246094 10.0913V8.16144H3.29483L0.246094 10.0913ZM6.60867 11.5708V8.41875L1.77046 11.5708H6.60867ZM17.213 10.0913V8.16144H14.1642L17.213 10.0913ZM10.8504 11.5708V8.41875L15.6886 11.5708H10.8504Z" fill="#2E52B2"/>
<path d="M30.9188 6.47606H28.9901L30.6934 4.82284C30.9917 4.5398 30.9917 4.08951 30.6934 3.80647L30.4681 3.58776C30.1765 3.30472 29.7125 3.30472 29.4209 3.58776L27.7044 5.25384V2.99594C27.7044 2.59711 27.3663 2.26904 26.9554 2.26904H26.6439C26.233 2.26904 25.895 2.59711 25.895 2.99594V5.03512L24.3375 3.50413C24.026 3.20179 23.5289 3.20179 23.2174 3.50413L22.9788 3.73571C22.6673 4.03805 22.6673 4.53337 22.9788 4.84214L24.6357 6.47606H22.6077C22.21 6.47606 21.8853 6.79127 21.8853 7.17723V7.47314C21.8853 7.8591 22.21 8.17431 22.6077 8.17431H24.702L23.3301 9.50589C23.0385 9.78893 23.0385 10.2392 23.3301 10.5223L23.5554 10.741C23.847 11.024 24.311 11.024 24.6026 10.741L25.9016 9.48015V11.3328C25.9016 11.7252 26.2396 12.0468 26.6506 12.0597H26.9621C27.373 12.0597 27.711 11.7316 27.711 11.3328V9.51232L29.1823 10.9661C29.4938 11.2685 30.0042 11.2685 30.3157 10.9661L30.5543 10.7345C30.8658 10.4322 30.8658 9.93688 30.5543 9.62811L29.0895 8.18074H30.9188C31.3098 8.18074 31.6279 7.86553 31.6412 7.47957V7.18366C31.6412 6.79127 31.3164 6.47606 30.9188 6.47606Z" fill="#5DA51E" stroke="#45602C" stroke-width="0.327869" stroke-miterlimit="10"/>
<path d="M29.3549 16.6141H24.066C24.066 16.6141 24.0064 15.7521 23.6684 15.2118C23.2574 14.5428 22.7471 13.4042 23.5756 12.8509C24.6294 12.1498 25.8091 12.9024 26.7701 12.9024C27.5522 12.9088 28.553 12.0018 29.7526 12.8509C30.5611 13.4235 30.011 14.665 29.6664 15.2118C29.2025 15.9515 29.3549 16.6141 29.3549 16.6141Z" fill="#E2DD24" stroke="#525625" stroke-width="0.327869" stroke-miterlimit="10"/>
</g>
<defs>
<clipPath id="clip0_1_6079">
<rect width="34" height="22" fill="white" transform="translate(0.246094 0.590332)"/>
</clipPath>
</defs>
</svg>
