<svg width="35" height="23" viewBox="0 0 35 23" fill="none" xmlns="http://www.w3.org/2000/svg">
<g clip-path="url(#clip0_1_6241)">
<path d="M0.180176 0.590332H34.1802V22.5903H0.180176V0.590332Z" fill="white"/>
<path d="M0.180176 0.590332H34.1802V7.92367H0.180176V0.590332Z" fill="#CE1126"/>
<path d="M0.180176 15.2568H34.1802V22.5902H0.180176V15.2568Z" fill="black"/>
<path d="M14.7079 10.9277H12.766C12.8654 10.561 13.2034 10.2909 13.6143 10.2909V9.01074C12.4014 9.01074 11.4205 9.96922 11.4205 11.14V12.2014H14.7079C14.8272 12.2014 14.9266 12.2979 14.9266 12.4137V12.8382H10.5391V14.1183H16.2455V12.4137C16.2455 11.5967 15.5562 10.9277 14.7079 10.9277ZM17.9952 12.8447V9.01074H16.6829V14.1248H18.8767V12.8447H17.9952ZM22.3827 12.8447V9.01074H21.0704V12.8447H20.633V11.571H19.3141V14.1248H23.2642V12.8447H22.3827Z" fill="#547C31"/>
</g>
<defs>
<clipPath id="clip0_1_6241">
<rect width="34" height="22" fill="white" transform="translate(0.180176 0.590332)"/>
</clipPath>
</defs>
</svg>
