<svg width="35" height="23" viewBox="0 0 35 23" fill="none" xmlns="http://www.w3.org/2000/svg">
<g clip-path="url(#clip0_1_6200)">
<path d="M0.164062 0.458984H34.0978V22.459H0.164062V0.458984Z" fill="white"/>
<path d="M0.164062 0.458984H34.1641V7.79232H0.164062V0.458984Z" fill="#6DA544"/>
<path d="M0.164062 15.1191H34.1641V22.4525H0.164062V15.1191ZM18.642 9.13023C18.6487 9.25889 19.2186 10.8156 18.9337 11.6647C18.4962 12.9706 17.8865 13.0671 17.6214 13.2408V9.07877L17.1641 8.80859L16.7068 9.07877V13.2408C16.4416 13.0671 15.8849 13.0864 15.3945 11.6647C15.1095 10.8478 15.7723 9.26532 15.7789 9.1431C15.7789 9.1431 15.1492 9.66415 14.7317 10.687C14.3407 11.639 14.8576 13.8776 16.6869 14.2121C16.8393 14.2378 16.9984 14.5723 17.1641 14.5723C17.3032 14.5723 17.4358 14.2378 17.5617 14.2185C19.444 13.9226 19.8814 11.5361 19.5434 10.6419C19.1855 9.70275 18.642 9.13023 18.642 9.13023Z" fill="#D80027"/>
<g opacity="0.5">
<path d="M3.12001 6.8208H4.59798V8.39039H3.12001V6.8208ZM0.164062 6.8208H1.64204V8.39039H0.164062V6.8208ZM6.07595 6.8208H7.55393V8.39039H6.07595V6.8208ZM9.0319 6.8208H10.5099V8.39039H9.0319V6.8208ZM11.9878 6.8208H13.4658V8.39039H11.9878V6.8208ZM14.9438 6.8208H16.4218V8.39039H14.9438V6.8208ZM17.9064 6.8208H19.3843V8.39039H17.9064V6.8208ZM20.8623 6.8208H22.3403V8.39039H20.8623V6.8208ZM23.8183 6.8208H25.2962V8.39039H23.8183V6.8208ZM26.7742 6.8208H28.2522V8.39039H26.7742V6.8208ZM29.7301 6.8208H31.2081V8.39039H29.7301V6.8208ZM32.6861 6.8208H34.1641V8.39039H32.6861V6.8208ZM3.12001 14.4114H4.59798V16.0518H3.12001V14.4114ZM0.164062 14.4114H1.64204V16.0518H0.164062V14.4114ZM6.07595 14.4114H7.55393V16.0518H6.07595V14.4114ZM9.0319 14.4114H10.5099V16.0518H9.0319V14.4114ZM11.9878 14.4114H13.4658V16.0518H11.9878V14.4114ZM14.9438 14.4114H16.4218V16.0518H14.9438V14.4114ZM17.9064 14.4114H19.3843V16.0518H17.9064V14.4114ZM20.8623 14.4114H22.3403V16.0518H20.8623V14.4114ZM23.8183 14.4114H25.2962V16.0518H23.8183V14.4114ZM26.7742 14.4114H28.2522V16.0518H26.7742V14.4114ZM29.7301 14.4114H31.2081V16.0518H29.7301V14.4114ZM32.6861 14.4114H34.1641V16.0518H32.6861V14.4114Z" fill="white"/>
</g>
</g>
<defs>
<clipPath id="clip0_1_6200">
<rect width="34" height="22" fill="white" transform="translate(0.164062 0.458984)"/>
</clipPath>
</defs>
</svg>
