<svg width="35" height="23" viewBox="0 0 35 23" fill="none" xmlns="http://www.w3.org/2000/svg">
<g clip-path="url(#clip0_1_6196)">
<path d="M0.967285 0.458984H34.9673V22.459H0.967285V0.458984Z" fill="white"/>
<path d="M20.9696 11.459L34.9673 2.40167V0.458984H31.9649L17.9673 9.51629L3.96962 0.458984H0.967285V2.40167L14.9649 11.459L0.967285 20.5163V22.459H3.96962L17.9673 13.4017L31.9649 22.459H34.9673V20.5163L20.9696 11.459Z" fill="#D80027"/>
<path d="M16.456 3.32809L17.934 3.68833L19.412 3.32809L19.6771 1.98365L18.6896 2.40178L17.934 1.41113L17.1784 2.40178L16.1909 1.98365L16.456 3.32809Z" fill="#FFDA44"/>
<path d="M16.456 3.32799C16.456 3.32799 16.1909 4.15781 16.1909 5.25138C16.1909 7.04611 17.934 7.9081 17.934 7.9081C17.934 7.9081 19.6771 6.91103 19.6771 5.25138C19.6771 4.26073 19.412 3.32799 19.412 3.32799C19.412 3.32799 18.8751 3.00635 17.934 3.00635C16.9929 3.00635 16.456 3.32799 16.456 3.32799Z" fill="#D80027"/>
</g>
<defs>
<clipPath id="clip0_1_6196">
<rect width="34" height="22" fill="white" transform="translate(0.967285 0.458984)"/>
</clipPath>
</defs>
</svg>
