<svg width="35" height="23" viewBox="0 0 35 23" fill="none" xmlns="http://www.w3.org/2000/svg">
<g clip-path="url(#clip0_1_6184)">
<path d="M0.442383 0.246582H34.4424V22.2461H0.442383V0.246582Z" fill="#6DA544"/>
<path d="M14.7771 11.2466L0.442383 20.5217V1.9707L14.7771 11.2466ZM34.4424 1.9707V20.5217L20.1077 11.2466L34.4424 1.9707Z" fill="black"/>
<path d="M34.4424 1.97073L20.1077 11.2466L34.4424 20.5218V22.2464H31.7778L17.4424 12.9705L3.10693 22.2464H0.442383V20.5218L14.7771 11.2466L0.442383 1.97073V0.246094H3.10693L17.4424 9.522L31.7778 0.246094H34.4424V1.97073Z" fill="#0052B4"/>
<path d="M34.4424 1.97073L20.1077 11.2466L34.4424 20.5218V22.2464H31.7778L17.4424 12.9705L3.10693 22.2464H0.442383V20.5218L14.7771 11.2466L0.442383 1.97073V0.246094H3.10693L17.4424 9.522L31.7778 0.246094H34.4424V1.97073Z" fill="#FFDA44"/>
</g>
<defs>
<clipPath id="clip0_1_6184">
<rect width="34" height="22" fill="white" transform="translate(0.442383 0.246094)"/>
</clipPath>
</defs>
</svg>
