<svg width="35" height="23" viewBox="0 0 35 23" fill="none" xmlns="http://www.w3.org/2000/svg">
<g clip-path="url(#clip0_1_6181)">
<path d="M0.409668 0.459473H34.4097V22.459H0.409668V0.459473Z" fill="white"/>
<path d="M0.409668 0.459473H34.4097V7.79263H0.409668V0.459473Z" fill="black"/>
<path d="M0.409668 15.126H34.4097V22.4591H0.409668V15.126Z" fill="#6DA544"/>
<path d="M17.4097 11.4595L0.409668 22.4593V0.458984L17.4097 11.4595Z" fill="#D80027"/>
<path d="M5.5835 9.44824L6.10651 10.5097L7.28761 10.2448L6.75869 11.3035L7.7085 12.0346L6.52593 12.2933L6.52919 13.4699L5.5835 12.7338L4.6378 13.4699L4.64113 12.2933L3.4585 12.0346L4.4083 11.3035L3.87938 10.2448L5.06048 10.5097L5.5835 9.44824Z" fill="white"/>
</g>
<defs>
<clipPath id="clip0_1_6181">
<rect width="34" height="22" fill="white" transform="translate(0.409668 0.458984)"/>
</clipPath>
</defs>
</svg>
