<svg width="35" height="22" viewBox="0 0 35 22" fill="none" xmlns="http://www.w3.org/2000/svg">
<g clip-path="url(#clip0_1_6177)">
<path d="M0.788086 0.000488281H34.7881V22.0007H0.788086V0.000488281Z" fill="white"/>
<path d="M0.788086 0.000488281H34.7881V5.83859H0.788086V0.000488281Z" fill="black"/>
<path d="M0.788086 16.1626H34.7881V22H0.788086V16.1626Z" fill="#496E2D"/>
<path d="M0.788086 7.30127H34.7881V14.7004H0.788086V7.30127Z" fill="#A2001D"/>
<path d="M22.2549 3.51113L20.5561 2.75L17.7881 8.83322L15.0202 2.75L13.3213 3.51113L16.7577 11L13.3213 18.489L15.0202 19.25L17.7881 13.1669L20.5561 19.25L22.2549 18.489L18.8185 11L22.2549 3.51113Z" fill="white"/>
<path d="M18.942 4.2282C18.2843 3.53108 17.7882 3.13037 17.7882 3.13037C17.7882 3.13037 17.292 3.53101 16.6343 4.22814V17.7715C17.292 18.4686 17.7882 18.8694 17.7882 18.8694C17.7882 18.8694 18.2843 18.4687 18.942 17.7716V4.2282Z" fill="white"/>
<path d="M14.6694 6.82567V15.1746C15.3644 16.3697 16.215 17.3494 16.8523 17.9988V4.00146C16.2149 4.6509 15.3643 5.63052 14.6694 6.82567ZM20.9063 6.82567C20.2114 5.63052 19.3608 4.6509 18.7234 4.00146V17.9989C19.3608 17.3494 20.2114 16.3698 20.9063 15.1747V6.82567Z" fill="#A2001D"/>
<path d="M20.9066 6.82568V15.1746C21.6101 13.9646 22.154 12.5338 22.154 11.0002C22.154 9.46659 21.6101 8.03579 20.9066 6.82568ZM14.6697 6.82568V15.1746C13.9662 13.9646 13.4224 12.5338 13.4224 11.0002C13.4224 9.46659 13.9662 8.03579 14.6697 6.82568Z" fill="black"/>
</g>
<defs>
<clipPath id="clip0_1_6177">
<rect width="34" height="22" fill="white" transform="translate(0.788086 0.000488281)"/>
</clipPath>
</defs>
</svg>
