<svg width="35" height="23" viewBox="0 0 35 23" fill="none" xmlns="http://www.w3.org/2000/svg">
<g clip-path="url(#clip0_1_6174)">
<path d="M0.311523 0.376953H34.3779V22.377H0.311523V0.376953Z" fill="#D80027"/>
<path d="M17.3116 22.3384C23.5721 22.3384 28.6472 17.4221 28.6472 11.3577C28.6472 5.29318 23.5721 0.376953 17.3116 0.376953C11.0512 0.376953 5.97607 5.29318 5.97607 11.3577C5.97607 17.4221 11.0512 22.3384 17.3116 22.3384Z" fill="#D80027"/>
<path d="M25.7055 11.3577L22.2789 12.9209L24.1051 16.1373L20.3797 15.449L19.9082 19.0899L17.3117 16.4074L14.7152 19.0899L14.2437 15.449L10.5184 16.1373L12.3445 12.9209L8.91797 11.3577L12.3445 9.79458L10.5184 6.57177L14.2437 7.26651L14.7152 3.61914L17.3117 6.3016L19.9082 3.61914L20.3797 7.26651L24.1051 6.57177L22.2789 9.79458L25.7055 11.3577Z" fill="#FFDA44"/>
<path d="M17.4046 15.9636C20.0305 15.9636 22.1593 13.9015 22.1593 11.3578C22.1593 8.81406 20.0305 6.75195 17.4046 6.75195C14.7786 6.75195 12.6499 8.81406 12.6499 11.3578C12.6499 13.9015 14.7786 15.9636 17.4046 15.9636Z" fill="#D80027"/>
<path d="M14.5357 11.3575C14.3963 11.3575 14.2635 11.3639 14.124 11.3768C14.1307 12.1487 14.4162 12.8499 14.8943 13.4031C15.1467 12.7405 15.5252 12.1423 16.0033 11.6212C15.5451 11.4475 15.0537 11.3575 14.5357 11.3575ZM16.3021 14.3487C16.6475 14.4709 17.0193 14.5352 17.4045 14.5352C17.7896 14.5352 18.1615 14.4709 18.5068 14.3487C18.3209 13.6347 17.9291 12.9978 17.4045 12.4961C16.8799 12.9978 16.4881 13.6347 16.3021 14.3487ZM20.2467 9.76858C19.6822 8.81653 18.6197 8.17969 17.4045 8.17969C16.1893 8.17969 15.1334 8.81653 14.5623 9.76858C15.5982 9.77501 16.5678 10.0452 17.4045 10.5148C18.2412 10.0452 19.2107 9.76858 20.2467 9.76858ZM18.8057 11.6212C19.2838 12.1358 19.6623 12.7405 19.9146 13.4031C20.3928 12.8563 20.6783 12.1487 20.685 11.3768C20.5521 11.3639 20.4127 11.3575 20.2732 11.3575C19.7619 11.3575 19.2639 11.4475 18.8057 11.6212Z" fill="#FFDA44"/>
</g>
<defs>
<clipPath id="clip0_1_6174">
<rect width="34" height="22" fill="white" transform="translate(0.311523 0.376953)"/>
</clipPath>
</defs>
</svg>
