<svg width="35" height="23" viewBox="0 0 35 23" fill="none" xmlns="http://www.w3.org/2000/svg">
<g clip-path="url(#clip0_1_6225)">
<path d="M0.246094 0.246094H34.2461V22.2461H0.246094V0.246094Z" fill="#CE1126"/>
<path d="M17.4425 16.189C19.7876 16.189 21.6887 14.3438 21.6887 12.0676C21.6887 9.79147 19.7876 7.94629 17.4425 7.94629C15.0974 7.94629 13.1963 9.79147 13.1963 12.0676C13.1963 14.3438 15.0974 16.189 17.4425 16.189Z" fill="#FCD116"/>
<path d="M19.4445 5.62891L17.6539 7.53557L19.8148 8.01224L19.4445 5.62891ZM15.5534 5.64357L15.1908 8.07091L17.3441 7.48424L15.5534 5.64357ZM22.6783 7.60157L20.0565 8.22491L21.5752 9.96291L22.6783 7.60157ZM12.229 7.46957L13.4001 9.86757L14.9263 8.20291L12.229 7.46957ZM24.2423 10.7916L21.6432 10.0656L22.0663 12.2289L24.2423 10.7916ZM10.4912 10.6009L12.9014 12.0529L13.2943 10.0216L10.4912 10.6009Z" fill="#FCD116"/>
<path d="M0.246094 13.0796H34.2461V22.2463H0.246094V13.0796Z" fill="#003F87"/>
<path d="M0.246094 19.8262C1.37943 19.8262 2.51276 20.7795 3.64609 20.7795C4.77943 20.7795 5.91276 19.8262 7.04609 19.8262C8.17943 19.8262 9.31276 20.7795 10.4461 20.7795C11.5794 20.7795 12.7128 19.8262 13.8461 19.8262C14.9794 19.8262 16.1128 20.7795 17.2461 20.7795C18.3794 20.7795 19.5128 19.8262 20.6461 19.8262C21.7794 19.8262 22.9128 20.7795 24.0461 20.7795C25.1794 20.7795 26.3128 19.8262 27.4461 19.8262C28.5794 19.8262 29.7128 20.7795 30.8461 20.7795C31.9794 20.7795 33.1128 19.8262 34.2461 19.8262V18.2862C33.1128 18.2862 31.9794 19.2395 30.8461 19.2395C29.7128 19.2395 28.5794 18.2862 27.4461 18.2862C26.3128 18.2862 25.1794 19.2395 24.0461 19.2395C22.9128 19.2395 21.7794 18.2862 20.6461 18.2862C19.5128 18.2862 18.3794 19.2395 17.2461 19.2395C16.1128 19.2395 14.9794 18.2862 13.8461 18.2862C12.7128 18.2862 11.5794 19.2395 10.4461 19.2395C9.31276 19.2395 8.17943 18.2862 7.04609 18.2862C5.91276 18.2862 4.77943 19.2395 3.64609 19.2395C2.51276 19.2395 1.37943 18.2862 0.246094 18.2862V19.8262ZM0.246094 16.6728C1.37943 16.6728 2.51276 17.6262 3.64609 17.6262C4.77943 17.6262 5.91276 16.6728 7.04609 16.6728C8.17943 16.6728 9.31276 17.6262 10.4461 17.6262C11.5794 17.6262 12.7128 16.6728 13.8461 16.6728C14.9794 16.6728 16.1128 17.6262 17.2461 17.6262C18.3794 17.6262 19.5128 16.6728 20.6461 16.6728C21.7794 16.6728 22.9128 17.6262 24.0461 17.6262C25.1794 17.6262 26.3128 16.6728 27.4461 16.6728C28.5794 16.6728 29.7128 17.6262 30.8461 17.6262C31.9794 17.6262 33.1128 16.6728 34.2461 16.6728V15.1328C33.1128 15.1328 31.9794 16.0862 30.8461 16.0862C29.7128 16.0862 28.5794 15.1328 27.4461 15.1328C26.3128 15.1328 25.1794 16.0862 24.0461 16.0862C22.9128 16.0862 21.7794 15.1328 20.6461 15.1328C19.5128 15.1328 18.3794 16.0862 17.2461 16.0862C16.1128 16.0862 14.9794 15.1328 13.8461 15.1328C12.7128 15.1328 11.5794 16.0862 10.4461 16.0862C9.31276 16.0862 8.17943 15.1328 7.04609 15.1328C5.91276 15.1328 4.77943 16.0862 3.64609 16.0862C2.51276 16.0862 1.37943 15.1328 0.246094 15.1328V16.6728ZM0.246094 13.5195C1.37943 13.5195 2.51276 14.4728 3.64609 14.4728C4.77943 14.4728 5.91276 13.5195 7.04609 13.5195C8.17943 13.5195 9.31276 14.4728 10.4461 14.4728C11.5794 14.4728 12.7128 13.5195 13.8461 13.5195C14.9794 13.5195 16.1128 14.4728 17.2461 14.4728C18.3794 14.4728 19.5128 13.5195 20.6461 13.5195C21.7794 13.5195 22.9128 14.4728 24.0461 14.4728C25.1794 14.4728 26.3128 13.5195 27.4461 13.5195C28.5794 13.5195 29.7128 14.4728 30.8461 14.4728C31.9794 14.4728 33.1128 13.5195 34.2461 13.5195V11.9795C33.1128 11.9795 31.9794 12.9328 30.8461 12.9328C29.7128 12.9328 28.5794 11.9795 27.4461 11.9795C26.3128 11.9795 25.1794 12.9328 24.0461 12.9328C22.9128 12.9328 21.7794 11.9795 20.6461 11.9795C19.5128 11.9795 18.3794 12.9328 17.2461 12.9328C16.1128 12.9328 14.9794 11.9795 13.8461 11.9795C12.7128 11.9795 11.5794 12.9328 10.4461 12.9328C9.31276 12.9328 8.17943 11.9795 7.04609 11.9795C5.91276 11.9795 4.77943 12.9328 3.64609 12.9328C2.51276 12.9328 1.37943 11.9795 0.246094 11.9795V13.5195Z" fill="white"/>
<path fill-rule="evenodd" clip-rule="evenodd" d="M14.0878 3.78806L14.0047 3.3994L15.6971 3.12806C15.6971 3.12806 13.4229 2.6074 12.6749 2.3434C11.5945 1.9694 11.4434 1.45606 11.4434 1.45606C11.4434 1.45606 14.8207 2.26273 16.3394 2.26273C16.6642 2.26273 17.3065 3.0474 17.3065 3.0474C17.3065 3.0474 18.4247 1.95473 18.9611 1.91806C21.3865 1.7494 23.9931 1.44873 23.9931 1.44873C23.9931 1.44873 23.2376 1.94006 22.7842 2.07206C21.5602 2.4314 18.9611 2.93006 18.9611 2.93006L18.5985 3.48006H21.1749L20.0869 3.7954L20.646 4.3014C20.646 4.3014 20.0567 4.00073 19.2785 4.1474C18.742 4.24273 18.1149 4.5874 17.5482 4.73406C16.1354 5.08606 15.2891 3.7954 15.2891 3.7954L14.0878 3.78806Z" fill="#FCD116"/>
</g>
<defs>
<clipPath id="clip0_1_6225">
<rect width="34" height="22" fill="white" transform="translate(0.246094 0.246094)"/>
</clipPath>
</defs>
</svg>
