<svg width="35" height="23" viewBox="0 0 35 23" fill="none" xmlns="http://www.w3.org/2000/svg">
<g clip-path="url(#clip0_1_6219)">
<path d="M0.180176 0.246582H34.1802V22.2461H0.180176V0.246582Z" fill="#0052B4"/>
<path d="M0.180176 0.246582H34.1802V5.74682H0.180176V0.246582Z" fill="#FFDA44"/>
<path d="M0.180176 5.74609H34.1802V11.2463H0.180176V5.74609Z" fill="white"/>
<path d="M0.180176 11.2461H34.1802V16.7463H0.180176V11.2461Z" fill="#D80027"/>
<path d="M17.1802 11.2466L0.180176 22.2464V0.246094L17.1802 11.2466Z" fill="#6DA544"/>
<path d="M4.73797 11.2463C4.73797 9.64364 5.89848 8.30475 7.44814 7.9763C7.20537 7.92463 6.95757 7.89853 6.70904 7.89844C4.80398 7.89844 3.25977 9.3973 3.25977 11.2463C3.25977 13.0952 4.80404 14.5941 6.70904 14.5941C6.96284 14.5941 7.20994 14.5667 7.44814 14.5162C5.89842 14.1878 4.73797 12.8489 4.73797 11.2463Z" fill="white"/>
<path d="M7.41003 8.37646L7.59345 8.92451H8.18712L7.70687 9.26328L7.89028 9.81126L7.41003 9.47256L6.92965 9.81126L7.1132 9.26328L6.63281 8.92451H7.22648L7.41003 8.37646ZM7.41003 9.81126L7.59345 10.3593H8.18712L7.70687 10.698L7.89028 11.246L7.41003 10.9073L6.92965 11.246L7.1132 10.698L6.63281 10.3593H7.22648L7.41003 9.81126ZM7.41003 11.246L7.59345 11.7941H8.18712L7.70687 12.1328L7.89028 12.6808L7.41003 12.3421L6.92965 12.6808L7.1132 12.1328L6.63281 11.7941H7.22648L7.41003 11.246ZM7.41003 12.6808L7.59345 13.2288H8.18712L7.70687 13.5676L7.89028 14.1156L7.41003 13.7769L6.92965 14.1156L7.1132 13.5676L6.63281 13.2288H7.22648L7.41003 12.6808Z" fill="white"/>
</g>
<defs>
<clipPath id="clip0_1_6219">
<rect width="34" height="22" fill="white" transform="translate(0.180176 0.246094)"/>
</clipPath>
</defs>
</svg>
