<svg width="35" height="23" viewBox="0 0 35 23" fill="none" xmlns="http://www.w3.org/2000/svg">
<g clip-path="url(#clip0_1_6173)">
<path d="M0.147461 0.246094H34.1475V22.2461H0.147461V0.246094Z" fill="#D80027"/>
<path d="M34.0812 0.246094H0.147461V22.2461" fill="#6DA544"/>
<path d="M20.5408 0.246094L0.147461 12.7578V22.2461H13.8601L34.1475 9.79873V0.246094H20.5408Z" fill="#FFDA44"/>
<path d="M34.1475 0.246094H25.6773L0.147461 16.2894V22.1818L8.51159 22.2461L34.1475 6.13849V0.246094Z" fill="black"/>
<path d="M9.49931 12.2751L11.5671 13.819L13.7079 12.3909L12.8397 14.7711L14.9009 16.3085L12.3028 16.2377L11.428 18.6178L10.6923 16.1991L8.09424 16.1284L10.235 14.7003L9.49931 12.2751ZM20.7332 4.80029L22.8011 6.33772L24.9418 4.90965L24.0736 7.28977L26.1348 8.82719L23.5367 8.75643L22.6619 11.1366L21.9262 8.71784L19.3282 8.64708L21.4755 7.21901L20.7332 4.80029Z" fill="white"/>
</g>
<defs>
<clipPath id="clip0_1_6173">
<rect width="34" height="22" fill="white" transform="translate(0.147461 0.246094)"/>
</clipPath>
</defs>
</svg>
