<svg width="35" height="23" viewBox="0 0 35 23" fill="none" xmlns="http://www.w3.org/2000/svg">
<g clip-path="url(#clip0_1_6171)">
<path d="M0.0493164 0.246094H34.0493V22.2464H0.0493164V0.246094Z" fill="#91DC5A"/>
<path d="M0.0493164 0.246094H34.0493V22.2464H0.0493164V0.246094Z" fill="white"/>
<path d="M0.0493164 0.246094H34.0493V3.93204H0.0493164V0.246094ZM0.0493164 18.5604H34.0493V22.2456H0.0493164V18.5604Z" fill="#0052B4"/>
<path d="M0.0493164 5.39453H34.0493V17.0981H0.0493164V5.39453Z" fill="#D80027"/>
<path d="M12.6884 15.4782C15.0968 15.4782 17.0492 13.5832 17.0492 11.2457C17.0492 8.90814 15.0968 7.01318 12.6884 7.01318C10.28 7.01318 8.32764 8.90814 8.32764 11.2457C8.32764 13.5832 10.28 15.4782 12.6884 15.4782Z" fill="white"/>
<path d="M12.6886 7.01367L13.667 9.93637H16.8383L14.2717 11.7429L15.2578 14.6743L12.6886 12.8593L10.1232 14.6708L11.1054 11.7429L8.54102 9.93637H11.7101L12.6886 7.01367Z" fill="#D80027"/>
</g>
<defs>
<clipPath id="clip0_1_6171">
<rect width="34" height="22" fill="white" transform="translate(0.0493164 0.246094)"/>
</clipPath>
</defs>
</svg>
