<svg width="34" height="22" viewBox="0 0 34 22" fill="none" xmlns="http://www.w3.org/2000/svg">
<g clip-path="url(#clip0_11_27)">
<g clip-path="url(#clip1_11_27)">
<path d="M33.4746 21.9063H0.329696C0.00283512 21.9063 -0.262207 21.6413 -0.262207 21.3144V0.00694177C-0.262207 -0.319919 0.00283512 -0.584961 0.329696 -0.584961H33.4747C33.8016 -0.584961 34.0666 -0.319919 34.0666 0.00694177V21.3144C34.0665 21.6414 33.8015 21.9063 33.4746 21.9063Z" fill="white"/>
<path d="M20.1878 5.73505C17.4681 3.92199 13.7947 4.66321 11.9828 7.37813C11.0739 8.73325 11.4434 10.5746 12.8031 11.4812C14.1619 12.3877 15.9973 12.0196 16.9039 10.6597C17.8104 9.29987 19.6471 8.93627 21.0058 9.83807C22.3667 10.7446 22.7327 12.586 21.8249 13.9411C23.638 11.2216 22.9051 7.54817 20.1878 5.73505Z" fill="#FF4B55"/>
<path d="M11.9828 7.37842C11.074 8.73353 11.4434 10.5749 12.8032 11.4814C14.1619 12.388 15.9974 12.0198 16.9039 10.66C17.8105 9.30016 19.6471 8.93656 21.0058 9.83836C22.3667 10.7449 22.7328 12.5863 21.8249 13.9414C20.0142 16.6657 16.3421 17.3977 13.6224 15.5845C10.9052 13.7715 10.1698 10.0981 11.9828 7.37842Z" fill="#41479B"/>
<path d="M23.2006 3.49972L24.2757 5.11572C24.366 5.25149 24.3295 5.4348 24.194 5.52552L23.9214 5.70809C23.7853 5.79915 23.6012 5.76254 23.5104 5.62629L22.434 4.0107C22.3434 3.87479 22.3801 3.69114 22.516 3.60043L22.7899 3.41752C22.926 3.32667 23.1099 3.36348 23.2006 3.49972Z" fill="#464655"/>
<path d="M24.8597 5.99147L25.9383 7.60646C26.0294 7.74284 25.9922 7.92736 25.8554 8.01774L25.5816 8.1987C25.4457 8.28855 25.2628 8.2516 25.1724 8.11623L24.0943 6.50291C24.0036 6.36707 24.04 6.18329 24.1759 6.09244L24.4491 5.9098C24.585 5.81895 24.7689 5.8555 24.8597 5.99147Z" fill="#464655"/>
<path d="M24.3514 2.73145L27.089 6.83971C27.1796 6.97568 27.1428 7.1594 27.0068 7.25005L26.7318 7.43335C26.5958 7.52407 26.412 7.48726 26.3214 7.35129L23.5829 3.2433C23.4922 3.10726 23.5291 2.92341 23.6652 2.83283L23.9411 2.64919C24.0771 2.55874 24.2608 2.59548 24.3514 2.73145Z" fill="#464655"/>
<path d="M25.4997 1.9646L26.5771 3.58375C26.6679 3.72013 26.6306 3.90424 26.4939 3.99455L26.22 4.17558C26.084 4.26543 25.901 4.22849 25.8106 4.09285L24.7324 2.47584C24.6417 2.33987 24.6785 2.15609 24.8144 2.06544L25.0893 1.88226C25.2252 1.79155 25.409 1.82836 25.4997 1.9646Z" fill="#464655"/>
<path d="M27.1597 4.46108L28.2355 6.07688C28.326 6.21272 28.2893 6.39617 28.1537 6.48688L27.8805 6.66952C27.7444 6.76051 27.5603 6.72376 27.4697 6.58752L26.3939 4.97172C26.3034 4.83588 26.34 4.65244 26.4757 4.56172L26.7489 4.37909C26.8849 4.2881 27.069 4.32478 27.1597 4.46108Z" fill="#464655"/>
<path d="M8.63762 13.2079L11.3748 17.3118C11.4655 17.4477 11.4288 17.6314 11.2929 17.7221L11.0188 17.9051C10.8828 17.9959 10.699 17.9592 10.6082 17.8232L7.87106 13.7194C7.78041 13.5835 7.81702 13.3998 7.95299 13.309L8.22709 13.126C8.36306 13.0352 8.54691 13.072 8.63762 13.2079Z" fill="#464655"/>
<path d="M7.48846 13.9755L8.56311 15.5875C8.6537 15.7233 8.61715 15.9067 8.48152 15.9975L8.2089 16.18C8.07299 16.271 7.88901 16.2345 7.79816 16.0984L6.72223 14.4869C6.63145 14.351 6.66806 14.1672 6.80403 14.0765L7.07799 13.8935C7.2139 13.8028 7.39775 13.8395 7.48846 13.9755Z" fill="#464655"/>
<path d="M9.14946 16.4679L10.2253 18.0839C10.3158 18.2197 10.2792 18.4033 10.1434 18.4939L9.86996 18.6767C9.73392 18.7676 9.55001 18.7309 9.45922 18.5948L8.3827 16.9791C8.29211 16.8432 8.32886 16.6596 8.46463 16.5689L8.73872 16.3858C8.87483 16.2949 9.05874 16.3317 9.14946 16.4679Z" fill="#464655"/>
<path d="M6.33959 14.7426L9.07503 18.8467C9.16561 18.9825 9.12893 19.1661 8.9933 19.2569L8.71994 19.4396C8.58396 19.5306 8.40005 19.4939 8.30927 19.3578L5.57222 15.2543C5.4815 15.1184 5.51831 14.9346 5.65429 14.8439L5.92932 14.6606C6.06516 14.5699 6.24894 14.6067 6.33959 14.7426Z" fill="#464655"/>
<path d="M7.87145 7.60674L10.6082 3.49956C10.6989 3.36346 10.8828 3.32671 11.0188 3.4175L11.2929 3.60047C11.4288 3.69119 11.4654 3.8749 11.3748 4.01081L8.63694 8.11571C8.54642 8.25135 8.36331 8.28822 8.22741 8.19825L7.95445 8.01755C7.81781 7.92717 7.78066 7.74299 7.87145 7.60674Z" fill="#464655"/>
<path d="M6.72207 6.83994L9.45932 2.73195C9.55003 2.59584 9.73401 2.5591 9.87006 2.65002L10.1434 2.83279C10.2791 2.92351 10.3157 3.10695 10.2252 3.24286L7.4887 7.35105C7.39798 7.48716 7.21414 7.52397 7.07809 7.43311L6.804 7.25014C6.66816 7.15949 6.63149 6.97584 6.72207 6.83994Z" fill="#464655"/>
<path d="M5.57155 6.07656L8.30907 1.96448C8.39979 1.82831 8.58384 1.7915 8.71988 1.88242L8.99323 2.06519C9.12894 2.15591 9.16555 2.33922 9.07517 2.47512L6.33932 6.5878C6.24874 6.72398 6.06483 6.76085 5.92879 6.67014L5.65375 6.48683C5.51785 6.39618 5.4811 6.21253 5.57155 6.07656Z" fill="#464655"/>
<path d="M22.4342 17.3115L23.5101 15.7C23.6009 15.564 23.7849 15.5274 23.9208 15.6184L24.1934 15.801C24.3291 15.8918 24.3655 16.0752 24.275 16.211L23.2004 17.8229C23.1097 17.9589 22.9258 17.9957 22.7898 17.9049L22.5159 17.722C22.38 17.6312 22.3434 17.4475 22.4342 17.3115Z" fill="#464655"/>
<path d="M24.094 14.8277L25.1717 13.2082C25.2623 13.0721 25.4462 13.0352 25.5822 13.1259L25.8568 13.3089C25.9929 13.3997 26.0296 13.5836 25.9388 13.7195L24.8589 15.3365C24.7683 15.4721 24.5852 15.5089 24.4493 15.4188L24.177 15.2383C24.0405 15.1478 24.0034 14.9638 24.094 14.8277Z" fill="#464655"/>
<path d="M23.5829 18.0831L24.6595 16.4673C24.7501 16.3313 24.9339 16.2945 25.07 16.3852L25.3451 16.5687C25.481 16.6594 25.5178 16.8429 25.4273 16.979L24.3513 18.5948C24.2607 18.7309 24.0771 18.7678 23.941 18.6772L23.6651 18.4935C23.5291 18.403 23.4922 18.2191 23.5829 18.0831Z" fill="#464655"/>
<path d="M25.2443 15.5868L26.3215 13.9748C26.4123 13.839 26.5958 13.8024 26.7317 13.893L27.0068 14.0763C27.1428 14.167 27.1796 14.3509 27.0886 14.4869L26.0115 16.0989C25.9208 16.2347 25.7371 16.2713 25.6013 16.1807L25.3262 15.9974C25.19 15.9068 25.1534 15.7228 25.2443 15.5868Z" fill="#464655"/>
<path d="M24.7326 18.8465L25.8104 17.2336C25.9009 17.0982 26.0837 17.0613 26.2196 17.1511L26.4935 17.3321C26.6302 17.4225 26.6675 17.6068 26.5766 17.7432L25.4996 19.3583C25.4089 19.4943 25.2252 19.5309 25.0892 19.4403L24.8144 19.2572C24.6783 19.1664 24.6416 18.9825 24.7326 18.8465Z" fill="#464655"/>
<path d="M26.3944 16.3581L27.4695 14.7433C27.5602 14.6071 27.7443 14.5703 27.8803 14.6613L28.1533 14.8438C28.2891 14.9346 28.3256 15.1182 28.235 15.2541L27.1589 16.8668C27.0685 17.0025 26.8852 17.0393 26.7493 16.9492L26.4771 16.7688C26.3407 16.6784 26.3037 16.4944 26.3944 16.3581Z" fill="#464655"/>
</g>
</g>
<defs>
<clipPath id="clip0_11_27">
<rect width="34" height="22" fill="white" transform="translate(0 0.00732422)"/>
</clipPath>
<clipPath id="clip1_11_27">
<rect width="34.3288" height="34.3288" fill="white" transform="translate(-0.263184 -6.50342)"/>
</clipPath>
</defs>
</svg>
