<svg width="35" height="23" viewBox="0 0 35 23" fill="none" xmlns="http://www.w3.org/2000/svg">
<g clip-path="url(#clip0_1_6208)">
<path d="M0.376953 0.114746H34.377V22.115H0.376953V0.114746Z" fill="#0052B4"/>
<path d="M25.8768 8.24466C26.9654 8.24466 27.8479 7.38813 27.8479 6.33156C27.8479 5.27498 26.9654 4.41846 25.8768 4.41846C24.7882 4.41846 23.9058 5.27498 23.9058 6.33156C23.9058 7.38813 24.7882 8.24466 25.8768 8.24466Z" fill="#6DA544"/>
<path d="M22.4272 5.854H29.3255V8.72359H22.4272V5.854Z" fill="#D80027"/>
<path d="M22.4277 13.0278V14.9409H23.4647C24.0866 15.5324 24.9376 15.8974 25.877 15.8974C26.8165 15.8974 27.6675 15.5324 28.2893 14.9409H29.3263V13.0278H22.4277Z" fill="#FFDA44"/>
<path d="M22.4277 8.24512V11.1147C22.4277 13.6773 25.877 14.4625 25.877 14.4625C25.877 14.4625 29.3263 13.6774 29.3263 11.1147V8.24512H22.4277Z" fill="#338AF3"/>
<path d="M25.8769 9.77778C25.0146 9.77778 25.0146 10.543 24.1523 10.543C23.29 10.543 23.29 9.77778 22.4277 9.77778V11.1169C23.29 11.1169 23.29 11.8822 24.1523 11.8822C25.0146 11.8822 25.0146 11.1169 25.8769 11.1169C26.7392 11.1169 26.7392 11.8822 27.6016 11.8822C28.464 11.8822 28.464 11.1169 29.3264 11.1169V9.77778C28.4641 9.77778 28.4641 10.543 27.6016 10.543C26.7393 10.543 26.7393 9.77778 25.8769 9.77778ZM25.8769 7.09717C25.0146 7.09717 25.0146 7.86242 24.1523 7.86242C23.29 7.86242 23.29 7.09717 22.4277 7.09717V8.43631C23.29 8.43631 23.29 9.20156 24.1523 9.20156C25.0146 9.20156 25.0146 8.43631 25.8769 8.43631C26.7392 8.43631 26.7392 9.20156 27.6016 9.20156C28.464 9.20156 28.464 8.43631 29.3264 8.43631V7.09717C28.4641 7.09717 28.4641 7.86242 27.6016 7.86242C26.7393 7.86242 26.7393 7.09717 25.8769 7.09717Z" fill="#F3F3F3"/>
<path d="M17.377 0.114746V1.57248L14.3177 3.55178H17.377V7.67678H14.3177L17.377 9.65678V11.1145H15.8743L11.002 7.96153V11.1145H6.75195V7.96153L1.87959 11.1145H0.376953V9.65678L3.43622 7.67678H0.376953V3.55178H3.43622L0.376953 1.57248V0.114746H1.87959L6.75195 3.26696V0.114746H11.002V3.26696L15.8743 0.114746H17.377Z" fill="white"/>
<path d="M9.93945 0.114258H7.81445V4.58305H0.376953V6.64556H7.81445V11.1144H9.93945V6.64556H17.377V4.58305H9.93945V0.114258Z" fill="#D80027"/>
<path d="M0.376953 0.114258V1.08634L4.18714 3.5518H5.68945L0.376953 0.114258ZM17.377 0.114258V1.08634L13.5668 3.5518H12.0645L17.377 0.114258Z" fill="#D80027"/>
<path d="M0.376953 0.114258V1.08634L4.18714 3.5518H5.68945L0.376953 0.114258ZM17.377 0.114258V1.08634L13.5668 3.5518H12.0645L17.377 0.114258ZM0.376953 11.1144V10.1423L4.18714 7.67681H5.68945L0.376953 11.1144ZM17.377 11.1144V10.1423L13.5668 7.67681H12.0645L17.377 11.1144Z" fill="#D80027"/>
</g>
<defs>
<clipPath id="clip0_1_6208">
<rect width="34" height="22" fill="white" transform="translate(0.376953 0.114746)"/>
</clipPath>
</defs>
</svg>
