<svg width="35" height="23" viewBox="0 0 35 23" fill="none" xmlns="http://www.w3.org/2000/svg">
<g clip-path="url(#clip0_1_6176)">
<path d="M0.376953 0.246094H34.377V22.2461H0.376953V0.246094Z" fill="#36B6CC"/>
<path d="M17.3771 15.6398C19.8808 15.6398 21.9104 13.6699 21.9104 11.2398C21.9104 8.80979 19.8808 6.83984 17.3771 6.83984C14.8734 6.83984 12.8438 8.80979 12.8438 11.2398C12.8438 13.6699 14.8734 15.6398 17.3771 15.6398Z" fill="#FFD400"/>
<path d="M17.3771 16.4243L15.528 19.1067L15.0574 15.9096L12.1942 17.55L13.2016 14.4751L9.88779 14.7453L12.1677 12.3974L9.05933 11.2395L12.1611 10.0816L9.88117 7.73363L13.195 8.0038L12.1876 4.92895L15.0508 6.56287L15.5213 3.36579L17.3704 6.04825L19.2196 3.36579L19.6901 6.56287L22.5533 4.92895L21.5459 8.0038L24.8597 7.73363L22.5864 10.088L25.6882 11.2395L22.5864 12.3974L24.8664 14.7453L21.5525 14.4751L22.5599 17.55L19.6968 15.9161L19.2262 19.1132C19.2262 19.1067 17.3771 16.4243 17.3771 16.4243ZM17.3771 16.3728C20.2999 16.3728 22.6726 14.0699 22.6726 11.233C22.6726 8.3962 20.2999 6.09971 17.3771 6.09971C14.4543 6.09971 12.0816 8.40263 12.0816 11.2395C12.0816 14.0763 14.4543 16.3728 17.3771 16.3728ZM1.88818 2.06637C1.88818 1.86053 2.04725 1.69971 2.26596 1.69971H3.01489C3.22698 1.69971 3.39267 1.85409 3.39267 2.06637V2.79327C3.39929 2.99269 3.2336 3.15994 3.02152 3.15994H2.26596C2.0605 3.15994 1.88818 2.99912 1.88818 2.79971V2.06637ZM1.88818 5.00614C1.88818 4.80029 2.04725 4.63947 2.26596 4.63947H3.01489C3.22698 4.63947 3.39267 4.79386 3.39267 5.00614V5.73304C3.39929 5.93246 3.2336 6.09971 3.02152 6.09971H2.26596C2.0605 6.09971 1.88818 5.93889 1.88818 5.73947V5.00614ZM1.88818 7.93947C1.88818 7.73363 2.04725 7.57281 2.26596 7.57281H3.01489C3.22698 7.57281 3.39267 7.72719 3.39267 7.93947V8.66637C3.39929 8.86579 3.2336 9.03304 3.02152 9.03304H2.26596C2.0605 9.03304 1.88818 8.87222 1.88818 8.67281V7.93947ZM1.88818 10.8728C1.88818 10.667 2.04725 10.5061 2.26596 10.5061H3.01489C3.22698 10.5061 3.39267 10.6605 3.39267 10.8728V11.5997C3.39929 11.7991 3.2336 11.9664 3.02152 11.9664H2.26596C2.0605 11.9664 1.88818 11.8056 1.88818 11.6061V10.8728ZM1.88818 13.8126C1.88818 13.6067 2.04725 13.4459 2.26596 13.4459H3.01489C3.22698 13.4459 3.39267 13.6003 3.39267 13.8126V14.5395C3.39929 14.7389 3.2336 14.9061 3.02152 14.9061H2.26596C2.0605 14.9061 1.88818 14.7453 1.88818 14.5459V13.8126ZM1.88818 16.7459C1.88818 16.5401 2.04725 16.3792 2.26596 16.3792H3.01489C3.22698 16.3792 3.39267 16.5336 3.39267 16.7459V17.4728C3.39929 17.6722 3.2336 17.8395 3.02152 17.8395H2.26596C2.0605 17.8395 1.88818 17.6787 1.88818 17.4792V16.7459ZM1.88818 19.6792C1.88818 19.4734 2.04725 19.3126 2.26596 19.3126H3.01489C3.22698 19.3126 3.39267 19.467 3.39267 19.6792V20.4061C3.39929 20.6056 3.2336 20.7728 3.02152 20.7728H2.26596C2.0605 20.7728 1.88818 20.612 1.88818 20.4126V19.6792ZM3.39929 18.2126C3.39929 18.0067 3.55836 17.8459 3.77707 17.8459H4.526C4.73809 17.8459 4.90378 18.0003 4.90378 18.2126V18.9395C4.91041 19.1389 4.74471 19.3061 4.53263 19.3061H3.77707C3.57161 19.3061 3.39929 19.1453 3.39929 18.9459V18.2126ZM3.39929 15.2792C3.39929 15.0734 3.55836 14.9126 3.77707 14.9126H4.526C4.73809 14.9126 4.90378 15.067 4.90378 15.2792V16.0061C4.91041 16.2056 4.74471 16.3728 4.53263 16.3728H3.77707C3.57161 16.3728 3.39929 16.212 3.39929 16.0126V15.2792ZM3.39929 12.3395C3.39929 12.1336 3.55836 11.9728 3.77707 11.9728H4.526C4.73809 11.9728 4.90378 12.1272 4.90378 12.3395V13.0664C4.91041 13.2658 4.74471 13.433 4.53263 13.433H3.77707C3.57161 13.433 3.39929 13.2722 3.39929 13.0728V12.3395ZM3.39929 9.40614C3.39929 9.20029 3.55836 9.03947 3.77707 9.03947H4.526C4.73809 9.03947 4.90378 9.19386 4.90378 9.40614V10.133C4.91041 10.3325 4.74471 10.4997 4.53263 10.4997H3.77707C3.57161 10.4997 3.39929 10.3389 3.39929 10.1395V9.40614ZM3.39929 6.47281C3.39929 6.26696 3.55836 6.10614 3.77707 6.10614H4.526C4.73809 6.10614 4.90378 6.26053 4.90378 6.47281V7.19971C4.91041 7.39912 4.74471 7.56637 4.53263 7.56637H3.77707C3.57161 7.56637 3.39929 7.40556 3.39929 7.20614V6.47281ZM3.39929 3.53947C3.39929 3.33363 3.55836 3.17281 3.77707 3.17281H4.526C4.73809 3.17281 4.90378 3.32719 4.90378 3.53947V4.26637C4.91041 4.46579 4.74471 4.63304 4.53263 4.63304H3.77707C3.57161 4.63304 3.39929 4.47222 3.39929 4.27281V3.53947Z" fill="#FFD400"/>
</g>
<defs>
<clipPath id="clip0_1_6176">
<rect width="34" height="22" fill="white" transform="translate(0.376953 0.246094)"/>
</clipPath>
</defs>
</svg>
