<svg width="35" height="23" viewBox="0 0 35 23" fill="none" xmlns="http://www.w3.org/2000/svg">
<g clip-path="url(#clip0_1_6164)">
<path d="M0.278809 0.114746H34.2788V22.1147H0.278809V0.114746Z" fill="white"/>
<path d="M0.278809 0.127441H34.2788V5.96194H0.278809V0.127441ZM0.311947 16.2801H34.2788V22.1146H0.311947V16.2801Z" fill="#D80027"/>
<path d="M19.5188 12.5622L17.2455 8.52246L14.9722 12.5622H16.6755V13.6687H17.8154V12.5622H19.5188Z" fill="#6DA544"/>
<path d="M16.2716 13.8228C16.5632 13.5398 16.5632 13.0766 16.265 12.7936L16.5765 13.0959C16.2318 12.7936 15.7679 12.6714 15.3106 12.755L13.7531 13.1345C13.3488 13.231 13.3024 13.1088 13.6338 12.8643L15.4299 11.5585C15.7679 11.3141 15.7082 11.1146 15.2775 11.1146H14.5484C14.1242 11.1146 14.0845 10.9667 14.449 10.7866L16.1258 9.96961C16.4969 9.78949 16.4638 9.64154 16.0264 9.64154H15.2973C14.8732 9.64154 14.8069 9.44212 15.1449 9.19768L16.941 7.89183C17.3121 7.64738 17.796 7.64738 18.1671 7.89183L19.9632 9.19768C20.3012 9.44212 20.2416 9.64154 19.8108 9.64154H19.0817C18.6576 9.64154 18.6178 9.78949 18.9823 9.96961L20.6591 10.7866C21.0303 10.9667 20.9971 11.1146 20.5597 11.1146H19.8307C19.4065 11.1146 19.3402 11.3141 19.6782 11.5585L21.4743 12.8643C21.8123 13.1088 21.7659 13.231 21.355 13.1345L19.7975 12.755C19.3468 12.6714 18.8763 12.7936 18.5316 13.0959L18.8431 12.7936C18.5515 13.0766 18.5449 13.5333 18.8365 13.8228L19.2872 14.2603C19.5788 14.5433 19.4927 14.7749 19.0685 14.7749H16.033C15.6221 14.7749 15.5227 14.5433 15.8143 14.2603C15.8209 14.2667 16.2716 13.8228 16.2716 13.8228Z" fill="#14AF5A"/>
</g>
<defs>
<clipPath id="clip0_1_6164">
<rect width="34" height="22" fill="white" transform="translate(0.278809 0.114746)"/>
</clipPath>
</defs>
</svg>
