<svg width="35" height="23" viewBox="0 0 35 23" fill="none" xmlns="http://www.w3.org/2000/svg">
<g clip-path="url(#clip0_1_6160)">
<path d="M0.147461 0.114746H34.1475V22.1147H0.147461V0.114746Z" fill="#D80027"/>
<path d="M0.147461 0.114746H34.1475V11.1147H0.147461V0.114746Z" fill="#0052B4"/>
<path d="M10.0427 6.4252C10.0427 5.52462 9.29373 4.79772 8.36586 4.79772C7.93506 4.79772 7.54403 4.95211 7.24578 5.20941V4.25737H7.80251V3.17023H7.24578V2.62988H6.13233V3.17023H5.57561V4.25737H6.13233V5.21585C5.83408 4.95854 5.44305 4.80415 5.01225 4.80415C4.08438 4.80415 3.33545 5.53105 3.33545 6.43164C3.33545 6.91409 3.55416 7.34509 3.89217 7.64099V8.59947H9.47931V7.64099C9.83058 7.33865 10.0427 6.90123 10.0427 6.4252Z" fill="#FFDA44"/>
</g>
<defs>
<clipPath id="clip0_1_6160">
<rect width="34" height="22" fill="white" transform="translate(0.147461 0.114746)"/>
</clipPath>
</defs>
</svg>
