<svg width="35" height="23" viewBox="0 0 35 23" fill="none" xmlns="http://www.w3.org/2000/svg">
<g clip-path="url(#clip0_1_6223)">
<path d="M0.0820312 0.246094H34.082V22.2461H0.0820312V0.246094Z" fill="#FFDA44"/>
<path d="M14.8354 1.68066H32.538V20.7731H14.8354V1.68066Z" fill="#A2001D"/>
<path d="M1.56006 1.68066H14.8353V20.7731H1.56006V1.68066Z" fill="#D80027"/>
<path d="M13.3574 0.246094H14.8354V22.2461H13.3574V0.246094Z" fill="#FFDA44"/>
<path d="M1.56006 1.68066H7.45869V20.7731H1.56006V1.68066Z" fill="#6DA544"/>
<path d="M7.4585 1.68066H13.3571V20.7731H7.4585V1.68066Z" fill="#FF9811"/>
<path d="M24.4853 10.3324C24.3925 10.2038 24.4853 7.89442 24.4853 7.89442C24.5449 7.4184 24.4919 7.35407 24.5515 7.16109C24.6112 6.97454 24.9094 6.41489 24.9094 6.41489C24.9094 6.41489 24.5118 6.26693 24.2268 6.37629C23.9418 6.48565 22.5897 5.89383 22.1589 6.595C21.8673 7.0453 20.5948 7.63711 20.5285 7.49559C20.4623 7.35407 20.1375 7.17395 20.0712 7.30904C20.005 7.44413 20.0248 8.20319 20.0712 8.33828C20.1242 8.50553 20.7207 8.46693 20.8864 8.53769C21.1317 8.65348 21.695 9.06518 21.6751 9.226C21.6552 9.38682 20.1839 8.84003 20.0712 8.93653C19.9784 9.01372 19.9453 9.78565 20.0447 9.90144C20.164 10.0365 21.5956 10.2617 21.7016 10.3839C21.8077 10.5061 20.8334 10.8599 20.8864 11.9921C20.9328 12.9377 21.4166 13.1114 21.4166 13.1114C21.4166 13.1114 21.2576 13.343 20.8997 13.3108C20.4888 13.2722 19.0837 12.1722 19.0837 12.1722C19.0837 12.1722 18.8517 5.1605 19.3223 4.36284C19.6471 3.81606 17.8178 5.01255 17.8178 7.63068V9.95933C17.8178 10.3839 17.725 11.4003 17.9901 12.1465C17.9901 12.1465 17.9636 15.1634 18.0896 15.3371C18.2155 15.5108 18.9313 15.4786 19.0704 15.3371C19.2096 15.1956 19.0704 13.4073 19.0704 13.4073C19.5808 13.4202 20.2833 14.533 21.2244 14.4623C22.5897 14.3593 23.1266 13.8254 23.4977 14.1406C24.0346 14.5973 23.8623 15.633 23.5243 16.1669C23.3784 16.3921 22.5765 16.4693 22.4837 16.6558C22.3909 16.8424 22.5168 17.0032 22.5168 17.0032H24.4853C24.4853 17.0032 24.578 15.6845 24.6642 15.3242C24.7504 14.9576 24.6244 14.6359 25.0552 14.6552C26.6127 14.726 27.6931 13.671 28.0708 14.1406C28.2829 14.4044 28.442 16.064 28.2896 16.2827C28.1437 16.5014 27.3749 16.4628 27.2821 16.7137C27.1894 16.971 27.3352 16.9968 27.3352 16.9968H29.3036C29.3036 16.9968 29.2771 15.633 29.4693 15.2149C29.6615 14.7968 29.794 14.5459 30.0857 14.1085C30.3773 13.671 30.8346 13.0985 30.8346 11.7798C30.8346 10.8664 30.2977 10.3131 30.2977 10.3131H27.7196C26.7851 10.326 24.5781 10.4611 24.4853 10.3324ZM15.4716 2.32366C16.1808 1.64179 16.8104 2.14998 16.943 2.45875C17.0689 2.76752 17.0821 2.98623 17.1285 3.3336C17.1882 3.77746 17.4533 4.23419 17.4533 4.23419C17.4533 4.23419 16.9827 3.98974 16.479 3.96401C16.1675 3.94471 15.8825 3.92541 15.5777 3.80319C15.1999 3.65524 14.8022 2.97337 15.4716 2.32366ZM31.9348 2.31723C32.6439 2.9991 32.1204 3.61664 31.8022 3.7453C31.4841 3.87395 31.2588 3.88039 30.9009 3.92541C30.4435 3.98331 29.973 4.24705 29.973 4.24705C29.973 4.24705 30.2182 3.79033 30.2513 3.30144C30.2712 2.9991 30.2911 2.71606 30.4104 2.42658C30.5562 2.05992 31.2588 1.66752 31.9348 2.31723ZM31.9414 20.1295C31.2322 20.8114 30.6026 20.2968 30.4701 19.988C30.3441 19.6792 30.3309 19.4605 30.2911 19.1131C30.2381 18.6693 29.9664 18.2061 29.9664 18.2061C29.9664 18.2061 30.4303 18.4506 30.9406 18.4827C31.2521 18.502 31.5371 18.5213 31.842 18.6435C32.2198 18.7979 32.6174 19.4862 31.9414 20.1295ZM15.4915 20.1231C14.789 19.4348 15.3126 18.8237 15.6307 18.695C15.9488 18.5728 16.1742 18.5599 16.532 18.5149C16.9894 18.457 17.4599 18.1997 17.4599 18.1997C17.4599 18.1997 17.2081 18.6564 17.1816 19.1453C17.1617 19.4476 17.1418 19.7242 17.0159 20.0202C16.8634 20.3868 16.1609 20.7792 15.4915 20.1231Z" fill="#FFDA44"/>
<path d="M29.7009 10.6929C29.7009 10.6929 30.198 10.5256 30.2576 9.65721C30.2974 9.10399 28.9454 8.62797 27.6728 8.91744C26.3672 9.21335 25.4194 8.71803 25.4194 7.97826C25.4194 6.50516 27.3879 6.93616 27.9976 7.25136C28.6007 7.56657 29.966 8.76306 30.3239 7.85604" stroke="#FFDA44" stroke-width="0.491803" stroke-miterlimit="10"/>
</g>
<defs>
<clipPath id="clip0_1_6223">
<rect width="34" height="22" fill="white" transform="translate(0.0820312 0.246094)"/>
</clipPath>
</defs>
</svg>
