<svg width="35" height="23" viewBox="0 0 35 23" fill="none" xmlns="http://www.w3.org/2000/svg">
<g clip-path="url(#clip0_1_6158)">
<path d="M0.0493164 0.114746H33.983V2.11533H0.0493164V0.114746ZM0.0493164 4.11592H33.983V6.1165H0.0493164V4.11592ZM0.0493164 8.12352H33.983V10.1241H0.0493164V8.12352ZM0.0493164 12.1311H33.983V14.1317H0.0493164V12.1311ZM0.0493164 16.1516H33.983V18.1522H0.0493164V16.1516ZM0.0493164 20.1142H33.983V22.1147H0.0493164V20.1142Z" fill="#BF0A30"/>
<path d="M0.0493164 0.114746H10.362V10.1241H0.0493164V0.114746Z" fill="#002868"/>
<path d="M5.20546 2.05762L5.91463 4.17399H8.2078L6.35205 5.48627L7.06122 7.60265L5.20546 6.2968L3.34971 7.60265L4.05888 5.48627L2.20312 4.17399H4.4963L5.20546 2.05762Z" fill="white"/>
</g>
<defs>
<clipPath id="clip0_1_6158">
<rect width="34" height="22" fill="white" transform="translate(0.0493164 0.114746)"/>
</clipPath>
</defs>
</svg>
