<svg width="35" height="23" viewBox="0 0 35 23" fill="none" xmlns="http://www.w3.org/2000/svg">
<g clip-path="url(#clip0_1_6157)">
<path d="M0.442383 0.114746H34.4424V22.1147H0.442383V0.114746Z" fill="white"/>
<path d="M0.442383 0.114746H34.4424V7.44808H0.442383V0.114746Z" fill="#0052B4"/>
<path d="M0.442383 14.7559H34.4424V22.0892H0.442383V14.7559Z" fill="#6DA544"/>
<path d="M16.6934 11.1148L17.2037 9.62886C17.3362 9.24933 17.5417 9.2429 17.6743 9.62886L18.1846 11.1148L19.4704 12.9868C19.583 13.154 19.5565 13.392 19.3908 13.5014C19.3908 13.5014 18.9335 14.016 17.4357 14.016C15.9378 14.016 15.4805 13.5014 15.4805 13.5014C15.3214 13.3727 15.2883 13.154 15.401 12.9868L16.6934 11.1148Z" fill="black"/>
<path d="M17.4422 11.1146C16.6137 11.1146 15.9443 10.4649 15.9443 9.66083C15.9443 8.85674 16.6137 8.20703 17.4422 8.20703C18.2707 8.20703 18.94 8.85674 18.94 9.66083C18.94 10.4649 18.264 11.1146 17.4422 11.1146ZM17.4422 11.1146C17.8531 11.1146 18.1911 10.0661 18.1911 9.66083C18.1911 9.262 17.8531 8.93393 17.4422 8.93393C17.0313 8.93393 16.6933 9.262 16.6933 9.66083C16.6933 10.0661 17.0246 11.1146 17.4422 11.1146Z" fill="black"/>
</g>
<defs>
<clipPath id="clip0_1_6157">
<rect width="34" height="22" fill="white" transform="translate(0.442383 0.114746)"/>
</clipPath>
</defs>
</svg>
