<svg width="35" height="23" viewBox="0 0 35 23" fill="none" xmlns="http://www.w3.org/2000/svg">
<g clip-path="url(#clip0_1_6156)">
<path d="M0.311523 0.115234H34.3115V22.1148H0.311523V0.115234Z" fill="black"/>
<path d="M0.311523 0.115234H34.3115V7.4484H0.311523V0.115234Z" fill="#D80027"/>
<path d="M0.311523 14.7812H34.3115V22.1144H0.311523V14.7812Z" fill="#496E2D"/>
<path d="M19.0001 9.82715L19.5953 10.6231L20.559 10.3198L19.963 11.1151L20.5581 11.911L19.5946 11.6066L18.9985 12.4019L18.9992 11.4185L18.0356 11.114L18.9995 10.8106L19.0001 9.82715Z" fill="white"/>
<path d="M17.3757 13.1042C16.2436 13.1042 15.3259 12.2134 15.3259 11.1147C15.3259 10.0159 16.2437 9.12512 17.3757 9.12512C17.7162 9.12465 18.0514 9.20685 18.3508 9.36424C17.8959 8.93253 17.2739 8.66602 16.5874 8.66602C15.194 8.66602 14.0645 9.76236 14.0645 11.1147C14.0645 12.4671 15.194 13.5634 16.5874 13.5634C17.2739 13.5634 17.896 13.2969 18.3508 12.8652C18.0514 13.0226 17.7162 13.1047 17.3757 13.1042Z" fill="white"/>
</g>
<defs>
<clipPath id="clip0_1_6156">
<rect width="34" height="22" fill="white" transform="translate(0.311523 0.114746)"/>
</clipPath>
</defs>
</svg>
