<svg width="35" height="23" viewBox="0 0 35 23" fill="none" xmlns="http://www.w3.org/2000/svg">
<g clip-path="url(#clip0_1_6065)">
<path d="M0.246094 0.115234V22.1148H34.2461V0.115234H0.246094Z" fill="#D80027"/>
<path d="M23.6211 9.21215H18.7511L17.2461 4.7168L15.7411 9.21228H10.8711L14.811 11.9907L13.3061 16.4862L17.2461 13.7076L21.1861 16.486L19.6811 11.9905L23.6211 9.21215ZM15.9138 11.6427L16.4227 10.1226H18.0695L18.5784 11.6427V11.6428L17.2461 12.5823L15.9138 11.6427ZM17.7647 9.21215H16.7275L17.2461 7.66289L17.7647 9.21215ZM19.3763 11.0801L19.0558 10.1226H20.7341L19.3763 11.0801ZM15.4364 10.1226L15.1158 11.0801L13.758 10.1226H15.4364ZM15.0903 14.1025L15.609 12.5533L16.4481 13.145L15.0903 14.1025ZM18.044 13.145L18.8831 12.5532L19.4018 14.1024L18.044 13.145Z" fill="#20661B"/>
</g>
<defs>
<clipPath id="clip0_1_6065">
<rect width="34" height="22" fill="white" transform="translate(0.246094 0.114746)"/>
</clipPath>
</defs>
</svg>
