<svg width="35" height="23" viewBox="0 0 35 23" fill="none" xmlns="http://www.w3.org/2000/svg">
<g clip-path="url(#clip0_1_6188)">
<path d="M0.0820312 0.114746H34.082V22.1147H0.0820312V0.114746Z" fill="#E6BE53"/>
<path d="M1.40771 1.40137H32.7566V20.8283H1.40771V1.40137Z" fill="#E01D24"/>
<path d="M16.552 7.37739C16.8437 7.66043 17.3209 7.66043 17.6125 7.37739L17.301 7.67973L18.8055 6.2195C19.1302 5.93002 19.6074 5.85926 20.0117 6.03938L20.1509 6.10371C20.5287 6.29026 20.5949 6.66336 20.3033 6.9464L20.6148 6.64406L19.1037 8.11073C18.8055 8.42593 18.7326 8.88909 18.9181 9.28149L18.9844 9.41657C19.1766 9.78324 19.3224 10.4072 19.3224 10.806V10.0791C19.3224 10.478 19.614 10.6645 19.9984 10.478L20.1376 10.4137C20.5154 10.2271 20.5817 9.854 20.2901 9.57096L20.6016 9.8733C20.3099 9.59026 20.3099 9.1271 20.6016 8.84406L20.2901 9.1464C20.6347 8.7926 20.9263 8.4002 21.1583 7.97564L21.2246 7.84055C21.4168 7.47388 21.6421 6.86921 21.7481 6.47681L22.1326 4.97798C22.232 4.59201 22.5236 4.54055 22.7688 4.86219L24.1076 6.5926C24.3595 6.92067 24.5649 7.49318 24.5649 7.91774V9.35868C24.5649 9.76394 24.4191 10.3751 24.2269 10.7546L24.1606 10.8897C23.9287 11.3142 23.637 11.7066 23.2924 12.0604L22.8417 12.4979C22.4838 12.8324 22.0795 13.1154 21.6355 13.3406L21.4963 13.4049C21.1185 13.5914 20.469 13.7329 20.0647 13.7329C19.6538 13.7329 19.6074 13.8745 19.9918 14.061L20.131 14.1253C20.5088 14.3119 21.0456 14.685 21.3372 14.968L21.0257 14.6657C21.3173 14.9487 21.7945 14.9487 22.0862 14.6657L21.7747 14.968C22.0663 14.685 22.5435 14.685 22.8351 14.968L22.5501 14.6528C22.855 14.968 22.9279 15.4312 22.7423 15.8236L22.676 15.9587C22.4838 16.3253 21.9867 16.6148 21.5891 16.6148C21.092 16.5955 20.6082 16.4862 20.1575 16.2867L20.0183 16.2224C19.5875 15.9908 19.2363 15.6499 18.9977 15.2318L18.9314 15.0967C18.7392 14.73 18.3548 14.6657 18.0632 14.9487L18.3747 14.6464C18.083 14.9487 18.03 15.4055 18.2554 15.7593L18.938 16.7499C19.1634 17.078 19.0706 17.5283 18.7326 17.747L17.7119 18.4096C17.3341 18.6283 16.8635 18.6283 16.4791 18.4096L15.4585 17.747C15.1205 17.5283 15.0277 17.0844 15.253 16.7499L15.9357 15.7593C16.161 15.4055 16.108 14.9487 15.8164 14.6464L16.1279 14.9487C15.8363 14.6657 15.4519 14.7172 15.2596 15.0967L15.1934 15.2318C15.0012 15.5984 14.5637 16.0294 14.1727 16.2224L14.0335 16.2867C13.6557 16.4733 13.0062 16.6148 12.6019 16.6148C12.1446 16.5955 11.7337 16.3446 11.515 15.9587L11.4487 15.8236C11.2632 15.4312 11.3427 14.968 11.6409 14.6528L11.3294 14.9552C11.6211 14.6721 12.0982 14.6721 12.3899 14.9552L12.0784 14.6528C12.37 14.9359 12.8472 14.9359 13.1388 14.6528L12.8273 14.9552C13.1918 14.6207 13.5961 14.3376 14.0335 14.1125L14.1727 14.0482C14.5505 13.8616 14.5041 13.7201 14.0998 13.7201C13.6027 13.7008 13.1189 13.5914 12.6682 13.392L12.529 13.3277C12.0916 13.1025 11.6873 12.8195 11.3228 12.485L10.8721 12.0476C10.5275 11.7002 10.2359 11.3078 10.0039 10.8768L9.93762 10.7417C9.73216 10.3043 9.61286 9.82827 9.59961 9.34581V7.89845C9.59961 7.49318 9.80507 6.89494 10.0569 6.5733L11.3957 4.84289C11.6476 4.51482 11.9326 4.56628 12.032 4.95868L12.4164 6.45751C12.5489 6.9271 12.7212 7.38383 12.94 7.82125L13.0062 7.95634C13.1984 8.32301 13.5828 8.84406 13.8745 9.1271L13.563 8.82476C13.8546 9.1078 13.8546 9.57096 13.563 9.854L13.8745 9.55166C13.5828 9.8347 13.6359 10.2078 14.0269 10.3944L14.1661 10.4587C14.5439 10.6452 14.8421 10.4587 14.8421 10.0598V10.7867C14.8421 10.3879 14.9879 9.77681 15.1801 9.39728L15.2464 9.26219C15.432 8.86979 15.3591 8.41307 15.0608 8.09143L13.5563 6.63119L13.8678 6.93353C13.5762 6.65049 13.6292 6.27739 14.0203 6.09084L14.1595 6.02652C14.5637 5.8464 15.0343 5.91716 15.3657 6.20663L16.8702 7.66687L16.552 7.37739ZM15.3591 4.75926C15.0674 4.47622 15.147 4.14815 15.5446 4.0195L16.3665 3.74932C16.7641 3.62067 17.3938 3.62067 17.7914 3.74932L18.6133 4.0195C19.0109 4.14815 19.0904 4.47622 18.7988 4.75926L18.3481 5.19669C17.9969 5.49903 17.5462 5.67915 17.0756 5.70488C16.6647 5.70488 16.0947 5.47973 15.8031 5.19669C15.8097 5.19669 15.3591 4.75926 15.3591 4.75926Z" fill="#E6BE53"/>
<path d="M15.584 12.9931C15.584 13.392 15.6967 13.4048 15.8623 13.0253C15.8623 13.0253 16.3329 11.5329 17.0818 11.5329C17.8308 11.5329 18.3146 13.051 18.3146 13.051C18.4604 13.4177 18.5797 13.392 18.5797 12.9803V12.2598C18.5797 11.0569 17.9103 10.0791 17.0818 10.0791C16.2534 10.0791 15.584 11.0569 15.584 12.2598V12.9931Z" fill="#215F90"/>
</g>
<defs>
<clipPath id="clip0_1_6188">
<rect width="34" height="22" fill="white" transform="translate(0.0820312 0.114746)"/>
</clipPath>
</defs>
</svg>
