<svg width="35" height="23" viewBox="0 0 35 23" fill="none" xmlns="http://www.w3.org/2000/svg">
<g clip-path="url(#clip0_1_6151)">
<path d="M0.0820312 0.983398H34.082V22.9834H0.0820312V0.983398Z" fill="#003787"/>
<path d="M0.0820312 0.983398H34.082L18.9709 15.6501V22.9834H15.1931V15.6501L0.0820312 0.983398Z" fill="white"/>
<path d="M17.082 12.5945C18.4729 12.5945 19.6005 11.5 19.6005 10.15C19.6005 8.79998 18.4729 7.70557 17.082 7.70557C15.6911 7.70557 14.5635 8.79998 14.5635 10.15C14.5635 11.5 15.6911 12.5945 17.082 12.5945Z" fill="#F9D90F"/>
<path d="M13.9341 10.1499H20.2304L17.0822 15.6499L13.9341 10.1499Z" fill="white"/>
<path d="M17.082 15.6502L12.0449 11.0669H22.119L17.082 15.6502Z" fill="#CF142B"/>
</g>
<defs>
<clipPath id="clip0_1_6151">
<rect width="34" height="22" fill="white" transform="translate(0.0820312 0.983398)"/>
</clipPath>
</defs>
</svg>
