<svg width="35" height="23" viewBox="0 0 35 23" fill="none" xmlns="http://www.w3.org/2000/svg">
<g clip-path="url(#clip0_1_6149)">
<path d="M0.344238 0.114746H34.3442V22.1147H0.344238V0.114746Z" fill="#1E509C"/>
<path d="M34.3442 11.443V5.34473L0.344238 22.1149L34.3442 11.443Z" fill="white"/>
<path d="M34.3442 0.114746V5.34457L0.344238 22.1147L34.3442 0.114746Z" fill="#F18D36"/>
<path d="M8.74139 6.50258L8.22444 3.02246L7.7141 6.50258L6.33555 4.97802L7.04471 7.01076L4.95699 6.32246L6.52112 7.66047L2.93555 8.15579L6.52112 8.65112L4.95699 9.98913L7.04471 9.30082L6.33555 11.3336L7.7141 9.80901L8.22444 13.2891L8.74139 9.80901L10.1133 11.3336L9.41079 9.30082L11.4985 9.98913L9.93438 8.65112L13.5133 8.15579L9.93438 7.66047L11.4985 6.32246L9.41079 7.01076L10.1133 4.97802L8.74139 6.50258Z" fill="white"/>
</g>
<defs>
<clipPath id="clip0_1_6149">
<rect width="34" height="22" fill="white" transform="translate(0.344238 0.114746)"/>
</clipPath>
</defs>
</svg>
