<svg width="35" height="23" viewBox="0 0 35 23" fill="none" xmlns="http://www.w3.org/2000/svg">
<g clip-path="url(#clip0_1_6104)">
<path d="M0.376953 0.983398H34.377V22.9837H0.376953V0.983398Z" fill="#FFDA44"/>
<path d="M25.8687 22.9828L17.377 11.7438L19.1584 22.9828H25.8687ZM9.2465 0.98291L17.377 11.7438L15.6712 0.98291H9.2465ZM15.5953 22.9828L17.377 11.7438L8.88519 22.9828H15.5953ZM0.376953 0.98291V9.2052L17.377 11.7438L2.25844 0.98291H0.376953ZM0.376953 22.9828H1.58634L17.377 11.7438L0.376953 14.2822V22.9828ZM17.377 11.7438L34.377 9.2052V0.98291H32.4956L17.377 11.7438ZM19.0827 0.98291L17.377 11.7438L25.5073 0.98291H19.0827ZM34.377 22.9828V14.2822L17.377 11.7438L33.1675 22.9828H34.377Z" fill="#D80027"/>
<path d="M17.3769 15.5697C19.5539 15.5697 21.3187 13.8568 21.3187 11.7438C21.3187 9.63087 19.5539 7.91797 17.3769 7.91797C15.1999 7.91797 13.4351 9.63087 13.4351 11.7438C13.4351 13.8568 15.1999 15.5697 17.3769 15.5697Z" fill="#D80027"/>
<path d="M17.3769 14.6137C19.0098 14.6137 20.3335 13.3289 20.3335 11.7441C20.3335 10.1593 19.0098 8.87451 17.3769 8.87451C15.7441 8.87451 14.4204 10.1593 14.4204 11.7441C14.4204 13.3289 15.7441 14.6137 17.3769 14.6137Z" fill="#FFDA44"/>
</g>
<defs>
<clipPath id="clip0_1_6104">
<rect width="34" height="22" fill="white" transform="translate(0.376953 0.983398)"/>
</clipPath>
</defs>
</svg>
