<svg width="35" height="23" viewBox="0 0 35 23" fill="none" xmlns="http://www.w3.org/2000/svg">
<g clip-path="url(#clip0_1_6146)">
<path d="M0.212891 0.114746H34.2129V22.1147H0.212891V0.114746Z" fill="#095FAD"/>
<path d="M22.8796 0.114746H34.2129V22.1147H22.8796V0.114746ZM0.212891 0.114746H11.5462V22.1147H0.212891V0.114746Z" fill="#BE1229"/>
<path d="M7.39046 10.8125H8.37135V15.5856H7.39046V10.8125ZM3.45361 10.8125H4.43451V15.5856H3.45361V10.8125Z" fill="#FFDA44"/>
<path d="M5.91254 14.1512C6.45427 14.1512 6.89343 13.7249 6.89343 13.1991C6.89343 12.6733 6.45427 12.2471 5.91254 12.2471C5.3708 12.2471 4.93164 12.6733 4.93164 13.1991C4.93164 13.7249 5.3708 14.1512 5.91254 14.1512Z" fill="#FFDA44"/>
<path d="M4.93164 14.6336H6.90006V15.5856H4.93164V14.6336ZM4.93164 10.8125H6.90006V11.7645H4.93164V10.8125Z" fill="#FFDA44"/>
<path d="M5.91254 10.3299C6.45427 10.3299 6.89343 9.90363 6.89343 9.37783C6.89343 8.85203 6.45427 8.42578 5.91254 8.42578C5.3708 8.42578 4.93164 8.85203 4.93164 9.37783C4.93164 9.90363 5.3708 10.3299 5.91254 10.3299Z" fill="#FFDA44"/>
<path d="M5.26953 8.08505H6.56193L5.91242 7.08154L5.26953 8.08505Z" fill="#FFDA44"/>
</g>
<defs>
<clipPath id="clip0_1_6146">
<rect width="34" height="22" fill="white" transform="translate(0.212891 0.114746)"/>
</clipPath>
</defs>
</svg>
