<svg width="35" height="23" viewBox="0 0 35 23" fill="none" xmlns="http://www.w3.org/2000/svg">
<g clip-path="url(#clip0_1_6141)">
<path d="M0.246094 0.983398H34.2461V22.9837H0.246094V0.983398Z" fill="#00745A"/>
<path d="M19.217 11.5242C18.9388 11.5242 18.6748 11.5781 18.4294 11.6637C18.5637 11.373 18.6538 11.0496 18.6538 10.7043C18.6538 9.33779 17.2459 8.31299 17.2459 8.31299C17.2459 8.31299 15.838 9.33786 15.838 10.7043C15.838 11.0495 15.9281 11.373 16.0624 11.6637C15.8172 11.5781 15.553 11.5242 15.2748 11.5242C13.8669 11.5242 12.811 12.8906 12.811 12.8906C12.811 12.8906 13.867 14.2571 15.2748 14.2571C16.1001 14.2571 16.8042 13.7875 17.2458 13.3989C17.6874 13.7876 18.3914 14.2571 19.2169 14.2571C20.6248 14.2571 21.6807 12.8906 21.6807 12.8906C21.6807 12.8906 20.6249 11.5242 19.217 11.5242Z" fill="white"/>
<path d="M17.2461 5.2876L17.5369 6.15617H18.478L17.7167 6.69319L18.0073 7.56176L17.2461 7.02487L16.4849 7.56176L16.7755 6.69319L16.0142 6.15617H16.9552L17.2461 5.2876ZM13.6676 6.80689L14.2271 7.29577L14.879 6.93051L14.5729 7.59792L15.1322 8.08699L14.3836 8.01062L14.0774 8.67803L13.9208 7.96337L13.1721 7.88699L13.824 7.52161L13.6676 6.80689ZM11.0479 9.3495L11.7843 9.50148L12.1607 8.86868L12.2394 9.59533L12.9758 9.74731L12.2881 10.0444L12.3668 10.7711L11.863 10.2282L11.1752 10.5253L11.5517 9.89252L11.0479 9.3495ZM20.8246 6.80689L20.2652 7.29577L19.6132 6.93051L19.9194 7.59792L19.3599 8.08699L20.1087 8.01062L20.4148 8.67803L20.5714 7.96337L21.3202 7.88699L20.6682 7.52161L20.8246 6.80689ZM23.4443 9.3495L22.7079 9.50148L22.3315 8.86868L22.2527 9.59533L21.5164 9.74731L22.2042 10.0444L22.1255 10.7711L22.6292 10.2282L23.317 10.5253L22.9405 9.89252L23.4443 9.3495Z" fill="#FFDA44"/>
<path d="M17.2462 18.0835C18.3644 18.0835 19.3953 17.7213 20.2222 17.1119H14.2702C15.0971 17.7213 16.1279 18.0835 17.2462 18.0835ZM12.729 15.2139C12.8847 15.5591 13.082 15.8852 13.3167 16.1854H21.1755C21.4102 15.8852 21.6075 15.5591 21.7632 15.2139H12.729Z" fill="white"/>
</g>
<defs>
<clipPath id="clip0_1_6141">
<rect width="34" height="22" fill="white" transform="translate(0.246094 0.983398)"/>
</clipPath>
</defs>
</svg>
