<svg width="35" height="23" viewBox="0 0 35 23" fill="none" xmlns="http://www.w3.org/2000/svg">
<g clip-path="url(#clip0_1_6215)">
<path d="M0.114746 0.114746H34.1147V22.1147H0.114746V0.114746Z" fill="#0071BC"/>
<path d="M17.1146 20.7946C22.7479 20.7946 27.3146 16.3622 27.3146 10.8946C27.3146 5.42701 22.7479 0.994629 17.1146 0.994629C11.4812 0.994629 6.91455 5.42701 6.91455 10.8946C6.91455 16.3622 11.4812 20.7946 17.1146 20.7946Z" fill="white" stroke="black" stroke-width="0.155738"/>
<path d="M17.1148 18.1548C21.2459 18.1548 24.5948 14.9044 24.5948 10.8948C24.5948 6.88518 21.2459 3.63477 17.1148 3.63477C12.9837 3.63477 9.63477 6.88518 9.63477 10.8948C9.63477 14.9044 12.9837 18.1548 17.1148 18.1548Z" fill="#0071BC" stroke="black" stroke-width="0.155738"/>
<path d="M20.2745 19.9149C20.3062 20.3989 19.9209 20.7949 19.4222 20.7949H14.7846C14.286 20.7949 13.9006 20.3989 13.9233 19.9149L14.6804 5.61486C14.7076 5.13086 15.1337 4.73486 15.6324 4.73486H18.4158C18.9145 4.73486 19.3452 5.13086 19.3769 5.61486L20.2745 19.9149Z" fill="#8C8A8C" stroke="black" stroke-width="0.155738"/>
<path d="M17.0239 5.13086L18.3839 9.22286H22.7813L19.2453 11.6869L20.5599 15.7349L17.0239 13.2709L13.4879 15.7789L14.8479 11.6869L11.2666 9.17886H15.6639L17.0239 5.13086Z" fill="white" stroke="black" stroke-width="0.163934" stroke-linejoin="round"/>
</g>
<defs>
<clipPath id="clip0_1_6215">
<rect width="34" height="22" fill="white" transform="translate(0.114746 0.114746)"/>
</clipPath>
</defs>
</svg>
