<svg width="35" height="23" viewBox="0 0 35 23" fill="none" xmlns="http://www.w3.org/2000/svg">
<g clip-path="url(#clip0_1_6251)">
<path d="M0.147461 0.983398H34.1475V22.9834H0.147461V0.983398Z" fill="#0052B4"/>
<path d="M34.0812 10.5296V13.3922H18.5923V22.9384H15.6363V13.3922H0.147461V10.5296H15.6363V0.983398H18.5923V10.5296H34.0812Z" fill="white"/>
<path d="M6.84129 3.30572C7.11966 3.29286 7.39139 3.29929 7.66975 3.31859C8.03428 3.34432 8.29276 3.42151 8.27287 3.35075C8.23973 3.23496 8.26625 3.20923 8.21985 3.23496C8.13369 3.29929 8.26625 3.2221 7.7294 3.518C6.94734 3.949 6.60933 4.27707 6.78165 4.86888C6.93408 5.38993 7.32511 5.53145 8.25962 5.67297L8.38554 5.69227C8.75669 5.75017 8.92239 5.78233 9.03506 5.83379C9.06157 5.84666 9.01517 5.76946 9.02843 5.72444C9.01517 5.76303 8.76995 5.85952 8.14695 5.97531L7.83545 6.03321C6.63584 6.27122 6.03935 6.57999 5.94656 7.38408C5.84714 8.26537 6.78827 8.88292 7.97463 9.03087C9.18087 9.18525 10.2347 8.79929 10.3407 7.84724C10.407 7.24256 9.97619 6.88233 9.28691 6.74724C8.82297 6.65718 8.2066 6.65718 7.47092 6.72794C6.64909 6.81157 5.83389 6.94666 5.02531 7.13321C4.78671 7.17824 4.63428 7.40338 4.68067 7.63496C4.72706 7.86654 4.95903 8.01449 5.19763 7.96946C5.21088 7.96946 5.21751 7.96303 5.23077 7.96303C5.99958 7.78935 6.77502 7.66069 7.55708 7.5835C8.21322 7.51917 8.75007 7.51917 9.10796 7.58993C9.39958 7.64783 9.45923 7.69929 9.4526 7.75718C9.41946 8.08525 8.86274 8.28467 8.08067 8.18818C7.31186 8.09169 6.78827 7.75075 6.81478 7.48058C6.84792 7.20397 7.16605 7.04315 8.00114 6.8759L8.30601 6.818C9.3333 6.62502 9.70445 6.47707 9.86352 5.96888C9.98944 5.55075 9.77736 5.22268 9.38632 5.05543C9.17424 4.96537 8.96878 4.92034 8.51147 4.85601L8.39217 4.83672C7.86196 4.75309 7.63662 4.66946 7.62999 4.64373C7.62336 4.618 7.74929 4.49578 8.16683 4.2642L8.45845 4.10338C8.55786 4.05192 8.65065 3.98759 8.74344 3.9297C9.04831 3.71098 9.22063 3.47297 9.12784 3.13847C9.00192 2.66888 8.53135 2.52736 7.74266 2.46946C7.43116 2.45017 7.12628 2.44373 6.81478 2.45017L6.68223 2.4566C6.43701 2.46946 6.25143 2.67531 6.26469 2.90689C6.27794 3.1449 6.49003 3.32502 6.72862 3.31215L6.84129 3.30572ZM25.6639 3.30572C25.9423 3.29286 26.214 3.29929 26.4924 3.31859C26.8569 3.34432 27.1154 3.42151 27.0955 3.35075C27.0623 3.23496 27.0889 3.20923 27.0425 3.23496C26.9563 3.29929 27.0889 3.2221 26.552 3.518C25.7699 3.949 25.4319 4.27707 25.6043 4.86888C25.7567 5.38993 26.1477 5.53145 27.0822 5.67297L27.2082 5.69227C27.5793 5.75017 27.745 5.78233 27.8577 5.83379C27.8842 5.84666 27.8378 5.76946 27.851 5.72444C27.8378 5.76303 27.5926 5.85952 26.9696 5.97531L26.6581 6.03321C25.4584 6.27122 24.862 6.57999 24.7692 7.38408C24.6698 8.26537 25.6109 8.88292 26.7972 9.03087C28.0035 9.18525 29.0573 8.79929 29.1633 7.84724C29.2296 7.24256 28.7988 6.88233 28.1095 6.74724C27.6456 6.65718 27.0292 6.65718 26.2935 6.72794C25.4717 6.81157 24.6565 6.94666 23.8479 7.13321C23.6093 7.17824 23.4569 7.40338 23.5033 7.63496C23.5497 7.86654 23.7816 8.01449 24.0202 7.96946C24.0335 7.96946 24.0401 7.96303 24.0534 7.96303C24.8222 7.78935 25.5976 7.66069 26.3797 7.5835C27.0358 7.51917 27.5727 7.51917 27.9306 7.58993C28.2222 7.64783 28.2818 7.69929 28.2752 7.75718C28.2421 8.08525 27.6854 8.28467 26.9033 8.18818C26.1345 8.09169 25.6109 7.75075 25.6374 7.48058C25.6705 7.20397 25.9887 7.04315 26.8238 6.8759L27.1286 6.818C28.1559 6.62502 28.5271 6.47707 28.6861 5.96888C28.8121 5.55075 28.6 5.22268 28.2089 5.05543C27.9968 4.96537 27.7914 4.92034 27.3341 4.85601L27.2148 4.83672C26.6846 4.75309 26.4592 4.66946 26.4526 4.64373C26.446 4.618 26.5719 4.49578 26.9894 4.2642L27.2811 4.10338C27.3805 4.05192 27.4733 3.98759 27.5661 3.9297C27.8709 3.71098 28.0432 3.47297 27.9505 3.13847C27.8245 2.66888 27.354 2.52736 26.5653 2.46946C26.2538 2.45017 25.9489 2.44373 25.6374 2.45017L25.5048 2.4566C25.2596 2.46946 25.074 2.67531 25.0873 2.90689C25.1006 3.1449 25.3126 3.32502 25.5512 3.31215L25.6639 3.30572ZM25.306 16.1069C25.5844 16.094 25.8561 16.1005 26.1345 16.1198C26.499 16.1455 26.7575 16.2227 26.7376 16.1519C26.7045 16.0361 26.731 16.0104 26.6846 16.0361C26.5984 16.1005 26.731 16.0233 26.1941 16.3192C25.4121 16.7502 25.074 17.0782 25.2464 17.67C25.3988 18.1911 25.7898 18.3326 26.7243 18.4741L26.8503 18.4934C27.2214 18.5513 27.3871 18.5835 27.4998 18.635C27.5263 18.6478 27.4799 18.5706 27.4931 18.5256C27.4799 18.5642 27.2347 18.6607 26.6117 18.7765L26.3002 18.8344C25.1006 19.0724 24.5041 19.3812 24.4113 20.1853C24.3119 21.0665 25.253 21.6841 26.4393 21.832C27.6456 21.9864 28.6994 21.6005 28.8054 20.6484C28.8717 20.0437 28.4409 19.6835 27.7516 19.5484C27.2877 19.4584 26.6713 19.4584 25.9356 19.5291C25.1138 19.6127 24.2986 19.7478 23.49 19.9344C23.2514 19.9794 23.099 20.2046 23.1454 20.4361C23.1918 20.6677 23.4237 20.8157 23.6623 20.7706C23.6756 20.7706 23.6822 20.7642 23.6955 20.7642C24.4643 20.5905 25.2397 20.4619 26.0218 20.3847C26.6779 20.3203 27.2148 20.3203 27.5727 20.3911C27.8643 20.449 27.9239 20.5005 27.9173 20.5584C27.8842 20.8864 27.3275 21.0858 26.5454 20.9893C25.7766 20.8929 25.253 20.5519 25.2795 20.2817C25.3126 20.0051 25.6308 19.8443 26.4659 19.6771L26.7707 19.6192C27.798 19.4262 28.1692 19.2782 28.3282 18.7701C28.4542 18.3519 28.2421 18.0238 27.851 17.8566C27.639 17.7665 27.4335 17.7215 26.9762 17.6572L26.8569 17.6379C26.3267 17.5543 26.1013 17.4706 26.0947 17.4449C26.0881 17.4192 26.214 17.297 26.6315 17.0654L26.9232 16.9046C27.0226 16.8531 27.1154 16.7888 27.2082 16.7309C27.513 16.5122 27.6854 16.2741 27.5926 15.9396C27.4666 15.47 26.9961 15.3285 26.2074 15.2706C25.8959 15.2513 25.591 15.2449 25.2795 15.2513L25.1469 15.2578C24.9017 15.2706 24.7161 15.4765 24.7294 15.7081C24.7427 15.9396 24.9547 16.1262 25.1933 16.1133L25.306 16.1069ZM6.84129 16.1069C7.11966 16.094 7.39139 16.1005 7.66975 16.1198C8.03428 16.1455 8.29276 16.2227 8.27287 16.1519C8.23973 16.0361 8.26625 16.0104 8.21985 16.0361C8.13369 16.1005 8.26625 16.0233 7.7294 16.3192C6.94734 16.7502 6.60933 17.0782 6.78165 17.67C6.93408 18.1911 7.32511 18.3326 8.25962 18.4741L8.38554 18.4934C8.75669 18.5513 8.92239 18.5835 9.03506 18.635C9.06157 18.6478 9.01517 18.5706 9.02843 18.5256C9.01517 18.5642 8.76995 18.6607 8.14695 18.7765L7.83545 18.8344C6.63584 19.0724 6.03935 19.3812 5.94656 20.1853C5.84714 21.0665 6.78827 21.6841 7.97463 21.832C9.18087 21.9864 10.2347 21.6005 10.3407 20.6484C10.407 20.0437 9.97619 19.6835 9.28691 19.5484C8.82297 19.4584 8.2066 19.4584 7.47092 19.5291C6.64909 19.6127 5.83389 19.7478 5.02531 19.9344C4.78671 19.9794 4.63428 20.2046 4.68067 20.4361C4.72706 20.6677 4.95903 20.8157 5.19763 20.7706C5.21088 20.7706 5.21751 20.7642 5.23077 20.7642C5.99958 20.5905 6.77502 20.4619 7.55708 20.3847C8.21322 20.3203 8.75007 20.3203 9.10796 20.3911C9.39958 20.449 9.45923 20.5005 9.4526 20.5584C9.41946 20.8864 8.86274 21.0858 8.08067 20.9893C7.31186 20.8929 6.78827 20.5519 6.81478 20.2817C6.84792 20.0051 7.16605 19.8443 8.00114 19.6771L8.30601 19.6192C9.3333 19.4262 9.70445 19.2782 9.86352 18.7701C9.98944 18.3519 9.77736 18.0238 9.38632 17.8566C9.17424 17.7665 8.96878 17.7215 8.51147 17.6572L8.39217 17.6379C7.86196 17.5543 7.63662 17.4706 7.62999 17.4449C7.62336 17.4192 7.74929 17.297 8.16683 17.0654L8.45845 16.9046C8.55786 16.8531 8.65065 16.7888 8.74344 16.7309C9.04831 16.5122 9.22063 16.2741 9.12784 15.9396C9.00192 15.47 8.53135 15.3285 7.74266 15.2706C7.43116 15.2513 7.12628 15.2449 6.81478 15.2513L6.68223 15.2578C6.43701 15.2706 6.25143 15.4765 6.26469 15.7081C6.27794 15.9461 6.49003 16.1262 6.72862 16.1133L6.84129 16.1069Z" fill="white"/>
</g>
<defs>
<clipPath id="clip0_1_6251">
<rect width="34" height="22" fill="white" transform="translate(0.147461 0.983398)"/>
</clipPath>
</defs>
</svg>
