<svg width="35" height="23" viewBox="0 0 35 23" fill="none" xmlns="http://www.w3.org/2000/svg">
<g clip-path="url(#clip0_1_6139)">
<path d="M0.0493164 0.983398H34.0493V22.9834H0.0493164V0.983398Z" fill="#006233"/>
<path d="M0.0493164 0.983398H34.0493V3.94246H0.0493164V0.983398ZM0.0493164 20.0243H34.0493V22.9834H0.0493164V20.0243Z" fill="#CD2A3E"/>
<path d="M17.0164 13.775C13.9706 13.775 11.4261 11.6974 10.8018 8.92285C10.7036 9.35753 10.654 9.8012 10.6538 10.2462C10.6538 13.6568 13.5023 16.4216 17.0164 16.4216C20.5304 16.4216 23.379 13.6568 23.379 10.2462C23.379 9.79166 23.3269 9.34934 23.231 8.92285C22.6067 11.6974 20.0622 13.775 17.0164 13.775Z" fill="#FFC400"/>
<path d="M17.016 5.61475L17.6082 7.38388H19.5247L17.9743 8.47719L18.5665 10.2464L17.016 9.15295L15.4655 10.2464L16.0578 8.47719L14.5073 7.38388H16.4237L17.016 5.61475Z" fill="#FFC400"/>
</g>
<defs>
<clipPath id="clip0_1_6139">
<rect width="34" height="22" fill="white" transform="translate(0.0493164 0.983398)"/>
</clipPath>
</defs>
</svg>
