<svg width="35" height="23" viewBox="0 0 35 23" fill="none" xmlns="http://www.w3.org/2000/svg">
<g clip-path="url(#clip0_1_6154)">
<path d="M0.409668 0.983398H34.4097V22.9834H0.409668V0.983398Z" fill="#1B4991"/>
<path d="M21.499 7.84717V14.698C21.499 18.0366 25.9926 19.0594 25.9926 19.0594C25.9926 19.0594 30.4862 18.0366 30.4862 14.698V7.84717H21.499Z" fill="#00A2B8" stroke="white" stroke-width="0.245902"/>
<path d="M21.5981 14.666C21.5981 17.9339 25.9923 18.9309 25.9923 18.9309C25.9923 18.9309 30.3864 17.9274 30.3864 14.666H21.5981Z" fill="#A35023"/>
<path d="M27.921 10.9604H26.6352V9.7124H25.3495V10.9604H24.0703V12.2083H25.3495V15.9457H26.6352V12.2083H27.921V10.9604Z" fill="black"/>
<path d="M17.3765 0.983398V2.95182L14.3808 4.56644H17.3765V8.38106H13.4596L17.3765 10.491V11.9641H15.6069L10.7356 9.33311V11.9641H7.0506V8.83778L1.25138 11.9641H0.409668V9.99568L3.40538 8.38106H0.409668V4.56644H4.32663L0.409668 2.45007V0.983398H2.17926L7.0506 3.60796V0.983398H10.7356V4.10971L16.5348 0.983398H17.3765Z" fill="white"/>
<path d="M9.95353 0.983398H7.83267V5.44129H0.409668V7.49977H7.83267V11.9641H9.95353V7.49977H17.3765V5.44129H9.95353V0.983398Z" fill="#D80027"/>
<path d="M10.7354 8.38086L17.3763 11.9639V10.9475L12.6176 8.38086H10.7354Z" fill="#0052B4"/>
<path d="M10.7354 8.38086L17.3763 11.9639V10.9475L12.6176 8.38086H10.7354Z" fill="white"/>
<path d="M10.7356 8.38086L17.3765 11.9639V10.9475L12.6179 8.38086H10.7356ZM5.16834 8.38086L0.409668 10.9475V11.9639L7.0506 8.38086H5.16834Z" fill="#D80027"/>
<path d="M7.0506 4.56001L0.409668 0.983398V1.99334L5.16834 4.56001H7.0506Z" fill="#0052B4"/>
<path d="M7.0506 4.56001L0.409668 0.983398V1.99334L5.16834 4.56001H7.0506Z" fill="white"/>
<path d="M7.0506 4.56001L0.409668 0.983398V1.99334L5.16834 4.56001H7.0506ZM12.6179 4.56001L17.3765 1.99334V0.983398L10.7356 4.56001H12.6179Z" fill="#D80027"/>
</g>
<defs>
<clipPath id="clip0_1_6154">
<rect width="34" height="22" fill="white" transform="translate(0.409668 0.983398)"/>
</clipPath>
</defs>
</svg>
