<svg width="35" height="23" viewBox="0 0 35 23" fill="none" xmlns="http://www.w3.org/2000/svg">
<g clip-path="url(#clip0_1_6239)">
<path d="M0.344238 0.983398H34.3442V22.9834H0.344238V0.983398Z" fill="#D01920"/>
<path d="M9.95312 6.72266H24.7358V17.2446H9.95312V6.72266Z" fill="#017C3B"/>
<path d="M19.1695 15.0915C17.4007 15.0915 15.9666 13.6997 15.9666 11.9828C15.9666 10.2659 17.4006 8.8741 19.1695 8.8741C19.7211 8.8741 20.24 9.00945 20.6931 9.24774C19.9823 8.57311 19.0103 8.15674 17.9376 8.15674C15.7606 8.15674 13.9956 9.86971 13.9956 11.9828C13.9956 14.0959 15.7606 15.8089 17.9376 15.8089C19.0103 15.8089 19.9823 15.3924 20.6931 14.7179C20.2401 14.9562 19.7212 15.0915 19.1695 15.0915Z" fill="white"/>
</g>
<defs>
<clipPath id="clip0_1_6239">
<rect width="34" height="22" fill="white" transform="translate(0.344238 0.983398)"/>
</clipPath>
</defs>
</svg>
