<svg width="34" height="23" viewBox="0 0 34 23" fill="none" xmlns="http://www.w3.org/2000/svg">
<g clip-path="url(#clip0_1_6169)">
<path d="M22.6667 0.770508H0V22.7255H34V0.770508H22.6667Z" fill="#DC2339"/>
<path d="M0 0.770508H11.3333V22.7705H0V0.770508Z" fill="#11865D"/>
<path d="M11.3335 0.770508H22.6668V22.7705H11.3335V0.770508Z" fill="white"/>
<path d="M12.9771 11.7832C12.9771 13.1727 13.7392 14.4657 14.9852 15.1604C15.3696 15.3792 15.8601 15.2505 16.0854 14.8774C16.3108 14.5043 16.1782 14.0283 15.7938 13.8096C15.0449 13.3914 14.5876 12.6195 14.5876 11.7832C14.5876 11.3523 14.2297 11.0049 13.7856 11.0049C13.3416 11.0049 12.9771 11.3523 12.9771 11.7832ZM19.1673 15.0704C20.3271 14.3563 21.0231 13.1148 21.0231 11.7832C21.0231 11.3523 20.6652 11.0049 20.2211 11.0049C19.7771 11.0049 19.4192 11.3523 19.4192 11.7832C19.4192 12.5809 19.0016 13.3271 18.3057 13.7581C17.9279 13.9832 17.8086 14.4593 18.034 14.8324C18.2593 15.2055 18.7564 15.3148 19.1408 15.0961C19.1408 15.0832 19.1541 15.0768 19.1673 15.0704Z" fill="#8C9157"/>
<path d="M17.0002 13.3466C17.8896 13.3466 18.6107 12.2983 18.6107 11.0051C18.6107 9.71191 17.8896 8.66357 17.0002 8.66357C16.1107 8.66357 15.3896 9.71191 15.3896 11.0051C15.3896 12.2983 16.1107 13.3466 17.0002 13.3466Z" fill="#C59262"/>
</g>
<defs>
<clipPath id="clip0_1_6169">
<rect width="34" height="22" fill="white" transform="translate(0 0.770508)"/>
</clipPath>
</defs>
</svg>
