<svg width="35" height="23" viewBox="0 0 35 23" fill="none" xmlns="http://www.w3.org/2000/svg">
<g clip-path="url(#clip0_1_6258)">
<path d="M0.212891 0.983398H34.2129V22.9834H0.212891V0.983398Z" fill="white"/>
<path d="M0.212891 0.983398H34.2129V2.55299H0.212891V0.983398ZM0.212891 4.12901H34.2129V5.6986H0.212891V4.12901ZM0.212891 7.26819H34.2129V8.83778H0.212891V7.26819ZM0.212891 10.4138H34.2129V11.9834H0.212891V10.4138ZM0.212891 13.553H34.2129V15.1226H0.212891V13.553ZM0.212891 16.6986H34.2129V18.2682H0.212891V16.6986ZM0.212891 19.8378H34.2129V21.4074H0.212891V19.8378Z" fill="#CC0000"/>
<path d="M0.212891 0.983398H17.2129V13.553H0.212891V0.983398Z" fill="#000066"/>
<path d="M10.373 3.69156C8.33827 2.95822 6.07823 3.96173 5.32267 5.93658C4.56712 7.91144 5.60104 10.105 7.63573 10.8383C8.51722 11.16 9.49148 11.16 10.3796 10.8383C8.3449 12.4144 5.38232 12.0992 3.75191 10.1243C2.1215 8.14945 2.45289 5.27401 4.48759 3.69156C6.21078 2.35998 8.6564 2.35998 10.373 3.69156ZM12.1426 8.51612L10.7773 10.0149L11.1351 8.04653L9.08057 7.9436L10.8899 6.98512L9.69031 5.35764L11.5858 6.12957L12.1426 4.20618L12.6993 6.12957L14.5948 5.35764L13.4018 6.99156L15.2112 7.95004L13.1566 8.05296L13.5145 10.0214L12.1426 8.51612Z" fill="#FFCC00"/>
</g>
<defs>
<clipPath id="clip0_1_6258">
<rect width="34" height="22" fill="white" transform="translate(0.212891 0.983398)"/>
</clipPath>
</defs>
</svg>
