<svg width="35" height="23" viewBox="0 0 35 23" fill="none" xmlns="http://www.w3.org/2000/svg">
<g clip-path="url(#clip0_1_6132)">
<path d="M0.114746 0.983887H34.1147V22.9834H0.114746V0.983887Z" fill="#496E2D"/>
<path d="M0.114746 22.9834V0.983887H34.1147" fill="#0052B4"/>
<path d="M34.1147 5.29484V0.983887H27.4522L0.114746 18.6725V22.9834H6.77729L34.1147 5.29484Z" fill="white"/>
<path d="M34.1147 0.983887V3.57007L4.11194 22.9834H0.114746V20.3972L30.1176 0.983887H34.1147Z" fill="#A2001D"/>
<path d="M12.5817 7.67882L11.0716 8.36821L11.8757 9.78773L10.236 9.48325L10.0282 11.091L8.88607 9.90851L7.74388 11.091L7.5361 9.48325L5.89633 9.78766L6.70044 8.36821L5.19043 7.67882L6.70051 6.98936L5.89633 5.56997L7.5361 5.87432L7.74395 4.2666L8.88607 5.44912L10.0283 4.2666L10.236 5.87432L11.8757 5.56997L11.0717 6.98949L12.5817 7.67882Z" fill="#FFDA44"/>
</g>
<defs>
<clipPath id="clip0_1_6132">
<rect width="34" height="22" fill="white" transform="translate(0.114746 0.983398)"/>
</clipPath>
</defs>
</svg>
