<svg width="35" height="23" viewBox="0 0 35 23" fill="none" xmlns="http://www.w3.org/2000/svg">
<g clip-path="url(#clip0_1_6130)">
<path d="M0.967285 15.877H34.9673V22.7703H0.967285V15.877Z" fill="#009543"/>
<path d="M0.967285 7.57617H34.9673V15.8926H0.967285V7.57617Z" fill="#ED4135"/>
<path d="M0.967285 0.770508H34.9673V7.64325H0.967285V0.770508Z" fill="#0035AD"/>
<path d="M13.7174 19.878C18.3326 19.878 22.074 16.247 22.074 11.7679C22.074 7.28875 18.3326 3.65771 13.7174 3.65771C9.1022 3.65771 5.36084 7.28875 5.36084 11.7679C5.36084 16.247 9.1022 19.878 13.7174 19.878Z" fill="#FAE600" stroke="black" stroke-width="0.434426"/>
<path d="M17.3243 19.0479L15.6349 19.6666L13.7171 19.8832L11.7089 19.7594L9.80176 18.9603C9.80176 18.9603 11.3211 17.4496 11.9639 17.2331C12.4208 17.0784 13.1539 17.0423 13.1539 17.0423V7.06057L13.138 3.65771H14.0358L14.0093 7.13791V17.0217C14.0093 17.0217 14.8221 17.0835 15.1833 17.2331C15.7836 17.4857 17.3243 19.0479 17.3243 19.0479Z" fill="black"/>
<path d="M12.2686 6.04862L14.5505 4.94434L14.8468 5.52112L12.5648 6.62535L12.2686 6.04862Z" fill="black"/>
<path d="M13.6005 16.5988C14.0934 16.5988 14.493 15.9871 14.493 15.2325C14.493 14.4779 14.0934 13.8662 13.6005 13.8662C13.1076 13.8662 12.708 14.4779 12.708 15.2325C12.708 15.9871 13.1076 16.5988 13.6005 16.5988Z" fill="black"/>
<path d="M13.5791 9.24157C14.1923 9.24157 14.6894 8.75912 14.6894 8.164C14.6894 7.56887 14.1923 7.08643 13.5791 7.08643C12.9659 7.08643 12.4688 7.56887 12.4688 8.164C12.4688 8.75912 12.9659 9.24157 13.5791 9.24157Z" fill="black"/>
<path d="M13.6324 12.2785C14.2163 12.2785 14.6896 11.9992 14.6896 11.6546C14.6896 11.3101 14.2163 11.0308 13.6324 11.0308C13.0485 11.0308 12.5752 11.3101 12.5752 11.6546C12.5752 11.9992 13.0485 12.2785 13.6324 12.2785Z" fill="black"/>
<path d="M12.3252 9.89648H14.8221V10.4121H12.3252V9.89648ZM12.3252 12.8353H14.8221V13.3509H12.3252V12.8353Z" fill="black"/>
</g>
<defs>
<clipPath id="clip0_1_6130">
<rect width="34" height="22" fill="white" transform="translate(0.967285 0.770508)"/>
</clipPath>
</defs>
</svg>
