<svg width="35" height="23" viewBox="0 0 35 23" fill="none" xmlns="http://www.w3.org/2000/svg">
<g clip-path="url(#clip0_1_6128)">
<path d="M0.147461 0.770996H34.1475V22.7705H0.147461V0.770996Z" fill="white"/>
<path d="M0.147461 0.770996H34.1475V8.10416H0.147461V0.770996ZM0.147461 15.4374H34.1475V22.7705H0.147461V15.4374Z" fill="#338AF3"/>
<path d="M17.1476 9.09229C15.6236 9.09229 14.3882 10.2913 14.3882 11.7705C14.3882 13.2497 15.6235 14.4487 17.1476 14.4487C18.6715 14.4487 19.9069 13.2497 19.9069 11.7705C19.9069 10.2913 18.6715 9.09229 17.1476 9.09229ZM17.1476 13.3009C16.2767 13.3009 15.5707 12.6157 15.5707 11.7705C15.5707 10.9253 16.2767 10.2401 17.1476 10.2401C18.0184 10.2401 18.7244 10.9253 18.7244 11.7705C18.7244 12.6157 18.0184 13.3009 17.1476 13.3009Z" fill="#FFDA44"/>
<path d="M18.5129 12.1531L17.1474 11.7705L15.7819 12.1531L15.3267 12.9184H18.9681L18.5129 12.1531Z" fill="#0052B4"/>
<path d="M17.1477 9.85742L16.2373 11.3878L17.1477 11.7704L18.058 11.3878L17.1477 9.85742Z" fill="#338AF3"/>
<path d="M15.7817 12.1534H18.5128L18.0576 11.3882H16.2369L15.7817 12.1534Z" fill="#6DA544"/>
</g>
<defs>
<clipPath id="clip0_1_6128">
<rect width="34" height="22" fill="white" transform="translate(0.147461 0.770508)"/>
</clipPath>
</defs>
</svg>
