<svg width="35" height="23" viewBox="0 0 35 23" fill="none" xmlns="http://www.w3.org/2000/svg">
<g clip-path="url(#clip0_1_6120)">
<path d="M0.147461 0.639648H34.1475V22.6392H0.147461V0.639648Z" fill="white"/>
<path d="M0.147461 22.6392V0.639648L18.769 11.9028H5.96531L18.1559 22.6392H0.147461Z" fill="#0052B4"/>
<path d="M16.4016 11.2454L0.824707 1.82373V21.9817H16.4016L4.21103 11.2454H16.4016Z" fill="#D80027"/>
<path d="M6.65542 16.0497L5.68662 15.6074L6.2026 14.6967L5.15046 14.892L5.01711 13.8604L4.28432 14.6191L3.55146 13.8604L3.41812 14.892L2.36604 14.6966L2.88202 15.6074L1.91309 16.0497L2.88202 16.492L2.36604 17.4027L3.41818 17.2075L3.55146 18.239L4.28432 17.4803L5.01711 18.239L5.15046 17.2075L6.20253 17.4028L5.68662 16.4921L6.65542 16.0497ZM6.00896 7.49222L5.30425 7.17053L5.67952 6.50808L4.91432 6.6502L4.8173 5.8999L4.28432 6.45169L3.75134 5.8999L3.65439 6.6502L2.88906 6.50808L3.26439 7.17053L2.55962 7.49222L4.28432 7.82699L6.00896 7.49222Z" fill="white"/>
<path d="M6.35395 7.49219C6.35395 8.60156 5.42738 9.50087 4.28439 9.50087C3.14141 9.50087 2.21484 8.60156 2.21484 7.49219" fill="white"/>
</g>
<defs>
<clipPath id="clip0_1_6120">
<rect width="34" height="22" fill="white" transform="translate(0.147461 0.63916)"/>
</clipPath>
</defs>
</svg>
