<svg width="35" height="23" viewBox="0 0 35 23" fill="none" xmlns="http://www.w3.org/2000/svg">
<g clip-path="url(#clip0_1_6118)">
<path d="M0.114746 0.639648H34.1147V22.6392H0.114746V0.639648Z" fill="#0052B4"/>
<path d="M0.114746 10.6074H34.1147V12.6699H0.114746V10.6074Z" fill="#FFDA44"/>
<path d="M11.7227 17.1391L10.4528 17.7189L11.1291 18.9127L9.75 18.6566L9.57528 20.0087L8.61478 19.0143L7.65422 20.0087L7.47957 18.6566L6.10051 18.9127L6.77672 17.7189L5.50684 17.1391L6.77679 16.5594L6.10051 15.3657L7.4795 15.6216L7.65428 14.2695L8.61478 15.264L9.57535 14.2695L9.75 15.6216L11.1291 15.3657L10.4528 16.5594L11.7227 17.1391Z" fill="white"/>
</g>
<defs>
<clipPath id="clip0_1_6118">
<rect width="34" height="22" fill="white" transform="translate(0.114746 0.63916)"/>
</clipPath>
</defs>
</svg>
