<svg width="35" height="23" viewBox="0 0 35 23" fill="none" xmlns="http://www.w3.org/2000/svg">
<g clip-path="url(#clip0_1_6117)">
<path d="M0.0820312 0.63916H34.082V22.6394H0.0820312V0.63916Z" fill="#FFDA44"/>
<path d="M0.0820312 0.63916H17.082V11.6389H0.0820312V0.63916Z" fill="white"/>
<path d="M9.64453 0.638672H7.51953V5.1074H0.0820312V7.16991H7.51953V11.6387H9.64453V7.16991H17.082V5.1074H9.64453V0.638672Z" fill="#D80027"/>
<path d="M0.0820312 0.638672V1.61082L3.89222 4.07622H5.39453L0.0820312 0.638672Z" fill="#D80027"/>
<path d="M0.0820312 2.09709V4.07658H3.1413L0.0820312 2.09709ZM6.45703 0.63916V3.79176L1.58467 0.63916H6.45703Z" fill="#2E52B2"/>
<path d="M17.082 0.638672V1.61082L13.2718 4.07622H11.7695L17.082 0.638672Z" fill="#D80027"/>
<path d="M17.082 2.09709V4.07658H14.0228L17.082 2.09709ZM10.707 0.63916V3.79176L15.5794 0.63916H10.707Z" fill="#2E52B2"/>
<path d="M0.0820312 0.638672V1.61082L3.89222 4.07622H5.39453L0.0820312 0.638672Z" fill="#D80027"/>
<path d="M0.0820312 2.09709V4.07658H3.1413L0.0820312 2.09709ZM6.45703 0.63916V3.79176L1.58467 0.63916H6.45703Z" fill="#2E52B2"/>
<path d="M17.082 0.638672V1.61082L13.2718 4.07622H11.7695L17.082 0.638672Z" fill="#D80027"/>
<path d="M17.082 2.09709V4.07658H14.0228L17.082 2.09709ZM10.707 0.63916V3.79176L15.5794 0.63916H10.707Z" fill="#2E52B2"/>
<path d="M0.0820312 11.6392V10.6671L3.89222 8.20166H5.39453L0.0820312 11.6392Z" fill="#D80027"/>
<path d="M0.0820312 10.1812V8.20166H3.1413L0.0820312 10.1812ZM6.45703 11.639V8.48648L1.58467 11.639H6.45703Z" fill="#2E52B2"/>
<path d="M17.082 11.6392V10.6671L13.2718 8.20166H11.7695L17.082 11.6392Z" fill="#D80027"/>
<path d="M17.082 10.1807V8.20117H14.0228L17.082 10.1807ZM10.707 11.6385V8.48599L15.5794 11.6385H10.707Z" fill="#2E52B2"/>
<path d="M8.58216 7.59694C9.41201 7.59694 10.0847 6.944 10.0847 6.13856C10.0847 5.33312 9.41201 4.68018 8.58216 4.68018C7.75232 4.68018 7.07959 5.33312 7.07959 6.13856C7.07959 6.944 7.75232 7.59694 8.58216 7.59694Z" fill="#2E52B2"/>
<path d="M8.58206 5.10772L8.8457 5.89547H9.69928L9.00879 6.38248L9.27249 7.17022L8.58206 6.68334L7.89157 7.17022L8.15534 6.38248L7.46484 5.89547H8.31836L8.58206 5.10772ZM8.58206 9.3062L8.73905 9.77529H9.24725L8.8362 10.0652L8.99318 10.5343L8.58206 10.2444L8.17094 10.5343L8.32793 10.0652L7.91687 9.77529H8.42501L8.58206 9.3062ZM8.58206 1.74365L8.73905 2.21274H9.24725L8.8362 2.50265L8.99318 2.97174L8.58206 2.68183L8.17094 2.97174L8.32793 2.50265L7.91687 2.21274H8.42501L8.58206 1.74365ZM13.2259 5.52493L13.383 5.99395H13.8912L13.48 6.28393L13.637 6.75308L13.2259 6.46317L12.8148 6.75308L12.9718 6.28393L12.5607 5.99395H13.0689L13.2259 5.52493ZM3.93821 5.52493L4.09519 5.99395H4.6034L4.19228 6.28393L4.34926 6.75308L3.93821 6.46317L3.52709 6.75308L3.68414 6.28393L3.27295 5.99395H3.78116L3.93821 5.52493Z" fill="#FFDA44"/>
</g>
<defs>
<clipPath id="clip0_1_6117">
<rect width="34" height="22" fill="white" transform="translate(0.0820312 0.63916)"/>
</clipPath>
</defs>
</svg>
