<svg width="35" height="23" viewBox="0 0 35 23" fill="none" xmlns="http://www.w3.org/2000/svg">
<g clip-path="url(#clip0_1_6114)">
<path d="M0.0493164 0.63916H34.0493V22.6394H0.0493164V0.63916Z" fill="#0052B4"/>
<path d="M28.2918 10.2047L28.5168 10.8768H29.2448L28.6558 11.2921L28.8808 11.9642L28.2918 11.5488L27.7027 11.9642L27.9277 11.2921L27.3387 10.8768H28.0667L28.2918 10.2047ZM25.6891 15.0433L26.0266 16.0515H27.1187L26.2351 16.6746L26.5726 17.6826L25.6891 17.0595L24.8055 17.6826L25.1431 16.6746L24.2595 16.0515H25.3516L25.6891 15.0433ZM25.7874 7.12549L26.0687 7.9657H26.9788L26.2424 8.48481L26.5237 9.32489L25.7874 8.80565L25.0511 9.32489L25.3323 8.48481L24.5961 7.9657H25.5061L25.7874 7.12549ZM23.2831 10.1754L23.6206 11.1835H24.7127L23.8291 11.8065L24.1667 12.8146L23.2831 12.1916L22.3996 12.8146L22.7371 11.8065L21.8535 11.1835H22.9456L23.2831 10.1754Z" fill="#D80027"/>
<path d="M17.0493 0.638672V2.60862L14.0492 4.22562H17.0493V8.0515H13.1238L17.0493 10.1685V11.6384H15.2769L10.3971 9.00708V11.6384H6.7015V8.50776L0.895664 11.6384H0.0493164V9.66921L3.04875 8.0515H0.0493164V4.22562H3.97413L0.0493164 2.10936V0.638672H1.82104L6.7015 3.27081V0.638672H10.3971V3.76936L16.203 0.638672H17.0493Z" fill="white"/>
<path d="M9.61182 0.638672H7.48682V5.10747H0.0493164V7.16997H7.48682V11.6388H9.61182V7.16997H17.0493V5.10747H9.61182V0.638672Z" fill="#D80027"/>
<path d="M10.397 8.05176L17.0492 11.6388V10.6244L12.2781 8.05176H10.397Z" fill="#0052B4"/>
<path d="M10.397 8.05176L17.0492 11.6388V10.6244L12.2781 8.05176H10.397Z" fill="white"/>
<path d="M10.3971 8.05176L17.0493 11.6388V10.6244L12.2782 8.05176H10.3971ZM4.82034 8.05176L0.0493164 10.6244V11.6388L6.7015 8.05176H4.82034Z" fill="#D80027"/>
<path d="M6.7015 4.22568L0.0493164 0.638672V1.65304L4.82041 4.22568H6.7015Z" fill="#0052B4"/>
<path d="M6.7015 4.22568L0.0493164 0.638672V1.65304L4.82041 4.22568H6.7015Z" fill="white"/>
<path d="M6.7015 4.22568L0.0493164 0.638672V1.65304L4.82041 4.22568H6.7015ZM12.2783 4.22568L17.0493 1.65304V0.638672L10.3971 4.22568H12.2783Z" fill="#D80027"/>
</g>
<defs>
<clipPath id="clip0_1_6114">
<rect width="34" height="22" fill="white" transform="translate(0.0493164 0.63916)"/>
</clipPath>
</defs>
</svg>
