<svg width="35" height="23" viewBox="0 0 35 23" fill="none" xmlns="http://www.w3.org/2000/svg">
<g clip-path="url(#clip0_1_6109)">
<path d="M0.409668 0.639648H34.4097V22.6392H0.409668V0.639648Z" fill="white"/>
<path d="M17.4097 11.6392V22.6389H0.409668V11.6392H17.4097Z" fill="#0052B4"/>
<path d="M34.4097 0.639648V11.6394H17.4097V0.639648H34.4097Z" fill="#D80027"/>
<path d="M8.90959 3.06934L9.69477 5.41472H12.2357L10.1801 6.86434L10.9652 9.20973L8.90959 7.76017L6.85398 9.20973L7.6391 6.86434L5.5835 5.41472H8.1244L8.90959 3.06934Z" fill="#0052B4"/>
<path d="M25.9096 14.0688L26.6948 16.4142H29.2357L27.1801 17.8639L27.9652 20.2092L25.9096 18.7597L23.854 20.2092L24.6391 17.8639L22.5835 16.4142H25.1244L25.9096 14.0688Z" fill="#D80027"/>
</g>
<defs>
<clipPath id="clip0_1_6109">
<rect width="34" height="22" fill="white" transform="translate(0.409668 0.63916)"/>
</clipPath>
</defs>
</svg>
