<svg width="35" height="23" viewBox="0 0 35 23" fill="none" xmlns="http://www.w3.org/2000/svg">
<g clip-path="url(#clip0_1_6108)">
<path d="M0.311523 0.639648H34.3115V22.6392H0.311523V0.639648Z" fill="white"/>
<path d="M0.311523 0.639648H34.3115V7.97281H0.311523V0.639648ZM0.311523 15.306H34.3115V22.6392H0.311523V15.306Z" fill="#D80027"/>
<path d="M19.8343 11.6391C19.8343 12.9915 18.7047 13.7818 17.3114 13.7818C15.9181 13.7818 14.7886 12.9915 14.7886 11.6391C14.7886 10.2868 15.9181 9.19043 17.3115 9.19043C18.7048 9.19043 19.8343 10.2868 19.8343 11.6391Z" fill="#FFDA44"/>
<path d="M19.8344 11.6392C19.8344 12.9915 18.7048 14.0879 17.3115 14.0879C15.9181 14.0879 14.7886 12.9915 14.7886 11.6392" fill="#0052B4"/>
<path d="M15.7349 11.0272H16.3656V12.2518H15.7349V11.0272ZM18.2575 11.0272H18.8882V12.2518H18.2575V11.0272ZM16.9958 10.1089H17.6265V12.2515H16.9958V10.1089Z" fill="#D80027"/>
</g>
<defs>
<clipPath id="clip0_1_6108">
<rect width="34" height="22" fill="white" transform="translate(0.311523 0.63916)"/>
</clipPath>
</defs>
</svg>
