<svg width="35" height="23" viewBox="0 0 35 23" fill="none" xmlns="http://www.w3.org/2000/svg">
<g clip-path="url(#clip0_1_6105)">
<path d="M0.278809 0.63916H34.2788V22.6394H0.278809V0.63916Z" fill="black"/>
<path d="M0.278809 0.638672H34.2788V22.6386" fill="#A2001D"/>
<path d="M13.8678 16.1822L14.0512 16.7303H14.6449L14.1646 17.069L14.3481 17.617L13.8678 17.2783L13.3875 17.617L13.5709 17.069L13.0906 16.7303H13.6842L13.8678 16.1822ZM12.3515 10.9214L12.6573 11.8348H13.6468L12.8462 12.3992L13.152 13.3127L12.3515 12.7481L11.5509 13.3127L11.8568 12.3992L11.0562 11.8348H12.0457L12.3515 10.9214ZM12.3515 17.617L12.6572 18.5305H13.6468L12.8461 19.0949L13.152 20.0084L12.3515 19.4438L11.5509 20.0084L11.8567 19.0949L11.0562 18.5305H12.0456L12.3515 17.617ZM15.2445 13.3127L15.5504 14.2261H16.5399L15.7393 14.7906L16.0451 15.704L15.2445 15.1395L14.4441 15.704L14.7499 14.7906L13.9493 14.2261H14.9388L15.2445 13.3127ZM9.45834 13.3127L9.76421 14.2261H10.7536L9.95313 14.7906L10.2588 15.704L9.45834 15.1395L8.65781 15.704L8.96361 14.7906L8.16309 14.2261H9.15254L9.45834 13.3127Z" fill="white"/>
<path d="M25.2824 8.29836C24.7759 7.80671 24.1178 7.51635 23.4105 7.46639L25.5275 5.86828C24.6843 5.04985 23.5543 4.68034 22.4516 4.75852C22.3156 4.28291 22.0549 3.84964 21.6949 3.50098L20.8586 5.12429C20.8026 5.02493 20.7322 4.93384 20.6496 4.85378C20.1685 4.38682 19.3885 4.38689 18.9075 4.85378C18.4265 5.32068 18.4264 6.07775 18.9075 6.54465C18.99 6.62476 19.0838 6.69308 19.1862 6.74755L17.5137 7.55921C17.873 7.90877 18.3196 8.16191 18.8099 8.29391C18.729 9.36422 19.1094 10.4608 19.9526 11.2792L21.8023 8.97105C21.9402 8.83842 22.1266 8.76422 22.3208 8.76467C22.5182 8.76467 22.7038 8.83931 22.8434 8.97479C22.9122 9.04124 22.9668 9.12029 23.004 9.20736C23.0411 9.29443 23.0601 9.38779 23.0599 9.48204C23.0599 9.67372 22.983 9.8538 22.8434 9.98928L23.5402 10.6657C23.866 10.3495 24.0454 9.92909 24.0454 9.48204C24.0454 9.11627 23.9252 8.76848 23.7032 8.48082C24.0371 8.56702 24.3415 8.73739 24.5856 8.97466C25.3541 9.72052 25.3541 10.9342 24.5856 11.6801L25.2825 12.3565C25.8409 11.8145 26.1483 11.0938 26.1483 10.3274C26.1483 9.56093 25.8408 8.84034 25.2824 8.29836Z" fill="#FFDA44"/>
</g>
<defs>
<clipPath id="clip0_1_6105">
<rect width="34" height="22" fill="white" transform="translate(0.278809 0.63916)"/>
</clipPath>
</defs>
</svg>
