<svg width="35" height="23" viewBox="0 0 35 23" fill="none" xmlns="http://www.w3.org/2000/svg">
<g clip-path="url(#clip0_1_6137)">
<path d="M0.212891 0.639648H34.2129V22.6392H0.212891V0.639648Z" fill="white"/>
<path d="M34.2129 0.639648V11.6394H17.2129L0.212891 0.639648H34.2129Z" fill="#0052B4"/>
<path d="M34.2129 11.6392V22.6389H0.212891L17.2129 11.6392H34.2129Z" fill="#D80027"/>
<path d="M10.9647 11.6391L9.15257 10.8119L10.1176 9.10848L8.14984 9.4738L7.90049 7.54453L6.52986 8.96346L5.1593 7.54453L4.90995 9.4738L2.94226 9.10842L3.90721 10.8118L2.09512 11.6391L3.90721 12.4664L2.94226 14.1697L4.91008 13.8044L5.1593 15.7337L6.52986 14.3148L7.90049 15.7337L8.14984 13.8044L10.1175 14.1698L9.15251 12.4665L10.9647 11.6391ZM1.65989 2.71924L2.26293 3.53754L3.25098 3.2337L2.63553 4.04324L3.23857 4.8614L2.25516 4.54352L1.6397 5.35299L1.64747 4.347L0.664062 4.02899L1.65219 3.72529L1.65989 2.71924ZM1.65989 17.9252L2.26293 18.7435L3.25098 18.4397L2.63553 19.2492L3.23857 20.0675L2.25516 19.7495L1.6397 20.5589L1.64747 19.553L0.664062 19.235L1.65219 18.9313L1.65989 17.9252ZM14.1845 10.3223L13.5815 11.1405L12.5934 10.8367L13.2089 11.6462L12.6058 12.4645L13.5892 12.1465L14.2047 12.956L14.1969 11.95L15.1803 11.632L14.1922 11.3283L14.1845 10.3223Z" fill="#FFDA44"/>
</g>
<defs>
<clipPath id="clip0_1_6137">
<rect width="34" height="22" fill="white" transform="translate(0.212891 0.63916)"/>
</clipPath>
</defs>
</svg>
