<svg width="35" height="23" viewBox="0 0 35 23" fill="none" xmlns="http://www.w3.org/2000/svg">
<g clip-path="url(#clip0_1_6101)">
<path d="M26.3113 6.12939L27.4742 7.34595L29.0257 6.6485L28.1929 8.09786L29.3558 9.31448L27.6782 8.99363L26.8456 10.4431L26.6415 8.79537L24.9639 8.47452L26.5153 7.77714L26.3113 6.12939Z" fill="white"/>
<path d="M0.180176 0.640137H34.1802V22.6397H0.180176V0.640137Z" fill="white"/>
<path d="M8.68018 0.63916H34.1802V22.6394H8.68018V0.63916Z" fill="#01411C"/>
<path d="M24.2134 14.3972C22.1523 15.8426 19.2742 15.3927 17.785 13.3922C16.2957 11.3917 16.7593 8.59828 18.8205 7.15292C19.4631 6.70226 20.1851 6.43588 20.9198 6.34319C19.5065 6.13804 18.0127 6.44716 16.7629 7.32359C14.2262 9.10263 13.6556 12.5407 15.4885 15.0029C17.3214 17.4649 20.8637 18.0188 23.4004 16.2397C24.6502 15.3632 25.4216 14.0838 25.6646 12.717C25.3433 13.3647 24.8561 13.9465 24.2134 14.3972ZM24.1251 6.28228L25.2862 7.49671L26.8349 6.80049L26.0036 8.24727L27.1646 9.46182L25.4899 9.14162L24.6585 10.5886L24.4548 8.94369L22.7801 8.62342L24.3289 7.92719L24.1251 6.28228Z" fill="white"/>
</g>
<defs>
<clipPath id="clip0_1_6101">
<rect width="34" height="22" fill="white" transform="translate(0.180176 0.63916)"/>
</clipPath>
</defs>
</svg>
