<svg width="35" height="23" viewBox="0 0 35 23" fill="none" xmlns="http://www.w3.org/2000/svg">
<g clip-path="url(#clip0_1_6097)">
<path d="M0.0820312 0.508301H34.082V22.5086H0.0820312V0.508301Z" fill="#0052B4"/>
<path d="M26.6905 9.17678L25.5818 9.53546L24.4731 9.17678L24.1035 8.28004L24.4731 7.3833H26.6905L26.3209 8.28004L26.6905 9.17678Z" fill="#ACABB1"/>
<path d="M22.9951 9.17676V13.1224C22.9951 15.0444 25.5821 15.6333 25.5821 15.6333C25.5821 15.6333 28.1691 15.0444 28.1691 13.1224V9.17676H22.9951Z" fill="#338AF3"/>
<path d="M23.228 14.0567C23.8639 15.2417 25.5818 15.6329 25.5818 15.6329C25.5818 15.6329 27.2997 15.2417 27.9356 14.0567L25.5818 10.2524L23.228 14.0567Z" fill="#6DA544"/>
<path d="M28.1691 13.0826L25.5821 9.17676L22.9951 13.0826V13.1224C22.9951 13.478 23.0839 13.7881 23.2283 14.0572L25.5821 10.5034L27.9359 14.0572C28.0803 13.7881 28.1691 13.4782 28.1691 13.1224V13.0826Z" fill="#FFDA44"/>
<path d="M17.082 0.508301V2.47754L14.0827 4.09525H17.082V7.92113H13.1572L17.082 10.0374V11.5081H15.3103L10.4299 8.87671V11.5081H6.73421V8.37739L0.928313 11.5081H0.0820312V9.53877L3.0814 7.92113H0.0820312V4.09525H4.00684L0.0820312 1.97822V0.508301H1.85375L6.73421 3.1396V0.508301H10.4299V3.63892L16.2358 0.508301H17.082Z" fill="white"/>
<path d="M9.64453 0.507812H7.51953V4.97648H0.0820312V7.03898H7.51953V11.5078H9.64453V7.03898H17.082V4.97648H9.64453V0.507812Z" fill="#D80027"/>
<path d="M10.4297 7.9209L17.0819 11.5078V10.4935L12.3108 7.9209H10.4297Z" fill="#0052B4"/>
<path d="M10.4297 7.9209L17.0819 11.5078V10.4935L12.3108 7.9209H10.4297Z" fill="white"/>
<path d="M10.4299 7.9209L17.082 11.5078V10.4935L12.3109 7.9209H10.4299ZM4.85305 7.9209L0.0820312 10.4935V11.5078L6.73421 7.9209H4.85305Z" fill="#D80027"/>
<path d="M6.73421 4.09476L0.0820312 0.507812V1.52211L4.85312 4.09476H6.73421Z" fill="#0052B4"/>
<path d="M6.73421 4.09476L0.0820312 0.507812V1.52211L4.85312 4.09476H6.73421Z" fill="white"/>
<path d="M6.73421 4.09476L0.0820312 0.507812V1.52211L4.85312 4.09476H6.73421ZM12.311 4.09476L17.082 1.52211V0.507812L10.4299 4.09476H12.311Z" fill="#D80027"/>
</g>
<defs>
<clipPath id="clip0_1_6097">
<rect width="34" height="22" fill="white" transform="translate(0.0820312 0.508301)"/>
</clipPath>
</defs>
</svg>
