<svg width="35" height="23" viewBox="0 0 35 23" fill="none" xmlns="http://www.w3.org/2000/svg">
<g clip-path="url(#clip0_1_6153)">
<path d="M0.376953 0.508789H34.377V22.5083H0.376953V0.508789Z" fill="#D80027"/>
<path d="M13.4351 0.508789V22.5083H0.376953V0.508789H13.4351Z" fill="#6DA544"/>
<path d="M13.4351 15.6333C15.7823 15.6333 17.6851 13.7865 17.6851 11.5083C17.6851 9.23013 15.7823 7.3833 13.4351 7.3833C11.0878 7.3833 9.18506 9.23013 9.18506 11.5083C9.18506 13.7865 11.0878 15.6333 13.4351 15.6333Z" fill="#FFDA44"/>
<path d="M11.0444 9.4458V12.024C11.0444 13.3055 12.1148 14.3443 13.4351 14.3443C14.7553 14.3443 15.8257 13.3055 15.8257 12.024V9.4458H11.0444Z" fill="#D80027"/>
<path d="M13.4351 12.7974C12.9956 12.7974 12.6382 12.4504 12.6382 12.0239V10.9927H14.232V12.0239C14.2319 12.4503 13.8744 12.7974 13.4351 12.7974Z" fill="white"/>
</g>
<defs>
<clipPath id="clip0_1_6153">
<rect width="34" height="22" fill="white" transform="translate(0.376953 0.508301)"/>
</clipPath>
</defs>
</svg>
