<svg width="35" height="23" viewBox="0 0 35 23" fill="none" xmlns="http://www.w3.org/2000/svg">
<g clip-path="url(#clip0_1_6187)">
<path d="M0.311523 0.508789H34.3115V22.5083H0.311523V0.508789Z" fill="white"/>
<path d="M0.311523 0.508789H34.3115V7.84195H0.311523V0.508789Z" fill="#D80027"/>
<path d="M0.311523 15.1748H34.3115V22.508H0.311523V15.1748Z" fill="#0052B4"/>
<path d="M19.5416 8.97754L18.7054 9.78913C19.062 10.1354 19.2827 10.6136 19.2827 11.1419C19.2827 12.1984 18.4002 13.0548 17.3118 13.0548C16.2232 13.0548 15.3408 12.1983 15.3408 11.1419C15.3408 10.6137 15.5614 10.1354 15.9181 9.78913L15.0819 8.97754C14.5112 9.53145 14.1582 10.2966 14.1582 11.1418C14.1582 12.8323 15.5701 14.2026 17.3118 14.2026C19.0535 14.2026 20.4653 12.8323 20.4653 11.1418C20.4653 10.2967 20.1123 9.53145 19.5416 8.97754Z" fill="#6DA544"/>
<path d="M17.3113 9.99414L17.6049 10.871H18.5548L17.7863 11.4129L18.0798 12.2898L17.3113 11.7478L16.5428 12.2898L16.8364 11.4129L16.0679 10.871H17.0177L17.3113 9.99414Z" fill="#FFDA44"/>
</g>
<defs>
<clipPath id="clip0_1_6187">
<rect width="34" height="22" fill="white" transform="translate(0.311523 0.508301)"/>
</clipPath>
</defs>
</svg>
