<svg width="35" height="23" viewBox="0 0 35 23" fill="none" xmlns="http://www.w3.org/2000/svg">
<g clip-path="url(#clip0_1_6100)">
<path d="M0.114746 0.508301H34.1147V22.5086H0.114746V0.508301Z" fill="#0052B4"/>
<path d="M0.114746 0.508301H34.1147V7.84146H0.114746V0.508301Z" fill="#D80027"/>
<path d="M0.114746 15.1743H34.1147V22.5075H0.114746V15.1743Z" fill="white"/>
<path d="M8.7124 6.72559V12.2129C8.7124 15.3343 12.9137 16.2906 12.9137 16.2906C12.9137 16.2906 17.1149 15.3341 17.1149 12.2129V6.72559H8.7124Z" fill="#D80027"/>
<path d="M10.4499 7.68202H15.3773V5.76899L14.3917 6.24723L12.9135 4.8125L11.4353 6.24723L10.4499 5.76899V7.68202ZM16.1293 12.9767L12.9265 9.86808L9.72363 12.9767L10.7689 13.9912L12.9265 11.8971L15.084 13.9912L16.1293 12.9767Z" fill="#FFDA44"/>
<path d="M16.1293 10.0733H14.6349C14.722 9.9281 14.7678 9.76313 14.7678 9.59516C14.7678 9.0669 14.3265 8.63867 13.7823 8.63867C13.4063 8.63867 13.0797 8.84312 12.9135 9.14373C12.7474 8.84318 12.4207 8.63867 12.0447 8.63867C11.5005 8.63867 11.0593 9.0669 11.0593 9.59516C11.0593 9.76957 11.1081 9.93257 11.1921 10.0733H9.72363C9.72363 10.6015 10.1977 11.0298 10.7419 11.0298H10.7091C10.7091 11.558 11.1503 11.9862 11.6946 11.9862C11.6946 12.454 12.0406 12.8426 12.4977 12.9257L11.7211 14.6273C12.1039 14.7785 12.5132 14.856 12.9263 14.8558C13.3395 14.856 13.7488 14.7785 14.1315 14.6273L13.355 12.9257C13.8121 12.8426 14.1581 12.454 14.1581 11.9862C14.7024 11.9862 15.1436 11.558 15.1436 11.0298H15.1108C15.6552 11.0298 16.1293 10.6015 16.1293 10.0733Z" fill="white"/>
</g>
<defs>
<clipPath id="clip0_1_6100">
<rect width="34" height="22" fill="white" transform="translate(0.114746 0.508301)"/>
</clipPath>
</defs>
</svg>
