<svg width="35" height="23" viewBox="0 0 35 23" fill="none" xmlns="http://www.w3.org/2000/svg">
<g clip-path="url(#clip0_1_6167)">
<path d="M0.442383 0.294922H34.4424V22.2952H0.442383V0.294922Z" fill="#338AF3"/>
<path d="M0.442383 11.2944H34.4424V16.555H0.442383V11.2944Z" fill="#FFDA44"/>
<path d="M0.442383 16.5552H34.4424V22.2943H0.442383V16.5552Z" fill="#496E2D"/>
<path d="M18.9209 6.73208L20.3051 7.36398L19.568 8.66503L21.0709 8.38595L21.2614 9.85967L22.3083 8.77583L23.3552 9.85967L23.5456 8.38595L25.0486 8.66503L24.3116 7.36398L25.6957 6.73208L24.3115 6.10012L25.0486 4.79913L23.5456 5.07815L23.3552 3.60449L22.3083 4.68834L21.2613 3.60449L21.0709 5.07815L19.5679 4.79913L20.305 6.10025L18.9209 6.73208Z" fill="#FFDA44"/>
</g>
<defs>
<clipPath id="clip0_1_6167">
<rect width="34" height="22" fill="white" transform="translate(0.442383 0.294922)"/>
</clipPath>
</defs>
</svg>
