<svg width="35" height="23" viewBox="0 0 35 23" fill="none" xmlns="http://www.w3.org/2000/svg">
<g clip-path="url(#clip0_1_6090)">
<path d="M0.376953 0.294922H34.377V22.2949H0.376953V0.294922Z" fill="#055E1C"/>
<path d="M12.5657 13.447C12.5657 14.2395 13.2119 14.8818 14.0091 14.8818H18.3393C18.3393 15.5421 18.8779 16.0775 19.5422 16.0775H20.9856C21.6499 16.0775 22.1885 15.5422 22.1885 14.8818V13.447H12.5657ZM22.3085 6.51221V9.86003C22.3085 10.3875 21.8769 10.8165 21.3463 10.8165V12.2513C22.6728 12.2513 23.7519 11.1786 23.7519 9.86003V6.51221H22.3085ZM11.9642 9.8601C11.9642 10.3875 11.5326 10.8166 11.002 10.8166V12.2514C12.3285 12.2514 13.4076 11.1787 13.4076 9.8601V6.51227H11.9642L11.9642 9.8601Z" fill="white"/>
<path d="M20.1437 6.51172H21.5871V9.85955H20.1437V6.51172ZM17.9786 8.42501C17.9786 8.55688 17.8707 8.66413 17.738 8.66413C17.6053 8.66413 17.4974 8.55688 17.4974 8.42501V6.51191H16.054V8.42501C16.054 8.55688 15.9461 8.66413 15.8134 8.66413C15.6807 8.66413 15.5728 8.55688 15.5728 8.42501V6.51191H14.1294V8.42501C14.1294 9.34798 14.8848 10.0989 15.8133 10.0989C16.1709 10.0989 16.5026 9.98723 16.7756 9.79748C17.0485 9.98723 17.3803 10.0989 17.7379 10.0989C17.8099 10.0989 17.8807 10.0939 17.9504 10.0851C17.8481 10.5039 17.4686 10.8163 17.0162 10.8163V12.2511C18.3427 12.2511 19.4218 11.1784 19.4218 9.8598V6.51191H17.9784L17.9786 8.42501Z" fill="white"/>
<path d="M14.1294 10.8159H16.2943V12.2507H14.1294V10.8159Z" fill="white"/>
</g>
<defs>
<clipPath id="clip0_1_6090">
<rect width="34" height="22" fill="white" transform="translate(0.376953 0.294922)"/>
</clipPath>
</defs>
</svg>
