<svg width="35" height="23" viewBox="0 0 35 23" fill="none" xmlns="http://www.w3.org/2000/svg">
<g clip-path="url(#clip0_1_6089)">
<path d="M0.311523 0.294922H34.3115V22.2952H0.311523V0.294922Z" fill="#496E2D"/>
<path d="M0.311523 22.2945V0.294434H34.3115" fill="#0052B4"/>
<path d="M0.311523 20.35V22.2945H3.31674L34.3115 2.23899V0.294434H31.3063L0.311523 20.35Z" fill="#FFDA44"/>
<path d="M6.00174 1.80664L6.34174 2.82216H7.44183L6.55179 3.44975L6.89179 4.46533L6.00174 3.83769L5.11157 4.46533L5.45157 3.44975L4.56152 2.82216H5.66168L6.00174 1.80664ZM11.6213 1.80664L11.9614 2.82216H13.0615L12.1715 3.44975L12.5115 4.46533L11.6213 3.83769L10.7313 4.46533L11.0713 3.44975L10.1812 2.82216H11.2813L11.6213 1.80664ZM6.00174 7.12416L6.34174 8.13968H7.44183L6.55179 8.76733L6.89179 9.78292L6.00174 9.15521L5.11157 9.78292L5.45157 8.76733L4.56152 8.13968H5.66168L6.00174 7.12416ZM11.6213 7.12416L11.9614 8.13968H13.0615L12.1715 8.76733L12.5115 9.78292L11.6213 9.15521L10.7313 9.78292L11.0713 8.76733L10.1812 8.13968H11.2813L11.6213 7.12416ZM8.81152 4.46533L9.15152 5.48086H10.2517L9.36157 6.1085L9.70157 7.12416L8.81152 6.49645L7.92148 7.12416L8.26148 6.1085L7.3713 5.48086H8.47152L8.81152 4.46533Z" fill="white"/>
</g>
<defs>
<clipPath id="clip0_1_6089">
<rect width="34" height="22" fill="white" transform="translate(0.311523 0.294922)"/>
</clipPath>
</defs>
</svg>
