<svg width="35" height="23" viewBox="0 0 35 23" fill="none" xmlns="http://www.w3.org/2000/svg">
<g clip-path="url(#clip0_1_6086)">
<path d="M0.147461 0.29541H34.1475V22.295H0.147461V0.29541Z" fill="white"/>
<path d="M0.147461 0.29541H34.1475V11.2952H0.147461V0.29541Z" fill="#D80027"/>
<path d="M5.69109 5.79509C5.69109 4.19246 6.85161 2.85364 8.40127 2.52513C8.1585 2.47346 7.9107 2.44736 7.66216 2.44727C5.7571 2.44727 4.21289 3.94606 4.21289 5.79503C4.21289 7.644 5.75717 9.14286 7.66216 9.14286C7.91597 9.14286 8.16307 9.11546 8.40127 9.065C6.85161 8.73661 5.69109 7.39779 5.69109 5.79509ZM10.1259 2.68645L10.3705 3.41716H11.1622L10.5217 3.86878L10.7663 4.59949L10.1259 4.14793L9.48541 4.59949L9.73012 3.86878L9.08963 3.41716H9.88126L10.1259 2.68645Z" fill="white"/>
<path d="M8.2057 4.12109L8.45028 4.8518H9.24191L8.60142 5.30342L8.84606 6.03413L8.2057 5.58257L7.56521 6.03413L7.80992 5.30342L7.16943 4.8518H7.96106L8.2057 4.12109ZM12.0462 4.12109L12.2909 4.8518H13.0825L12.442 5.30342L12.6867 6.03413L12.0462 5.58257L11.4058 6.03413L11.6505 5.30342L11.01 4.8518H11.8017L12.0462 4.12109ZM11.3071 6.27325L11.5517 7.00396H12.3433L11.7029 7.45558L11.9476 8.18629L11.3071 7.73473L10.6667 8.18629L10.9114 7.45558L10.2709 7.00396H11.0625L11.3071 6.27325ZM8.9448 6.27325L9.18938 7.00396H9.98101L9.34059 7.45558L9.58523 8.18629L8.9448 7.73473L8.30438 8.18629L8.54902 7.45558L7.9086 7.00396H8.70016L8.9448 6.27325Z" fill="white"/>
</g>
<defs>
<clipPath id="clip0_1_6086">
<rect width="34" height="22" fill="white" transform="translate(0.147461 0.294922)"/>
</clipPath>
</defs>
</svg>
