<svg width="35" height="23" viewBox="0 0 35 23" fill="none" xmlns="http://www.w3.org/2000/svg">
<g clip-path="url(#clip0_1_6085)">
<path d="M0.114746 0.294922H34.1147V22.2949H0.114746V0.294922Z" fill="#0052B4"/>
<path d="M17.1147 0.294922V7.86246H14.0534L17.1147 9.84136V11.2981H15.614L10.7397 8.14608V11.2981H6.48975V8.14608L1.61553 11.2981H0.114746V9.84136L3.17607 7.86246H0.114746V3.73706H3.17607L0.114746 1.75815V0.294922H1.61553L6.48975 3.44699V0.294922H10.7397V3.44699L15.614 0.294922H17.1147Z" fill="white"/>
<path d="M9.67725 0.294922H7.55225V4.76841H0.114746V6.83111H7.55225V11.2981H9.67725V6.83111H17.1147V4.76841H9.67725V0.294922Z" fill="#D80027"/>
<path d="M0.114746 0.294922V1.26826L3.92647 3.73706H5.42725L0.114746 0.294922ZM17.1147 0.294922V1.26826L13.303 3.73706H11.8022L17.1147 0.294922Z" fill="#D80027"/>
<path d="M17.1146 1.7583V3.73721H14.0532L17.1146 1.7583Z" fill="#2E52B2"/>
<path d="M0.114746 0.294922V1.26826L3.92647 3.73706H5.42725L0.114746 0.294922ZM17.1147 0.294922V1.26826L13.303 3.73706H11.8022L17.1147 0.294922Z" fill="#D80027"/>
<path d="M17.1146 1.7583V3.73721H14.0532L17.1146 1.7583Z" fill="#2E52B2"/>
<path d="M0.114746 11.298V10.3247L3.92647 7.8623H5.42725L0.114746 11.298ZM17.1147 11.298V10.3247L13.303 7.8623H11.8022L17.1147 11.298Z" fill="#D80027"/>
<path d="M29.9312 9.2998C29.9245 12.1618 29.453 15.2365 25.6147 16.7062C21.7765 15.2365 21.305 12.1618 21.2983 9.2998H29.9312Z" fill="#29DBFF"/>
<path d="M29.9313 9.29988C29.9313 8.22341 29.8715 7.17917 29.898 6.26384C28.4637 5.64503 26.5711 5.51611 25.6082 5.51611C24.6453 5.51611 22.7594 5.64503 21.3184 6.26384C21.3449 7.17917 21.2852 8.22341 21.2852 9.29988H29.9313Z" fill="#FFDA44"/>
<path d="M24.6518 13.477L24.6717 14.1409L23.8217 14.1538L24.1471 15.0047H22.9982C21.8029 13.7026 21.4443 12.2716 21.3447 10.615L21.949 9.98975L22.5002 10.9115L23.2174 10.0864L23.6822 10.5892L23.7354 11.6012L24.6518 13.477Z" fill="#BF521B"/>
<path d="M29.1078 12.7033L28.5367 13.8829H25.4156L23.4766 12.626L25.1832 13.3028H26.85L27.0957 12.8838L27.5738 12.8967L27.7066 12.7033H29.1078Z" fill="#474747"/>
</g>
<defs>
<clipPath id="clip0_1_6085">
<rect width="34" height="22" fill="white" transform="translate(0.114746 0.294922)"/>
</clipPath>
</defs>
</svg>
