<svg width="35" height="23" viewBox="0 0 35 23" fill="none" xmlns="http://www.w3.org/2000/svg">
<g clip-path="url(#clip0_1_6186)">
<path d="M0.0820312 0.29541H34.082V22.295H0.0820312V0.29541Z" fill="white"/>
<path d="M0.0820312 7.62842H34.082V14.9616H0.0820312V7.62842Z" fill="#0052B4"/>
<path d="M0.0820312 14.9614H34.082V22.2946H0.0820312V14.9614Z" fill="#D80027"/>
<path d="M15.5951 7.46872V8.42501C15.5951 10.6216 12.6385 11.2946 12.6385 11.2946C12.6385 11.2946 9.68199 10.6217 9.68199 8.42501V7.46872L9.67236 4.62066L15.5854 4.60352L15.5951 7.46872Z" fill="white"/>
<path d="M15.5951 7.46872V8.42501C15.5951 10.6216 12.6385 11.2946 12.6385 11.2946C12.6385 11.2946 9.68199 10.6217 9.68199 8.42501V7.46872L9.67236 4.62066L15.5854 4.60352L15.5951 7.46872Z" fill="#0052B4"/>
<path d="M15.5947 7.46874V8.42503C15.5947 10.6217 12.6382 11.2946 12.6382 11.2946C12.6382 11.2946 9.68164 10.6217 9.68164 8.42503V7.46874L10.6676 8.42503L12.6382 6.99023L14.6094 8.42503L15.5947 7.46874Z" fill="white"/>
</g>
<defs>
<clipPath id="clip0_1_6186">
<rect width="34" height="22" fill="white" transform="translate(0.0820312 0.294922)"/>
</clipPath>
</defs>
</svg>
