<svg width="35" height="23" viewBox="0 0 35 23" fill="none" xmlns="http://www.w3.org/2000/svg">
<g clip-path="url(#clip0_1_6214)">
<path d="M0.409668 0.29541H34.4097V22.295H0.409668V0.29541Z" fill="white"/>
<path d="M0.409668 7.46924H34.4097V15.1209H0.409668V7.46924Z" fill="#0052B4"/>
<path d="M0.409668 15.1206H34.4097V22.2945H0.409668V15.1206Z" fill="#D80027"/>
<path d="M9.00732 6.5127V12C9.00732 15.1214 13.2086 16.0777 13.2086 16.0777C13.2086 16.0777 17.4098 15.1213 17.4098 12V6.5127H9.00732Z" fill="white"/>
<path d="M10.1133 6.67334V11.9547C10.1133 12.3074 10.194 12.6405 10.3539 12.9528H16.0628C16.2227 12.6405 16.3034 12.3074 16.3034 11.9547V6.67334H10.1133Z" fill="#D80027"/>
<path d="M15.1056 10.3556H13.6828V9.43498H14.6314V8.5144H13.6828V7.59375H12.7343V8.5144H11.7859V9.43498H12.7343V10.3556H11.3115V11.2762H12.7343V12.1968H13.6828V11.2762H15.1056V10.3556Z" fill="white"/>
<path d="M11.6476 14.2379C12.2588 14.6107 12.8867 14.8272 13.2083 14.9234C13.5298 14.8272 14.1578 14.6107 14.769 14.2379C15.3853 13.862 15.8175 13.4319 16.0628 12.9528C15.783 12.7602 15.4484 12.657 15.1054 12.6574C14.9755 12.6574 14.8493 12.6724 14.7281 12.6997C14.471 12.1328 13.8875 11.7368 13.2084 11.7368C12.5293 11.7368 11.9458 12.1328 11.6888 12.6997C11.5651 12.6717 11.4385 12.6575 11.3114 12.6574C10.9684 12.657 10.6338 12.7603 10.354 12.9528C10.5991 13.4319 11.0312 13.862 11.6476 14.2379Z" fill="#0052B4"/>
</g>
<defs>
<clipPath id="clip0_1_6214">
<rect width="34" height="22" fill="white" transform="translate(0.409668 0.294922)"/>
</clipPath>
</defs>
</svg>
