<svg width="35" height="23" viewBox="0 0 35 23" fill="none" xmlns="http://www.w3.org/2000/svg">
<g clip-path="url(#clip0_1_6227)">
<path d="M0.278809 0.29541H34.2788V22.295H0.278809V0.29541Z" fill="#338AF3"/>
<path d="M34.2788 0.294922V11.0386L0.278809 11.3062V0.294922H34.2788Z" fill="white"/>
<path d="M21.7773 7.88525L17.2787 12.2516L12.7801 7.88525C12.1781 8.75119 11.8571 9.7722 11.8584 10.8168V12.2516C11.8584 14.5554 13.3922 16.5179 15.5206 17.2282C15.2366 17.7686 15.2844 18.443 15.7007 18.9472L17.3116 17.6943L18.9224 18.9472C19.3436 18.4371 19.388 17.7527 19.0927 17.2091C21.1921 16.4832 22.6991 14.5352 22.6991 12.2516V10.8168C22.7002 9.7722 22.3792 8.75121 21.7773 7.88525Z" fill="#6DA544"/>
<path d="M17.2789 16.0777C15.1053 16.0777 13.3369 14.3613 13.3369 12.2516V10.8169C13.3369 8.70711 15.1053 6.99072 17.2789 6.99072C19.4525 6.99072 21.2209 8.70711 21.2209 10.8168V12.2516C21.2209 14.3613 19.4525 16.0777 17.2789 16.0777Z" fill="#FFDA44"/>
<path d="M19.7424 12.2519V10.8171C19.7424 9.49848 18.6372 8.42578 17.2787 8.42578C15.9201 8.42578 14.8149 9.49848 14.8149 10.8171V12.2519L17.2787 12.7302L19.7424 12.2519Z" fill="#338AF3"/>
<path d="M14.8149 12.2515C14.8149 13.57 15.9201 14.6427 17.2787 14.6427C18.6372 14.6427 19.7424 13.57 19.7424 12.2515H14.8149Z" fill="#6DA544"/>
<path d="M20.2353 6.99096C20.2353 6.19851 19.5735 5.55617 18.757 5.55617C18.3933 5.5557 18.0422 5.68593 17.7715 5.92174V5.07786H18.2643V4.12137H17.7715V3.64307H16.7861V4.12137H16.2933V5.07786H16.7861V5.92174C16.5153 5.68593 16.1643 5.55571 15.8005 5.55617C14.9841 5.55617 14.3223 6.19851 14.3223 6.99096C14.3223 7.41577 14.5127 7.7974 14.8151 8.06017V8.90406H19.7426V8.06017C20.0449 7.7974 20.2353 7.41583 20.2353 6.99096Z" fill="#FFDA44"/>
</g>
<defs>
<clipPath id="clip0_1_6227">
<rect width="34" height="22" fill="white" transform="translate(0.278809 0.294922)"/>
</clipPath>
</defs>
</svg>
