<svg width="35" height="23" viewBox="0 0 35 23" fill="none" xmlns="http://www.w3.org/2000/svg">
<g clip-path="url(#clip0_1_6078)">
<path d="M0.114746 0.164551H34.1147V22.1641H0.114746V0.164551Z" fill="#FFDA44"/>
<path d="M0.114746 0.164551H34.1147V7.49771H0.114746V0.164551ZM0.114746 14.8309H34.1147V22.1641H0.114746V14.8309Z" fill="#6DA544"/>
<path d="M17.1147 11.1646L0.114746 22.1643V0.164062L17.1147 11.1646Z" fill="#D80027"/>
<path d="M20.1726 9.25098L20.6619 10.7124H22.2451L20.9643 11.6158L21.4534 13.0772L20.1726 12.1739L18.8918 13.0772L19.3809 11.6158L18.1001 10.7124H19.6834L20.1726 9.25098ZM25.1001 9.25098L25.5893 10.7124H27.1726L25.8917 11.6158L26.381 13.0772L25.1001 12.1739L23.8193 13.0772L24.3085 11.6158L23.0276 10.7124H24.6109L25.1001 9.25098Z" fill="black"/>
</g>
<defs>
<clipPath id="clip0_1_6078">
<rect width="34" height="22" fill="white" transform="translate(0.114746 0.164062)"/>
</clipPath>
</defs>
</svg>
