<svg width="35" height="23" viewBox="0 0 35 23" fill="none" xmlns="http://www.w3.org/2000/svg">
<g clip-path="url(#clip0_1_6126)">
<path d="M0.0820312 0.164551H34.082V22.1641H0.0820312V0.164551Z" fill="white"/>
<path d="M0.0820312 0.164551H34.082V7.49771H0.0820312V0.164551ZM0.0820312 14.8309H34.082V22.1641H0.0820312V14.8309Z" fill="#0052B4"/>
<path d="M15.2612 11.5467L17.082 8.48584L18.9027 11.5467H15.2612Z" fill="#FFDA44"/>
<path d="M19.447 12.5572L17.0819 13.7051L14.7168 12.5572V11.0269H19.447V12.5572Z" fill="#6DA544"/>
<path d="M19.3116 8.61719L18.4755 9.42878C18.8321 9.77502 19.0527 10.2532 19.0527 10.7815C19.0527 11.838 18.1703 12.6945 17.0818 12.6945C15.9933 12.6945 15.1109 11.838 15.1109 10.7815C15.1109 10.2533 15.3315 9.77502 15.6881 9.42878L14.8519 8.61719C14.2812 9.1711 13.9282 9.93629 13.9282 10.7815C13.9282 12.4719 15.3401 13.8423 17.0818 13.8423C18.8235 13.8423 20.2354 12.4719 20.2354 10.7815C20.2354 9.93622 19.8823 9.17097 19.3116 8.61719Z" fill="#FFDA44"/>
</g>
<defs>
<clipPath id="clip0_1_6126">
<rect width="34" height="22" fill="white" transform="translate(0.0820312 0.164062)"/>
</clipPath>
</defs>
</svg>
