<svg width="35" height="23" viewBox="0 0 35 23" fill="none" xmlns="http://www.w3.org/2000/svg">
<g clip-path="url(#clip0_1_6077)">
<path d="M0.0493164 0.164551H34.0493V22.1641H0.0493164V0.164551Z" fill="#0052B4"/>
<path d="M34.0493 0.164062V10.9078L0.0493164 11.1754V0.164062H34.0493Z" fill="#D80027"/>
<path d="M17.0493 11.1646L0.0493164 22.1643V0.164062L17.0493 11.1646Z" fill="white"/>
<path d="M4.00842 11.1641C4.00026 11.2621 3.99599 11.3603 3.99561 11.4586C3.99561 13.574 5.76248 15.289 7.94206 15.289C10.1216 15.289 11.8885 13.5741 11.8885 11.4586C11.8885 11.3594 11.8833 11.2613 11.8757 11.1641H4.00842Z" fill="#FFDA44"/>
<path d="M7.94233 9.39624C8.61297 9.39624 9.15664 8.86857 9.15664 8.21765C9.15664 7.56674 8.61297 7.03906 7.94233 7.03906C7.27169 7.03906 6.72803 7.56674 6.72803 8.21765C6.72803 8.86857 7.27169 9.39624 7.94233 9.39624Z" fill="#FFDA44"/>
<path d="M5.20996 7.92285V11.7532C5.20996 13.7831 7.94218 14.405 7.94218 14.405C7.94218 14.405 10.6744 13.7831 10.6744 11.7532V7.92285H5.20996Z" fill="#D80027"/>
<path d="M7.94343 13.1718C7.43661 12.9948 6.42432 12.5423 6.42432 11.7534V9.10156H9.46008V11.7534C9.46001 12.5449 8.44778 12.9963 7.94343 13.1718Z" fill="#338AF3"/>
<path d="M8.54959 10.5748V9.98553L7.94237 9.69092L7.33528 9.98553V10.5748L7.03174 10.8695V12.048H8.85313V10.8695L8.54959 10.5748Z" fill="#F3F3F3"/>
</g>
<defs>
<clipPath id="clip0_1_6077">
<rect width="34" height="22" fill="white" transform="translate(0.0493164 0.164062)"/>
</clipPath>
</defs>
</svg>
