<svg width="35" height="23" viewBox="0 0 35 23" fill="none" xmlns="http://www.w3.org/2000/svg">
<g clip-path="url(#clip0_1_6142)">
<path d="M0.442383 0.164062H34.4424V22.1643H0.442383V0.164062Z" fill="white"/>
<path d="M0.442383 0.164062H34.4424V7.49722H0.442383V0.164062Z" fill="#D80027"/>
<path d="M0.442383 14.8306H34.4424V22.1637H0.442383V14.8306Z" fill="black"/>
<path d="M12.881 8.5332L13.4925 10.3599H15.4715L13.8705 11.489L14.482 13.3157L12.881 12.1867L11.28 13.3157L11.8915 11.489L10.2905 10.3599H12.2695L12.881 8.5332ZM22.0039 8.5332L22.6155 10.3599H24.5944L22.9934 11.489L23.605 13.3157L22.0039 12.1867L20.4029 13.3157L21.0145 11.489L19.4134 10.3599H21.3925L22.0039 8.5332Z" fill="#6DA544"/>
</g>
<defs>
<clipPath id="clip0_1_6142">
<rect width="34" height="22" fill="white" transform="translate(0.442383 0.164062)"/>
</clipPath>
</defs>
</svg>
