<svg width="35" height="23" viewBox="0 0 35 23" fill="none" xmlns="http://www.w3.org/2000/svg">
<g clip-path="url(#clip0_1_6220)">
<path d="M0.409668 0.164062H34.4097V22.1641H0.409668V0.164062Z" fill="#2B5DEA"/>
<path d="M0.409668 3.83057H34.4097V18.4972H0.409668V3.83057Z" fill="#FFDF29"/>
<path d="M0.409668 5.66406H34.4097V16.6641H0.409668V5.66406Z" fill="#D70000"/>
<path d="M17.4097 6.44873V15.8794C21.7277 15.8794 23.8848 12.7371 25.5054 11.1641C23.8848 9.59106 21.7277 6.44873 17.4097 6.44873Z" fill="white"/>
<path d="M17.4097 6.44873C13.632 6.44873 10.9346 9.59106 9.31396 11.1641C10.9346 12.7371 13.632 15.8794 17.4097 15.8794V6.44873Z" fill="black"/>
<path d="M13.4922 9.48828H14.2855V12.8359H13.4922V9.48828ZM15.4529 9.48828H16.2462V12.8359H15.4529V9.48828Z" fill="white"/>
<path d="M18.46 9.48828H19.2533V12.8359H18.46V9.48828ZM20.4206 9.48828H21.214V12.8359H20.4206V9.48828Z" fill="black"/>
</g>
<defs>
<clipPath id="clip0_1_6220">
<rect width="34" height="22" fill="white" transform="translate(0.409668 0.164062)"/>
</clipPath>
</defs>
</svg>
