<svg width="35" height="23" viewBox="0 0 35 23" fill="none" xmlns="http://www.w3.org/2000/svg">
<g clip-path="url(#clip0_1_6075)">
<path d="M0.376953 0.164062H34.377V22.1641H0.376953V0.164062Z" fill="#0052B4"/>
<path d="M17.377 0.164062V7.7316H14.3156L17.377 9.7105V11.1673H15.8762L11.002 8.01522V11.1673H6.75195V8.01522L1.87773 11.1673H0.376953V9.7105L3.43828 7.7316H0.376953V3.6062H3.43828L0.376953 1.62729V0.164062H1.87773L6.75195 3.31613V0.164062H11.002V3.31613L15.8762 0.164062H17.377Z" fill="white"/>
<path d="M9.93945 0.164062H7.81445V4.63755H0.376953V6.70025H7.81445V11.1673H9.93945V6.70025H17.377V4.63755H9.93945V0.164062Z" fill="#D80027"/>
<path d="M0.376953 0.164062V1.1374L4.18867 3.6062H5.68945L0.376953 0.164062ZM17.377 0.164062V1.1374L13.5652 3.6062H12.0645L17.377 0.164062Z" fill="#D80027"/>
<path d="M17.3768 1.62744V3.60635H14.3154L17.3768 1.62744Z" fill="#2E52B2"/>
<path d="M0.376953 0.164062V1.1374L4.18867 3.6062H5.68945L0.376953 0.164062ZM17.377 0.164062V1.1374L13.5652 3.6062H12.0645L17.377 0.164062Z" fill="#D80027"/>
<path d="M17.3768 1.62744V3.60635H14.3154L17.3768 1.62744Z" fill="#2E52B2"/>
<path d="M0.376953 11.1671V10.1938L4.18867 7.73145H5.68945L0.376953 11.1671ZM17.377 11.1671V10.1938L13.5652 7.73145H12.0645L17.377 11.1671Z" fill="#D80027"/>
<path d="M30.1867 11.09C30.1867 11.7088 30.1668 12.998 30.0938 13.6168C29.8215 15.8664 28.5332 18.0516 25.9699 19.1539C22.9617 18 21.9324 15.8664 21.6602 13.6168C21.5871 12.998 21.5605 12.3663 21.5605 11.7475L21.5805 8.71143H30.1602L30.1867 11.09Z" fill="#29DBFF"/>
<path d="M30.0939 13.6167C30.0807 13.7198 30.0674 13.8294 30.0541 13.9326C29.7354 16.0662 28.5334 18.1482 25.9701 19.1538C23.1014 18.058 22.0256 16.0662 21.7068 13.9326C21.6936 13.8294 21.6803 13.7263 21.667 13.6167" fill="white"/>
<path d="M25.9699 16.3885L24.4492 13.6167H27.4906L25.9699 16.3885Z" fill="#29DBFF"/>
<path d="M25.9699 10.8516L24.4492 13.6169H27.4906L25.9699 10.8516Z" fill="white"/>
<path d="M31.9066 18.2194C32.5228 18.2194 33.0223 16.9698 33.0223 15.4283C33.0223 13.8868 32.5228 12.6372 31.9066 12.6372C31.2905 12.6372 30.791 13.8868 30.791 15.4283C30.791 16.9698 31.2905 18.2194 31.9066 18.2194Z" fill="#FFBE57"/>
<path d="M19.9867 18.2194C20.6029 18.2194 21.1023 16.9698 21.1023 15.4283C21.1023 13.8868 20.6029 12.6372 19.9867 12.6372C19.3706 12.6372 18.8711 13.8868 18.8711 15.4283C18.8711 16.9698 19.3706 18.2194 19.9867 18.2194Z" fill="#FFBE57"/>
<path d="M25.9699 2.19434L23.752 5.03055H28.3008L25.9699 2.19434ZM21.3281 18.2125C21.3281 18.2125 23.5727 20.1141 25.9699 20.1141C28.3672 20.1141 30.4258 18.2125 30.4258 18.2125L30.9902 19.1536C30.9902 19.1536 29.5426 21.1776 25.9699 21.1776C22.3973 21.1776 20.7637 19.1536 20.7637 19.1536L21.3281 18.2125Z" fill="white"/>
<path d="M26.0297 8.38906C27.2876 8.38906 28.3074 7.71664 28.3074 6.88716C28.3074 6.05768 27.2876 5.38525 26.0297 5.38525C24.7717 5.38525 23.752 6.05768 23.752 6.88716C23.752 7.71664 24.7717 8.38906 26.0297 8.38906Z" fill="#A5A5A5"/>
</g>
<defs>
<clipPath id="clip0_1_6075">
<rect width="34" height="22" fill="white" transform="translate(0.376953 0.164062)"/>
</clipPath>
</defs>
</svg>
