<svg width="35" height="23" viewBox="0 0 35 23" fill="none" xmlns="http://www.w3.org/2000/svg">
<g clip-path="url(#clip0_1_6161)">
<path d="M0.344238 0.164062H34.3442V22.1643H0.344238V0.164062Z" fill="#0052B4"/>
<path d="M22.395 7.03906V12.0807C22.395 14.5365 25.8443 15.2891 25.8443 15.2891C25.8443 15.2891 29.2936 14.5366 29.2936 12.0807V7.03906H22.395Z" fill="#FFDA44"/>
<path d="M25.3513 8.87222C25.3513 9.3785 24.9101 10.7056 24.3658 10.7056C23.8216 10.7056 23.3804 9.37856 23.3804 8.87222C23.3804 8.36588 24.3658 7.95557 24.3658 7.95557C24.3658 7.95557 25.3513 8.36594 25.3513 8.87222Z" fill="#FF9811"/>
<path d="M27.9669 9.8706C28.1259 9.50966 28.2496 8.98211 28.2496 8.71947C28.2496 8.29756 27.6583 7.95557 27.6583 7.95557C27.6583 7.95557 27.067 8.29756 27.067 8.71947C27.067 8.98211 27.1907 9.50966 27.3497 9.8706L27.0083 10.5875C27.2155 10.6658 27.4359 10.7058 27.6583 10.7055C27.8882 10.7055 28.1076 10.6634 28.3083 10.5875L27.9669 9.8706Z" fill="#A2001D"/>
<path d="M25.1051 12.0804C25.1051 12.0804 24.6123 12.9971 24.6123 13.9138H27.076C27.076 12.9971 26.5832 12.0804 26.5832 12.0804L25.8441 11.6221L25.1051 12.0804Z" fill="#6DA544"/>
<path d="M26.5832 12.0807V11.8515C26.5832 11.4718 26.2523 11.1641 25.8441 11.1641C25.4359 11.1641 25.105 11.4719 25.105 11.8515V12.0807H26.5832Z" fill="#D80027"/>
<path d="M17.3442 0.164062V2.1333L14.3449 3.75101H17.3442V7.57689H13.4194L17.3442 9.69321V11.1638H15.5725L10.6921 8.53247V11.1638H6.99642V8.03315L1.19052 11.1638H0.344238V9.19453L3.34361 7.57689H0.344238V3.75101H4.26905L0.344238 1.63398V0.164062H2.11596L6.99642 2.79536V0.164062H10.6921V3.29468L16.498 0.164062H17.3442Z" fill="white"/>
<path d="M9.90674 0.164062H7.78174V4.63273H0.344238V6.69523H7.78174V11.164H9.90674V6.69523H17.3442V4.63273H9.90674V0.164062Z" fill="#D80027"/>
<path d="M10.6919 7.57666L17.3441 11.1636V10.1493L12.573 7.57666H10.6919Z" fill="#0052B4"/>
<path d="M10.6919 7.57666L17.3441 11.1636V10.1493L12.573 7.57666H10.6919Z" fill="white"/>
<path d="M10.6921 7.57666L17.3442 11.1636V10.1493L12.5731 7.57666H10.6921ZM5.11526 7.57666L0.344238 10.1493V11.1636L6.99642 7.57666H5.11526Z" fill="#D80027"/>
<path d="M6.99642 3.75101L0.344238 0.164062V1.17836L5.11533 3.75101H6.99642Z" fill="#0052B4"/>
<path d="M6.99642 3.75101L0.344238 0.164062V1.17836L5.11533 3.75101H6.99642Z" fill="white"/>
<path d="M6.99642 3.75101L0.344238 0.164062V1.17836L5.11533 3.75101H6.99642ZM12.5732 3.75101L17.3442 1.17836V0.164062L10.6921 3.75101H12.5732Z" fill="#D80027"/>
</g>
<defs>
<clipPath id="clip0_1_6161">
<rect width="34" height="22" fill="white" transform="translate(0.344238 0.164062)"/>
</clipPath>
</defs>
</svg>
