<svg width="35" height="23" viewBox="0 0 35 23" fill="none" xmlns="http://www.w3.org/2000/svg">
<g clip-path="url(#clip0_1_6074)">
<path d="M0.180176 0.164062H31.9135V22.1641H0.180176V0.164062Z" fill="white"/>
<path d="M0.180176 0.164062H34.1802V22.1641H0.180176V0.164062Z" fill="#073AB6"/>
<path d="M0.180176 0.164062H17.2557V11.1641H0.180176V0.164062Z" fill="white"/>
<path d="M10.9092 0.164062H16.3492V10.4307H10.9092V0.164062Z" fill="#F44653"/>
<path d="M0.180176 0.164062H5.62018V10.4307H0.180176V0.164062Z" fill="#1035BB"/>
<path d="M5.62012 0.164062H11.0601V10.4307H5.62012V0.164062ZM22.0912 8.96406H29.6468L28.8912 10.4307H26.6246V11.1641H28.1357L27.3801 12.6307H26.6246V14.8307H25.1135V10.4307H22.8468L22.0912 8.96406ZM28.1357 12.6307L29.6468 14.8307H26.6246L28.1357 12.6307ZM23.6023 12.6307L25.1135 14.8307H22.0912L23.6023 12.6307ZM25.869 17.0307L24.3579 14.8307H27.3801L25.869 17.0307ZM30.4023 11.8974C29.949 11.8974 29.6468 11.6041 29.6468 11.1641C29.6468 10.7241 29.949 10.4307 30.4023 10.4307C30.8557 10.4307 31.1579 10.7241 31.1579 11.1641C31.1579 11.6041 30.8557 11.8974 30.4023 11.8974ZM21.3357 11.8974C20.8823 11.8974 20.5801 11.6041 20.5801 11.1641C20.5801 10.7241 20.8823 10.4307 21.3357 10.4307C21.789 10.4307 22.0912 10.7241 22.0912 11.1641C22.0912 11.6041 21.789 11.8974 21.3357 11.8974ZM22.8468 17.7641C22.3934 17.7641 22.0912 17.4707 22.0912 17.0307C22.0912 16.5907 22.3934 16.2974 22.8468 16.2974C23.3001 16.2974 23.6023 16.5907 23.6023 17.0307C23.6023 17.4707 23.3001 17.7641 22.8468 17.7641ZM28.8912 17.7641C28.4379 17.7641 28.1357 17.4707 28.1357 17.0307C28.1357 16.5907 28.4379 16.2974 28.8912 16.2974C29.3446 16.2974 29.6468 16.5907 29.6468 17.0307C29.6468 17.4707 29.3446 17.7641 28.8912 17.7641ZM25.869 19.2307C25.4157 19.2307 25.1135 18.9374 25.1135 18.4974C25.1135 18.0574 25.4157 17.7641 25.869 17.7641C26.3223 17.7641 26.6246 18.0574 26.6246 18.4974C26.6246 18.9374 26.3223 19.2307 25.869 19.2307Z" fill="white"/>
</g>
<defs>
<clipPath id="clip0_1_6074">
<rect width="34" height="22" fill="white" transform="translate(0.180176 0.164062)"/>
</clipPath>
</defs>
</svg>
