<svg width="35" height="23" viewBox="0 0 35 23" fill="none" xmlns="http://www.w3.org/2000/svg">
<g clip-path="url(#clip0_1_6191)">
<path d="M0.147461 0.0332031H34.1475V22.0327H0.147461V0.0332031Z" fill="white"/>
<path d="M0.147461 0.0332031H34.1475V7.36636H0.147461V0.0332031Z" fill="#D80027"/>
<path d="M0.147461 14.6992H34.1475V22.0324H0.147461V14.6992Z" fill="#6DA544"/>
<path d="M15.1766 13.9022H19.1188V12.276L18.3303 12.6587L17.1477 11.5109L15.9651 12.6587L15.1766 12.276V13.9022ZM12.9213 11.9891L13.1047 12.5372H13.6984L13.2181 12.8759L13.4016 13.4239L12.9213 13.0852L12.4409 13.4239L12.6244 12.8759L12.144 12.5372H12.7377L12.9213 11.9891ZM13.4901 10.0761L13.6736 10.6241H14.2672L13.7869 10.9628L13.9704 11.5109L13.4901 11.1721L13.0097 11.5109L13.1932 10.9628L12.7129 10.6241H13.3066L13.4901 10.0761ZM15.1163 8.64132L15.2997 9.1893H15.8934L15.4131 9.528L15.5966 10.0761L15.1163 9.73735L14.6359 10.0761L14.8194 9.528L14.339 9.1893H14.9327L15.1163 8.64132ZM21.3741 11.9891L21.1906 12.5372H20.597L21.0773 12.8759L20.8938 13.4239L21.3741 13.0852L21.8545 13.4239L21.671 12.8759L22.1513 12.5372H21.5577L21.3741 11.9891ZM20.8053 10.0761L20.6218 10.6241H20.0281L20.5084 10.9628L20.325 11.5109L20.8053 11.1721L21.2857 11.5109L21.1022 10.9628L21.5825 10.6241H20.9888L20.8053 10.0761ZM19.1791 8.64132L18.9956 9.1893H18.402L18.8823 9.528L18.6988 10.0761L19.1791 9.73735L19.6595 10.0761L19.476 9.528L19.9563 9.1893H19.3627L19.1791 8.64132ZM17.1477 7.92383L17.3312 8.47187H17.9249L17.4445 8.81064L17.628 9.35862L17.1477 9.01998L16.6674 9.35862L16.8509 8.81064L16.3705 8.47187H16.9642L17.1477 7.92383Z" fill="#FFDA44"/>
</g>
<defs>
<clipPath id="clip0_1_6191">
<rect width="34" height="22" fill="white" transform="translate(0.147461 0.0327148)"/>
</clipPath>
</defs>
</svg>
