<svg width="35" height="23" viewBox="0 0 35 23" fill="none" xmlns="http://www.w3.org/2000/svg">
<g clip-path="url(#clip0_1_6095)">
<path d="M0.0820312 0.0332031H34.082V22.0327H0.0820312V0.0332031Z" fill="#0052B4"/>
<path d="M14.075 5.77204L14.3196 6.50281H15.1111L14.4708 6.95437L14.7154 7.68508L14.075 7.23345L13.4346 7.68508L13.6792 6.95437L13.0387 6.50281H13.8304L14.075 5.77204ZM7.83953 12.7068L8.14533 13.6202H9.13478L8.33425 14.1847L8.64012 15.0982L7.83953 14.5335L7.039 15.0982L7.34473 14.1847L6.54427 13.6202H7.53366L7.83953 12.7068ZM9.69093 2.24658L9.99667 3.16001H10.9862L10.1856 3.72449L10.4915 4.63786L9.69093 4.07331L8.89034 4.63786L9.19621 3.72449L8.39568 3.16001H9.38513L9.69093 2.24658ZM4.70004 5.83353L5.00577 6.74696H5.99523L5.1947 7.31144L5.50057 8.22481L4.70004 7.66033L3.89945 8.22481L4.20531 7.31144L3.40479 6.74696H4.39424L4.70004 5.83353Z" fill="white"/>
<path d="M32.1819 17.3818H7.90477C7.90477 17.3818 15.1586 11.6737 28.5301 3.1416C28.5301 3.1416 22.6569 11.4519 32.1819 17.3818ZM7.90477 18.1285C7.16255 18.1285 7.16135 19.2481 7.90477 19.2481H32.1819C32.9241 19.2481 32.9253 18.1285 32.1819 18.1285H7.90477Z" fill="#FFDA44"/>
</g>
<defs>
<clipPath id="clip0_1_6095">
<rect width="34" height="22" fill="white" transform="translate(0.0820312 0.0327148)"/>
</clipPath>
</defs>
</svg>
