<svg width="35" height="23" viewBox="0 0 35 23" fill="none" xmlns="http://www.w3.org/2000/svg">
<g clip-path="url(#clip0_1_6175)">
<path d="M0.409668 0.0332031H34.4097V22.0327H0.409668V0.0332031Z" fill="#496E2D"/>
<path d="M24.1306 6.37129C24.6882 4.86283 24.0618 3.22224 22.7174 2.4051C22.9638 2.43607 23.2062 2.49271 23.4401 2.57403C25.2332 3.19846 26.1653 5.11529 25.522 6.85572C24.8786 8.59615 22.9037 9.50075 21.1105 8.87633C20.8766 8.79474 20.6525 8.68897 20.4419 8.56083C22.0148 8.75961 23.5729 7.87982 24.1306 6.37129ZM21.038 1.9917L20.5534 2.5993L19.8083 2.33981L20.254 2.9748L19.7695 3.5824L20.5294 3.36726L20.9751 4.00225L20.9991 3.23436L21.7591 3.01915L21.0139 2.75972L21.038 1.9917Z" fill="white"/>
<path d="M22.3462 3.97179L21.8617 4.57939L21.1165 4.3199L21.5622 4.95489L21.0777 5.56249L21.8376 5.34729L22.2834 5.98234L22.3073 5.21438L23.0673 4.99911L22.3221 4.73975L22.3462 3.97179ZM18.7312 2.71289L18.2467 3.32049L17.5016 3.06113L17.9473 3.69606L17.4628 4.30359L18.2227 4.08845L18.6684 4.72344L18.6924 3.95548L19.4523 3.7404L18.7072 3.48085L18.7312 2.71289ZM18.6781 4.98093L18.1936 5.58853L17.4485 5.32904L17.8942 5.96404L17.4097 6.57164L18.1696 6.35649L18.6153 6.99149L18.6393 6.22353L19.3992 6.00838L18.6541 5.74889L18.6781 4.98093ZM20.9016 5.75521L20.4171 6.36281L19.6721 6.10332L20.1178 6.73838L19.6332 7.34591L20.3932 7.13077L20.8389 7.76576L20.8628 6.9978L21.6227 6.78266L20.8777 6.52323L20.9016 5.75521Z" fill="white"/>
<path d="M5.95312 0.0332031H11.8661V22.0327H5.95312V0.0332031Z" fill="#D80027"/>
<path d="M8.20971 5.82411L7.21973 5.10836V4.09612L8.20971 3.38037H9.60982L10.5998 4.09612V5.10836L9.60982 5.82411H8.20971Z" fill="white"/>
<path d="M8.90977 3.38037H8.20971L7.21973 4.09612V4.591H8.90977V3.38037ZM8.90977 5.82411H9.60982L10.5998 5.10836V4.59196H8.90977V5.82411Z" fill="#FF9811"/>
<path d="M8.20971 18.685L7.21973 17.9691V16.957L8.20971 16.2412H9.60982L10.5998 16.957V17.9691L9.60982 18.685H8.20971Z" fill="white"/>
<path d="M8.90977 16.2412H8.20971L7.21973 16.957V17.4518H8.90977V16.2412ZM8.90977 18.685H9.60982L10.5998 17.9691V17.4528H8.90977V18.685Z" fill="#FF9811"/>
<path d="M8.20964 12.2545L7.21966 11.5387V10.5266L8.20964 9.81079H9.60975L10.5997 10.5266V11.5387L9.60975 12.2545H8.20964ZM10.6343 13.8293H10.2032V13.4108H9.44539L8.90963 12.8908L8.37393 13.4108H7.61623V13.8293H7.18506V14.6663H7.61623V15.0847H8.37393L8.9097 15.6048L9.44546 15.0847H10.2032V14.6663H10.6343V13.8293ZM10.6343 7.39895H10.2032V6.98052H9.44539L8.90963 6.46045L8.37393 6.98052H7.61623V7.39895H7.18506V8.23594H7.61623V8.65437H8.37393L8.9097 9.17451L9.44546 8.65437H10.2032V8.23594H10.6343V7.39895Z" fill="#496E2D"/>
<path d="M8.4165 10.5542H9.40197V11.5107H8.4165V10.5542Z" fill="#D80027"/>
<path d="M8.90979 8.29548C9.18196 8.29548 9.40259 8.08134 9.40259 7.81717C9.40259 7.55301 9.18196 7.33887 8.90979 7.33887C8.63763 7.33887 8.41699 7.55301 8.41699 7.81717C8.41699 8.08134 8.63763 8.29548 8.90979 8.29548Z" fill="#D80027"/>
<path d="M8.9093 14.7261C9.18147 14.7261 9.40211 14.512 9.40211 14.2478C9.40211 13.9837 9.18147 13.7695 8.9093 13.7695C8.63714 13.7695 8.4165 13.9837 8.4165 14.2478C8.4165 14.512 8.63714 14.7261 8.9093 14.7261Z" fill="#D80027"/>
</g>
<defs>
<clipPath id="clip0_1_6175">
<rect width="34" height="22" fill="white" transform="translate(0.409668 0.0327148)"/>
</clipPath>
</defs>
</svg>
