<svg width="35" height="23" viewBox="0 0 35 23" fill="none" xmlns="http://www.w3.org/2000/svg">
<g clip-path="url(#clip0_1_6073)">
<path d="M0.376953 0.0327148H34.377V22.033H0.376953V0.0327148Z" fill="#D80027"/>
<path d="M17.377 17.2197C20.8978 17.2197 23.752 14.4495 23.752 11.0322C23.752 7.61497 20.8978 4.84473 17.377 4.84473C13.8561 4.84473 11.002 7.61497 11.002 11.0322C11.002 14.4495 13.8561 17.2197 17.377 17.2197Z" fill="white"/>
<path d="M18.1626 8.66699L19.2563 10.1298L21.0276 9.5723L19.9321 11.0338L21.0257 12.4966L19.255 11.9371L18.1597 13.3986L18.1608 11.5914L16.3901 11.0318L18.1615 10.4744L18.1626 8.66699Z" fill="#D80027"/>
<path d="M18.8259 14.6889C16.7454 14.6889 15.0589 13.052 15.0589 11.0326C15.0589 9.01332 16.7454 7.37641 18.8259 7.37641C19.4746 7.37641 20.085 7.53561 20.6179 7.81591C19.7819 7.0225 18.6387 6.53271 17.3771 6.53271C14.8166 6.53271 12.7407 8.54746 12.7407 11.0327C12.7407 13.518 14.8166 15.5327 17.3771 15.5327C18.6387 15.5327 19.782 15.0429 20.6179 14.2495C20.0849 14.5297 19.4746 14.6889 18.8259 14.6889Z" fill="#D80027"/>
</g>
<defs>
<clipPath id="clip0_1_6073">
<rect width="34" height="22" fill="white" transform="translate(0.376953 0.0327148)"/>
</clipPath>
</defs>
</svg>
