<svg width="35" height="23" viewBox="0 0 35 23" fill="none" xmlns="http://www.w3.org/2000/svg">
<g clip-path="url(#clip0_1_6071)">
<path d="M0.311523 0.0327148H34.3115V22.0327H0.311523V0.0327148Z" fill="#E30A17"/>
<path d="M17.5235 7.66194C16.6552 7.05083 15.6014 6.72276 14.5211 6.72919C11.817 6.72919 9.62988 8.71048 9.62988 11.1614C9.62988 13.6122 11.8236 15.5935 14.5211 15.5935C15.6544 15.5935 16.7016 15.2461 17.5235 14.6608C15.5351 17.1438 11.8435 17.5941 9.28524 15.6578C6.72696 13.7216 6.26302 10.145 8.25795 7.66194C10.2529 5.1789 13.9379 4.7286 16.4962 6.66486C16.8806 6.95433 17.2252 7.29527 17.5235 7.66194ZM20.1679 11.8947L18.9683 13.3035L19.0478 11.4766L17.2981 10.8076L19.1075 10.3187L19.2268 8.49819L20.2607 10.0228L22.0833 9.56603L20.9235 10.9812L21.9375 12.5187L20.1679 11.8947Z" fill="white"/>
</g>
<defs>
<clipPath id="clip0_1_6071">
<rect width="34" height="22" fill="white" transform="translate(0.311523 0.0327148)"/>
</clipPath>
</defs>
</svg>
