<svg width="35" height="23" viewBox="0 0 35 23" fill="none" xmlns="http://www.w3.org/2000/svg">
<g clip-path="url(#clip0_1_6068)">
<path d="M0.180176 0.0327148H34.1802V22.0327H0.180176V0.0327148Z" fill="#0052B4"/>
<path d="M0.180176 11.0327H17.1802V0.0327148H34.1802V22.0327H0.180176V11.0327Z" fill="#00B2EE"/>
<path d="M13.2249 17.6655L14.3355 20.9875L11.4229 18.9341H15.0269L12.1142 20.9875L13.2249 17.6655ZM26.8664 12.4991L27.9771 15.8211L25.0644 13.7678H28.6646L25.752 15.8211L26.8664 12.4991ZM30.886 9.62081L31.9966 12.9428L29.084 10.8895H32.6842L29.7715 12.9428L30.886 9.62081ZM30.886 1.40381L31.9966 4.72581L29.084 2.67248H32.6842L29.7715 4.72581L30.886 1.40381Z" fill="#FFDA44"/>
<path d="M17.1764 0.0327148V7.59705H14.1164L17.1764 9.57705V11.0327H15.6766L10.8033 7.88305V11.0327H6.55329V7.88305L1.67995 11.0327H0.180176V9.57705L3.24018 7.59705H0.180176V3.47205H3.24018L0.180176 1.49571V0.0327148H1.67995L6.55329 3.18238V0.0327148H10.8033V3.18238L15.6766 0.0327148H17.1764Z" fill="white"/>
<path d="M9.74173 0.0327148H7.61484V4.50605H0.180176V6.56671H7.61484V11.0327H9.74173V6.56671H17.1764V4.50605H9.74173V0.0327148Z" fill="#D80027"/>
<path d="M17.1762 1.49561V3.47194H14.1162L17.1762 1.49561Z" fill="#2E52B2"/>
<path d="M0.180176 11.033V10.3253L4.33195 7.59729H5.83173L0.663731 11.033H0.180176ZM0.663731 0.0366211L5.83173 3.47229H4.33195L0.180176 0.744288V0.0366211H0.663731ZM17.1764 0.0402878V0.747954L13.0246 3.47229H11.5248L16.6928 0.0402878H17.1764ZM16.6928 11.033L11.5248 7.59729H13.0246L17.1764 10.3253V11.033H16.6928Z" fill="#D80027"/>
<path d="M27.3766 4.85791L28.4873 8.17991L25.5746 6.12658H29.1749L26.2622 8.17991L27.3766 4.85791ZM22.2426 6.91491L23.3533 10.2369L20.4406 8.18358H24.0409L21.1282 10.2369L22.2426 6.91491ZM23.376 15.8212L24.4866 19.1432L21.574 17.0899H25.1742L22.2615 19.1432L23.376 15.8212ZM18.616 12.2059L19.7266 15.5279L16.814 13.4746H20.4142L17.5015 15.5279L18.616 12.2059ZM18.616 17.0459L19.7266 20.3679L16.814 18.3146H20.4142L17.5015 20.3679L18.616 17.0459Z" fill="#FFDA44"/>
</g>
<defs>
<clipPath id="clip0_1_6068">
<rect width="34" height="22" fill="white" transform="translate(0.180176 0.0327148)"/>
</clipPath>
</defs>
</svg>
