<svg width="35" height="23" viewBox="0 0 35 23" fill="none" xmlns="http://www.w3.org/2000/svg">
<g clip-path="url(#clip0_1_6067)">
<path d="M0.114746 0.0332031H34.1147V22.0327H0.114746V0.0332031Z" fill="#D80027"/>
<path d="M0.114746 0.0332031H17.1147V11.033H0.114746V0.0332031Z" fill="#0052B4"/>
<path d="M12.4953 5.53302L10.9097 6.25689L11.754 7.74737L10.0323 7.42762L9.81405 9.11578L8.61482 7.87422L7.41553 9.11578L7.19738 7.42762L5.47567 7.74731L6.31996 6.25683L4.73438 5.53302L6.31996 4.80915L5.47567 3.31867L7.19738 3.63835L7.41559 1.9502L8.61482 3.19176L9.81412 1.9502L10.0323 3.63835L11.754 3.31867L10.9097 4.80915L12.4953 5.53302Z" fill="white"/>
<path d="M8.61466 7.40263C9.67846 7.40263 10.5408 6.56562 10.5408 5.5331C10.5408 4.50059 9.67846 3.66357 8.61466 3.66357C7.55086 3.66357 6.68848 4.50059 6.68848 5.5331C6.68848 6.56562 7.55086 7.40263 8.61466 7.40263Z" fill="#0052B4"/>
<path d="M8.61483 6.78283C7.90482 6.78283 7.32715 6.22208 7.32715 5.53302C7.32715 4.84388 7.90488 4.2832 8.61483 4.2832C9.32485 4.2832 9.90252 4.84395 9.90252 5.53302C9.90252 6.22208 9.32485 6.78283 8.61483 6.78283Z" fill="white"/>
</g>
<defs>
<clipPath id="clip0_1_6067">
<rect width="34" height="22" fill="white" transform="translate(0.114746 0.0327148)"/>
</clipPath>
</defs>
</svg>
