<svg width="35" height="23" viewBox="0 0 35 23" fill="none" xmlns="http://www.w3.org/2000/svg">
<g clip-path="url(#clip0_1_6066)">
<path d="M0.442383 0.819824H34.4424V22.8198H0.442383V0.819824Z" fill="#232323"/>
<path d="M0.442383 4.48779H34.4424V8.15553H0.442383V4.48779Z" fill="#FFDA44"/>
<path d="M0.442383 8.15527H34.4424V11.823H0.442383V8.15527Z" fill="#D32300"/>
<path d="M0.442383 15.4907H34.4424V19.1585H0.442383V15.4907Z" fill="#FFDA44"/>
<path d="M0.442383 19.1523H34.4424V22.8201H0.442383V19.1523Z" fill="#D32300"/>
<path d="M17.4425 17.0248C20.4022 17.0248 22.8015 14.6959 22.8015 11.823C22.8015 8.95005 20.4022 6.62109 17.4425 6.62109C14.4828 6.62109 12.0835 8.95005 12.0835 11.823C12.0835 14.6959 14.4828 17.0248 17.4425 17.0248Z" fill="white"/>
<path d="M16.0144 9.03831C16.0742 8.94807 14.7128 8.90939 14.7128 8.90939C14.8257 8.74824 15.9347 8.23257 15.9347 8.23257C15.9347 8.23257 15.8749 7.84581 16.114 7.60086L15.8152 6.96916C15.8152 6.96916 16.28 6.75 17.0371 6.75C17.7941 6.75 18.3585 7.20122 18.4316 7.59442L18.0066 7.81358C17.9999 8.11654 18.1195 8.56131 17.721 8.92873C17.3292 9.29615 17.1699 9.3735 17.1566 10.1406C17.1566 10.392 17.3093 10.6691 17.741 10.8947C18.8964 11.4942 20.3042 12.7125 20.7027 13.0799C21.1078 13.4473 21.0413 14.3175 20.8753 14.7043C20.7093 15.091 20.0718 15.6261 19.9257 15.5809C19.7796 15.5423 20.0054 14.9879 19.6933 14.8332C19.6933 14.8332 19.1023 14.3433 18.5777 14.8719C18.0531 15.4005 18.5644 16.4963 18.8367 16.6768C19.1089 16.8572 18.9496 16.999 18.7105 16.999H16.8445C16.5921 16.999 16.4859 16.8508 16.7183 16.6768C17.223 16.4318 17.5417 15.6905 17.2097 15.3682C16.8843 15.0524 15.9945 15.4649 15.782 15.7743C15.596 15.9548 15.1976 16.0064 14.9253 15.6841C14.6531 15.3618 14.6531 15.0137 14.8523 14.8783C15.3171 14.5689 14.8523 14.8783 14.8589 14.8719C14.8589 14.8719 15.6492 14.3175 16.8445 14.2918C17.1035 14.2918 17.1632 14.1499 16.9906 13.9823C16.9906 13.9823 14.9386 12.2162 15.1246 11.1332C15.3238 9.95363 16.4527 9.43796 16.0144 9.03831Z" fill="black"/>
</g>
<defs>
<clipPath id="clip0_1_6066">
<rect width="34" height="22" fill="white" transform="translate(0.442383 0.819824)"/>
</clipPath>
</defs>
</svg>
