<svg width="35" height="23" viewBox="0 0 35 23" fill="none" xmlns="http://www.w3.org/2000/svg">
<g clip-path="url(#clip0_1_6062)">
<path d="M0.409668 0.819824H34.4097V22.8198H0.409668V0.819824Z" fill="white"/>
<path d="M0.409668 0.819824H34.4097V2.51164H0.409668V0.819824ZM0.409668 4.20345H34.4097V5.89526H0.409668V4.20345ZM0.409668 7.58708H34.4097V9.27889H0.409668V7.58708ZM0.409668 10.9707H34.4097V12.6625H0.409668V10.9707ZM0.409668 14.3608H34.4097V16.0526H0.409668V14.3608ZM0.409668 17.7444H34.4097V19.4362H0.409668V17.7444ZM0.409668 21.128H34.4097V22.8198H0.409668V21.128Z" fill="#D80027"/>
<path d="M0.409668 0.819824H17.4097V12.6625H0.409668V0.819824Z" fill="#2E52B2"/>
<path d="M3.57757 9.75489L3.31247 8.9315L3.02085 9.75489H2.146L2.85516 10.2502L2.59005 11.0736L3.31247 10.5654L4.015 11.0736L3.74327 10.2502L4.46568 9.75489H3.57757ZM7.30896 9.75489L7.03722 8.9315L6.75886 9.75489H5.88401L6.59317 10.2502L6.32806 11.0736L7.03722 10.5654L7.75301 11.0736L7.48791 10.2502L8.19707 9.75489H7.30896ZM11.0536 9.75489L10.7686 8.9315L10.5035 9.75489H9.60876L10.3378 10.2502L10.0594 11.0736L10.7686 10.5654L11.4977 11.0736L11.2193 10.2502L11.9285 9.75489H11.0536ZM14.7784 9.75489L14.5132 8.9315L14.2349 9.75489H13.3534L14.0692 10.2502L13.8041 11.0736L14.5132 10.5654L15.229 11.0736L14.944 10.2502L15.6731 9.75489H14.7784ZM7.03722 5.66366L6.75886 6.48705H5.88401L6.59317 6.99524L6.32806 7.80577L7.03722 7.30401L7.75301 7.80577L7.48791 6.99524L8.19707 6.48705H7.30896L7.03722 5.66366ZM3.31247 5.66366L3.02085 6.48705H2.146L2.85516 6.99524L2.59005 7.80577L3.31247 7.30401L4.015 7.80577L3.74327 6.99524L4.46568 6.48705H3.57757L3.31247 5.66366ZM10.7686 5.66366L10.5035 6.48705H9.60876L10.3378 6.99524L10.0594 7.80577L10.7686 7.30401L11.4977 7.80577L11.2193 6.99524L11.9285 6.48705H11.0536L10.7686 5.66366ZM14.5132 5.66366L14.2349 6.48705H13.3534L14.0692 6.99524L13.8041 7.80577L14.5132 7.30401L15.229 7.80577L14.944 6.99524L15.6731 6.48705H14.7784L14.5132 5.66366ZM3.31247 2.40869L3.02085 3.21922H2.146L2.85516 3.7274L2.59005 4.54436L3.31247 4.03618L4.015 4.54436L3.74327 3.7274L4.46568 3.21922H3.57757L3.31247 2.40869ZM7.03722 2.40869L6.75886 3.21922H5.88401L6.59317 3.7274L6.32806 4.54436L7.03722 4.03618L7.75301 4.54436L7.48791 3.7274L8.19707 3.21922H7.30896L7.03722 2.40869ZM10.7686 2.40869L10.5035 3.21922H9.60876L10.3378 3.7274L10.0594 4.54436L10.7686 4.03618L11.4977 4.54436L11.2193 3.7274L11.9285 3.21922H11.0536L10.7686 2.40869ZM14.5132 2.40869L14.2349 3.21922H13.3534L14.0692 3.7274L13.8041 4.54436L14.5132 4.03618L15.229 4.54436L14.944 3.7274L15.6731 3.21922H14.7784L14.5132 2.40869Z" fill="white"/>
</g>
<defs>
<clipPath id="clip0_1_6062">
<rect width="34" height="22" fill="white" transform="translate(0.409668 0.819824)"/>
</clipPath>
</defs>
</svg>
