<svg width="35" height="23" viewBox="0 0 35 23" fill="none" xmlns="http://www.w3.org/2000/svg">
<g clip-path="url(#clip0_1_6060)">
<path d="M0.344238 0.819824H34.3442V22.8198H0.344238V0.819824Z" fill="white"/>
<path d="M0.344238 0.819824H34.3442V2.51164H0.344238V0.819824ZM0.344238 4.20345H34.3442V5.89526H0.344238V4.20345ZM0.344238 7.58708H34.3442V9.27889H0.344238V7.58708ZM0.344238 10.9707H34.3442V12.6625H0.344238V10.9707ZM0.344238 14.3608H34.3442V16.0526H0.344238V14.3608ZM0.344238 17.7444H34.3442V19.4362H0.344238V17.7444ZM0.344238 21.128H34.3442V22.8198H0.344238V21.128Z" fill="#D80027"/>
<path d="M0.344238 0.819824H17.3442V12.6625H0.344238V0.819824Z" fill="#2E52B2"/>
<path d="M3.51215 9.75489L3.24704 8.9315L2.95542 9.75489H2.08057L2.78973 10.2502L2.52462 11.0736L3.24704 10.5654L3.94957 11.0736L3.67784 10.2502L4.40025 9.75489H3.51215ZM7.24353 9.75489L6.97179 8.9315L6.69343 9.75489H5.81858L6.52774 10.2502L6.26263 11.0736L6.97179 10.5654L7.68758 11.0736L7.42248 10.2502L8.13164 9.75489H7.24353ZM10.9882 9.75489L10.7032 8.9315L10.4381 9.75489H9.54333L10.2724 10.2502L9.99402 11.0736L10.7032 10.5654L11.4322 11.0736L11.1539 10.2502L11.863 9.75489H10.9882ZM14.7129 9.75489L14.4478 8.9315L14.1695 9.75489H13.288L14.0038 10.2502L13.7387 11.0736L14.4478 10.5654L15.1636 11.0736L14.8786 10.2502L15.6077 9.75489H14.7129ZM6.97179 5.66366L6.69343 6.48705H5.81858L6.52774 6.99524L6.26263 7.80577L6.97179 7.30401L7.68758 7.80577L7.42248 6.99524L8.13164 6.48705H7.24353L6.97179 5.66366ZM3.24704 5.66366L2.95542 6.48705H2.08057L2.78973 6.99524L2.52462 7.80577L3.24704 7.30401L3.94957 7.80577L3.67784 6.99524L4.40025 6.48705H3.51215L3.24704 5.66366ZM10.7032 5.66366L10.4381 6.48705H9.54333L10.2724 6.99524L9.99402 7.80577L10.7032 7.30401L11.4322 7.80577L11.1539 6.99524L11.863 6.48705H10.9882L10.7032 5.66366ZM14.4478 5.66366L14.1695 6.48705H13.288L14.0038 6.99524L13.7387 7.80577L14.4478 7.30401L15.1636 7.80577L14.8786 6.99524L15.6077 6.48705H14.7129L14.4478 5.66366ZM3.24704 2.40869L2.95542 3.21922H2.08057L2.78973 3.7274L2.52462 4.54436L3.24704 4.03618L3.94957 4.54436L3.67784 3.7274L4.40025 3.21922H3.51215L3.24704 2.40869ZM6.97179 2.40869L6.69343 3.21922H5.81858L6.52774 3.7274L6.26263 4.54436L6.97179 4.03618L7.68758 4.54436L7.42248 3.7274L8.13164 3.21922H7.24353L6.97179 2.40869ZM10.7032 2.40869L10.4381 3.21922H9.54333L10.2724 3.7274L9.99402 4.54436L10.7032 4.03618L11.4322 4.54436L11.1539 3.7274L11.863 3.21922H10.9882L10.7032 2.40869ZM14.4478 2.40869L14.1695 3.21922H13.288L14.0038 3.7274L13.7387 4.54436L14.4478 4.03618L15.1636 4.54436L14.8786 3.7274L15.6077 3.21922H14.7129L14.4478 2.40869Z" fill="white"/>
</g>
<defs>
<clipPath id="clip0_1_6060">
<rect width="34" height="22" fill="white" transform="translate(0.344238 0.819824)"/>
</clipPath>
</defs>
</svg>
