<svg width="35" height="23" viewBox="0 0 35 23" fill="none" xmlns="http://www.w3.org/2000/svg">
<g clip-path="url(#clip0_1_6106)">
<path d="M0.278809 0.819824H34.2788V22.8198H0.278809V0.819824Z" fill="white"/>
<path d="M0.278809 3.26416H34.2788V5.7086H0.278809V3.26416ZM0.278809 8.15305H34.2788V10.5975H0.278809V8.15305ZM0.278809 13.0419H34.2788V15.4864H0.278809V13.0419ZM0.278809 17.9308H34.2788V20.3753H0.278809V17.9308Z" fill="#0038A8"/>
<path d="M0.278809 0.819824H17.2788V13.042H0.278809V0.819824Z" fill="white"/>
<path d="M8.78221 9.74195L7.78143 11.1958L7.52958 9.46535L5.9787 10.3531L6.52217 8.68698L4.71945 8.8285L5.95219 7.55482L4.27539 6.93084L5.95882 6.30687L4.71945 5.03318L6.51555 5.18114L5.97208 3.51505L7.52295 4.40277L7.78143 2.67236L8.78221 4.12616L9.78299 2.67236L10.0348 4.40277L11.5857 3.51505L11.0423 5.18114L12.8384 5.03961L11.6056 6.3133L13.289 6.93728L11.6056 7.56125L12.8384 8.83494L11.0423 8.69342L11.5857 10.3595L10.0348 9.47178L9.77637 11.2022L8.78221 9.74195ZM8.78221 9.70979C10.3662 9.76768 11.6984 8.57763 11.758 7.0402C11.8177 5.50277 10.5916 4.20979 9.00755 4.1519H8.78221C7.1982 4.20336 5.95882 5.48991 6.01184 7.0209C6.05161 8.48757 7.2711 9.66476 8.78221 9.70979ZM8.78221 9.02792C7.53621 9.02792 6.5288 8.05014 6.5288 6.84078C6.5288 5.63143 7.53621 4.65365 8.78221 4.65365C10.0282 4.65365 11.0356 5.63143 11.0356 6.84078C11.0356 8.05014 10.0216 9.02792 8.78221 9.02792Z" fill="#FED443"/>
</g>
<defs>
<clipPath id="clip0_1_6106">
<rect width="34" height="22" fill="white" transform="translate(0.278809 0.819824)"/>
</clipPath>
</defs>
</svg>
