<svg width="35" height="23" viewBox="0 0 35 23" fill="none" xmlns="http://www.w3.org/2000/svg">
<g clip-path="url(#clip0_1_6135)">
<path d="M0.246094 0.820312H34.2461V22.8199H0.246094V0.820312Z" fill="#D80027"/>
<path d="M0.246094 16.124H34.2461V22.8194H0.246094V16.124Z" fill="#6DA544"/>
<path d="M0.246094 0.820312H34.2461V7.55664H0.246094V0.820312Z" fill="#338AF3"/>
<path d="M0.246094 8.91162H34.2461V14.6902H0.246094V8.91162Z" fill="white"/>
<path d="M0.246094 0.820312H34.2461V7.55664H0.246094V0.820312Z" fill="#338AF3"/>
<path d="M12.776 4.1878C12.776 3.15758 13.522 2.29681 14.5182 2.08572C14.3621 2.05253 14.2028 2.03574 14.0431 2.03564C12.8184 2.03564 11.8257 2.99916 11.8257 4.1878C11.8257 5.37645 12.8184 6.33996 14.0431 6.33996C14.2063 6.33996 14.3651 6.32236 14.5182 6.28988C13.522 6.07879 12.776 5.21802 12.776 4.1878ZM15.8287 5.16601L15.9788 5.61441H16.4646L16.0716 5.89162L16.2217 6.33996L15.8287 6.06281L15.4357 6.33996L15.5858 5.89162L15.1928 5.61441H15.6786L15.8287 5.16601ZM17.3791 5.16601L17.5292 5.61441H18.0149L17.622 5.89162L17.7721 6.33996L17.3791 6.06281L16.9861 6.33996L17.1362 5.89162L16.7433 5.61441H17.229L17.3791 5.16601ZM18.9295 5.16601L19.0796 5.61441H19.5653L19.1724 5.89162L19.3225 6.33996L18.9295 6.06281L18.5365 6.33996L18.6866 5.89162L18.2936 5.61441H18.7793L18.9295 5.16601ZM20.4799 5.16601L20.6301 5.61441H21.1159L20.7228 5.89162L20.8729 6.33996L20.4799 6.06281L20.0869 6.33996L20.2371 5.89162L19.844 5.61441H20.3297L20.4799 5.16601ZM22.0303 5.16601L22.1804 5.61441H22.6662L22.2732 5.89162L22.4233 6.33996L22.0303 6.06281L21.6373 6.33996L21.7874 5.89162L21.3945 5.61441H21.8802L22.0303 5.16601ZM17.3791 3.60083L17.5292 4.04916H18.0149L17.622 4.32631L17.7721 4.77471L17.3791 4.49763L16.9861 4.77471L17.1362 4.32631L16.7433 4.04916H17.229L17.3791 3.60083ZM18.9295 3.60083L19.0796 4.04916H19.5653L19.1724 4.32631L19.3225 4.77471L18.9295 4.49763L18.5365 4.77471L18.6866 4.32631L18.2936 4.04916H18.7793L18.9295 3.60083ZM20.4799 3.60083L20.6301 4.04916H21.1159L20.7228 4.32631L20.8729 4.77471L20.4799 4.49763L20.0869 4.77471L20.2371 4.32631L19.844 4.04916H20.3297L20.4799 3.60083ZM22.0303 3.60083L22.1804 4.04916H22.6662L22.2732 4.32631L22.4233 4.77471L22.0303 4.49763L21.6373 4.77471L21.7874 4.32631L21.3945 4.04916H21.8802L22.0303 3.60083ZM18.9295 2.03564L19.0796 2.48398H19.5653L19.1724 2.76113L19.3225 3.20953L18.9295 2.93238L18.5365 3.20953L18.6866 2.76113L18.2936 2.48398H18.7793L18.9295 2.03564ZM20.4799 2.03564L20.6301 2.48398H21.1159L20.7228 2.76113L20.8729 3.20953L20.4799 2.93238L20.0869 3.20953L20.2371 2.76113L19.844 2.48398H20.3297L20.4799 2.03564ZM22.0303 2.03564L22.1804 2.48398H22.6662L22.2732 2.76113L22.4233 3.20953L22.0303 2.93238L21.6373 3.20953L21.7874 2.76113L21.3945 2.48398H21.8802L22.0303 2.03564Z" fill="white"/>
</g>
<defs>
<clipPath id="clip0_1_6135">
<rect width="34" height="22" fill="white" transform="translate(0.246094 0.819824)"/>
</clipPath>
</defs>
</svg>
