<svg width="35" height="23" viewBox="0 0 35 23" fill="none" xmlns="http://www.w3.org/2000/svg">
<g clip-path="url(#clip0_1_6057)">
<path d="M0.212891 0.819824H34.2129V22.8194H0.212891V0.819824Z" fill="#FFDA44"/>
<path d="M17.2129 0.819824H34.2129V22.8201H17.2129V0.819824Z" fill="white"/>
<path d="M21.5526 10.3914L23.6824 13.1262C23.3469 13.6193 23.3487 14.2838 23.7367 14.7821C24.229 15.4142 25.156 15.5393 25.8074 15.0615C26.4586 14.5837 26.5875 13.6839 26.0952 13.0517C25.7071 12.5535 25.0489 12.3706 24.4685 12.5493L21.149 8.28711L20.3629 8.8639L19.1836 9.72912L20.3722 11.2552L21.5526 10.3914ZM24.6189 13.5355C24.6705 13.4976 24.7293 13.47 24.7919 13.4541C24.8546 13.4383 24.9198 13.4346 24.9839 13.4433C25.048 13.4519 25.1097 13.4727 25.1655 13.5045C25.2213 13.5363 25.2701 13.5785 25.3092 13.6286C25.3482 13.6787 25.3767 13.7358 25.393 13.7966C25.4093 13.8574 25.4131 13.9207 25.4042 13.9829C25.3952 14.0451 25.3738 14.105 25.341 14.1592C25.3083 14.2133 25.2648 14.2607 25.2132 14.2986C25.109 14.3751 24.9777 14.4083 24.8482 14.3908C24.7187 14.3733 24.6017 14.3067 24.5229 14.2055C24.4441 14.1043 24.4099 13.9768 24.4279 13.8512C24.4459 13.7255 24.5146 13.612 24.6189 13.5355Z" fill="#ACABB1"/>
<path d="M25.2061 11.2552L26.3947 9.72912L25.2154 8.8639L24.4293 8.28711L21.1098 12.5493C20.5294 12.3705 19.8713 12.5534 19.4832 13.0517C18.9908 13.6839 19.1197 14.5837 19.771 15.0615C20.4223 15.5394 21.3493 15.4143 21.8417 14.7821C22.2298 14.2838 22.2315 13.6193 21.8959 13.1262L24.0258 10.3914L25.2061 11.2552ZM21.0555 14.2053C20.9767 14.3065 20.8597 14.3731 20.7302 14.3906C20.6008 14.4081 20.4695 14.3749 20.3652 14.2984C20.2609 14.2219 20.1922 14.1083 20.1742 13.9827C20.1563 13.857 20.1904 13.7296 20.2692 13.6284C20.3083 13.5783 20.3571 13.5361 20.4129 13.5043C20.4687 13.4725 20.5304 13.4517 20.5945 13.4431C20.6586 13.4344 20.7238 13.4381 20.7865 13.4539C20.8491 13.4698 20.9079 13.4974 20.9595 13.5353C21.0112 13.5732 21.0546 13.6205 21.0873 13.6747C21.1201 13.7289 21.1416 13.7888 21.1505 13.851C21.1594 13.9132 21.1556 13.9765 21.1393 14.0373C21.123 14.0981 21.0945 14.1552 21.0555 14.2053Z" fill="#FFDA44"/>
</g>
<defs>
<clipPath id="clip0_1_6057">
<rect width="34" height="22" fill="white" transform="translate(0.212891 0.819824)"/>
</clipPath>
</defs>
</svg>
