<svg width="35" height="23" viewBox="0 0 35 23" fill="none" xmlns="http://www.w3.org/2000/svg">
<g clip-path="url(#clip0_1_6147)">
<path d="M0.147461 0.819824H34.1475V8.15316H0.147461V0.819824Z" fill="#FFCE00"/>
<path d="M0.147461 8.15332H34.1475V15.4867H0.147461V8.15332Z" fill="#203899"/>
<path d="M0.147461 15.4863H34.1475V22.8197H0.147461V15.4863Z" fill="#D82B2B"/>
<path d="M18.4773 8.71045L18.6889 9.38512L19.3689 9.59045L18.7795 9.98645L18.7946 10.6904L18.2204 10.2651L17.5404 10.4851L17.7671 9.83978L17.344 9.28245H18.0542L18.4773 8.71045ZM15.8026 8.71045L16.2106 9.28245H16.9209L16.4978 9.83978L16.7244 10.4998L16.0444 10.2651L15.4702 10.6758L15.4853 9.98645L14.896 9.57578L15.576 9.38512L15.8026 8.71045ZM21.0009 9.53178L20.9858 10.2358L21.5751 10.6318L20.88 10.8371L20.6684 11.4971L20.2604 10.9398H19.5351L19.9733 10.3824L19.7466 9.72245L20.4266 9.95712L21.0009 9.53178ZM13.2791 9.56112L13.8835 9.95712L14.5484 9.69312L14.352 10.3678L14.8053 10.8958L14.0951 10.9251L13.7022 11.5118L13.4604 10.8664L12.7653 10.6904L13.3244 10.2504L13.2791 9.56112ZM23.1769 11.2771L22.8746 11.9224L23.2524 12.5091L22.5422 12.4358L22.0738 12.9638L21.9226 12.2891L21.2729 12.0251L21.8924 11.6731L21.9378 10.9838L22.4666 11.4384L23.1769 11.2771ZM23.464 12.9198L23.7813 13.5504L24.4915 13.6531L23.9778 14.1371L24.0986 14.8118L23.464 14.4891L22.8293 14.8118L22.9502 14.1371L22.4364 13.6531L23.1466 13.5504L23.464 12.9198ZM10.7253 12.8464L11.0426 13.4771L11.7529 13.5651L11.2391 14.0491L11.36 14.7384L10.7253 14.4158L10.0906 14.7384L10.2115 14.0491L9.69775 13.5651L10.408 13.4771L10.7253 12.8464ZM11.1938 11.1598L11.8738 11.3651L12.448 10.9398V11.6438L13.0373 12.0251L12.3573 12.2451L12.1609 12.9198L11.7378 12.3624L11.0275 12.3771L11.4355 11.8198L11.1938 11.1598Z" fill="white"/>
</g>
<defs>
<clipPath id="clip0_1_6147">
<rect width="34" height="22" fill="white" transform="translate(0.147461 0.819824)"/>
</clipPath>
</defs>
</svg>
