<svg width="35" height="23" viewBox="0 0 35 23" fill="none" xmlns="http://www.w3.org/2000/svg">
<g clip-path="url(#clip0_1_6098)">
<path d="M0.114746 0.819824H34.1147V22.8201H0.114746V0.819824Z" fill="#0052B4"/>
<path d="M17.1147 0.819824V8.38186H14.0555L17.1147 10.3619V11.8196H15.6121L10.7397 8.66661V11.8196H6.48975V8.66661L1.61739 11.8196H0.114746V10.3619L3.17402 8.38186H0.114746V4.25686H3.17402L0.114746 2.27756V0.819824H1.61739L6.48975 3.97204V0.819824H10.7397V3.97204L15.6121 0.819824H17.1147Z" fill="white"/>
<path d="M9.67725 0.819336H7.55225V5.28807H0.114746V7.35057H7.55225V11.8194H9.67725V7.35057H17.1147V5.28807H9.67725V0.819336Z" fill="#D80027"/>
<path d="M0.114746 0.819336V1.79148L3.92494 4.25688H5.42725L0.114746 0.819336ZM17.1147 0.819336V1.79148L13.3046 4.25688H11.8022L17.1147 0.819336Z" fill="#D80027"/>
<path d="M17.1149 2.27783V4.25732H14.0557L17.1149 2.27783Z" fill="#2E52B2"/>
<path d="M0.114746 0.819336V1.79148L3.92494 4.25688H5.42725L0.114746 0.819336ZM17.1147 0.819336V1.79148L13.3046 4.25688H11.8022L17.1147 0.819336Z" fill="#D80027"/>
<path d="M17.1149 2.27783V4.25732H14.0557L17.1149 2.27783Z" fill="#2E52B2"/>
<path d="M0.114746 11.8199V10.8478L3.92494 8.38232H5.42725L0.114746 11.8199ZM17.1147 11.8199V10.8478L13.3046 8.38232H11.8022L17.1147 11.8199Z" fill="#D80027"/>
<path d="M25.615 12.0586L22.5518 15.0318C23.1258 16.1065 24.2817 16.8412 25.615 16.8412C26.9483 16.8412 28.1042 16.1064 28.6783 15.0318L25.615 12.0586Z" fill="#FFDA44"/>
<path d="M22.1655 6.79785V12.0588C22.1656 14.6214 25.6148 15.4065 25.6148 15.4065C25.6148 15.4065 29.064 14.6214 29.0641 12.0587V6.79785H22.1655Z" fill="#6DA544"/>
<path d="M24.8755 9.18896H26.3538V13.0148H24.8755V9.18896Z" fill="white"/>
<path d="M25.6146 9.90641C26.0228 9.90641 26.3537 9.58523 26.3537 9.18904C26.3537 8.79285 26.0228 8.47168 25.6146 8.47168C25.2064 8.47168 24.8755 8.79285 24.8755 9.18904C24.8755 9.58523 25.2064 9.90641 25.6146 9.90641Z" fill="#A2001D"/>
<path d="M23.1514 7.75391H24.1368V8.71039H23.1514V7.75391ZM23.1514 9.90613H24.1368V10.8626H23.1514V9.90613ZM23.1514 12.0583H24.1368V13.0148H23.1514V12.0583ZM27.0932 7.75391H28.0786V8.71039H27.0932V7.75391ZM27.0932 9.90613H28.0786V10.8626H27.0932V9.90613ZM27.0932 12.0583H28.0786V13.0148H27.0932V12.0583Z" fill="#FFDA44"/>
</g>
<defs>
<clipPath id="clip0_1_6098">
<rect width="34" height="22" fill="white" transform="translate(0.114746 0.819824)"/>
</clipPath>
</defs>
</svg>
