<svg width="35" height="23" viewBox="0 0 35 23" fill="none" xmlns="http://www.w3.org/2000/svg">
<g clip-path="url(#clip0_1_6198)">
<path d="M0.0820312 0.819824H34.082V22.8198H0.0820312V0.819824Z" fill="white"/>
<path d="M26.4917 11.5394L23.105 17.8371C23.032 17.9661 23.0851 18.1272 23.2246 18.1981C23.3574 18.269 23.5234 18.2174 23.5964 18.0821L26.9831 11.7844C27.0496 11.649 26.9898 11.4879 26.8503 11.4299C26.7175 11.3719 26.5648 11.417 26.4917 11.5394Z" fill="#1583C4"/>
<path d="M26.9699 12.938L23.1316 17.7983C23.0453 17.9207 23.0785 18.0883 23.2046 18.1721C23.3175 18.2495 23.4769 18.2301 23.5699 18.127L27.4082 13.2668C27.5011 13.1507 27.4812 12.9831 27.355 12.8929C27.2355 12.7962 27.0628 12.822 26.9699 12.938Z" fill="#1583C4"/>
<path d="M25.2501 12.5061L23.0919 17.8627C23.0388 17.9981 23.1052 18.1592 23.2513 18.2108C23.3907 18.2624 23.5567 18.1979 23.6099 18.0561L25.7681 12.6995C25.8146 12.5577 25.7415 12.4094 25.5954 12.3579C25.456 12.3192 25.3099 12.3837 25.2501 12.5061Z" fill="#1583C4"/>
<path d="M8.19017 11.9002C8.21673 12.0098 8.26985 12.2031 8.33626 12.4481C8.44915 12.8606 8.57532 13.2732 8.70813 13.6535C8.86087 14.0982 9.68431 15.6775 10.0495 16.1738C10.5077 16.7991 10.9859 17.4179 11.4773 18.0174C11.5835 18.1399 11.7761 18.1527 11.9023 18.0496C12.0218 17.9465 12.0417 17.7724 11.9488 17.65C11.464 17.0569 10.9925 16.451 10.5409 15.8322C10.262 15.4583 9.39876 13.8275 9.27923 13.4665C9.08665 12.9057 8.92063 12.3321 8.77454 11.7584C8.74134 11.6037 8.58196 11.5005 8.42259 11.5328C8.26321 11.565 8.15696 11.7197 8.19017 11.8744C8.18352 11.8873 8.19017 11.8937 8.19017 11.9002Z" fill="#409347"/>
<path d="M19.8113 8.22599C19.8113 8.22599 18.6426 3.57846 17.4141 3.57846C16.9559 3.57846 16.6238 3.53979 16.3914 3.99101C16.3316 4.10059 15.0168 3.88787 15.123 5.33176C15.1562 5.77653 15.1961 4.70006 16.1125 5.1126C16.5309 5.30598 15.0234 8.21954 15.0234 8.21954H19.8113V8.22599Z" fill="#FFD836" stroke="#231F20" stroke-width="0.0819672" stroke-miterlimit="10"/>
<path d="M31.0342 3.93946L24.9978 5.35757C19.9974 6.53718 22.2021 8.21957 22.2021 8.21957L17.4142 8.99308L12.6264 8.21957C12.6264 8.21957 14.831 6.53718 9.83065 5.35757L3.79432 3.93946C2.94432 3.73964 2.61229 4.15862 3.09041 4.88057C3.09041 4.88057 10.1693 11.5844 11.5107 12.1C12.8521 12.6221 14.2201 12.1 14.2201 12.1C14.2201 12.1 13.2306 12.6608 12.6264 13.6471C12.0154 14.6333 12.3209 15.8838 10.0431 16.2383C9.67792 16.6638 9.71112 17.1408 10.2357 17.5211C10.7603 17.8949 15.0236 14.4206 15.0236 14.4206C15.0236 14.4206 13.4299 15.9934 13.4299 16.7476C13.4299 17.0763 16.3584 20.2155 17.4209 20.2155C18.4834 20.2155 21.4119 17.0763 21.4119 16.7476C21.4119 15.9934 19.8182 14.4206 19.8182 14.4206C19.8182 14.4206 24.0814 17.8949 24.606 17.5211C25.1307 17.1472 25.3631 16.277 24.792 16.2383C22.9326 16.1223 22.8197 14.6333 22.2088 13.6471C21.5978 12.6608 20.615 12.1 20.615 12.1C20.615 12.1 21.983 12.6221 23.3244 12.1C24.6658 11.5779 31.7381 4.88057 31.7381 4.88057C32.2162 4.15862 31.8908 3.73964 31.0342 3.93946Z" fill="#FFD836" stroke="#231F20" stroke-width="0.0819672" stroke-miterlimit="10"/>
<path d="M13.4497 8.02637V13.2025C13.4497 16.1483 17.4142 17.0507 17.4142 17.0507C17.4142 17.0507 21.3786 16.1483 21.3786 13.2025V8.02637H13.4497Z" fill="white" stroke="#231F20" stroke-width="0.0819672" stroke-miterlimit="10"/>
<path d="M15.0366 9.6958V15.9677C15.5812 16.3545 16.1655 16.6252 16.6237 16.7992V9.6958H15.0366ZM19.7913 9.6958V15.9677C19.2468 16.3545 18.6624 16.6252 18.2042 16.7992V9.6958H19.7913Z" fill="#D80027"/>
<path d="M13.4497 8.02637H21.3786V10.4694H13.4497V8.02637Z" fill="#0052B4"/>
<path d="M4.07295 14.3887L2.61865 10.6436H1.12451L3.23623 15.8519H4.90967L7.00146 10.6436H5.50732L4.07295 14.3887ZM30.0644 10.6113H31.3194V15.8777H30.0644V10.6113Z" fill="#1583C4"/>
</g>
<defs>
<clipPath id="clip0_1_6198">
<rect width="34" height="22" fill="white" transform="translate(0.0820312 0.819824)"/>
</clipPath>
</defs>
</svg>
