<svg width="35" height="23" viewBox="0 0 35 23" fill="none" xmlns="http://www.w3.org/2000/svg">
<g clip-path="url(#clip0_1_6076)">
<path d="M0.311523 0.820312H34.3115V22.8199H0.311523V0.820312Z" fill="black"/>
<path d="M34.3115 11.8198V22.8196H0.311523L14.6012 11.8198H34.3115Z" fill="#6DA544"/>
<path d="M34.3115 0.820312V11.8201H14.6012L0.311523 0.820312H34.3115Z" fill="#D80027"/>
<path d="M14.9874 10.744L2.09573 0.820312H0.906258L14.7299 11.4614H34.3115V10.744H14.9874ZM0.906258 22.8199H2.09573L14.9874 12.8962H34.3115V12.1788H14.7299L0.906258 22.8199ZM0.311523 1.27812V2.19375L12.8169 11.8201L0.311523 21.4464V22.362L14.0064 11.8201L0.311523 1.27812Z" fill="black"/>
<path d="M0.906258 0.820312H0.311523V1.27812L14.0064 11.8201L0.311523 22.362V22.8199H0.906258L14.7299 12.1788H34.3115V11.4614H14.7299L0.906258 0.820312Z" fill="#FFDA44"/>
<path d="M4.54287 14.1649V13.2435C5.49015 13.2435 6.2608 12.4955 6.2608 11.5762C6.2608 10.9257 5.71553 10.3965 5.0453 10.3965C4.58875 10.3965 4.21728 10.757 4.21728 11.2002C4.21728 11.4836 4.45481 11.7141 4.7468 11.7141C4.82616 11.714 4.90225 11.6834 4.95836 11.6289C5.01448 11.5745 5.04605 11.5006 5.04616 11.4236H5.99544C5.99544 12.0918 5.4353 12.6356 4.74687 12.6356C3.93146 12.6354 3.26807 11.9915 3.26807 11.2001C3.26807 10.2489 4.06534 9.4751 5.04536 9.4751C6.23902 9.4751 7.21014 10.4176 7.21014 11.5762C7.21014 13.0035 6.01363 14.1649 4.54287 14.1649Z" fill="#FFDA44"/>
</g>
<defs>
<clipPath id="clip0_1_6076">
<rect width="34" height="22" fill="white" transform="translate(0.311523 0.819824)"/>
</clipPath>
</defs>
</svg>
