<svg width="35" height="23" viewBox="0 0 35 23" fill="none" xmlns="http://www.w3.org/2000/svg">
<g clip-path="url(#clip0_1_6064)">
<path d="M0.311523 0.688477H34.3115V22.6887H0.311523V0.688477Z" fill="#D80027"/>
<path d="M0.311523 0.688477H17.3115V11.6882H0.311523V0.688477Z" fill="#0052B4"/>
<path d="M11.3004 6.90545L11.484 7.45356H12.0776L11.5973 7.7922L11.7808 8.34024L11.3004 8.00154L10.8201 8.34024L11.0036 7.7922L10.5233 7.45356H11.1169L11.3004 6.90545ZM8.3185 2.60107L8.62437 3.51457H9.61383L8.8133 4.07899L9.1191 4.99235L8.3185 4.42787L7.51804 4.99235L7.82384 4.07899L7.02325 3.51457H8.01277L8.3185 2.60107ZM11.275 3.55762L11.5809 4.47105H12.5704L11.7698 5.03547L12.0756 5.94897L11.275 5.38436L10.4746 5.94897L10.7803 5.03547L9.97979 4.47105H10.9692L11.275 3.55762ZM8.93807 7.38376L9.24394 8.29719H10.2334L9.43287 8.86167L9.7386 9.77504L8.93807 9.21049L8.13761 9.77504L8.44335 8.86167L7.64282 8.29719H8.63227L8.93807 7.38376ZM6.34757 4.99235L6.65337 5.90585H7.64282L6.84229 6.47026L7.14803 7.38376L6.34757 6.81915L5.54704 7.38376L5.85277 6.47026L5.05225 5.90585H6.0417L6.34757 4.99235Z" fill="white"/>
</g>
<defs>
<clipPath id="clip0_1_6064">
<rect width="34" height="22" fill="white" transform="translate(0.311523 0.688477)"/>
</clipPath>
</defs>
</svg>
