<svg width="35" height="23" viewBox="0 0 35 23" fill="none" xmlns="http://www.w3.org/2000/svg">
<g clip-path="url(#clip0_1_6054)">
<path d="M0.246094 0.688477H34.2461V22.6891H0.246094V0.688477Z" fill="#0052B4"/>
<path d="M14.9034 3.436L15.4313 4.47435L16.6114 4.64064L15.7574 5.44889L15.9593 6.58972L14.9034 6.05088L13.8475 6.58972L14.0487 5.44889L13.1948 4.64064L14.3755 4.47435L14.9034 3.436ZM19.589 3.43213L20.117 4.46983L21.2977 4.63677L20.4437 5.44438L20.6449 6.58585L19.589 6.04702L18.5332 6.58585L18.735 5.44438L17.8811 4.63677L19.0611 4.46983L19.589 3.43213ZM23.7115 4.16432L24.2395 5.20267L25.4195 5.36896L24.5655 6.17721L24.7674 7.31805L23.7115 6.77986L22.6557 7.31805L22.8575 6.17721L22.0029 5.36896L23.1836 5.20267L23.7115 4.16432ZM27.8958 5.34383L28.4237 6.38218L29.6038 6.54911L28.7498 7.35672L28.9516 8.49819L27.8958 7.95936L26.8399 8.49819L27.0411 7.35672L26.1871 6.54911L27.3679 6.38218L27.8958 5.34383ZM10.7809 4.16432L11.3088 5.20267L12.4895 5.36896L11.6349 6.17721L11.8368 7.31805L10.7809 6.77986L9.72504 7.31805L9.92691 6.17721L9.07293 5.36896L10.253 5.20267L10.7809 4.16432ZM6.59664 5.34383L7.12457 6.38218L8.30527 6.54911L7.45129 7.35672L7.6525 8.49819L6.59664 7.95936L5.54078 8.49819L5.74266 7.35672L4.88867 6.54911L6.06871 6.38218L6.59664 5.34383Z" fill="white"/>
<path d="M14.6913 17.4033L12.8838 16.5261L11.0762 13.0179H12.8838L14.6913 11.2635L15.5951 9.50905L17.4027 8.63184L18.3065 9.50905L20.1141 10.3863V11.2635L21.0179 12.1407L23.7292 13.8951L22.8241 16.5268L20.1127 19.1584L19.2089 17.404L16.4976 19.1584V20.9129L15.5938 20.0356L14.6913 17.4033Z" fill="#FFDA44"/>
</g>
<defs>
<clipPath id="clip0_1_6054">
<rect width="34" height="22" fill="white" transform="translate(0.246094 0.688477)"/>
</clipPath>
</defs>
</svg>
