<svg width="35" height="23" viewBox="0 0 35 23" fill="none" xmlns="http://www.w3.org/2000/svg">
<g clip-path="url(#clip0_1_6053)">
<path d="M0.147461 0.688477H34.1475V22.6885H0.147461V0.688477Z" fill="white"/>
<path d="M28.7075 15.2087C28.292 15.4654 28.7075 15.8687 28.4809 15.9054C28.2542 15.942 27.9142 15.392 28.4053 14.9887C29.0097 14.4387 30.5964 14.9887 30.6342 16.5654C30.6342 17.372 30.2942 19.0587 27.9142 19.0587C25.0431 19.0587 23.6075 16.9687 23.6075 14.8787C23.6075 13.1187 25.0053 9.9287 26.0631 9.52536C27.2342 9.08536 28.5942 8.24203 28.632 7.69203C28.632 7.5087 28.1031 7.65536 27.3853 8.02203C26.2142 8.64536 24.892 8.9387 24.892 8.53536C24.892 8.13203 25.9875 7.3987 26.4031 6.8487C26.8564 6.26203 26.7431 4.83203 27.5364 4.83203C30.4075 4.83203 31.2764 7.65536 30.1809 9.12203C29.4631 10.0754 31.8053 9.4887 31.8053 9.4887C31.8053 9.4887 31.8053 11.432 30.5964 12.1654C29.4631 12.8254 28.7831 13.5954 28.7831 13.5954C28.7831 13.5954 28.8586 11.9087 28.5942 12.1654C28.3675 12.422 24.4009 13.8154 24.7031 16.5654C24.8164 17.6654 26.4031 18.5454 27.9142 18.472C29.4253 18.3987 30.0675 17.592 30.1053 16.6754C30.1431 15.2454 28.972 15.062 28.7075 15.2087ZM4.18975 16.6754C4.22752 17.592 4.86975 18.3987 6.38086 18.472C7.89197 18.5454 9.47863 17.6654 9.59197 16.5654C9.89419 13.8154 5.92752 12.422 5.70086 12.1654C5.43641 11.9087 5.51197 13.5954 5.51197 13.5954C5.51197 13.5954 4.83197 12.8254 3.69863 12.1654C2.48975 11.432 2.48975 9.4887 2.48975 9.4887C2.48975 9.4887 4.83197 10.0754 4.11419 9.12203C3.01864 7.65536 3.88752 4.83203 6.75864 4.83203C7.55197 4.83203 7.43864 6.26203 7.89197 6.8487C8.30752 7.3987 9.40308 8.13203 9.40308 8.53536C9.40308 8.9387 8.08086 8.64536 6.90975 8.02203C6.19197 7.65536 5.66308 7.5087 5.66308 7.69203C5.70086 8.24203 7.06086 9.08536 8.23197 9.52536C9.28975 9.9287 10.6875 13.1187 10.6875 14.8787C10.6875 16.9687 9.25197 19.0587 6.38086 19.0587C4.00086 19.0587 3.66086 17.372 3.66086 16.5654C3.69864 14.9887 5.2853 14.4387 5.88975 14.9887C6.34308 15.392 6.04086 15.9787 5.81419 15.9054C5.58752 15.8687 6.04086 15.4654 5.58752 15.2087C5.36086 15.062 4.18975 15.2454 4.18975 16.6754Z" fill="#ABABAB" stroke="#7F7F7F" stroke-width="0.0204918"/>
<path d="M11.8584 11.2486V16.3819C11.8584 17.0786 12.6517 16.9686 12.6517 16.9686H16.1651C16.6184 16.9686 17.1473 17.8119 17.1473 17.8119C17.1473 17.8119 17.6762 16.9686 18.0917 16.9686H21.7184C21.7184 16.9686 22.474 17.0419 22.474 16.3086V11.2119H11.8584V11.2486Z" fill="#DE393A"/>
<path d="M11.8584 5.4917H22.4362V11.2484H11.8584V5.4917Z" fill="#3951A3"/>
<path d="M19.074 6.73828C18.9229 7.61828 18.1296 8.27828 17.1473 8.27828C16.2029 8.27828 15.4096 7.61828 15.2207 6.73828C15.0318 7.06828 14.9185 7.43495 14.9185 7.83828C14.9185 9.04828 15.9007 10.0016 17.1473 10.0016C18.394 10.0016 19.3762 9.04828 19.3762 7.83828C19.3762 7.43495 19.2629 7.06828 19.074 6.73828Z" fill="white"/>
<path d="M14.9185 15.1717C15.5444 15.1717 16.0518 14.6792 16.0518 14.0717C16.0518 13.4642 15.5444 12.9717 14.9185 12.9717C14.2926 12.9717 13.7852 13.4642 13.7852 14.0717C13.7852 14.6792 14.2926 15.1717 14.9185 15.1717Z" fill="#FEE05F"/>
<path d="M19.3765 15.1717C20.0024 15.1717 20.5098 14.6792 20.5098 14.0717C20.5098 13.4642 20.0024 12.9717 19.3765 12.9717C18.7506 12.9717 18.2432 13.4642 18.2432 14.0717C18.2432 14.6792 18.7506 15.1717 19.3765 15.1717Z" fill="#FEE05F"/>
</g>
<defs>
<clipPath id="clip0_1_6053">
<rect width="34" height="22" fill="white" transform="translate(0.147461 0.688477)"/>
</clipPath>
</defs>
</svg>
