<svg width="35" height="23" viewBox="0 0 35 23" fill="none" xmlns="http://www.w3.org/2000/svg">
<g clip-path="url(#clip0_1_6115)">
<path d="M0.114746 0.688965H34.1147V22.6885H0.114746V0.688965Z" fill="white"/>
<path d="M7.68665 11.6884L0.114746 4.33594V19.0422L7.68665 11.6884Z" fill="black"/>
<path d="M10.8189 11.6883L0.114746 1.29199V4.33586L7.68665 11.6884L0.114746 19.0421V22.0803L10.8189 11.6883Z" fill="#FFB915"/>
<path d="M33.9708 13.8409C33.9747 13.8125 34.0242 13.7843 34.1147 13.7559V9.53658H14.8969L5.78119 0.688965H0.114746V1.29244L10.8189 11.6887L0.114746 22.0808V22.6885H5.78119L14.8969 13.8409H33.9708Z" fill="#007847"/>
<path d="M33.5291 15.9927H15.8153L8.91699 22.6881H34.1147V15.9927H33.5291Z" fill="#000C8A"/>
<path d="M33.5291 7.38436H34.1147V0.688965H8.91699L15.8153 7.38436H33.5291Z" fill="#E1392D"/>
</g>
<defs>
<clipPath id="clip0_1_6115">
<rect width="34" height="22" fill="white" transform="translate(0.114746 0.688477)"/>
</clipPath>
</defs>
</svg>
