<svg width="35" height="23" viewBox="0 0 35 23" fill="none" xmlns="http://www.w3.org/2000/svg">
<g clip-path="url(#clip0_1_6072)">
<path d="M0.0820312 0.688477H34.082V22.6887H0.0820312V0.688477Z" fill="#496E2D"/>
<path d="M32.6655 7.7876H29.478C29.478 7.21809 29.0023 6.75635 28.4155 6.75635C27.8288 6.75635 27.353 7.21809 27.353 7.7876H24.1655C24.1655 8.35711 24.6767 8.81885 25.2634 8.81885H25.228C25.228 9.38836 25.7036 9.8501 26.2905 9.8501C26.2905 10.4196 26.7661 10.8814 27.353 10.8814H29.478C30.0648 10.8814 30.5405 10.4196 30.5405 9.8501C31.1273 9.8501 31.603 9.38836 31.603 8.81885H31.5676C32.1545 8.81885 32.6655 8.35711 32.6655 7.7876Z" fill="#FF9811"/>
<path d="M22.749 11.688H26.5267V22.6878H22.749V11.688Z" fill="#D80027"/>
<path d="M30.3042 11.688H34.0819V22.6878H30.3042V11.688Z" fill="#FF9811"/>
<path d="M26.5269 11.688H30.3046V22.6878H26.5269V11.688Z" fill="black"/>
</g>
<defs>
<clipPath id="clip0_1_6072">
<rect width="34" height="22" fill="white" transform="translate(0.0820312 0.688477)"/>
</clipPath>
</defs>
</svg>
