<svg width="35" height="23" viewBox="0 0 35 23" fill="none" xmlns="http://www.w3.org/2000/svg">
<g clip-path="url(#clip0_1_6222)">
<path d="M0.0493164 0.688477H34.0493V22.6887H0.0493164V0.688477Z" fill="black"/>
<path d="M0.0493164 3.83789H34.0493V6.98759H0.0493164V3.83789ZM0.0493164 16.4367H34.0493V19.5864H0.0493164V16.4367Z" fill="#FFDA44"/>
<path d="M0.0493164 0.688477H34.0493V3.83818H0.0493164V0.688477Z" fill="#057F44"/>
<path d="M0.0493164 6.98779H34.0493V10.1375H0.0493164V6.98779ZM0.0493164 13.2873H34.0493V16.437H0.0493164V13.2873Z" fill="#D80027"/>
<path d="M0.0493164 19.5869H34.0493V22.6889H0.0493164V19.5869Z" fill="#057F44"/>
<path d="M18.4433 11.6882L7.11023 22.688H0.0493164V0.688477H7.11023L18.4433 11.6882Z" fill="white"/>
<path d="M17.0491 11.6884L5.71582 22.6884H7.10949L18.4428 11.6884L7.10949 0.688477H5.71582L17.0491 11.6884Z" fill="black"/>
<path d="M6.85348 8.24463L7.73396 10.8751H10.5839L8.27843 12.501L9.15898 15.1316L6.85348 13.5058L4.54786 15.1316L5.42854 12.501L3.12305 10.8751H5.97287L6.85348 8.24463Z" fill="#D80027"/>
<path d="M9.27598 11.9036L6.98104 11.1145C6.98104 11.1145 6.81151 9.5705 6.80121 9.51823C6.72332 9.11991 6.36273 8.81885 5.92977 8.81885C5.43995 8.81885 5.04278 9.20428 5.04278 9.67975C5.04278 9.75857 5.0546 9.83457 5.07505 9.90714L4.43164 10.5359H5.57575C5.57575 11.6884 4.68963 11.6884 4.68963 12.8363L5.18117 13.9841H8.13771L8.63057 12.8363H8.63031C8.67842 12.7291 8.70934 12.6154 8.72202 12.4991C9.14682 12.3323 9.27598 11.9036 9.27598 11.9036Z" fill="#FFDA44"/>
</g>
<defs>
<clipPath id="clip0_1_6222">
<rect width="34" height="22" fill="white" transform="translate(0.0493164 0.688477)"/>
</clipPath>
</defs>
</svg>
