<svg width="20" height="21" viewBox="0 0 20 21" fill="none" xmlns="http://www.w3.org/2000/svg">
<path fill-rule="evenodd" clip-rule="evenodd" d="M10.0282 2.03533C7.47639 2.03533 5.36631 4.1619 5.36631 6.83692L5.36629 9.64574C5.36628 10.3218 5.12237 10.9752 4.67934 11.4859L2.53337 13.9597C2.3362 14.187 2.49765 14.5408 2.79853 14.5408H17.2578C17.5587 14.5408 17.7201 14.187 17.5229 13.9597L15.377 11.4859C14.9339 10.9752 14.69 10.3218 14.69 9.64572V6.83692C14.69 4.1619 12.5799 2.03533 10.0282 2.03533ZM3.3604 6.83691C3.3604 3.10042 6.32276 0.0294189 10.0282 0.0294189C13.7336 0.0294189 16.6959 3.10042 16.6959 6.83692V9.64572C16.6959 9.83889 16.7656 10.0256 16.8922 10.1715L19.0382 12.6453C20.362 14.1713 19.278 16.5467 17.2578 16.5467H2.79853C0.778286 16.5467 -0.305699 14.1713 1.01813 12.6453L3.1641 10.1715C3.29068 10.0256 3.36037 9.83889 3.36037 9.64572L3.3604 6.83691ZM6.61759 19.0265C6.61759 18.4725 7.06663 18.0235 7.62055 18.0235H12.4356C12.9896 18.0235 13.4386 18.4725 13.4386 19.0265C13.4386 19.5804 12.9896 20.0294 12.4356 20.0294H7.62055C7.06663 20.0294 6.61759 19.5804 6.61759 19.0265Z" fill="white"/>
</svg>
