<svg width="20" height="21" viewBox="0 0 20 21" fill="none" xmlns="http://www.w3.org/2000/svg">
<path fill-rule="evenodd" clip-rule="evenodd" d="M10.3875 2.03533C7.83577 2.03533 5.72569 4.1619 5.72569 6.83692L5.72566 9.64574C5.72566 10.3218 5.48174 10.9752 5.03871 11.4859L2.89274 13.9597C2.69557 14.187 2.85702 14.5408 3.15791 14.5408H17.6171C17.918 14.5408 18.0795 14.187 17.8823 13.9597L15.7363 11.4859C15.2933 10.9752 15.0494 10.3218 15.0494 9.64572V6.83692C15.0494 4.1619 12.9393 2.03533 10.3875 2.03533ZM3.71977 6.83691C3.71978 3.10042 6.68213 0.0294189 10.3875 0.0294189C14.0929 0.0294189 17.0553 3.10042 17.0553 6.83692V9.64572C17.0553 9.83889 17.125 10.0256 17.2516 10.1715L19.3975 12.6453C20.7214 14.1713 19.6374 16.5467 17.6171 16.5467H3.15791C1.13766 16.5467 0.0536759 14.1713 1.37751 12.6453L3.52348 10.1715C3.65006 10.0256 3.71975 9.83889 3.71975 9.64572L3.71977 6.83691ZM6.97697 19.0265C6.97697 18.4725 7.42601 18.0235 7.97992 18.0235H12.795C13.3489 18.0235 13.798 18.4725 13.798 19.0265C13.798 19.5804 13.3489 20.0294 12.795 20.0294H7.97992C7.42601 20.0294 6.97697 19.5804 6.97697 19.0265Z" fill="#05141F"/>
</svg>
