<svg width="14" height="14" viewBox="0 0 14 14" fill="none" xmlns="http://www.w3.org/2000/svg">
<path fill-rule="evenodd" clip-rule="evenodd" d="M0.499063 0.44743C0.87956 0.0935293 1.40151 0 1.92749 0H4.34191C4.86789 0 5.38984 0.0935293 5.77034 0.44743C6.16124 0.811011 6.2694 1.32235 6.2694 1.83376V12.1662C6.2694 12.6777 6.16124 13.189 5.77034 13.5526C5.38984 13.9065 4.86789 14 4.34191 14H1.92749C1.40151 14 0.87956 13.9065 0.499063 13.5526C0.108158 13.189 0 12.6777 0 12.1662V1.83376C0 1.32235 0.108158 0.811011 0.499063 0.44743ZM1.31052 1.31459C1.27263 1.34984 1.18954 1.4589 1.18954 1.83376V12.1662C1.18954 12.5411 1.27263 12.6502 1.31052 12.6854C1.35882 12.7303 1.50323 12.8141 1.92749 12.8141H4.34191C4.76617 12.8141 4.91058 12.7303 4.95888 12.6854C4.99678 12.6502 5.07986 12.5411 5.07986 12.1662V1.83376C5.07986 1.4589 4.99678 1.34984 4.95888 1.31459C4.91058 1.26967 4.76617 1.18594 4.34191 1.18594H1.92749C1.50323 1.18594 1.35882 1.26967 1.31052 1.31459Z" fill="#05141F"/>
<path fill-rule="evenodd" clip-rule="evenodd" d="M8.71398 0.397726C9.07238 0.0798834 9.55591 0 10.0304 0H12.2049C12.6794 0 13.1629 0.0798834 13.5213 0.397726C13.8975 0.731314 14 1.20182 14 1.65672V4.09582C14 4.55028 13.8977 5.0217 13.5204 5.35491C13.1612 5.67222 12.6773 5.74993 12.2031 5.74717H10.0304C9.55803 5.74717 9.07392 5.66942 8.71485 5.35223C8.33725 5.01868 8.23529 4.5468 8.23529 4.09045V1.65672C8.23529 1.20182 8.33783 0.731314 8.71398 0.397726ZM9.50455 1.28386C9.49434 1.29291 9.42484 1.35455 9.42484 1.65672V4.09045C9.42484 4.39503 9.49422 4.45622 9.50355 4.46444C9.53067 4.4884 9.64689 4.56123 10.0304 4.56123H12.2087C12.5897 4.56362 12.7051 4.49069 12.7316 4.46728C12.741 4.45894 12.8105 4.39764 12.8105 4.09582V1.65672C12.8105 1.35455 12.741 1.29291 12.7308 1.28386C12.703 1.25921 12.5863 1.18594 12.2049 1.18594H10.0304C9.64901 1.18594 9.53234 1.25921 9.50455 1.28386Z" fill="#05141F"/>
<path fill-rule="evenodd" clip-rule="evenodd" d="M8.71398 8.60814C9.07238 8.2903 9.55591 8.21041 10.0304 8.21041H12.2049C12.6794 8.21041 13.1629 8.2903 13.5213 8.60814C13.8975 8.94173 14 9.41224 14 9.86713V12.3062C14 12.7607 13.8977 13.2321 13.5204 13.5653C13.1612 13.8826 12.6773 13.9603 12.2031 13.9576H10.0304C9.55803 13.9576 9.07392 13.8798 8.71485 13.5626C8.33725 13.2291 8.23529 12.7572 8.23529 12.3009V9.86713C8.23529 9.41224 8.33783 8.94173 8.71398 8.60814ZM9.50455 9.49428C9.49434 9.50333 9.42484 9.56496 9.42484 9.86713V12.3009C9.42484 12.6054 9.49422 12.6666 9.50355 12.6749C9.53067 12.6988 9.64689 12.7716 10.0304 12.7716H12.2087C12.5897 12.774 12.7051 12.7011 12.7316 12.6777C12.741 12.6694 12.8105 12.6081 12.8105 12.3062V9.86713C12.8105 9.56496 12.741 9.50333 12.7308 9.49428C12.703 9.46962 12.5863 9.39635 12.2049 9.39635H10.0304C9.64901 9.39635 9.53234 9.46962 9.50455 9.49428Z" fill="#05141F"/>
</svg>
