<svg width="20" height="20" viewBox="0 0 20 20" fill="none" xmlns="http://www.w3.org/2000/svg">
<path fill-rule="evenodd" clip-rule="evenodd" d="M5.5 0C6.05228 0 6.5 0.447715 6.5 1V1.79147H13.5V1C13.5 0.447715 13.9477 0 14.5 0C15.0523 0 15.5 0.447715 15.5 1V1.79147H16.4286C18.4565 1.79147 20 3.51855 20 5.52133V16.2701C20 18.2729 18.4565 20 16.4286 20H3.57143C1.5435 20 0 18.2729 0 16.2701V5.52133C0 3.51855 1.5435 1.79147 3.57143 1.79147H4.5V1C4.5 0.447715 4.94772 0 5.5 0ZM4.5 3.79147H3.57143C2.75904 3.79147 2 4.50878 2 5.52133V5.97156H18V5.52133C18 4.50878 17.241 3.79147 16.4286 3.79147H15.5V4.58294C15.5 5.13522 15.0523 5.58294 14.5 5.58294C13.9477 5.58294 13.5 5.13522 13.5 4.58294V3.79147H6.5V4.58294C6.5 5.13522 6.05228 5.58294 5.5 5.58294C4.94772 5.58294 4.5 5.13522 4.5 4.58294V3.79147ZM18 7.97156H2V16.2701C2 17.2827 2.75904 18 3.57143 18H16.4286C17.241 18 18 17.2827 18 16.2701V7.97156Z" fill="white"/>
<path d="M6.25 11.033C6.25 11.7233 5.69036 12.283 5 12.283C4.30964 12.283 3.75 11.7233 3.75 11.033C3.75 10.3426 4.30964 9.78299 5 9.78299C5.69036 9.78299 6.25 10.3426 6.25 11.033Z" fill="white"/>
<path d="M11.25 11.033C11.25 11.7233 10.6904 12.283 10 12.283C9.30964 12.283 8.75 11.7233 8.75 11.033C8.75 10.3426 9.30964 9.78299 10 9.78299C10.6904 9.78299 11.25 10.3426 11.25 11.033Z" fill="white"/>
<path d="M16.25 11.033C16.25 11.7233 15.6904 12.283 15 12.283C14.3096 12.283 13.75 11.7233 13.75 11.033C13.75 10.3426 14.3096 9.78299 15 9.78299C15.6904 9.78299 16.25 10.3426 16.25 11.033Z" fill="white"/>
<path d="M6.25 15.033C6.25 15.7233 5.69036 16.283 5 16.283C4.30964 16.283 3.75 15.7233 3.75 15.033C3.75 14.3426 4.30964 13.783 5 13.783C5.69036 13.783 6.25 14.3426 6.25 15.033Z" fill="white"/>
<path d="M11.25 15.033C11.25 15.7233 10.6904 16.283 10 16.283C9.30964 16.283 8.75 15.7233 8.75 15.033C8.75 14.3426 9.30964 13.783 10 13.783C10.6904 13.783 11.25 14.3426 11.25 15.033Z" fill="white"/>
<path d="M16.25 15.033C16.25 15.7233 15.6904 16.283 15 16.283C14.3096 16.283 13.75 15.7233 13.75 15.033C13.75 14.3426 14.3096 13.783 15 13.783C15.6904 13.783 16.25 14.3426 16.25 15.033Z" fill="white"/>
</svg>
