<svg width="15" height="14" viewBox="0 0 15 14" fill="none" xmlns="http://www.w3.org/2000/svg">
<path d="M4.54164 8.78946C4.99267 8.78946 5.35831 8.42383 5.35831 7.97279C5.35831 7.52176 4.99267 7.15613 4.54164 7.15613C4.09061 7.15613 3.72498 7.52176 3.72498 7.97279C3.72498 8.42383 4.09061 8.78946 4.54164 8.78946Z" fill="#444444"/>
<path d="M7.80831 8.78946C8.25934 8.78946 8.62498 8.42383 8.62498 7.97279C8.62498 7.52176 8.25934 7.15613 7.80831 7.15613C7.35728 7.15613 6.99164 7.52176 6.99164 7.97279C6.99164 8.42383 7.35728 8.78946 7.80831 8.78946Z" fill="#444444"/>
<path d="M11.8916 7.97279C11.8916 8.42383 11.526 8.78946 11.075 8.78946C10.6239 8.78946 10.2583 8.42383 10.2583 7.97279C10.2583 7.52176 10.6239 7.15613 11.075 7.15613C11.526 7.15613 11.8916 7.52176 11.8916 7.97279Z" fill="#444444"/>
<path d="M4.54164 11.2394C4.99267 11.2394 5.35831 10.8738 5.35831 10.4227C5.35831 9.97171 4.99267 9.60608 4.54164 9.60608C4.09061 9.60608 3.72498 9.97171 3.72498 10.4227C3.72498 10.8738 4.09061 11.2394 4.54164 11.2394Z" fill="#444444"/>
<path d="M7.80831 11.2394C8.25934 11.2394 8.62498 10.8738 8.62498 10.4227C8.62498 9.97171 8.25934 9.60608 7.80831 9.60608C7.35728 9.60608 6.99164 9.97171 6.99164 10.4227C6.99164 10.8738 7.35728 11.2394 7.80831 11.2394Z" fill="#444444"/>
<path d="M11.8916 10.4227C11.8916 10.8738 11.526 11.2394 11.075 11.2394C10.6239 11.2394 10.2583 10.8738 10.2583 10.4227C10.2583 9.97171 10.6239 9.60608 11.075 9.60608C11.526 9.60608 11.8916 9.97171 11.8916 10.4227Z" fill="#444444"/>
<path fill-rule="evenodd" clip-rule="evenodd" d="M5.00847 1.03112C5.00847 0.773387 4.79954 0.564453 4.54181 0.564453C4.28407 0.564453 4.07514 0.773387 4.07514 1.03112V1.78945H3.1418C1.85314 1.78945 0.808472 2.83412 0.808472 4.12279V11.4728C0.808472 12.7615 1.85314 13.8061 3.1418 13.8061H12.4751C13.7638 13.8061 14.8085 12.7615 14.8085 11.4728V4.12279C14.8085 2.83412 13.7638 1.78945 12.4751 1.78945H11.5418V1.03112C11.5418 0.773387 11.3329 0.564453 11.0751 0.564453C10.8174 0.564453 10.6085 0.773387 10.6085 1.03112V1.78945H5.00847V1.03112ZM3.1418 2.72279H4.07514V3.48112C4.07514 3.73885 4.28407 3.94779 4.54181 3.94779C4.79954 3.94779 5.00847 3.73885 5.00847 3.48112V2.72279H10.6085V3.48112C10.6085 3.73885 10.8174 3.94779 11.0751 3.94779C11.3329 3.94779 11.5418 3.73885 11.5418 3.48112V2.72279H12.4751C13.2483 2.72279 13.8751 3.34959 13.8751 4.12279V4.64779H1.74181V4.12279C1.74181 3.34959 2.36861 2.72279 3.1418 2.72279ZM1.74181 5.58112H13.8751V11.4728C13.8751 12.246 13.2483 12.8728 12.4751 12.8728H3.1418C2.36861 12.8728 1.74181 12.246 1.74181 11.4728V5.58112Z" fill="#444444"/>
</svg>
