<svg width="21" height="20" viewBox="0 0 21 20" fill="none" xmlns="http://www.w3.org/2000/svg">
<path fill-rule="evenodd" clip-rule="evenodd" d="M5.85938 0C6.41166 0 6.85938 0.447715 6.85938 1V1.79147H13.8594V1C13.8594 0.447715 14.3071 0 14.8594 0C15.4117 0 15.8594 0.447715 15.8594 1V1.79147H16.7879C18.8159 1.79147 20.3594 3.51855 20.3594 5.52133V16.2701C20.3594 18.2729 18.8159 20 16.7879 20H3.9308C1.90287 20 0.359375 18.2729 0.359375 16.2701V5.52133C0.359375 3.51855 1.90287 1.79147 3.9308 1.79147H4.85938V1C4.85938 0.447715 5.30709 0 5.85938 0ZM4.85938 3.79147H3.9308C3.11841 3.79147 2.35938 4.50878 2.35938 5.52133V5.97156H18.3594V5.52133C18.3594 4.50878 17.6003 3.79147 16.7879 3.79147H15.8594V4.58294C15.8594 5.13522 15.4117 5.58294 14.8594 5.58294C14.3071 5.58294 13.8594 5.13522 13.8594 4.58294V3.79147H6.85938V4.58294C6.85938 5.13522 6.41166 5.58294 5.85938 5.58294C5.30709 5.58294 4.85938 5.13522 4.85938 4.58294V3.79147ZM18.3594 7.97156H2.35938V16.2701C2.35938 17.2827 3.11841 18 3.9308 18H16.7879C17.6003 18 18.3594 17.2827 18.3594 16.2701V7.97156Z" fill="black"/>
<path d="M6.60938 11.033C6.60938 11.7233 6.04973 12.283 5.35938 12.283C4.66902 12.283 4.10938 11.7233 4.10938 11.033C4.10938 10.3426 4.66902 9.78299 5.35938 9.78299C6.04973 9.78299 6.60938 10.3426 6.60938 11.033Z" fill="#05141F"/>
<path d="M11.6094 11.033C11.6094 11.7233 11.0497 12.283 10.3594 12.283C9.66902 12.283 9.10938 11.7233 9.10938 11.033C9.10938 10.3426 9.66902 9.78299 10.3594 9.78299C11.0497 9.78299 11.6094 10.3426 11.6094 11.033Z" fill="#05141F"/>
<path d="M16.6094 11.033C16.6094 11.7233 16.0497 12.283 15.3594 12.283C14.669 12.283 14.1094 11.7233 14.1094 11.033C14.1094 10.3426 14.669 9.78299 15.3594 9.78299C16.0497 9.78299 16.6094 10.3426 16.6094 11.033Z" fill="#05141F"/>
<path d="M6.60938 15.033C6.60938 15.7233 6.04973 16.283 5.35938 16.283C4.66902 16.283 4.10938 15.7233 4.10938 15.033C4.10938 14.3426 4.66902 13.783 5.35938 13.783C6.04973 13.783 6.60938 14.3426 6.60938 15.033Z" fill="#05141F"/>
<path d="M11.6094 15.033C11.6094 15.7233 11.0497 16.283 10.3594 16.283C9.66902 16.283 9.10938 15.7233 9.10938 15.033C9.10938 14.3426 9.66902 13.783 10.3594 13.783C11.0497 13.783 11.6094 14.3426 11.6094 15.033Z" fill="#05141F"/>
<path d="M16.6094 15.033C16.6094 15.7233 16.0497 16.283 15.3594 16.283C14.669 16.283 14.1094 15.7233 14.1094 15.033C14.1094 14.3426 14.669 13.783 15.3594 13.783C16.0497 13.783 16.6094 14.3426 16.6094 15.033Z" fill="#05141F"/>
</svg>
