<svg width="20" height="16" viewBox="0 0 20 16" fill="none" xmlns="http://www.w3.org/2000/svg">
<path fill-rule="evenodd" clip-rule="evenodd" d="M10.3428 2.22122C10.1328 2.05671 9.86721 2.05671 9.65719 2.22122L4.11873 6.55918C3.94892 6.69218 3.82692 6.92754 3.82692 7.20271V13.9022H5.78846V9.34302C5.78846 8.5758 6.37126 7.83457 7.23077 7.83457H12.7692C13.6287 7.83457 14.2115 8.5758 14.2115 9.34302V13.9022H16.1731V7.20271C16.1731 6.92754 16.0511 6.69218 15.8813 6.55918L10.3428 2.22122ZM17.6731 13.9022V7.20271C17.6731 6.49858 17.3636 5.81485 16.8062 5.37829L11.2677 1.04032C10.5145 0.450345 9.48551 0.450345 8.73226 1.04032L3.1938 5.37829C2.63642 5.81485 2.32692 6.49858 2.32692 7.20271V13.9022H1C0.585786 13.9022 0.25 14.238 0.25 14.6522C0.25 15.0664 0.585786 15.4022 1 15.4022H19C19.4142 15.4022 19.75 15.0664 19.75 14.6522C19.75 14.238 19.4142 13.9022 19 13.9022H17.6731ZM12.7115 13.9022V12.3684H10.75V13.9022H12.7115ZM9.25 13.9022V12.3684H7.28846V13.9022H9.25ZM7.28846 10.8684H9.25V9.33457H7.28885C7.2886 9.33714 7.28846 9.33996 7.28846 9.34302V10.8684ZM10.75 9.33457V10.8684H12.7115V9.34302C12.7115 9.33996 12.7114 9.33714 12.7112 9.33457H10.75Z" fill="#05141F"/>
</svg>
