<svg width="21" height="21" viewBox="0 0 21 21" fill="none" xmlns="http://www.w3.org/2000/svg">
<rect x="0.5" y="0.804688" width="20" height="20" rx="10" fill="white"/>
<path fill-rule="evenodd" clip-rule="evenodd" d="M5.5824 5.55391C6.17185 4.92383 7.07457 4.80469 8.0839 4.80469H12.1159C13.1252 4.80469 14.0279 4.92383 14.6174 5.55391C15.1921 6.16816 15.2999 7.09486 15.2999 8.15936V10.4313C15.2999 10.7995 15.0014 11.098 14.6332 11.098C14.265 11.098 13.9666 10.7995 13.9666 10.4313V8.15936C13.9666 7.07452 13.8237 6.65722 13.6437 6.46481C13.4785 6.28821 13.1226 6.13802 12.1159 6.13802H8.0839C7.07724 6.13802 6.72128 6.28821 6.55607 6.46481C6.37606 6.65722 6.23324 7.07452 6.23324 8.15936V14.1647C6.23324 14.4656 6.27553 14.66 6.32029 14.7698C6.32737 14.7871 6.33395 14.8012 6.33979 14.8124C6.34519 14.8103 6.35111 14.8079 6.35757 14.8051C6.4508 14.7649 6.60357 14.664 6.80144 14.4516C6.80639 14.4463 6.81143 14.4411 6.81654 14.4359C7.53598 13.681 8.68444 13.7432 9.31104 14.5813L9.84971 15.3013C10.0703 15.5961 10.0101 16.0139 9.71527 16.2345C9.42046 16.4551 9.00266 16.3949 8.78209 16.1001L8.24342 15.38C8.16542 15.2757 8.08184 15.2456 8.02156 15.2424C7.9611 15.2391 7.8723 15.2597 7.7797 15.3579L7.77081 15.3671C7.49839 15.6583 7.20194 15.8929 6.88608 16.0292C6.56128 16.1695 6.1788 16.2184 5.81019 16.0596C5.44644 15.903 5.21731 15.596 5.08568 15.2733C4.95494 14.9527 4.8999 14.5731 4.8999 14.1647V8.15936C4.8999 7.09486 5.00774 6.16816 5.5824 5.55391ZM7.2999 8.13802C7.2999 7.76983 7.59838 7.47135 7.96657 7.47135H12.2332C12.6014 7.47135 12.8999 7.76983 12.8999 8.13802C12.8999 8.50621 12.6014 8.80469 12.2332 8.80469H7.96657C7.59838 8.80469 7.2999 8.50621 7.2999 8.13802ZM7.83324 10.2714C7.83324 9.90316 8.13171 9.60469 8.4999 9.60469H11.6999C12.0681 9.60469 12.3666 9.90316 12.3666 10.2714C12.3666 10.6395 12.0681 10.938 11.6999 10.938H8.4999C8.13171 10.938 7.83324 10.6395 7.83324 10.2714ZM13.4066 13.0714C12.8322 13.0714 12.3666 13.537 12.3666 14.1114C12.3666 14.6857 12.8322 15.1514 13.4066 15.1514C13.981 15.1514 14.4466 14.6857 14.4466 14.1114C14.4466 13.537 13.9809 13.0714 13.4066 13.0714ZM11.0332 14.1114C11.0332 12.8006 12.0958 11.738 13.4066 11.738C14.7173 11.738 15.7799 12.8006 15.7799 14.1114C15.7799 14.5243 15.6744 14.9127 15.4889 15.2509L15.9046 15.6666C16.165 15.927 16.165 16.3491 15.9046 16.6094C15.6443 16.8698 15.2222 16.8698 14.9618 16.6094L14.5461 16.1937C14.2079 16.3792 13.8196 16.4847 13.4066 16.4847C12.0958 16.4847 11.0332 15.4221 11.0332 14.1114Z" fill="#002C5F"/>
</svg>
