<svg width="20" height="21" viewBox="0 0 20 21" fill="none" xmlns="http://www.w3.org/2000/svg">
<rect y="0.609375" width="20" height="20" rx="10" fill="#05141F"/>
<path fill-rule="evenodd" clip-rule="evenodd" d="M4.6844 7.95142C4.70478 7.07964 4.84358 6.71382 5.03133 6.5282C5.23716 6.32467 5.66033 6.17985 6.7135 6.17985H11.4743C11.8007 6.17985 12.0652 5.9153 12.0652 5.58895C12.0652 5.2626 11.8007 4.99805 11.4743 4.99805H6.7135C5.66977 4.99805 4.78164 5.11312 4.20041 5.68782C3.61684 6.26481 3.5 7.14839 3.5 8.18201V13.0374C3.5 14.071 3.61684 14.9546 4.20041 15.5315C4.78164 16.1062 5.66977 16.2213 6.7135 16.2213H13.2818C14.3255 16.2213 15.2137 16.1062 15.7949 15.5315C16.3784 14.9546 16.4953 14.071 16.4953 13.0374V10.6274C16.4953 10.3011 16.2307 10.0365 15.9044 10.0365C15.578 10.0365 15.3135 10.3011 15.3135 10.6274V13.0374C15.3135 14.077 15.1675 14.4899 14.964 14.6912C14.7581 14.8947 14.335 15.0395 13.2818 15.0395H6.7135C5.66033 15.0395 5.23716 14.8947 5.03133 14.6912C4.82781 14.4899 4.68181 14.077 4.68181 13.0374V9.13322H9.70231C10.0287 9.13322 10.2932 8.86867 10.2932 8.54232C10.2932 8.21597 10.0287 7.95142 9.70231 7.95142H4.6844ZM14.7435 5.02352C15.2059 4.97984 15.619 5.19442 15.9737 5.54911C16.3269 5.90227 16.5392 6.31483 16.494 6.77623C16.4518 7.2066 16.1962 7.5327 15.9737 7.75514L13.7823 9.94654C13.6814 10.0475 13.5601 10.1226 13.4589 10.1732C13.3572 10.224 13.2254 10.2753 13.0859 10.2962L13.0807 10.297L12.2419 10.4151L12.2399 10.4154C11.9313 10.4577 11.6103 10.3733 11.377 10.14C11.1436 9.90665 11.0592 9.58564 11.1016 9.27706L11.1019 9.275L11.2207 8.431C11.2417 8.29152 11.2929 8.15977 11.3438 8.058C11.3944 7.95686 11.4695 7.83553 11.5704 7.73461L13.4433 5.86166C13.4471 5.85777 13.451 5.85394 13.4549 5.85015L13.7618 5.54321C13.9842 5.32078 14.3111 5.06437 14.7435 5.02352ZM13.7072 7.26911L12.4153 8.561C12.4116 8.56662 12.4064 8.57543 12.4008 8.58652C12.3949 8.59848 12.3906 8.60896 12.3881 8.61603C12.3881 8.61605 12.3882 8.61601 12.3881 8.61603L12.3041 9.21286L12.9008 9.12882C12.9008 9.12883 12.9009 9.12881 12.9008 9.12882C12.9079 9.12638 12.9185 9.12209 12.9304 9.11611C12.9415 9.11057 12.9503 9.10532 12.9559 9.10161L14.2481 7.80948C14.042 7.65751 13.8597 7.47525 13.7072 7.26911ZM15.1018 6.95575C14.8759 6.83138 14.6878 6.64441 14.5604 6.41597L14.5975 6.37887C14.7531 6.22326 14.8338 6.20206 14.8547 6.20009C14.8597 6.19961 14.8769 6.19798 14.9156 6.21534C14.9595 6.23504 15.0343 6.28101 15.1381 6.38478C15.2399 6.48662 15.2845 6.55974 15.3034 6.60221C15.3199 6.63942 15.3183 6.65573 15.3178 6.66079C15.3157 6.68229 15.2937 6.76389 15.1381 6.91948L15.1018 6.95575ZM5.8627 13.2677C5.8627 12.9414 6.12725 12.6768 6.4536 12.6768H7.63495C7.9613 12.6768 8.22585 12.9414 8.22585 13.2677C8.22585 13.5941 7.9613 13.8586 7.63495 13.8586H6.4536C6.12725 13.8586 5.8627 13.5941 5.8627 13.2677ZM8.52073 13.2677C8.52073 12.9414 8.78529 12.6768 9.11163 12.6768H11.4743C11.8007 12.6768 12.0652 12.9414 12.0652 13.2677C12.0652 13.5941 11.8007 13.8586 11.4743 13.8586H9.11163C8.78529 13.8586 8.52073 13.5941 8.52073 13.2677Z" fill="#73B4FF"/>
</svg>
