<svg width="12" height="11" viewBox="0 0 12 11" fill="none" xmlns="http://www.w3.org/2000/svg">
<path fill-rule="evenodd" clip-rule="evenodd" d="M8.77285 0.0149186C9.42985 -0.0690942 10.0824 0.202456 10.7293 0.811074L10.7302 0.811943C11.379 1.42553 11.6897 2.06325 11.6434 2.72547C11.599 3.36145 11.2312 3.89125 10.8289 4.31619L10.8271 4.31806L10.1807 4.9939C10.1406 5.06295 10.0846 5.12106 10.0182 5.16375L5.25862 10.1397C5.12613 10.2834 4.95172 10.4019 4.79038 10.4882C4.62605 10.576 4.43291 10.653 4.24763 10.686L4.2443 10.6866L2.54562 10.9767C2.54558 10.9767 2.54566 10.9767 2.54562 10.9767C2.10584 11.0525 1.67621 10.9433 1.36782 10.6508C1.0599 10.3588 0.927695 9.93632 0.976777 9.49458L0.976948 9.49307L1.1733 7.7737C1.1979 7.58915 1.26554 7.39382 1.34318 7.22735C1.42047 7.06161 1.52772 6.88161 1.65819 6.74273L1.66127 6.73944L7.23157 0.915929C7.23189 0.915595 7.2322 0.915261 7.23252 0.914926C7.63478 0.490223 8.14254 0.0955193 8.77285 0.0149186ZM9.54787 4.20875L10.1027 3.62872C10.103 3.62844 10.1032 3.62815 10.1035 3.62787C10.4501 3.2615 10.6257 2.94448 10.6459 2.65574C10.6642 2.39311 10.5607 2.0282 10.0435 1.53895C9.52951 1.05544 9.16096 0.973433 8.89969 1.00684C8.61217 1.04361 8.30481 1.23682 7.95778 1.60341L7.956 1.60528L7.41093 2.17513C7.66335 3.21172 8.49904 4.00536 9.54787 4.20875ZM6.63134 2.99016C7.0328 3.93262 7.80757 4.66885 8.76714 5.02498L4.53241 9.45224L4.52425 9.46098C4.49367 9.49452 4.4222 9.55105 4.31888 9.60629C4.21749 9.6605 4.12628 9.69163 4.07385 9.70118C4.07343 9.70126 4.07301 9.70133 4.0726 9.70141L2.37648 9.9911C2.20408 10.0208 2.10509 9.97184 2.05594 9.92523C2.00635 9.8782 1.95127 9.78102 1.97059 9.60567C1.97056 9.6059 1.97061 9.60545 1.97059 9.60567L2.16511 7.90232C2.17289 7.84874 2.20022 7.75561 2.24947 7.65C2.29959 7.54252 2.35267 7.46447 2.3859 7.42861L6.63134 2.99016Z" fill="#00418D"/>
</svg>
