<svg width="15" height="15" viewBox="0 0 15 15" fill="none" xmlns="http://www.w3.org/2000/svg">
<path fill-rule="evenodd" clip-rule="evenodd" d="M10.787 0.185907C11.663 0.0738901 12.5331 0.435956 13.3955 1.24745L13.3968 1.24861C14.2618 2.06673 14.6761 2.91702 14.6144 3.79998C14.5551 4.64795 14.0647 5.35435 13.5284 5.92094L13.526 5.92343L12.6641 6.82455C12.6106 6.91662 12.536 6.9941 12.4475 7.05102L6.10133 13.6857C5.92469 13.8772 5.69213 14.0352 5.47702 14.1502C5.25791 14.2674 5.00039 14.3701 4.75336 14.414L4.74891 14.4148L2.484 14.8016C2.48395 14.8016 2.48406 14.8016 2.484 14.8016C1.89763 14.9027 1.3248 14.7571 0.913606 14.3671C0.503044 13.9778 0.326771 13.4144 0.392213 12.8255L0.392441 12.8234L0.654238 10.5309C0.687046 10.2849 0.777237 10.0244 0.880746 9.80249C0.983804 9.5815 1.12681 9.34149 1.30076 9.15632L1.30487 9.15194L8.73194 1.38725C8.73236 1.38681 8.73278 1.38636 8.7332 1.38592C9.26955 0.819647 9.94656 0.293375 10.787 0.185907ZM11.8203 5.77768L12.5601 5.0043C12.5605 5.00393 12.5608 5.00356 12.5612 5.00318C13.0233 4.51468 13.2574 4.09199 13.2843 3.70701C13.3088 3.35683 13.1708 2.87028 12.4812 2.21795C11.7959 1.57327 11.3045 1.46393 10.9561 1.50847C10.5727 1.55749 10.1629 1.81511 9.70021 2.30389L9.69784 2.30639L8.97108 3.06618C9.30764 4.4483 10.4219 5.50649 11.8203 5.77768ZM7.93163 4.15289C8.46692 5.4095 9.49994 6.39115 10.7794 6.86599L5.13305 12.769L5.12218 12.7807C5.0814 12.8254 4.98612 12.9008 4.84836 12.9744C4.71317 13.0467 4.59155 13.0882 4.52165 13.1009C4.52109 13.101 4.52053 13.1011 4.51998 13.1012L2.25849 13.4875C2.02862 13.5271 1.89663 13.4618 1.83109 13.3997C1.76498 13.337 1.69154 13.2074 1.71729 12.9736C1.71726 12.9739 1.71733 12.9733 1.71729 12.9736L1.97665 10.7024C1.98703 10.631 2.02347 10.5068 2.08914 10.366C2.15597 10.2227 2.22674 10.1186 2.27105 10.0708L7.93163 4.15289Z" fill="white"/>
</svg>
