<svg width="14" height="14" viewBox="0 0 14 14" fill="none" xmlns="http://www.w3.org/2000/svg">
<path fill-rule="evenodd" clip-rule="evenodd" d="M9.24095 2.01356C9.83822 1.93719 10.4315 2.18405 11.0195 2.73734L11.0203 2.73813C11.6102 3.29594 11.8926 3.87569 11.8506 4.4777C11.8102 5.05586 11.4758 5.5375 11.1101 5.92381L11.1085 5.92551L10.5208 6.53991C10.4843 6.60268 10.4334 6.65551 10.3731 6.69432L6.04619 11.2179C5.92575 11.3485 5.76719 11.4563 5.62052 11.5347C5.47113 11.6146 5.29554 11.6846 5.12711 11.7145L5.12408 11.7151L3.57983 11.9788C3.57979 11.9788 3.57986 11.9788 3.57983 11.9788C3.18003 12.0477 2.78946 11.9484 2.5091 11.6826C2.22917 11.4171 2.10898 11.033 2.1536 10.6314L2.15376 10.6301L2.33226 9.067C2.35463 8.89923 2.41612 8.72166 2.4867 8.57032C2.55696 8.41965 2.65447 8.25601 2.77307 8.12975L2.77587 8.12677L7.83978 2.83266C7.84007 2.83236 7.84036 2.83206 7.84064 2.83175C8.20634 2.44566 8.66793 2.08684 9.24095 2.01356ZM9.94551 5.82614L10.4499 5.29883C10.4501 5.29858 10.4504 5.29832 10.4506 5.29807C10.7657 4.965 10.9253 4.6768 10.9437 4.41431C10.9604 4.17556 10.8663 3.84381 10.3961 3.39905C9.92881 2.95949 9.59377 2.88494 9.35626 2.91531C9.09487 2.94874 8.81545 3.12438 8.49997 3.45764L8.49835 3.45935L8.00283 3.97739C8.23231 4.91974 8.99203 5.64123 9.94551 5.82614ZM7.29412 4.71832C7.65908 5.57511 8.36342 6.24441 9.23575 6.56816L5.386 10.5929L5.37858 10.6009C5.35078 10.6314 5.28581 10.6828 5.19188 10.733C5.09971 10.7823 5.01679 10.8106 4.96913 10.8193C4.96875 10.8193 4.96837 10.8194 4.96799 10.8195L3.42606 11.0828C3.26933 11.1098 3.17934 11.0653 3.13466 11.0229C3.08958 10.9802 3.03951 10.8918 3.05707 10.7324C3.05705 10.7326 3.05709 10.7322 3.05707 10.7324L3.2339 9.18393C3.24098 9.13522 3.26583 9.05055 3.3106 8.95455C3.35616 8.85684 3.40442 8.78588 3.43463 8.75329L7.29412 4.71832Z" fill="#AAAAAA"/>
</svg>
