<svg width="12" height="12" viewBox="0 0 12 12" fill="none" xmlns="http://www.w3.org/2000/svg">
<path fill-rule="evenodd" clip-rule="evenodd" d="M8.42227 0.737819C9.07927 0.653806 9.73183 0.925356 10.3787 1.53397L10.3796 1.53484C11.0284 2.14843 11.3391 2.78615 11.2928 3.44837C11.2484 4.08435 10.8806 4.61415 10.4783 5.03909L10.4765 5.04096L9.83009 5.7168C9.78999 5.78585 9.734 5.84397 9.66762 5.88665L4.90803 10.8626C4.77555 11.0063 4.60113 11.1248 4.43979 11.2111C4.27547 11.2989 4.08232 11.3759 3.89705 11.4089L3.89372 11.4095L2.19503 11.6996C2.19499 11.6996 2.19508 11.6996 2.19503 11.6996C1.75526 11.7754 1.32563 11.6662 1.01724 11.3737C0.709314 11.0817 0.577109 10.6592 0.626191 10.2175L0.626362 10.216L0.822709 8.4966C0.847316 8.31205 0.914959 8.11672 0.992591 7.95025C1.06988 7.78451 1.17714 7.60451 1.3076 7.46563L1.31069 7.46234L6.88098 1.63883C6.8813 1.6385 6.88162 1.63816 6.88193 1.63783C7.2842 1.21312 7.79195 0.81842 8.42227 0.737819ZM9.19728 4.93165L9.7521 4.35162C9.75237 4.35134 9.75264 4.35106 9.7529 4.35077C10.0995 3.9844 10.2751 3.66738 10.2953 3.37865C10.3136 3.11601 10.2101 2.7511 9.69296 2.26185C9.17892 1.77834 8.81037 1.69633 8.54911 1.72974C8.26158 1.76651 7.95422 1.95972 7.60719 2.32631L7.60541 2.32818L7.06034 2.89803C7.31276 3.93462 8.14845 4.72826 9.19728 4.93165ZM6.28076 3.71306C6.68222 4.65552 7.45698 5.39175 8.41655 5.74788L4.18182 10.1751L4.17367 10.1839C4.14308 10.2174 4.07162 10.274 3.9683 10.3292C3.86691 10.3834 3.7757 10.4145 3.72327 10.4241C3.72285 10.4242 3.72243 10.4242 3.72201 10.4243L2.0259 10.714C1.85349 10.7437 1.7545 10.6947 1.70535 10.6481C1.65576 10.6011 1.60068 10.5039 1.62 10.3286C1.61998 10.3288 1.62003 10.3284 1.62 10.3286L1.81452 8.62522C1.8223 8.57164 1.84964 8.47851 1.89889 8.3729C1.94901 8.26542 2.00209 8.18737 2.03532 8.15151L6.28076 3.71306Z" fill="#459BFF"/>
</svg>
