<svg width="81" height="102" viewBox="0 0 81 102" fill="none" xmlns="http://www.w3.org/2000/svg">
<path d="M36.7675 26.9442C36.7675 25.0498 38.2773 23.4789 40.098 23.4789C41.9186 23.4789 43.4284 25.0498 43.4284 26.9442V46.7096C43.4284 48.604 41.9186 50.175 40.098 50.175C38.2773 50.175 36.7675 48.604 36.7675 46.7096V26.9442Z" fill="url(#paint0_linear_118_7530)"/>
<path d="M43.4284 56.849C43.4284 58.692 41.9373 60.186 40.098 60.186C38.2586 60.186 36.7675 58.692 36.7675 56.849C36.7675 55.006 38.2586 53.512 40.098 53.512C41.9373 53.512 43.4284 55.006 43.4284 56.849Z" fill="url(#paint1_linear_118_7530)"/>
<path fill-rule="evenodd" clip-rule="evenodd" d="M75.5161 66.9289L40.5 4.97668L5.48391 66.9289H75.5161ZM44.8325 2.52787C42.9274 -0.842628 38.0726 -0.842619 36.1675 2.52788L1.15144 64.4801C-0.723696 67.7976 1.6731 71.9055 5.48391 71.9055H75.5161C79.3269 71.9055 81.7237 67.7976 79.8485 64.48L44.8325 2.52787Z" fill="url(#paint2_linear_118_7530)"/>
<path d="M64.3183 101.67L75.5161 81.8585H5.48391L16.6817 101.67H10.9651L1.15144 84.3073C-0.723696 80.9897 1.6731 76.8818 5.48391 76.8818H75.5161C79.3269 76.8818 81.7237 80.9898 79.8485 84.3073L70.0349 101.67H64.3183Z" fill="url(#paint3_linear_118_7530)"/>
<path d="M43.4049 101.67C43.2072 99.9633 41.7862 98.6124 40.098 98.6124C38.4097 98.6124 36.9887 99.9633 36.791 101.67H43.4049Z" fill="url(#paint4_linear_118_7530)"/>
<path d="M43.4284 91.9384C43.4284 90.0954 41.9373 88.6014 40.098 88.6014C38.2586 88.6014 36.7675 90.0954 36.7675 91.9384C36.7675 93.7814 38.2586 95.2754 40.098 95.2754C41.9373 95.2754 43.4284 93.7814 43.4284 91.9384Z" fill="url(#paint5_linear_118_7530)"/>
<defs>
<linearGradient id="paint0_linear_118_7530" x1="40.5" y1="0" x2="40.5" y2="71.9055" gradientUnits="userSpaceOnUse">
<stop stop-color="#0057BB"/>
<stop offset="1" stop-color="#0057BB" stop-opacity="0.2"/>
</linearGradient>
<linearGradient id="paint1_linear_118_7530" x1="40.5" y1="0" x2="40.5" y2="71.9055" gradientUnits="userSpaceOnUse">
<stop stop-color="#0057BB"/>
<stop offset="1" stop-color="#0057BB" stop-opacity="0.2"/>
</linearGradient>
<linearGradient id="paint2_linear_118_7530" x1="40.5" y1="0" x2="40.5" y2="71.9055" gradientUnits="userSpaceOnUse">
<stop stop-color="#0057BB"/>
<stop offset="1" stop-color="#0057BB" stop-opacity="0.2"/>
</linearGradient>
<linearGradient id="paint3_linear_118_7530" x1="40.5" y1="55.7881" x2="40.5" y2="105.288" gradientUnits="userSpaceOnUse">
<stop offset="0.165201" stop-color="#0057BB" stop-opacity="0.3"/>
<stop offset="0.845861" stop-color="#002C5F" stop-opacity="0"/>
</linearGradient>
<linearGradient id="paint4_linear_118_7530" x1="40.5" y1="55.7881" x2="40.5" y2="105.288" gradientUnits="userSpaceOnUse">
<stop offset="0.165201" stop-color="#0057BB" stop-opacity="0.3"/>
<stop offset="0.845861" stop-color="#002C5F" stop-opacity="0"/>
</linearGradient>
<linearGradient id="paint5_linear_118_7530" x1="40.5" y1="55.7881" x2="40.5" y2="105.288" gradientUnits="userSpaceOnUse">
<stop offset="0.165201" stop-color="#0057BB" stop-opacity="0.3"/>
<stop offset="0.845861" stop-color="#002C5F" stop-opacity="0"/>
</linearGradient>
</defs>
</svg>
