<svg width="24" height="19" viewBox="0 0 24 19" fill="none" xmlns="http://www.w3.org/2000/svg">
<path fill-rule="evenodd" clip-rule="evenodd" d="M2.6983 2.7881C2.6983 1.35776 3.85782 0.198242 5.28816 0.198242H12.4476C13.8779 0.198242 15.0374 1.35776 15.0374 2.7881V6.9102H16.9222C17.8989 6.9102 18.5865 7.33507 19.0033 7.91395C19.3908 8.45204 19.5121 9.07373 19.5121 9.50005V13.5272C19.5121 14.0739 19.9552 14.5171 20.5019 14.5171C21.0486 14.5171 21.4918 14.0739 21.4918 13.5272V5.76252L19.4399 3.30024C19.157 2.96082 19.2029 2.45637 19.5423 2.17352C19.8817 1.89067 20.3862 1.93653 20.669 2.27595L22.9064 4.96073C23.0262 5.1045 23.0918 5.28573 23.0918 5.47288V13.5272C23.0918 14.9576 21.9323 16.1171 20.5019 16.1171C19.0716 16.1171 17.9121 14.9576 17.9121 13.5272V9.50005C17.9121 9.32976 17.8544 9.05652 17.7049 8.84884C17.5847 8.68195 17.3774 8.5102 16.9222 8.5102H15.0374V17.2019H16.0273C16.4691 17.2019 16.8273 17.56 16.8273 18.0019C16.8273 18.4437 16.4691 18.8019 16.0273 18.8019H1.70845C1.26662 18.8019 0.908447 18.4437 0.908447 18.0019C0.908447 17.56 1.26662 17.2019 1.70845 17.2019H2.6983V2.7881ZM4.2983 17.2019H13.4374V2.7881C13.4374 2.24142 12.9943 1.79824 12.4476 1.79824H5.28816C4.74148 1.79824 4.2983 2.24142 4.2983 2.7881V17.2019ZM9.19616 4.74334C9.59907 4.92465 9.77872 5.39826 9.59741 5.80117L8.38273 8.50044L10.5694 8.25748C10.8607 8.22512 11.1463 8.35462 11.3139 8.59502C11.4816 8.83541 11.5043 9.14823 11.3733 9.41036L9.58341 12.9901C9.38582 13.3853 8.90528 13.5454 8.5101 13.3478C8.11492 13.1503 7.95474 12.6697 8.15233 12.2745L9.28455 10.0101L7.16636 10.2454C6.88088 10.2772 6.60032 10.1534 6.43126 9.9212C6.2622 9.68899 6.23061 9.38398 6.34848 9.12204L8.13833 5.14459C8.31964 4.74168 8.79325 4.56203 9.19616 4.74334Z" fill="white"/>
</svg>
