<svg width="24" height="20" viewBox="0 0 24 20" fill="none" xmlns="http://www.w3.org/2000/svg">
<path fill-rule="evenodd" clip-rule="evenodd" d="M2.6983 3.54115C2.6983 2.11081 3.85782 0.951294 5.28816 0.951294H12.4476C13.8779 0.951294 15.0374 2.11081 15.0374 3.54115V7.66325H16.9222C17.8989 7.66325 18.5865 8.08812 19.0033 8.667C19.3908 9.2051 19.5121 9.82678 19.5121 10.2531V14.2803C19.5121 14.827 19.9552 15.2701 20.5019 15.2701C21.0486 15.2701 21.4918 14.827 21.4918 14.2803V6.51557L19.4399 4.0533C19.157 3.71387 19.2029 3.20942 19.5423 2.92657C19.8817 2.64372 20.3862 2.68958 20.669 3.029L22.9064 5.71378C23.0262 5.85756 23.0918 6.03878 23.0918 6.22593V14.2803C23.0918 15.7106 21.9323 16.8701 20.5019 16.8701C19.0716 16.8701 17.9121 15.7106 17.9121 14.2803V10.2531C17.9121 10.0828 17.8544 9.80957 17.7049 9.60189C17.5847 9.435 17.3774 9.26325 16.9222 9.26325H15.0374V17.9549H16.0273C16.4691 17.9549 16.8273 18.3131 16.8273 18.7549C16.8273 19.1967 16.4691 19.5549 16.0273 19.5549H1.70845C1.26662 19.5549 0.908447 19.1967 0.908447 18.7549C0.908447 18.3131 1.26662 17.9549 1.70845 17.9549H2.6983V3.54115ZM4.2983 17.9549H13.4374V3.54115C13.4374 2.99447 12.9943 2.55129 12.4476 2.55129H5.28816C4.74148 2.55129 4.2983 2.99447 4.2983 3.54115V17.9549ZM9.19616 5.49639C9.59907 5.67771 9.77872 6.15131 9.59741 6.55422L8.38273 9.2535L10.5694 9.01054C10.8607 8.97817 11.1463 9.10767 11.3139 9.34807C11.4816 9.58847 11.5043 9.90128 11.3733 10.1634L9.58341 13.7431C9.38582 14.1383 8.90528 14.2985 8.5101 14.1009C8.11492 13.9033 7.95474 13.4228 8.15233 13.0276L9.28455 10.7631L7.16636 10.9985C6.88088 11.0302 6.60032 10.9065 6.43126 10.6743C6.2622 10.442 6.23061 10.137 6.34848 9.8751L8.13833 5.89764C8.31964 5.49473 8.79325 5.31508 9.19616 5.49639Z" fill="#05141F"/>
</svg>
