<svg width="20" height="20" viewBox="0 0 20 20" fill="none" xmlns="http://www.w3.org/2000/svg">
<path d="M0.5 1C0.5 0.723858 0.723858 0.5 1 0.5H7C7.27614 0.5 7.5 0.723858 7.5 1V7C7.5 7.27614 7.27614 7.5 7 7.5H1C0.723858 7.5 0.5 7.27614 0.5 7V1ZM0.5 13C0.5 12.7239 0.723858 12.5 1 12.5H7C7.27614 12.5 7.5 12.7239 7.5 13V19C7.5 19.2761 7.27614 19.5 7 19.5H1C0.723858 19.5 0.5 19.2761 0.5 19V13ZM12.5 1C12.5 0.723858 12.7239 0.5 13 0.5H19C19.2761 0.5 19.5 0.723858 19.5 1V7C19.5 7.27614 19.2761 7.5 19 7.5H13C12.7239 7.5 12.5 7.27614 12.5 7V1ZM12.5 13C12.5 12.7239 12.7239 12.5 13 12.5H19C19.2761 12.5 19.5 12.7239 19.5 13V19C19.5 19.2761 19.2761 19.5 19 19.5H13C12.7239 19.5 12.5 19.2761 12.5 19V13Z" stroke="#D9D9D9"/>
</svg>
