<svg width="20" height="18" viewBox="0 0 20 18" fill="none" xmlns="http://www.w3.org/2000/svg">
<path fill-rule="evenodd" clip-rule="evenodd" d="M1.81522 3.1304C1.81522 1.85174 2.85178 0.815186 4.13043 0.815186H10.3913C11.67 0.815186 12.7065 1.85174 12.7065 3.1304V6.68475H14.3043C15.1749 6.68475 15.7913 7.06427 16.1652 7.58348C16.5115 8.06445 16.6196 8.61908 16.6196 8.99997V12.5217C16.6196 12.9719 16.9846 13.3369 17.4348 13.3369C17.885 13.3369 18.25 12.9719 18.25 12.5217V5.74977L16.4673 3.61054C16.2021 3.29233 16.2451 2.81941 16.5633 2.55424C16.8815 2.28906 17.3545 2.33206 17.6196 2.65026L19.5762 4.99809C19.6885 5.13288 19.75 5.30278 19.75 5.47823V12.5217C19.75 13.8004 18.7134 14.8369 17.4348 14.8369C16.1561 14.8369 15.1196 13.8004 15.1196 12.5217V8.99997C15.1196 8.85912 15.0711 8.63114 14.9479 8.45994C14.8521 8.32697 14.686 8.18475 14.3043 8.18475H12.7065V15.6848H13.5217C13.936 15.6848 14.2717 16.0205 14.2717 16.4348C14.2717 16.849 13.936 17.1848 13.5217 17.1848H1C0.585786 17.1848 0.25 16.849 0.25 16.4348C0.25 16.0205 0.585786 15.6848 1 15.6848H1.81522V3.1304ZM3.31522 15.6848H11.2065V3.1304C11.2065 2.68017 10.8415 2.31519 10.3913 2.31519H4.13043C3.6802 2.31519 3.31522 2.68017 3.31522 3.1304V15.6848ZM4.94565 7.82606C4.94565 7.41184 5.28144 7.07606 5.69565 7.07606H9.6087C10.0229 7.07606 10.3587 7.41184 10.3587 7.82606C10.3587 8.24027 10.0229 8.57606 9.6087 8.57606H5.69565C5.28144 8.57606 4.94565 8.24027 4.94565 7.82606Z" fill="#05141F"/>
</svg>
