<svg width="21" height="20" viewBox="0 0 21 20" fill="none" xmlns="http://www.w3.org/2000/svg">
<path fill-rule="evenodd" clip-rule="evenodd" d="M0.359375 2C0.359375 0.89543 1.25481 0 2.35938 0H6.35938C6.91166 0 7.35938 0.447715 7.35938 1C7.35938 1.55228 6.91166 2 6.35938 2H2.35938V6C2.35938 6.55228 1.91166 7 1.35938 7C0.80709 7 0.359375 6.55228 0.359375 6V2ZM13.3594 1C13.3594 0.447715 13.8071 0 14.3594 0H18.3594C19.464 0 20.3594 0.895439 20.3594 2V6C20.3594 6.55228 19.9117 7 19.3594 7C18.8071 7 18.3594 6.55228 18.3594 6L18.3594 2H14.3594C13.8071 2 13.3594 1.55228 13.3594 1ZM10.4844 5.5C10.4844 4.94771 10.9321 4.5 11.4844 4.5L14.8594 4.5C15.4117 4.5 15.8594 4.94772 15.8594 5.5L15.8594 8.875C15.8594 9.42728 15.4117 9.875 14.8594 9.875C14.3071 9.875 13.8594 9.42728 13.8594 8.875L13.8594 7.91422L8.27361 13.5L9.23437 13.5C9.78666 13.5 10.2344 13.9477 10.2344 14.5C10.2344 15.0523 9.78666 15.5 9.23438 15.5L5.85939 15.5C5.30711 15.5 4.85939 15.0523 4.85939 14.5L4.85938 11.125C4.85937 10.5727 5.30709 10.125 5.85937 10.125C6.41166 10.125 6.85937 10.5727 6.85938 11.125L6.85938 12.0858L12.4452 6.5L11.4844 6.5C10.9321 6.5 10.4844 6.05228 10.4844 5.5ZM1.35938 13C1.91166 13 2.35938 13.4477 2.35938 14V18L6.35938 18C6.91166 18 7.35938 18.4477 7.35938 19C7.35938 19.5523 6.91166 20 6.35938 20H2.35938C1.25481 20 0.359375 19.1046 0.359375 18V14C0.359375 13.4477 0.80709 13 1.35938 13ZM19.3594 13C19.9117 13 20.3594 13.4477 20.3594 14V18C20.3594 19.1046 19.464 20 18.3594 20H14.3594C13.8071 20 13.3594 19.5523 13.3594 19C13.3594 18.4477 13.8071 18 14.3594 18L18.3594 18V14C18.3594 13.4477 18.8071 13 19.3594 13Z" fill="#05141F"/>
</svg>
