<svg width="20" height="20" viewBox="0 0 20 20" fill="none" xmlns="http://www.w3.org/2000/svg">
<path fill-rule="evenodd" clip-rule="evenodd" d="M0 2C0 0.89543 0.89543 0 2 0H6C6.55228 0 7 0.447715 7 1C7 1.55228 6.55228 2 6 2H2V6C2 6.55228 1.55228 7 1 7C0.447715 7 0 6.55228 0 6V2ZM13 1C13 0.447715 13.4477 0 14 0H18C19.1046 0 20 0.895439 20 2V6C20 6.55228 19.5523 7 19 7C18.4477 7 18 6.55228 18 6L18 2H14C13.4477 2 13 1.55228 13 1ZM10.125 5.5C10.125 4.94771 10.5727 4.5 11.125 4.5L14.5 4.5C15.0523 4.5 15.5 4.94772 15.5 5.5L15.5 8.875C15.5 9.42728 15.0523 9.875 14.5 9.875C13.9477 9.875 13.5 9.42728 13.5 8.875L13.5 7.91422L7.91423 13.5L8.875 13.5C9.42728 13.5 9.875 13.9477 9.875 14.5C9.875 15.0523 9.42729 15.5 8.875 15.5L5.50002 15.5C4.94773 15.5 4.50002 15.0523 4.50001 14.5L4.5 11.125C4.5 10.5727 4.94771 10.125 5.5 10.125C6.05228 10.125 6.5 10.5727 6.5 11.125L6.5 12.0858L12.0858 6.5L11.125 6.5C10.5727 6.5 10.125 6.05228 10.125 5.5ZM1 13C1.55228 13 2 13.4477 2 14V18L6 18C6.55228 18 7 18.4477 7 19C7 19.5523 6.55228 20 6 20H2C0.895439 20 0 19.1046 0 18V14C0 13.4477 0.447715 13 1 13ZM19 13C19.5523 13 20 13.4477 20 14V18C20 19.1046 19.1046 20 18 20H14C13.4477 20 13 19.5523 13 19C13 18.4477 13.4477 18 14 18L18 18V14C18 13.4477 18.4477 13 19 13Z" fill="white"/>
</svg>
