<svg width="20" height="20" viewBox="0 0 20 20" fill="none" xmlns="http://www.w3.org/2000/svg">
<path fill-rule="evenodd" clip-rule="evenodd" d="M10 0C10.5523 0 11 0.447715 11 1V2.31392C14.4805 2.76229 17.2377 5.51953 17.6861 9H19C19.5523 9 20 9.44771 20 10C20 10.5523 19.5523 11 19 11H17.6861C17.2377 14.4805 14.4805 17.2377 11 17.6861V19C11 19.5523 10.5523 20 10 20C9.44771 20 9 19.5523 9 19V17.6861C5.51953 17.2377 2.76229 14.4805 2.31392 11H1C0.447715 11 0 10.5523 0 10C0 9.44771 0.447715 9 1 9H2.31403C2.4345 8.06601 2.72144 7.18294 3.14446 6.38267C3.40256 5.89441 4.0076 5.70782 4.49587 5.96592C4.98414 6.22401 5.17072 6.82906 4.91263 7.31733C4.48983 8.11717 4.25 9.0291 4.25 10C4.25 13.1756 6.82436 15.75 10 15.75C13.1756 15.75 15.75 13.1756 15.75 10C15.75 6.82436 13.1756 4.25 10 4.25C9.0291 4.25 8.11717 4.48983 7.31733 4.91263C6.82906 5.17072 6.22401 4.98414 5.96592 4.49587C5.70782 4.0076 5.89441 3.40256 6.38267 3.14446C7.18294 2.72144 8.06601 2.4345 9 2.31403V1C9 0.447715 9.44771 0 10 0ZM10 8.3C9.06112 8.3 8.3 9.06112 8.3 10C8.3 10.9389 9.06112 11.7 10 11.7C10.9389 11.7 11.7 10.9389 11.7 10C11.7 9.06112 10.9389 8.3 10 8.3ZM6.3 10C6.3 7.95655 7.95655 6.3 10 6.3C12.0435 6.3 13.7 7.95655 13.7 10C13.7 12.0435 12.0435 13.7 10 13.7C7.95655 13.7 6.3 12.0435 6.3 10Z" fill="white"/>
</svg>
