<svg width="20" height="20" viewBox="0 0 20 20" fill="none" xmlns="http://www.w3.org/2000/svg">
<path fill-rule="evenodd" clip-rule="evenodd" d="M5.95019 0.25C6.36441 0.25 6.70019 0.585786 6.70019 1V3.77447L13.3002 3.77447V1C13.3002 0.585786 13.636 0.25 14.0502 0.25C14.4644 0.25 14.8002 0.585786 14.8002 1V3.77447L18.5502 3.77447C18.9644 3.77447 19.3002 4.11026 19.3002 4.52447C19.3002 4.93869 18.9644 5.27447 18.5502 5.27447H16.6002V12.4545C16.6002 14.3436 15.0405 15.8479 13.1502 15.8479H11.2002V16.7972C11.2002 18.4429 9.84198 19.75 8.20019 19.75H5.52162C5.10741 19.75 4.77162 19.4142 4.77162 19C4.77162 18.5858 5.10741 18.25 5.52162 18.25H8.20019C9.04369 18.25 9.70019 17.5846 9.70019 16.7972V15.8479H6.85019C4.95988 15.8479 3.40019 14.3436 3.40019 12.4545V5.27448H1.4502C1.03598 5.27448 0.700195 4.93869 0.700195 4.52448C0.700195 4.11026 1.03598 3.77448 1.4502 3.77448L5.20019 3.77447V1C5.20019 0.585786 5.53598 0.25 5.95019 0.25ZM5.94944 5.27447H4.9002V12.4545C4.9002 13.4853 5.75817 14.3479 6.85019 14.3479H13.1502C14.2422 14.3479 15.1002 13.4853 15.1002 12.4545V5.27447H14.0515C14.051 5.27447 14.0506 5.27448 14.0502 5.27448C14.0498 5.27448 14.0493 5.27447 14.0489 5.27447L5.95095 5.27447C5.9507 5.27447 5.95121 5.27447 5.95095 5.27447C5.9507 5.27447 5.94969 5.27447 5.94944 5.27447ZM10.3134 6.48637C10.6898 6.65936 10.8546 7.1047 10.6817 7.48106L9.88409 9.21625L11.2691 9.06559C11.5431 9.03578 11.8113 9.15864 11.9677 9.38555C12.1241 9.61246 12.1435 9.90688 12.0181 10.1523L10.6681 12.7957C10.4797 13.1646 10.028 13.3109 9.65907 13.1225C9.29018 12.9341 9.14386 12.4823 9.33226 12.1134L10.0505 10.707L8.7313 10.8505C8.46284 10.8797 8.19941 10.7623 8.0416 10.5432C7.88379 10.3241 7.85596 10.037 7.96873 9.79167L9.31873 6.8546C9.49173 6.47824 9.93706 6.31338 10.3134 6.48637Z" fill="white"/>
</svg>
