<svg width="41" height="40" viewBox="0 0 41 40" fill="none" xmlns="http://www.w3.org/2000/svg">
<g opacity="0.2">
<path d="M19 11.5385C19 10.6974 19.68 10 20.5 10C21.32 10 22 10.6974 22 11.5385V21.7949C22 22.6359 21.32 23.3333 20.5 23.3333C19.68 23.3333 19 22.6359 19 21.7949V11.5385ZM22.34 28.7282C22.24 28.9949 22.1 29.2 21.92 29.4051C21.72 29.5897 21.5 29.7333 21.26 29.8359C21.02 29.9385 20.76 30 20.5 30C20.24 30 19.98 29.9385 19.74 29.8359C19.5 29.7333 19.28 29.5897 19.08 29.4051C18.9 29.2 18.76 28.9949 18.66 28.7282C18.56 28.482 18.5 28.2154 18.5 27.9487C18.5 27.6821 18.56 27.4154 18.66 27.1692C18.76 26.9231 18.9 26.6974 19.08 26.4923C19.28 26.3077 19.5 26.1641 19.74 26.0615C20.22 25.8564 20.78 25.8564 21.26 26.0615C21.5 26.1641 21.72 26.3077 21.92 26.4923C22.1 26.6974 22.24 26.9231 22.34 27.1692C22.44 27.4154 22.5 27.6821 22.5 27.9487C22.5 28.2154 22.44 28.482 22.34 28.7282Z" fill="#D1D1D1"/>
<path fill-rule="evenodd" clip-rule="evenodd" d="M20.5 38C30.4411 38 38.5 29.9411 38.5 20C38.5 10.0589 30.4411 2 20.5 2C10.5589 2 2.5 10.0589 2.5 20C2.5 29.9411 10.5589 38 20.5 38ZM20.5 40C31.5457 40 40.5 31.0457 40.5 20C40.5 8.9543 31.5457 0 20.5 0C9.4543 0 0.5 8.9543 0.5 20C0.5 31.0457 9.4543 40 20.5 40Z" fill="#EFEFEF"/>
</g>
</svg>
