<svg width="20" height="20" viewBox="0 0 20 20" fill="none" xmlns="http://www.w3.org/2000/svg">
<rect width="20" height="20" rx="10" fill="#05141F"/>
<path fill-rule="evenodd" clip-rule="evenodd" d="M10 5.33333C8.52724 5.33333 7.33333 6.52724 7.33333 8C7.33333 9.47276 8.52724 10.6667 10 10.6667C11.4728 10.6667 12.6667 9.47276 12.6667 8C12.6667 6.52724 11.4728 5.33333 10 5.33333ZM12.5307 11.0978C13.4275 10.3643 14 9.24901 14 8C14 5.79086 12.2091 4 10 4C7.79086 4 6 5.79086 6 8C6 9.24901 6.57246 10.3643 7.46933 11.0978C6.86264 11.3162 6.30844 11.6118 5.82876 11.9716C4.73734 12.7901 4 13.9719 4 15.3333C4 15.7015 4.29848 16 4.66667 16C5.03486 16 5.33333 15.7015 5.33333 15.3333C5.33333 14.4856 5.7899 13.6674 6.62876 13.0382C7.46783 12.4089 8.65754 12 10 12C11.3425 12 12.5322 12.4089 13.3712 13.0382C14.2101 13.6674 14.6667 14.4856 14.6667 15.3333C14.6667 15.7015 14.9651 16 15.3333 16C15.7015 16 16 15.7015 16 15.3333C16 13.9719 15.2627 12.7901 14.1712 11.9716C13.6916 11.6118 13.1374 11.3162 12.5307 11.0978Z" fill="#73B4FF"/>
</svg>
