<?xml version="1.0" encoding="UTF-8"?>
<svg xmlns="http://www.w3.org/2000/svg" xmlns:xlink="http://www.w3.org/1999/xlink" width="44px" height="36px" viewBox="0 0 44 36" version="1.1">
<g id="surface1">
<path style=" stroke:none;fill-rule:nonzero;fill:rgb(100%,100%,100%);fill-opacity:1;" d="M 44.101562 12.753906 C 44.101562 20.535156 44.101562 28.316406 44.101562 36.097656 C 29.441406 36.097656 14.78125 36.097656 0.113281 36.097656 C 0.113281 24.113281 0.113281 12.121094 0.113281 0.117188 C 14.769531 0.117188 29.4375 0.117188 44.101562 0.117188 C 44.101562 2.375 44.101562 4.636719 44.070312 6.953125 C 43.765625 7.273438 43.535156 7.597656 43.222656 7.789062 C 42.070312 8.503906 40.773438 8.875 39.4375 8.929688 C 37.105469 9.023438 34.765625 9.019531 32.429688 9.023438 C 30.726562 9.027344 29.019531 8.945312 27.316406 8.953125 C 24.144531 8.96875 20.972656 9.015625 17.804688 9.0625 C 15.785156 9.089844 14.21875 10.042969 12.960938 11.550781 C 12.050781 12.636719 11.183594 13.753906 10.296875 14.859375 C 9.742188 15.550781 9.1875 16.238281 8.601562 16.96875 C 8.714844 16.96875 8.769531 16.980469 8.8125 16.964844 C 8.890625 16.9375 8.96875 16.898438 9.039062 16.855469 C 10.601562 15.902344 12.308594 15.527344 14.121094 15.527344 C 22.015625 15.535156 29.910156 15.539062 37.804688 15.523438 C 38.761719 15.519531 39.738281 15.488281 40.675781 15.304688 C 42.191406 15.007812 43.582031 14.441406 44.101562 12.753906 Z M 44.101562 12.753906 "/>
<path style=" stroke:none;fill-rule:nonzero;fill:rgb(92.941176%,10.588235%,13.72549%);fill-opacity:1;" d="M 44.101562 12.707031 C 43.582031 14.441406 42.191406 15.007812 40.675781 15.304688 C 39.738281 15.488281 38.761719 15.519531 37.804688 15.523438 C 29.910156 15.539062 22.015625 15.535156 14.121094 15.527344 C 12.308594 15.527344 10.601562 15.902344 9.039062 16.855469 C 8.96875 16.898438 8.890625 16.9375 8.8125 16.964844 C 8.769531 16.980469 8.714844 16.96875 8.601562 16.96875 C 9.1875 16.238281 9.742188 15.550781 10.296875 14.859375 C 11.183594 13.753906 12.050781 12.636719 12.960938 11.550781 C 14.21875 10.042969 15.785156 9.089844 17.804688 9.0625 C 20.972656 9.015625 24.144531 8.96875 27.316406 8.953125 C 29.019531 8.945312 30.726562 9.027344 32.429688 9.023438 C 34.765625 9.019531 37.105469 9.023438 39.4375 8.929688 C 40.773438 8.875 42.070312 8.503906 43.222656 7.789062 C 43.535156 7.597656 43.765625 7.273438 44.070312 7.003906 C 44.101562 8.882812 44.101562 10.769531 44.101562 12.707031 Z M 44.101562 12.707031 "/>
</g>
</svg>
