<svg width="20" height="20" viewBox="0 0 20 20" fill="none" xmlns="http://www.w3.org/2000/svg">
<path fill-rule="evenodd" clip-rule="evenodd" d="M2.32744 7.72727C2.11437 8.44769 2 9.21049 2 10C2 10.4967 2.04527 10.9829 2.13191 11.4545H5.76813C5.74116 10.979 5.72727 10.4932 5.72727 10C5.72727 9.22027 5.76198 8.45891 5.82825 7.72727H2.32744ZM3.23536 5.72727H6.10079C6.26683 4.83381 6.48447 4.01362 6.74604 3.2943C6.8377 3.04224 6.93632 2.79819 7.04215 2.56459C5.4639 3.19298 4.13287 4.30931 3.23536 5.72727ZM10 0C4.47715 0 0 4.47715 0 10C0 15.5228 4.47715 20 10 20C15.5228 20 20 15.5228 20 10C20 4.47715 15.5228 0 10 0ZM10 2C9.94923 2 9.77156 2.02517 9.48439 2.35919C9.20002 2.68996 8.8986 3.22709 8.62563 3.97778C8.43907 4.49081 8.27466 5.07891 8.1392 5.72727H11.8608C11.7253 5.07891 11.5609 4.49081 11.3744 3.97778C11.1014 3.22709 10.8 2.68996 10.5156 2.35919C10.2284 2.02517 10.0508 2 10 2ZM13.8992 5.72727C13.7332 4.83381 13.5155 4.01362 13.254 3.2943C13.1623 3.04224 13.0637 2.79819 12.9578 2.56459C14.5361 3.19298 15.8671 4.30931 16.7646 5.72727H13.8992ZM12.1628 7.72727H7.83718C7.76592 8.44666 7.72727 9.2086 7.72727 10C7.72727 10.4976 7.74255 10.9835 7.7716 11.4545H12.2284C12.2575 10.9835 12.2727 10.4976 12.2727 10C12.2727 9.2086 12.2341 8.44666 12.1628 7.72727ZM14.2319 11.4545C14.2588 10.979 14.2727 10.4932 14.2727 10C14.2727 9.22027 14.238 8.45891 14.1717 7.72727H17.6726C17.8856 8.44769 18 9.21049 18 10C18 10.4967 17.9547 10.9829 17.8681 11.4545H14.2319ZM12.011 13.4545H7.98903C8.14486 14.4314 8.36336 15.301 8.62563 16.0222C8.8986 16.7729 9.20002 17.31 9.48439 17.6408C9.77156 17.9748 9.94923 18 10 18C10.0508 18 10.2284 17.9748 10.5156 17.6408C10.8 17.31 11.1014 16.7729 11.3744 16.0222C11.6366 15.301 11.8551 14.4314 12.011 13.4545ZM12.9578 17.4354C13.0637 17.2018 13.1623 16.9578 13.254 16.7057C13.5935 15.7719 13.8591 14.668 14.0338 13.4545H17.2177C16.352 15.2602 14.8286 16.6906 12.9578 17.4354ZM7.04216 17.4354C6.93632 17.2018 6.8377 16.9578 6.74604 16.7057C6.40646 15.7719 6.14093 14.668 5.96621 13.4545H2.78226C3.64804 15.2602 5.17144 16.6906 7.04216 17.4354Z" fill="#05141F"/>
</svg>
