<svg width="21" height="20" viewBox="0 0 21 20" fill="none" xmlns="http://www.w3.org/2000/svg">
<path fill-rule="evenodd" clip-rule="evenodd" d="M2.68681 7.72727C2.47374 8.44769 2.35938 9.21049 2.35938 10C2.35938 10.4967 2.40465 10.9829 2.49128 11.4545H6.1275C6.10053 10.979 6.08665 10.4932 6.08665 10C6.08665 9.22027 6.12136 8.45891 6.18762 7.72727H2.68681ZM3.59474 5.72727H6.46017C6.62621 4.83381 6.84384 4.01362 7.10541 3.2943C7.19707 3.04224 7.29569 2.79819 7.40153 2.56459C5.82328 3.19298 4.49224 4.30931 3.59474 5.72727ZM10.3594 0C4.83653 0 0.359375 4.47715 0.359375 10C0.359375 15.5228 4.83653 20 10.3594 20C15.8822 20 20.3594 15.5228 20.3594 10C20.3594 4.47715 15.8822 0 10.3594 0ZM10.3594 2C10.3086 2 10.1309 2.02517 9.84377 2.35919C9.55939 2.68996 9.25798 3.22709 8.985 3.97778C8.79844 4.49081 8.63403 5.07891 8.49857 5.72727H12.2202C12.0847 5.07891 11.9203 4.49081 11.7337 3.97778C11.4608 3.22709 11.1594 2.68996 10.875 2.35919C10.5878 2.02517 10.4101 2 10.3594 2ZM14.2586 5.72727C14.0925 4.83381 13.8749 4.01362 13.6133 3.2943C13.5217 3.04224 13.4231 2.79819 13.3172 2.56459C14.8955 3.19298 16.2265 4.30931 17.124 5.72727H14.2586ZM12.5222 7.72727H8.19656C8.12529 8.44666 8.08665 9.2086 8.08665 10C8.08665 10.4976 8.10192 10.9835 8.13098 11.4545H12.5878C12.6168 10.9835 12.6321 10.4976 12.6321 10C12.6321 9.2086 12.5935 8.44666 12.5222 7.72727ZM14.5912 11.4545C14.6182 10.979 14.6321 10.4932 14.6321 10C14.6321 9.22027 14.5974 8.45891 14.5311 7.72727H18.0319C18.245 8.44769 18.3594 9.21049 18.3594 10C18.3594 10.4967 18.3141 10.9829 18.2275 11.4545H14.5912ZM12.3703 13.4545H8.3484C8.50423 14.4314 8.72273 15.301 8.985 16.0222C9.25798 16.7729 9.55939 17.31 9.84377 17.6408C10.1309 17.9748 10.3086 18 10.3594 18C10.4101 18 10.5878 17.9748 10.875 17.6408C11.1594 17.31 11.4608 16.7729 11.7337 16.0222C11.996 15.301 12.2145 14.4314 12.3703 13.4545ZM13.3172 17.4354C13.4231 17.2018 13.5217 16.9578 13.6133 16.7057C13.9529 15.7719 14.2184 14.668 14.3932 13.4545H17.5771C16.7113 15.2602 15.1879 16.6906 13.3172 17.4354ZM7.40153 17.4354C7.2957 17.2018 7.19707 16.9578 7.10541 16.7057C6.76583 15.7719 6.50031 14.668 6.32558 13.4545H3.14164C4.00742 15.2602 5.53081 16.6906 7.40153 17.4354Z" fill="#05141F"/>
</svg>
