<svg width="20" height="20" viewBox="0 0 20 20" fill="none" xmlns="http://www.w3.org/2000/svg">
<path fill-rule="evenodd" clip-rule="evenodd" d="M10 2C5.58172 2 2 5.58172 2 10C2 11.9757 2.71619 13.7841 3.90313 15.1798C4.25642 14.4144 4.82656 13.7523 5.51954 13.2325C5.91104 12.9389 6.34697 12.6856 6.81711 12.4781C6.04519 11.6809 5.57014 10.5944 5.57014 9.39706C5.57014 6.95047 7.55349 4.96712 10.0001 4.96712C12.4467 4.96712 14.43 6.95047 14.43 9.39706C14.43 10.5944 13.955 11.6809 13.183 12.4781C13.6532 12.6856 14.0891 12.9389 14.4806 13.2325C15.1736 13.7522 15.7437 14.4143 16.097 15.1797C17.2838 13.784 18 11.9757 18 10C18 9.41019 17.9363 8.83641 17.8159 8.28473C17.6981 7.74515 18.04 7.21224 18.5796 7.09444C19.1192 6.97664 19.6521 7.31855 19.7699 7.85813C19.9207 8.54905 20 9.26584 20 10C20 15.5228 15.5228 20 10 20C4.47715 20 0 15.5228 0 10C0 4.47715 4.47715 0 10 0C11.3123 0 12.568 0.253319 13.7189 0.71465C14.2315 0.920134 14.4805 1.50229 14.275 2.01492C14.0695 2.52755 13.4874 2.77655 12.9748 2.57106C12.0565 2.20299 11.0532 2 10 2ZM14.4659 16.6385C14.3716 15.99 13.9757 15.3538 13.2806 14.8325C12.4766 14.2295 11.3201 13.827 10.0001 13.827C8.68008 13.827 7.52354 14.2295 6.71954 14.8325C6.02443 15.3539 5.62856 15.9901 5.53427 16.6385C6.80968 17.4982 8.34624 18 10 18C11.6538 18 13.1904 17.4982 14.4659 16.6385ZM16.4286 1.28571C16.9809 1.28571 17.4286 1.73343 17.4286 2.28571V3.85714H19C19.5523 3.85714 20 4.30486 20 4.85714C20 5.40943 19.5523 5.85714 19 5.85714H17.4286V7.42857C17.4286 7.98086 16.9809 8.42857 16.4286 8.42857C15.8763 8.42857 15.4286 7.98086 15.4286 7.42857V5.85714H13.8571C13.3049 5.85714 12.8571 5.40943 12.8571 4.85714C12.8571 4.30486 13.3049 3.85714 13.8571 3.85714H15.4286V2.28571C15.4286 1.73343 15.8763 1.28571 16.4286 1.28571ZM10.0001 6.96711C8.65806 6.96711 7.57014 8.05504 7.57014 9.39706C7.57014 10.7391 8.65806 11.827 10.0001 11.827C11.3421 11.827 12.43 10.7391 12.43 9.39706C12.43 8.05504 11.3421 6.96711 10.0001 6.96711Z" fill="white"/>
</svg>
