<svg width="21" height="20" viewBox="0 0 21 20" fill="none" xmlns="http://www.w3.org/2000/svg">
<path fill-rule="evenodd" clip-rule="evenodd" d="M10.3594 2C5.9411 2 2.35938 5.58172 2.35938 10C2.35938 11.9757 3.07557 13.7841 4.2625 15.1798C4.6158 14.4144 5.18594 13.7523 5.87892 13.2325C6.27042 12.9389 6.70635 12.6856 7.17648 12.4781C6.40457 11.6809 5.92951 10.5944 5.92951 9.39706C5.92951 6.95047 7.91286 4.96712 10.3595 4.96712C12.806 4.96712 14.7894 6.95047 14.7894 9.39706C14.7894 10.5944 14.3143 11.6809 13.5424 12.4781C14.0126 12.6856 14.4485 12.9389 14.84 13.2325C15.5329 13.7522 16.1031 14.4143 16.4564 15.1797C17.6432 13.784 18.3594 11.9757 18.3594 10C18.3594 9.41019 18.2957 8.83641 18.1753 8.28473C18.0575 7.74515 18.3994 7.21224 18.939 7.09444C19.4785 6.97664 20.0114 7.31855 20.1292 7.85813C20.2801 8.54905 20.3594 9.26584 20.3594 10C20.3594 15.5228 15.8822 20 10.3594 20C4.83653 20 0.359375 15.5228 0.359375 10C0.359375 4.47715 4.83653 0 10.3594 0C11.6717 0 12.9274 0.253319 14.0783 0.71465C14.5909 0.920134 14.8399 1.50229 14.6344 2.01492C14.4289 2.52755 13.8468 2.77655 13.3341 2.57106C12.4159 2.20299 11.4126 2 10.3594 2ZM14.8252 16.6385C14.7309 15.99 14.3351 15.3538 13.64 14.8325C12.836 14.2295 11.6794 13.827 10.3595 13.827C9.03946 13.827 7.88292 14.2295 7.07892 14.8325C6.38381 15.3539 5.98793 15.9901 5.89365 16.6385C7.16905 17.4982 8.70561 18 10.3594 18C12.0132 18 13.5498 17.4982 14.8252 16.6385ZM16.7879 1.28571C17.3402 1.28571 17.7879 1.73343 17.7879 2.28571V3.85714H19.3594C19.9117 3.85714 20.3594 4.30486 20.3594 4.85714C20.3594 5.40943 19.9117 5.85714 19.3594 5.85714H17.7879V7.42857C17.7879 7.98086 17.3402 8.42857 16.7879 8.42857C16.2357 8.42857 15.7879 7.98086 15.7879 7.42857V5.85714H14.2165C13.6642 5.85714 13.2165 5.40943 13.2165 4.85714C13.2165 4.30486 13.6642 3.85714 14.2165 3.85714H15.7879V2.28571C15.7879 1.73343 16.2357 1.28571 16.7879 1.28571ZM10.3595 6.96711C9.01743 6.96711 7.92951 8.05504 7.92951 9.39706C7.92951 10.7391 9.01743 11.827 10.3595 11.827C11.7015 11.827 12.7894 10.7391 12.7894 9.39706C12.7894 8.05504 11.7015 6.96711 10.3595 6.96711Z" fill="#05141F"/>
</svg>
