<svg width="21" height="20" viewBox="0 0 21 20" fill="none" xmlns="http://www.w3.org/2000/svg">
<path d="M6.41331 14.3871L8.25296 16.2268M16.7313 12.3392C15.0837 13.9789 12.7241 14.4828 10.6525 13.8349L6.88523 17.5942C6.61328 17.8741 6.07738 18.0421 5.69346 17.9861L3.94979 17.7462C3.3739 17.6662 2.83801 17.1223 2.75002 16.5464L2.51007 14.8027C2.45408 14.4188 2.63804 13.8829 2.90199 13.6109L6.66127 9.85167C6.02139 7.77207 6.5173 5.41252 8.16498 3.77283C10.5245 1.41329 14.3558 1.41329 16.7233 3.77283C19.0909 6.13238 19.0909 9.97964 16.7313 12.3392ZM13.7002 7.99616C13.7002 8.65878 13.163 9.19593 12.5004 9.19593C11.8378 9.19593 11.3007 8.65878 11.3007 7.99616C11.3007 7.33355 11.8378 6.79639 12.5004 6.79639C13.163 6.79639 13.7002 7.33355 13.7002 7.99616Z" stroke="#002C5F" stroke-width="1.2" stroke-linecap="round" stroke-linejoin="round"/>
</svg>
