<svg width="72" height="20" viewBox="0 0 72 20" fill="none" xmlns="http://www.w3.org/2000/svg">
<path d="M16.35 10.1522H16.38L15.945 15.2899L18.63 15.4058L18.4425 8.97826H14.7975L10.86 17.3188L14.4525 15.4058L16.35 10.1522Z" fill="#05141F"/>
<path d="M18.7875 19.7174L18.6525 15.5362L10.77 17.5L9.7275 19.7174H12.81L13.485 17.8116H15.855L15.7575 19.7174H18.7875Z" fill="#05141F"/>
<path d="M23.94 18.8261H23.9175C23.28 19.6377 22.425 19.9928 21.39 19.9928C20.295 19.9928 19.4175 19.413 19.755 17.8913L21.165 11.471H24.2475L23.04 16.9638C22.905 17.5942 23.07 17.7754 23.46 17.7754C23.85 17.7754 24.1575 17.442 24.2625 16.9638L25.47 11.471H28.5525L26.7225 19.7681H23.7375L23.94 18.8188V18.8261Z" fill="#05141F"/>
<path d="M30.81 9.03623H33.8925L33.36 11.4783H34.4325L34.0125 13.413H32.9325L32.1225 17.1087C32.0025 17.6449 32.0325 17.8768 32.5425 17.8768C32.775 17.8768 32.925 17.8623 33.045 17.8333L32.61 19.8116C32.355 19.8406 31.5225 19.9058 31.065 19.9058C29.295 19.9058 28.44 19.8478 28.8525 17.971L29.85 13.413H28.92L29.34 11.4783H30.2775L30.8175 9.03623H30.81Z" fill="#05141F"/>
<path d="M37.23 15.6232C37.6575 13.6884 37.89 13.1812 38.445 13.1812C39 13.1812 39.015 13.6884 38.595 15.6232C38.1675 17.558 37.9275 18.0652 37.3725 18.0652C36.8175 18.0652 36.8025 17.558 37.23 15.6232ZM38.8725 11.2681C35.475 11.2681 34.6575 13.2971 34.1475 15.6232C33.63 17.971 33.5475 20 36.945 20C40.3425 20 41.1525 17.971 41.6775 15.6232C42.195 13.2899 42.27 11.2681 38.8725 11.2681Z" fill="#05141F"/>
<path d="M50.37 11.4783H53.55L53.0025 17.2029H53.0325L55.0575 11.4783H58.14L54.195 19.7826H50.5725L50.37 11.4783Z" fill="#05141F"/>
<path d="M61.9575 14.5435H60.6225L60.7275 14.058C60.9075 13.2464 61.1625 13.0145 61.605 13.0145C62.1 13.0145 62.2425 13.2464 62.0625 14.058L61.9575 14.5435ZM60.2775 16.1087H64.5L64.5375 15.9783C65.1075 13.3841 65.535 11.2609 62.025 11.2609C58.515 11.2609 57.8175 13.2899 57.3075 15.6159C56.79 17.9638 56.715 19.9928 60.1125 19.9928C61.155 19.9928 62.085 19.7609 62.7975 19.2681C63.51 18.7754 63.9975 18 64.2525 16.8623H61.455C61.2675 17.7029 61.0875 18.2391 60.4875 18.2391C59.8875 18.2391 59.955 17.6377 60.0525 17.1957L60.2925 16.1014L60.2775 16.1087Z" fill="#05141F"/>
<path d="M66.4575 11.4783H69.4425L69.165 12.7029H69.2025C69.675 11.9058 70.5075 11.2609 71.3475 11.2609C71.6775 11.2609 71.7675 11.2899 71.8575 11.3043L71.265 14.0217C71.16 14.0072 71.0325 13.9928 70.8975 13.9783C70.755 13.9565 70.6275 13.9565 70.3125 13.9565C69.2475 13.9565 68.8725 14.4928 68.655 15.4783L67.71 19.7754H64.6275L66.4575 11.4783Z" fill="#05141F"/>
<path d="M43.95 9.15942H50.4L49.905 11.4058H46.29L45.8925 13.1957H49.275L48.8025 15.3551H45.4125L44.9625 17.442H48.7125L48.2175 19.6884H41.6325L43.95 9.15942Z" fill="#05141F"/>
<path d="M4.2525 2.34058H1.3575V0H0V5.99275H1.3575V3.50725H4.2525V5.99275H5.61V0H4.2525V2.34058Z" fill="#05141F"/>
<path d="M33.765 0.34058C33.48 0.623188 33.465 1.03623 33.465 1.27536V5.99275H34.8225V4.07971H37.7025V5.99275H39.0675V0H34.8375C34.4325 0 34.0575 0.057971 33.7725 0.34058M35.175 1.16667H37.71V2.9058H34.83V1.50725C34.83 1.44203 34.8225 1.31884 34.8825 1.23913C34.9425 1.15942 35.0475 1.16667 35.175 1.16667Z" fill="#05141F"/>
<path d="M24.15 0H19.905V5.98551H21.2625V1.16667H23.8125C23.94 1.16667 24.045 1.16667 24.1125 1.24638C24.1725 1.31884 24.1575 1.44203 24.165 1.51449V5.99275H25.5225V1.27536C25.5225 1.03623 25.5 0.623188 25.215 0.347826C24.93 0.0652174 24.555 0.00724638 24.15 0.00724638" fill="#05141F"/>
<path d="M17.3475 4.47826C17.3475 4.55072 17.3475 4.67391 17.295 4.74638C17.2275 4.82609 17.13 4.81884 17.0025 4.81884H14.4525V0H13.095V5.98551H17.3325C17.7375 5.98551 18.1125 5.92754 18.3975 5.64493C18.6825 5.36232 18.6975 4.94928 18.705 4.71014V0H17.3475V4.47826Z" fill="#05141F"/>
<path d="M32.3325 1.27536C32.3325 1.03623 32.3175 0.623188 32.0325 0.34058C31.7475 0.057971 31.3725 0 30.9675 0H26.7225V5.98551H30.9675C31.365 5.98551 31.7475 5.92754 32.0325 5.64493C32.3175 5.36232 32.325 4.94928 32.3325 4.71014V1.27536ZM30.9825 4.47826C30.9825 4.55072 30.9825 4.67391 30.93 4.74638C30.87 4.82609 30.765 4.81884 30.6375 4.81884H28.0875V1.17391H30.6375C30.765 1.17391 30.87 1.17391 30.93 1.25362C30.99 1.32609 30.975 1.44928 30.9825 1.52174V4.48551V4.47826Z" fill="#05141F"/>
<path d="M9.3525 2.62319L7.7025 0H6.09L8.625 3.77536V5.99275H10.08V3.77536L12.615 0H11.0025L9.3525 2.62319Z" fill="#05141F"/>
<path d="M41.8725 0H40.425V5.98551H41.8725V0Z" fill="#05141F"/>
</svg>
