<svg width="20" height="20" viewBox="0 0 20 20" fill="none" xmlns="http://www.w3.org/2000/svg">
<path d="M5.91331 14.3869L7.75296 16.2265M16.2313 12.3389C14.5837 13.9786 12.2241 14.4825 10.1525 13.8347L6.38523 17.5939C6.11328 17.8739 5.57738 18.0419 5.19346 17.9859L3.44979 17.7459C2.8739 17.6659 2.33801 17.122 2.25002 16.5461L2.01007 14.8025C1.95408 14.4185 2.13804 13.8827 2.40199 13.6107L6.16127 9.85142C5.52139 7.77182 6.0173 5.41228 7.66498 3.77259C10.0245 1.41304 13.8558 1.41304 16.2233 3.77259C18.5909 6.13214 18.5909 9.9794 16.2313 12.3389ZM13.2002 7.99592C13.2002 8.65853 12.663 9.19569 12.0004 9.19569C11.3378 9.19569 10.8007 8.65853 10.8007 7.99592C10.8007 7.33331 11.3378 6.79615 12.0004 6.79615C12.663 6.79615 13.2002 7.33331 13.2002 7.99592Z" stroke="white" stroke-width="1.2" stroke-linecap="round" stroke-linejoin="round"/>
</svg>
