<svg width="70" height="20" viewBox="0 0 70 20" fill="none" xmlns="http://www.w3.org/2000/svg">
<path d="M15.9274 10.1522H15.9566L15.5328 15.2899L18.1484 15.4058L17.9658 8.97826H14.415L10.5793 17.3188L14.0789 15.4058L15.9274 10.1522Z" fill="#00418D"/>
<path d="M18.3018 19.7174L18.1703 15.5362L10.4916 17.5L9.47605 19.7174H12.4789L13.1364 17.8116H15.4452L15.3502 19.7174H18.3018Z" fill="#00418D"/>
<path d="M23.3212 18.8261H23.2992C22.6782 19.6377 21.8453 19.9928 20.8371 19.9928C19.7704 19.9928 18.9156 19.413 19.2443 17.8913L20.6179 11.471H23.6207L22.4444 16.9638C22.3129 17.5942 22.4736 17.7754 22.8536 17.7754C23.2335 17.7754 23.533 17.442 23.6353 16.9638L24.8116 11.471H27.8144L26.0317 19.7681H23.1239L23.3212 18.8188V18.8261Z" fill="#00418D"/>
<path d="M30.0136 9.03623H33.0164L32.4977 11.4783H33.5424L33.1333 13.413H32.0812L31.2921 17.1087C31.1752 17.6449 31.2045 17.8768 31.7013 17.8768C31.9278 17.8768 32.0739 17.8623 32.1908 17.8333L31.767 19.8116C31.5186 19.8406 30.7077 19.9058 30.262 19.9058C28.5377 19.9058 27.7048 19.8478 28.1067 17.971L29.0784 13.413H28.1724L28.5816 11.4783H29.4948L30.0209 9.03623H30.0136Z" fill="#00418D"/>
<path d="M36.2676 15.6232C36.6841 13.6884 36.9106 13.1812 37.4512 13.1812C37.9919 13.1812 38.0065 13.6884 37.5973 15.6232C37.1809 17.558 36.9471 18.0652 36.4064 18.0652C35.8658 18.0652 35.8512 17.558 36.2676 15.6232ZM37.8677 11.2681C34.558 11.2681 33.7616 13.2971 33.2648 15.6232C32.7607 17.971 32.6803 20 35.99 20C39.2997 20 40.0887 17.971 40.6001 15.6232C41.1043 13.2899 41.1773 11.2681 37.8677 11.2681Z" fill="#00418D"/>
<path d="M49.068 11.4783H52.1657L51.6324 17.2029H51.6616L53.6343 11.4783H56.6371L52.7941 19.7826H49.2652L49.068 11.4783Z" fill="#00418D"/>
<path d="M60.3559 14.5435H59.0554L59.1577 14.058C59.3331 13.2464 59.5815 13.0145 60.0125 13.0145C60.4947 13.0145 60.6335 13.2464 60.4582 14.058L60.3559 14.5435ZM58.7193 16.1087H62.8327L62.8692 15.9783C63.4245 13.3841 63.8409 11.2609 60.4217 11.2609C57.0024 11.2609 56.3229 13.2899 55.8261 15.6159C55.322 17.9638 55.2489 19.9928 58.5586 19.9928C59.5742 19.9928 60.4801 19.7609 61.1742 19.2681C61.8683 18.7754 62.3432 18 62.5916 16.8623H59.8664C59.6838 17.7029 59.5084 18.2391 58.9239 18.2391C58.3394 18.2391 58.4052 17.6377 58.5002 17.1957L58.734 16.1014L58.7193 16.1087Z" fill="#00418D"/>
<path d="M64.7396 11.4783H67.6474L67.3771 12.7029H67.4136C67.8739 11.9058 68.6849 11.2609 69.5032 11.2609C69.8247 11.2609 69.9123 11.2899 70 11.3043L69.4228 14.0217C69.3205 14.0072 69.1963 13.9928 69.0648 13.9783C68.926 13.9565 68.8018 13.9565 68.4949 13.9565C67.4575 13.9565 67.0922 14.4928 66.8803 15.4783L65.9597 19.7754H62.9569L64.7396 11.4783Z" fill="#00418D"/>
<path d="M42.8139 9.15942H49.0972L48.615 11.4058H45.0934L44.7062 13.1957H48.0013L47.541 15.3551H44.2386L43.8002 17.442H47.4533L46.9711 19.6884H40.5563L42.8139 9.15942Z" fill="#00418D"/>
<path d="M4.14257 2.34058H1.32241V0H0V5.99275H1.32241V3.50725H4.14257V5.99275H5.46498V0H4.14257V2.34058Z" fill="#00418D"/>
<path d="M32.8922 0.34058C32.6146 0.623188 32.5999 1.03623 32.5999 1.27536V5.99275H33.9223V4.07971H36.7279V5.99275H38.0576V0H33.937C33.5424 0 33.1771 0.057971 32.8995 0.34058M34.2657 1.16667H36.7352V2.9058H33.9297V1.50725C33.9297 1.44203 33.9223 1.31884 33.9808 1.23913C34.0392 1.15942 34.1415 1.16667 34.2657 1.16667Z" fill="#00418D"/>
<path d="M23.5257 0H19.3905V5.98551H20.7129V1.16667H23.197C23.3212 1.16667 23.4234 1.16667 23.4892 1.24638C23.5476 1.31884 23.533 1.44203 23.5403 1.51449V5.99275H24.8627V1.27536C24.8627 1.03623 24.8408 0.623188 24.5632 0.347826C24.2856 0.0652174 23.9203 0.00724638 23.5257 0.00724638" fill="#00418D"/>
<path d="M16.8991 4.47826C16.8991 4.55072 16.8991 4.67391 16.8479 4.74638C16.7822 4.82609 16.6872 4.81884 16.563 4.81884H14.0789V0H12.7565V5.98551H16.8845C17.279 5.98551 17.6443 5.92754 17.9219 5.64493C18.1996 5.36232 18.2142 4.94928 18.2215 4.71014V0H16.8991V4.47826Z" fill="#00418D"/>
<path d="M31.4967 1.27536C31.4967 1.03623 31.4821 0.623188 31.2045 0.34058C30.9268 0.057971 30.5615 0 30.167 0H26.0317V5.98551H30.167C30.5542 5.98551 30.9268 5.92754 31.2045 5.64493C31.4821 5.36232 31.4894 4.94928 31.4967 4.71014V1.27536ZM30.1816 4.47826C30.1816 4.55072 30.1816 4.67391 30.1305 4.74638C30.072 4.82609 29.9697 4.81884 29.8455 4.81884H27.3614V1.17391H29.8455C29.9697 1.17391 30.072 1.17391 30.1305 1.25362C30.1889 1.32609 30.1743 1.44928 30.1816 1.52174V4.48551V4.47826Z" fill="#00418D"/>
<path d="M9.11074 2.62319L7.50339 0H5.93258L8.40205 3.77536V5.99275H9.81943V3.77536L12.2889 0H10.7181L9.11074 2.62319Z" fill="#00418D"/>
<path d="M40.7901 0H39.38V5.98551H40.7901V0Z" fill="#00418D"/>
</svg>
