<svg width="72" height="21" viewBox="0 0 72 21" fill="none" xmlns="http://www.w3.org/2000/svg">
<path d="M16.35 10.5075H16.38L15.945 15.825L18.63 15.945L18.4425 9.2925H14.7975L10.86 17.925L14.4525 15.945L16.35 10.5075Z" fill="#BFBFBF"/>
<path d="M18.7875 20.4075L18.6525 16.08L10.77 18.1125L9.7275 20.4075H12.81L13.485 18.435H15.855L15.7575 20.4075H18.7875Z" fill="#BFBFBF"/>
<path d="M23.94 19.485H23.9175C23.28 20.325 22.425 20.6925 21.39 20.6925C20.295 20.6925 19.4175 20.0925 19.755 18.5175L21.165 11.8725H24.2475L23.04 17.5575C22.905 18.21 23.07 18.3975 23.46 18.3975C23.85 18.3975 24.1575 18.0525 24.2625 17.5575L25.47 11.8725H28.5525L26.7225 20.46H23.7375L23.94 19.4775V19.485Z" fill="#BFBFBF"/>
<path d="M30.81 9.3525H33.8925L33.36 11.88H34.4325L34.0125 13.8825H32.9325L32.1225 17.7075C32.0025 18.2625 32.0325 18.5025 32.5425 18.5025C32.775 18.5025 32.925 18.4875 33.045 18.4575L32.61 20.505C32.355 20.535 31.5225 20.6025 31.065 20.6025C29.295 20.6025 28.44 20.5425 28.8525 18.6L29.85 13.8825H28.92L29.34 11.88H30.2775L30.8175 9.3525H30.81Z" fill="#BFBFBF"/>
<path d="M37.23 16.17C37.6575 14.1675 37.89 13.6425 38.445 13.6425C39 13.6425 39.015 14.1675 38.595 16.17C38.1675 18.1725 37.9275 18.6975 37.3725 18.6975C36.8175 18.6975 36.8025 18.1725 37.23 16.17ZM38.8725 11.6625C35.475 11.6625 34.6575 13.7625 34.1475 16.17C33.63 18.6 33.5475 20.7 36.945 20.7C40.3425 20.7 41.1525 18.6 41.6775 16.17C42.195 13.755 42.27 11.6625 38.8725 11.6625Z" fill="#BFBFBF"/>
<path d="M50.37 11.88H53.55L53.0025 17.805H53.0325L55.0575 11.88H58.14L54.195 20.475H50.5725L50.37 11.88Z" fill="#BFBFBF"/>
<path d="M61.9575 15.0525H60.6225L60.7275 14.55C60.9075 13.71 61.1625 13.47 61.605 13.47C62.1 13.47 62.2425 13.71 62.0625 14.55L61.9575 15.0525ZM60.2775 16.6725H64.5L64.5375 16.5375C65.1075 13.8525 65.535 11.655 62.025 11.655C58.515 11.655 57.8175 13.755 57.3075 16.1625C56.79 18.5925 56.715 20.6925 60.1125 20.6925C61.155 20.6925 62.085 20.4525 62.7975 19.9425C63.51 19.4325 63.9975 18.63 64.2525 17.4525H61.455C61.2675 18.3225 61.0875 18.8775 60.4875 18.8775C59.8875 18.8775 59.955 18.255 60.0525 17.7975L60.2925 16.665L60.2775 16.6725Z" fill="#BFBFBF"/>
<path d="M66.4575 11.88H69.4425L69.165 13.1475H69.2025C69.675 12.3225 70.5075 11.655 71.3475 11.655C71.6775 11.655 71.7675 11.685 71.8575 11.7L71.265 14.5125C71.16 14.4975 71.0325 14.4825 70.8975 14.4675C70.755 14.445 70.6275 14.445 70.3125 14.445C69.2475 14.445 68.8725 15 68.655 16.02L67.71 20.4675H64.6275L66.4575 11.88Z" fill="#BFBFBF"/>
<path d="M43.95 9.48H50.4L49.905 11.805H46.29L45.8925 13.6575H49.275L48.8025 15.8925H45.4125L44.9625 18.0525H48.7125L48.2175 20.3775H41.6325L43.95 9.48Z" fill="#BFBFBF"/>
<path d="M4.2525 2.4225H1.3575V0H0V6.2025H1.3575V3.63H4.2525V6.2025H5.61V0H4.2525V2.4225Z" fill="#BFBFBF"/>
<path d="M33.765 0.3525C33.48 0.645 33.465 1.0725 33.465 1.32V6.2025H34.8225V4.2225H37.7025V6.2025H39.0675V0H34.8375C34.4325 0 34.0575 0.06 33.7725 0.3525M35.175 1.2075H37.71V3.0075H34.83V1.56C34.83 1.4925 34.8225 1.365 34.8825 1.2825C34.9425 1.2 35.0475 1.2075 35.175 1.2075Z" fill="#BFBFBF"/>
<path d="M24.15 0H19.905V6.195H21.2625V1.2075H23.8125C23.94 1.2075 24.045 1.2075 24.1125 1.29C24.1725 1.365 24.1575 1.4925 24.165 1.5675V6.2025H25.5225V1.32C25.5225 1.0725 25.5 0.645 25.215 0.36C24.93 0.0675 24.555 0.0075 24.15 0.0075" fill="#BFBFBF"/>
<path d="M17.3475 4.635C17.3475 4.71 17.3475 4.8375 17.295 4.9125C17.2275 4.995 17.13 4.9875 17.0025 4.9875H14.4525V0H13.095V6.195H17.3325C17.7375 6.195 18.1125 6.135 18.3975 5.8425C18.6825 5.55 18.6975 5.1225 18.705 4.875V0H17.3475V4.635Z" fill="#BFBFBF"/>
<path d="M32.3325 1.32C32.3325 1.0725 32.3175 0.645 32.0325 0.3525C31.7475 0.06 31.3725 0 30.9675 0H26.7225V6.195H30.9675C31.365 6.195 31.7475 6.135 32.0325 5.8425C32.3175 5.55 32.325 5.1225 32.3325 4.875V1.32ZM30.9825 4.635C30.9825 4.71 30.9825 4.8375 30.93 4.9125C30.87 4.995 30.765 4.9875 30.6375 4.9875H28.0875V1.215H30.6375C30.765 1.215 30.87 1.215 30.93 1.2975C30.99 1.3725 30.975 1.5 30.9825 1.575V4.6425V4.635Z" fill="#BFBFBF"/>
<path d="M9.3525 2.715L7.7025 0H6.09L8.625 3.9075V6.2025H10.08V3.9075L12.615 0H11.0025L9.3525 2.715Z" fill="#BFBFBF"/>
<path d="M41.8725 0H40.425V6.195H41.8725V0Z" fill="#BFBFBF"/>
</svg>
