<svg width="20" height="20" viewBox="0 0 20 20" fill="none" xmlns="http://www.w3.org/2000/svg">
<path fill-rule="evenodd" clip-rule="evenodd" d="M14 4C14 1.79086 12.2091 0 10 0H4C1.79086 0 0 1.79086 0 4V16C0 18.2091 1.79086 20 4 20H10C12.2091 20 14 18.2091 14 16V14.7486C14 14.1963 13.5523 13.7486 13 13.7486C12.4477 13.7486 12 14.1963 12 14.7486V16C12 17.1046 11.1046 18 10 18H4C2.89543 18 2 17.1046 2 16V4C2 2.89543 2.89543 2 4 2H10C11.1046 2 12 2.89543 12 4V5.40135C12 5.95363 12.4477 6.40135 13 6.40135C13.5523 6.40135 14 5.95363 14 5.40135V4ZM15.3523 5.96253C14.9425 6.33276 14.9105 6.96512 15.2807 7.37492L16.7489 9H7C6.44771 9 6 9.44771 6 10C6 10.5523 6.44771 11 7 11H16.7489L15.2807 12.6251C14.9105 13.0349 14.9425 13.6672 15.3523 14.0375C15.7622 14.4077 16.3945 14.3756 16.7647 13.9658L19.742 10.6704C20.086 10.2896 20.086 9.71036 19.742 9.32962L16.7647 6.03417C16.3945 5.62436 15.7622 5.59229 15.3523 5.96253Z" fill="white"/>
</svg>
