<svg width="28" height="28" viewBox="0 0 28 28" fill="none" xmlns="http://www.w3.org/2000/svg">
<path fill-rule="evenodd" clip-rule="evenodd" d="M8.33967 4.24528C7.12048 4.24528 6.13212 5.23364 6.13212 6.45283V21.5472C6.13212 22.7664 7.12048 23.7547 8.33967 23.7547H19.6604C20.8796 23.7547 21.868 22.7664 21.868 21.5472V10.8613C21.868 10.6973 21.8497 10.5351 21.8143 10.3774H18.2453C16.8594 10.3774 15.7359 9.25385 15.7359 7.86792V4.25003C15.6878 4.24688 15.6396 4.24528 15.5911 4.24528H8.33967ZM16.9812 4.7379V7.86792C16.9812 8.5661 17.5472 9.13208 18.2453 9.13208H21.0685L17.2132 4.95549C17.1407 4.87698 17.0631 4.80435 16.9812 4.7379ZM4.88684 6.45283C4.88684 4.54588 6.43273 3 8.33967 3H15.5911C16.5548 3 17.4746 3.40273 18.1282 4.11084L22.1976 8.51929C22.7863 9.1571 23.1133 9.99327 23.1133 10.8613V21.5472C23.1133 23.4541 21.5674 25 19.6604 25H8.33967C6.43273 25 4.88684 23.4541 4.88684 21.5472V6.45283ZM13.236 11.673C13.4792 11.4298 13.8734 11.4298 14.1166 11.673L16.1178 13.6742C16.361 13.9174 16.361 14.3116 16.1178 14.5547C15.8747 14.7979 15.4804 14.7979 15.2373 14.5547L14.299 13.6164L14.299 19.0129C14.299 19.3568 14.0202 19.6356 13.6763 19.6356C13.3325 19.6356 13.0537 19.3568 13.0537 19.0129L13.0537 13.6164L12.1153 14.5547C11.8722 14.7979 11.478 14.7979 11.2348 14.5547C10.9916 14.3116 10.9916 13.9174 11.2348 13.6742L13.236 11.673Z" fill="#73B4FF"/>
</svg>
