<svg width="29" height="28" viewBox="0 0 29 28" fill="none" xmlns="http://www.w3.org/2000/svg">
<path fill-rule="evenodd" clip-rule="evenodd" d="M8.83961 4.24528C7.62042 4.24528 6.63206 5.23364 6.63206 6.45283V21.5472C6.63206 22.7664 7.62042 23.7547 8.83961 23.7547H20.1604C21.3796 23.7547 22.3679 22.7664 22.3679 21.5472V10.8613C22.3679 10.6973 22.3497 10.5351 22.3142 10.3774H18.7453C17.3593 10.3774 16.2358 9.25385 16.2358 7.86792V4.25003C16.1878 4.24688 16.1395 4.24528 16.091 4.24528H8.83961ZM17.4811 4.7379V7.86792C17.4811 8.5661 18.0471 9.13208 18.7453 9.13208H21.5684L17.7131 4.95549C17.6407 4.87698 17.5631 4.80435 17.4811 4.7379ZM5.38678 6.45283C5.38678 4.54588 6.93266 3 8.83961 3H16.091C17.0547 3 17.9745 3.40273 18.6282 4.11084L22.6975 8.51929C23.2863 9.1571 23.6132 9.99327 23.6132 10.8613V21.5472C23.6132 23.4541 22.0673 25 20.1604 25H8.83961C6.93267 25 5.38678 23.4541 5.38678 21.5472V6.45283ZM13.736 11.673C13.9791 11.4298 14.3734 11.4298 14.6165 11.673L16.6178 13.6742C16.8609 13.9174 16.8609 14.3116 16.6178 14.5547C16.3746 14.7979 15.9804 14.7979 15.7372 14.5547L14.7989 13.6164L14.7989 19.0129C14.7989 19.3568 14.5202 19.6356 14.1763 19.6356C13.8324 19.6356 13.5536 19.3568 13.5536 19.0129L13.5536 13.6164L12.6153 14.5547C12.3721 14.7979 11.9779 14.7979 11.7347 14.5547C11.4916 14.3116 11.4916 13.9174 11.7347 13.6742L13.736 11.673Z" fill="#00418D"/>
</svg>
