<svg width="28" height="28" viewBox="0 0 28 28" fill="none" xmlns="http://www.w3.org/2000/svg">
<path fill-rule="evenodd" clip-rule="evenodd" d="M8.33961 4.24528C7.12042 4.24528 6.13206 5.23364 6.13206 6.45283V21.5472C6.13206 22.7664 7.12042 23.7547 8.33961 23.7547H19.6604C20.8796 23.7547 21.8679 22.7664 21.8679 21.5472V10.8613C21.8679 10.6973 21.8497 10.5351 21.8142 10.3774H18.2453C16.8593 10.3774 15.7358 9.25385 15.7358 7.86792V4.25003C15.6878 4.24688 15.6395 4.24528 15.591 4.24528H8.33961ZM16.9811 4.7379V7.86792C16.9811 8.5661 17.5471 9.13208 18.2453 9.13208H21.0684L17.2131 4.95549C17.1407 4.87698 17.0631 4.80435 16.9811 4.7379ZM4.88678 6.45283C4.88678 4.54588 6.43266 3 8.33961 3H15.591C16.5547 3 17.4745 3.40273 18.1282 4.11084L22.1975 8.51929C22.7863 9.1571 23.1132 9.99327 23.1132 10.8613V21.5472C23.1132 23.4541 21.5673 25 19.6604 25H8.33961C6.43267 25 4.88678 23.4541 4.88678 21.5472V6.45283ZM9.03772 12.9623C9.03772 12.6184 9.31649 12.3396 9.66036 12.3396H15.3679C15.7118 12.3396 15.9906 12.6184 15.9906 12.9623C15.9906 13.3061 15.7118 13.5849 15.3679 13.5849H9.66036C9.31649 13.5849 9.03772 13.3061 9.03772 12.9623ZM9.03772 17.6321C9.03772 17.2882 9.31649 17.0094 9.66036 17.0094H17.9623C18.3061 17.0094 18.5849 17.2882 18.5849 17.6321C18.5849 17.976 18.3061 18.2547 17.9623 18.2547H9.66036C9.31649 18.2547 9.03772 17.976 9.03772 17.6321Z" fill="#73B4FF"/>
</svg>
