<svg width="29" height="28" viewBox="0 0 29 28" fill="none" xmlns="http://www.w3.org/2000/svg">
<path fill-rule="evenodd" clip-rule="evenodd" d="M8.83961 4.24528C7.62042 4.24528 6.63206 5.23364 6.63206 6.45283V21.5472C6.63206 22.7664 7.62042 23.7547 8.83961 23.7547H20.1604C21.3796 23.7547 22.3679 22.7664 22.3679 21.5472V10.8613C22.3679 10.6973 22.3497 10.5351 22.3142 10.3774H18.7453C17.3593 10.3774 16.2358 9.25385 16.2358 7.86792V4.25003C16.1878 4.24688 16.1395 4.24528 16.091 4.24528H8.83961ZM17.4811 4.7379V7.86792C17.4811 8.5661 18.0471 9.13208 18.7453 9.13208H21.5684L17.7131 4.95549C17.6407 4.87698 17.5631 4.80435 17.4811 4.7379ZM5.38678 6.45283C5.38678 4.54588 6.93266 3 8.83961 3H16.091C17.0547 3 17.9745 3.40273 18.6282 4.11084L22.6975 8.51929C23.2863 9.1571 23.6132 9.99327 23.6132 10.8613V21.5472C23.6132 23.4541 22.0673 25 20.1604 25H8.83961C6.93267 25 5.38678 23.4541 5.38678 21.5472V6.45283ZM14.1763 11.4906C14.5202 11.4906 14.7989 11.7694 14.7989 12.1132L14.7989 17.5098L15.7372 16.5714C15.9804 16.3283 16.3746 16.3283 16.6178 16.5714C16.8609 16.8146 16.8609 17.2088 16.6178 17.452L14.6165 19.4532C14.3734 19.6964 13.9791 19.6964 13.736 19.4532L11.7347 17.452C11.4916 17.2088 11.4916 16.8146 11.7347 16.5714C11.9779 16.3283 12.3721 16.3283 12.6153 16.5714L13.5536 17.5098L13.5536 12.1132C13.5536 11.7694 13.8324 11.4906 14.1763 11.4906Z" fill="#00418D"/>
</svg>
