<svg width="50" height="50" viewBox="0 0 50 50" fill="none" xmlns="http://www.w3.org/2000/svg">
<circle cx="25" cy="25" r="25" fill="#E3F0FF"/>
<path fill-rule="evenodd" clip-rule="evenodd" d="M18 29.5649C18.4142 29.5649 18.75 29.9007 18.75 30.3149V32.3149C18.75 32.7291 18.4142 33.0649 18 33.0649C17.5858 33.0649 17.25 32.7291 17.25 32.3149V30.3149C17.25 29.9007 17.5858 29.5649 18 29.5649Z" fill="#00418D"/>
<path fill-rule="evenodd" clip-rule="evenodd" d="M24.5 26.6091C24.9142 26.6091 25.25 26.9449 25.25 27.3591V32.6149C25.25 33.0291 24.9142 33.3649 24.5 33.3649C24.0858 33.3649 23.75 33.0291 23.75 32.6149V27.3591C23.75 26.9449 24.0858 26.6091 24.5 26.6091Z" fill="#00418D"/>
<path fill-rule="evenodd" clip-rule="evenodd" d="M31 23.9686C31.4142 23.9686 31.75 24.3043 31.75 24.7186V32.6149C31.75 33.0291 31.4142 33.3649 31 33.3649C30.5858 33.3649 30.25 33.0291 30.25 32.6149V24.7186C30.25 24.3043 30.5858 23.9686 31 23.9686Z" fill="#00418D"/>
<path fill-rule="evenodd" clip-rule="evenodd" d="M31.4862 16.4291C31.8015 16.6977 31.8394 17.171 31.5708 17.4864L30.9868 18.1719L30.9858 18.1732C27.6468 22.0752 23.1691 24.8374 18.1816 26.081C17.7797 26.1813 17.3727 25.9367 17.2725 25.5348C17.1722 25.1329 17.4168 24.7258 17.8187 24.6256C22.5046 23.4572 26.7102 20.8624 29.8456 17.1985C29.8454 17.1986 29.8458 17.1983 29.8456 17.1985L30.4289 16.5136C30.6976 16.1983 31.1709 16.1605 31.4862 16.4291Z" fill="#00418D"/>
<path fill-rule="evenodd" clip-rule="evenodd" d="M26.5303 17C26.5303 16.5858 26.8661 16.25 27.2803 16.25H30.9999C31.4141 16.25 31.7499 16.5858 31.7499 17V20.7069C31.7499 21.1212 31.4141 21.4569 30.9999 21.4569C30.5857 21.4569 30.2499 21.1212 30.2499 20.7069V17.75H27.2803C26.8661 17.75 26.5303 17.4142 26.5303 17Z" fill="#00418D"/>
<path fill-rule="evenodd" clip-rule="evenodd" d="M33 12.5H17C14.5147 12.5 12.5 14.5147 12.5 17V33C12.5 35.4853 14.5147 37.5 17 37.5H33C35.4853 37.5 37.5 35.4853 37.5 33V17C37.5 14.5147 35.4853 12.5 33 12.5ZM17 11C13.6863 11 11 13.6863 11 17V33C11 36.3137 13.6863 39 17 39H33C36.3137 39 39 36.3137 39 33V17C39 13.6863 36.3137 11 33 11H17Z" fill="#00418D"/>
</svg>
