<svg width="25" height="24" viewBox="0 0 25 24" fill="none" xmlns="http://www.w3.org/2000/svg">
<path fill-rule="evenodd" clip-rule="evenodd" d="M12.6539 6.14253C12.4076 5.94966 12.0912 5.94966 11.8449 6.14253L6.30645 10.4805C6.11081 10.6337 5.97631 10.899 5.97631 11.2028V18.0022H8.13785V13.3431C8.13785 12.6223 8.68427 11.9346 9.48016 11.9346H15.0186C15.8145 11.9346 16.3609 12.6223 16.3609 13.3431V18.0022H18.5225V11.2028C18.5225 10.899 18.388 10.6337 18.1923 10.4805L12.6539 6.14253ZM19.8225 18.0022V11.2028C19.8225 10.5272 19.5255 9.87337 18.9939 9.45705L13.4555 5.11908C12.7384 4.55747 11.7603 4.55747 11.0433 5.11908L5.50485 9.45705C4.97331 9.87338 4.67631 10.5272 4.67631 11.2028V18.0022H3.24939C2.8904 18.0022 2.59939 18.2932 2.59939 18.6522C2.59939 19.0112 2.8904 19.3022 3.24939 19.3022H21.2494C21.6084 19.3022 21.8994 19.0112 21.8994 18.6522C21.8994 18.2932 21.6084 18.0022 21.2494 18.0022H19.8225ZM15.0609 18.0022V16.2684H12.8994V18.0022H15.0609ZM11.5994 18.0022V16.2684H9.43785V18.0022H11.5994ZM9.43785 14.9684H11.5994V13.2346H9.48264C9.48041 13.2358 9.47638 13.2387 9.4707 13.245C9.45565 13.2614 9.43785 13.2944 9.43785 13.3431V14.9684ZM9.48469 13.2338C9.48467 13.2339 9.48369 13.2344 9.48264 13.2346L9.48469 13.2338ZM12.8994 13.2346V14.9684H15.0609V13.3431C15.0609 13.2944 15.0431 13.2614 15.0281 13.245C15.0224 13.2387 15.0184 13.2358 15.0161 13.2346H12.8994ZM15.0141 13.2338C15.0141 13.2337 15.015 13.234 15.0161 13.2346L15.0141 13.2338Z" fill="#007FA8"/>
</svg>
