<svg width="28" height="28" viewBox="0 0 28 28" fill="none" xmlns="http://www.w3.org/2000/svg">
<path fill-rule="evenodd" clip-rule="evenodd" d="M14.6204 6.46745C14.2451 6.17347 13.7549 6.17347 13.3796 6.46745L6.39004 11.942C6.09706 12.1714 5.90503 12.5595 5.90503 12.9939V21.7531H8.98955V15.6949C8.98955 14.8681 9.61426 14.0958 10.5052 14.0958H17.4948C18.3857 14.0958 19.0104 14.8681 19.0104 15.6949V21.7531H22.095V12.9939C22.095 12.5595 21.9029 12.1714 21.61 11.942L14.6204 6.46745ZM23.3789 21.7531V12.9939C23.3789 12.1923 23.0264 11.4205 22.4017 10.9312L15.4121 5.45664C14.5718 4.79847 13.4282 4.79847 12.5879 5.45664L5.59833 10.9312C4.97361 11.4205 4.62108 12.1923 4.62108 12.9939V21.7531H2.64198C2.28742 21.7531 2 22.0406 2 22.3951C2 22.7497 2.28742 23.0371 2.64198 23.0371H25.358C25.7126 23.0371 26 22.7497 26 22.3951C26 22.0406 25.7126 21.7531 25.358 21.7531H23.3789ZM17.7265 21.7531V19.2084H14.642V21.7531H17.7265ZM13.358 21.7531V19.2084H10.2735V21.7531H13.358ZM10.2735 17.9245H13.358V15.3797H10.5052C10.4311 15.3797 10.2735 15.4645 10.2735 15.6949V17.9245ZM14.642 15.3797V17.9245H17.7265V15.6949C17.7265 15.4645 17.5689 15.3797 17.4948 15.3797H14.642Z" fill="#002C5F"/>
</svg>
