<svg width="24" height="24" viewBox="0 0 24 24" fill="none" xmlns="http://www.w3.org/2000/svg">
<path fill-rule="evenodd" clip-rule="evenodd" d="M12.4045 6.14253C12.1582 5.94966 11.8418 5.94966 11.5955 6.14253L6.05707 10.4805C5.86143 10.6337 5.72693 10.899 5.72693 11.2028V18.0022H7.88847V13.3431C7.88847 12.6223 8.43489 11.9346 9.23078 11.9346H14.7692C15.5651 11.9346 16.1115 12.6223 16.1115 13.3431V18.0022H18.2731V11.2028C18.2731 10.899 18.1386 10.6337 17.9429 10.4805L12.4045 6.14253ZM19.5731 18.0022V11.2028C19.5731 10.5272 19.2761 9.87337 18.7445 9.45705L13.2061 5.11908C12.4891 4.55747 11.511 4.55747 10.7939 5.11908L5.25547 9.45705C4.72393 9.87338 4.42693 10.5272 4.42693 11.2028V18.0022H3.00001C2.64102 18.0022 2.35001 18.2932 2.35001 18.6522C2.35001 19.0112 2.64102 19.3022 3.00001 19.3022H21C21.359 19.3022 21.65 19.0112 21.65 18.6522C21.65 18.2932 21.359 18.0022 21 18.0022H19.5731ZM14.8115 18.0022V16.2684H12.65V18.0022H14.8115ZM11.35 18.0022V16.2684H9.18847V18.0022H11.35ZM9.18847 14.9684H11.35V13.2346H9.23326C9.23103 13.2358 9.22699 13.2387 9.22132 13.245C9.20627 13.2614 9.18847 13.2944 9.18847 13.3431V14.9684ZM9.23531 13.2338C9.23529 13.2339 9.23431 13.2344 9.23326 13.2346L9.23531 13.2338ZM12.65 13.2346V14.9684H14.8115V13.3431C14.8115 13.2944 14.7937 13.2614 14.7787 13.245C14.773 13.2387 14.769 13.2358 14.7668 13.2346H12.65ZM14.7647 13.2338C14.7647 13.2337 14.7657 13.234 14.7668 13.2346L14.7647 13.2338Z" fill="#007FA8"/>
</svg>
