<svg width="28" height="28" viewBox="0 0 28 28" fill="none" xmlns="http://www.w3.org/2000/svg">
<path fill-rule="evenodd" clip-rule="evenodd" d="M14.6204 6.46733C14.2451 6.17335 13.7549 6.17335 13.3796 6.46733L6.39004 11.9419C6.09706 12.1713 5.90503 12.5594 5.90503 12.9937V21.753H8.98955V15.6948C8.98955 14.868 9.61426 14.0957 10.5052 14.0957H17.4948C18.3857 14.0957 19.0104 14.868 19.0104 15.6948V21.753H22.095V12.9937C22.095 12.5594 21.9029 12.1713 21.61 11.9419L14.6204 6.46733ZM23.3789 21.753V12.9937C23.3789 12.1922 23.0264 11.4204 22.4017 10.931L15.4121 5.45652C14.5718 4.79835 13.4282 4.79835 12.5879 5.45652L5.59833 10.931C4.97361 11.4204 4.62108 12.1922 4.62108 12.9937V21.753H2.64198C2.28742 21.753 2 22.0404 2 22.395C2 22.7495 2.28742 23.037 2.64198 23.037H25.358C25.7126 23.037 26 22.7495 26 22.395C26 22.0404 25.7126 21.753 25.358 21.753H23.3789ZM17.7265 21.753V19.2083H14.642V21.753H17.7265ZM13.358 21.753V19.2083H10.2735V21.753H13.358ZM10.2735 17.9243H13.358V15.3796H10.5052C10.4311 15.3796 10.2735 15.4643 10.2735 15.6948V17.9243ZM14.642 15.3796V17.9243H17.7265V15.6948C17.7265 15.4643 17.5689 15.3796 17.4948 15.3796H14.642Z" fill="#1883FF"/>
</svg>
