<svg width="24" height="24" viewBox="0 0 24 24" fill="none" xmlns="http://www.w3.org/2000/svg">
<path fill-rule="evenodd" clip-rule="evenodd" d="M4.45979 6.52585C4.45979 5.38482 5.38477 4.45984 6.52579 4.45984H12.3649C13.506 4.45984 14.431 5.38482 14.431 6.52584V9.93404H16.0144C16.7959 9.93404 17.3429 10.2732 17.6742 10.7335C17.9833 11.1628 18.0804 11.6597 18.0804 12.0001V15.2846C18.0804 15.756 18.4626 16.1381 18.934 16.1381C19.4054 16.1381 19.7876 15.756 19.7876 15.2846V8.93501L18.1033 6.91394C17.889 6.65673 17.9238 6.27447 18.181 6.06014C18.4382 5.8458 18.8204 5.88055 19.0348 6.13775L20.8595 8.32744C20.9503 8.43638 21 8.57371 21 8.71553V15.2846C21 16.4256 20.075 17.3506 18.934 17.3506C17.793 17.3506 16.868 16.4256 16.868 15.2846V12.0001C16.868 11.8538 16.8191 11.6208 16.6903 11.4419C16.5837 11.2939 16.4008 11.1465 16.0144 11.1465H14.431V18.3278H15.2845C15.6193 18.3278 15.8907 18.5992 15.8907 18.934C15.8907 19.2688 15.6193 19.5403 15.2845 19.5403H3.60622C3.27141 19.5403 3 19.2688 3 18.934C3 18.5992 3.27141 18.3278 3.60622 18.3278H4.45979V6.52585ZM5.67222 18.3278H13.2185V6.52584C13.2185 6.05443 12.8364 5.67227 12.3649 5.67227H6.52579C6.05438 5.67227 5.67222 6.05443 5.67222 6.52585V18.3278ZM9.69414 8.1627C9.99946 8.3001 10.1356 8.65898 9.9982 8.9643L8.97426 11.2397L10.8382 11.0326C11.0589 11.0081 11.2754 11.1062 11.4024 11.2884C11.5294 11.4705 11.5467 11.7076 11.4474 11.9062L9.98759 14.8258C9.83786 15.1252 9.47372 15.2466 9.17426 15.0969C8.87481 14.9472 8.75343 14.583 8.90315 14.2836L9.8646 12.3607L8.05253 12.562C7.8362 12.586 7.6236 12.4923 7.49549 12.3163C7.36739 12.1403 7.34344 11.9092 7.43276 11.7107L8.89255 8.46676C9.02994 8.16144 9.38883 8.02531 9.69414 8.1627Z" fill="#007FA8"/>
</svg>
