<svg width="28" height="28" viewBox="0 0 28 28" fill="none" xmlns="http://www.w3.org/2000/svg">
<path fill-rule="evenodd" clip-rule="evenodd" d="M3.97531 6.59263C3.97531 5.14714 5.14711 3.97534 6.59259 3.97534H14.4938C15.9393 3.97534 17.1111 5.14714 17.1111 6.59263V11.3827H19.4321C20.4315 11.3827 21.118 11.8135 21.5333 12.3904C21.9251 12.9345 22.0494 13.5681 22.0494 14V18.4445C22.0494 19.1809 22.6463 19.7778 23.3827 19.7778C24.1191 19.7778 24.716 19.1809 24.716 18.4445V9.78802L22.3957 7.00361C22.1687 6.73123 22.2055 6.32643 22.4779 6.09945C22.7503 5.87247 23.1551 5.90927 23.3821 6.18164L25.8512 9.14461C25.9473 9.25998 26 9.40541 26 9.55559V18.4445C26 19.89 24.8282 21.0618 23.3827 21.0618C21.9372 21.0618 20.7654 19.89 20.7654 18.4445V14C20.7654 13.7735 20.6922 13.4195 20.4914 13.1406C20.3141 12.8944 20.013 12.6667 19.4321 12.6667H17.1111V22.7408H18.4444C18.799 22.7408 19.0864 23.0282 19.0864 23.3827C19.0864 23.7373 18.799 24.0247 18.4444 24.0247H2.64198C2.28742 24.0247 2 23.7373 2 23.3827C2 23.0282 2.28742 22.7408 2.64198 22.7408H3.97531V6.59263ZM5.25926 22.7408H15.8272V6.59263C15.8272 5.85625 15.2302 5.25929 14.4938 5.25929H6.59259C5.85621 5.25929 5.25926 5.85625 5.25926 6.59263V22.7408ZM10.8067 8.97016C11.13 9.11565 11.2741 9.49571 11.1286 9.81903L9.6149 13.1829L12.4476 12.8682C12.6814 12.8422 12.9106 12.9461 13.0451 13.139C13.1796 13.3319 13.1979 13.583 13.0927 13.7933L11.1174 17.7439C10.9589 18.061 10.5732 18.1896 10.2561 18.031C9.93899 17.8725 9.81045 17.4868 9.96901 17.1697L11.4166 14.2746L8.6388 14.5832C8.40971 14.6087 8.18457 14.5094 8.0489 14.323C7.91324 14.1367 7.88788 13.8919 7.98247 13.6817L9.95778 9.29214C10.1033 8.96882 10.4833 8.82466 10.8067 8.97016Z" fill="#002C5F"/>
</svg>
