<svg width="28" height="28" viewBox="0 0 28 28" fill="none" xmlns="http://www.w3.org/2000/svg">
<path fill-rule="evenodd" clip-rule="evenodd" d="M3.97531 6.59287C3.97531 5.14738 5.14711 3.97559 6.59259 3.97559H14.4938C15.9393 3.97559 17.1111 5.14738 17.1111 6.59287V11.383H19.4321C20.4315 11.383 21.118 11.8138 21.5333 12.3906C21.9251 12.9347 22.0494 13.5683 22.0494 14.0003V18.4447C22.0494 19.1811 22.6463 19.7781 23.3827 19.7781C24.1191 19.7781 24.716 19.1811 24.716 18.4447V9.78826L22.3957 7.00385C22.1687 6.73148 22.2055 6.32667 22.4779 6.09969C22.7503 5.87271 23.1551 5.90951 23.3821 6.18189L25.8512 9.14485C25.9473 9.26022 26 9.40565 26 9.55583V18.4447C26 19.8902 24.8282 21.062 23.3827 21.062C21.9372 21.062 20.7654 19.8902 20.7654 18.4447V14.0003C20.7654 13.7738 20.6922 13.4198 20.4914 13.1408C20.3141 12.8946 20.013 12.6669 19.4321 12.6669H17.1111V22.741H18.4444C18.799 22.741 19.0864 23.0284 19.0864 23.383C19.0864 23.7375 18.799 24.025 18.4444 24.025H2.64198C2.28742 24.025 2 23.7375 2 23.383C2 23.0284 2.28742 22.741 2.64198 22.741H3.97531V6.59287ZM5.25926 22.741H15.8272V6.59287C15.8272 5.85649 15.2302 5.25954 14.4938 5.25954H6.59259C5.85621 5.25954 5.25926 5.85649 5.25926 6.59287V22.741ZM10.8067 8.9704C11.13 9.1159 11.2741 9.49595 11.1286 9.81928L9.6149 13.1831L12.4476 12.8684C12.6814 12.8424 12.9106 12.9463 13.0451 13.1393C13.1796 13.3322 13.1979 13.5832 13.0927 13.7936L11.1174 17.7442C10.9589 18.0613 10.5732 18.1898 10.2561 18.0313C9.93899 17.8727 9.81045 17.4871 9.96901 17.17L11.4166 14.2748L8.6388 14.5835C8.40971 14.6089 8.18457 14.5096 8.0489 14.3233C7.91324 14.1369 7.88788 13.8922 7.98247 13.682L9.95778 9.29239C10.1033 8.96906 10.4833 8.82491 10.8067 8.9704Z" fill="#1883FF"/>
</svg>
