<svg width="28" height="28" viewBox="0 0 28 28" fill="none" xmlns="http://www.w3.org/2000/svg">
<path fill-rule="evenodd" clip-rule="evenodd" d="M3.97531 6.59238C3.97531 5.1469 5.14711 3.9751 6.59259 3.9751H14.4938C15.9393 3.9751 17.1111 5.1469 17.1111 6.59238V11.3825H19.4321C20.4315 11.3825 21.118 11.8133 21.5333 12.3901C21.9251 12.9342 22.0494 13.5678 22.0494 13.9998V18.4442C22.0494 19.1806 22.6463 19.7776 23.3827 19.7776C24.1191 19.7776 24.716 19.1806 24.716 18.4442V9.78777L22.3957 7.00336C22.1687 6.73099 22.2055 6.32618 22.4779 6.0992C22.7503 5.87222 23.1551 5.90902 23.3821 6.1814L25.8512 9.14436C25.9473 9.25974 26 9.40516 26 9.55535V18.4442C26 19.8897 24.8282 21.0615 23.3827 21.0615C21.9372 21.0615 20.7654 19.8897 20.7654 18.4442V13.9998C20.7654 13.7733 20.6922 13.4193 20.4914 13.1403C20.3141 12.8941 20.013 12.6665 19.4321 12.6665H17.1111V22.7405H18.4444C18.799 22.7405 19.0864 23.028 19.0864 23.3825C19.0864 23.7371 18.799 24.0245 18.4444 24.0245H2.64198C2.28742 24.0245 2 23.7371 2 23.3825C2 23.028 2.28742 22.7405 2.64198 22.7405H3.97531V6.59238ZM5.25926 22.7405H15.8272V6.59238C15.8272 5.856 15.2302 5.25905 14.4938 5.25905H6.59259C5.85621 5.25905 5.25926 5.856 5.25926 6.59238V22.7405ZM7.92593 12.5183C7.92593 12.1638 8.21335 11.8763 8.5679 11.8763H13.5062C13.8607 11.8763 14.1481 12.1638 14.1481 12.5183C14.1481 12.8729 13.8607 13.1603 13.5062 13.1603H8.5679C8.21335 13.1603 7.92593 12.8729 7.92593 12.5183Z" fill="#1883FF"/>
</svg>
