<svg width="28" height="28" viewBox="0 0 28 28" fill="none" xmlns="http://www.w3.org/2000/svg">
<path fill-rule="evenodd" clip-rule="evenodd" d="M8.90129 2C9.27106 2 9.57082 2.29976 9.57082 2.66953V6.43711L18.4292 6.43711V2.66953C18.4292 2.29976 18.729 2 19.0987 2C19.4685 2 19.7682 2.29976 19.7682 2.66953V6.43711L24.764 6.43711C25.1337 6.43711 25.4335 6.73686 25.4335 7.10663C25.4335 7.4764 25.1337 7.77616 24.764 7.77616L22.0343 7.77616V17.0901C22.0343 19.3111 20.1993 21.0875 17.9657 21.0875H15.2361V22.5573C15.2361 24.472 13.6546 26 11.7339 26H8.36175C7.99198 26 7.69222 25.7002 7.69222 25.3305C7.69222 24.9607 7.99198 24.6609 8.36175 24.6609H11.7339C12.942 24.6609 13.897 23.7058 13.897 22.5573V21.0875H10.0343C7.80073 21.0875 5.96567 19.3111 5.96567 17.0901V7.77616L3.23606 7.77616C2.86629 7.77616 2.56653 7.47641 2.56653 7.10664C2.56653 6.73687 2.86629 6.43711 3.23606 6.43711L8.23177 6.43711V2.66953C8.23177 2.29976 8.53152 2 8.90129 2ZM8.90045 7.77616H7.30473V17.0901C7.30473 18.545 8.51336 19.7484 10.0343 19.7484H17.9657C19.4866 19.7484 20.6953 18.545 20.6953 17.0901V7.77616H19.1001L19.0987 7.77616L19.0973 7.77616L8.90213 7.77616H8.90045ZM14.2796 9.82613C14.6156 9.98056 14.7628 10.3781 14.6083 10.7141L13.4019 13.3388L15.6272 13.0967C15.8718 13.0701 16.1112 13.1798 16.2508 13.3823C16.3905 13.5849 16.4077 13.8477 16.2958 14.0668L14.5963 17.3947C14.4281 17.724 14.0248 17.8546 13.6955 17.6864C13.3662 17.5182 13.2356 17.1149 13.4037 16.7856L14.5394 14.562L12.3728 14.7977C12.1332 14.8237 11.898 14.719 11.7571 14.5233C11.6163 14.3277 11.5914 14.0715 11.6921 13.8524L13.3917 10.1548C13.5461 9.81887 13.9436 9.67169 14.2796 9.82613Z" fill="#1883FF"/>
</svg>
