<svg width="24" height="24" viewBox="0 0 24 24" fill="none" xmlns="http://www.w3.org/2000/svg">
<path fill-rule="evenodd" clip-rule="evenodd" d="M8.46243 3.5C8.81519 3.5 9.10116 3.78597 9.10116 4.13873V6.57854L14.8988 6.57854V4.13873C14.8988 3.78597 15.1848 3.5 15.5376 3.5C15.8903 3.5 16.1763 3.78597 16.1763 4.13873V6.57854L19.4682 6.57854C19.821 6.57854 20.1069 6.86451 20.1069 7.21727C20.1069 7.57003 19.821 7.856 19.4682 7.856H17.7486V14.144C17.7486 15.7846 16.3939 17.0916 14.7514 17.0916H13.0318V17.9372C13.0318 19.3653 11.8531 20.5 10.4277 20.5H8.08808C7.73532 20.5 7.44936 20.214 7.44936 19.8613C7.44936 19.5085 7.73532 19.2225 8.08808 19.2225H10.4277C11.1732 19.2225 11.7543 18.6344 11.7543 17.9372V17.0916H9.24856C7.60613 17.0916 6.25145 15.7846 6.25145 14.144V7.856L4.53179 7.856C4.17903 7.856 3.89307 7.57003 3.89307 7.21727C3.89307 6.86451 4.17903 6.57854 4.53179 6.57854H7.8237V4.13873C7.8237 3.78597 8.10967 3.5 8.46243 3.5ZM8.46174 7.856H7.5289V14.144C7.5289 15.0537 8.28598 15.8142 9.24856 15.8142H14.7514C15.714 15.8142 16.4711 15.0537 16.4711 14.144V7.856L15.5387 7.856C15.5384 7.856 15.538 7.856 15.5376 7.856C15.5372 7.856 15.5368 7.856 15.5364 7.856L8.46313 7.856C8.46289 7.856 8.46336 7.856 8.46313 7.856C8.46289 7.856 8.46197 7.856 8.46174 7.856ZM12.2668 8.94582C12.5873 9.09314 12.7277 9.47241 12.5804 9.79293L11.8716 11.3348L13.1101 11.2001C13.3434 11.1747 13.5719 11.2793 13.7051 11.4726C13.8383 11.6658 13.8548 11.9166 13.748 12.1256L12.5688 14.4345C12.4084 14.7487 12.0237 14.8733 11.7095 14.7128C11.3953 14.5524 11.2707 14.1676 11.4312 13.8535L12.0724 12.598L10.8899 12.7266C10.6613 12.7515 10.4369 12.6515 10.3025 12.4649C10.1681 12.2783 10.1444 12.0338 10.2405 11.8249L11.4196 9.25942C11.567 8.93889 11.9462 8.79849 12.2668 8.94582Z" fill="#007FA8"/>
</svg>
