<svg width="28" height="28" viewBox="0 0 28 28" fill="none" xmlns="http://www.w3.org/2000/svg">
<path fill-rule="evenodd" clip-rule="evenodd" d="M5.14851 5.15633C5.33357 3.6759 6.59204 2.56494 8.08399 2.56494H19.916C21.408 2.56494 22.6664 3.6759 22.8515 5.15633L23.666 11.6726C25 11.9592 26 13.1453 26 14.5649V19.0858C26 20.4792 25.0366 21.6476 23.7396 21.9613V23.6066C23.7396 24.6163 22.9211 25.4347 21.9115 25.4347H19.651C18.6414 25.4347 17.8229 24.6163 17.8229 23.6066V22.0441H10.1771V23.6066C10.1771 24.6163 9.35859 25.4347 8.34895 25.4347H6.08853C5.07889 25.4347 4.26042 24.6163 4.26042 23.6066L4.26042 21.9613C2.96338 21.6476 2 20.4792 2 19.0858V14.5649C2 13.1453 2.99997 11.9592 4.33398 11.6726L5.14851 5.15633ZM5.7489 11.6066H22.2511L21.4665 5.32946C21.3687 4.54753 20.704 3.96075 19.916 3.96075H14.698V4.82536H16.2605C16.6459 4.82536 16.9584 5.13782 16.9584 5.52326C16.9584 5.90871 16.6459 6.22117 16.2605 6.22117H11.7396C11.3542 6.22117 11.0417 5.90871 11.0417 5.52326C11.0417 5.13782 11.3542 4.82536 11.7396 4.82536H13.3021V3.96075H8.08399C7.29598 3.96075 6.63128 4.54753 6.53354 5.32946L5.7489 11.6066ZM5.65623 22.0441L5.65623 23.6066C5.65623 23.8454 5.84978 24.0389 6.08853 24.0389H8.34895C8.58771 24.0389 8.78126 23.8454 8.78126 23.6066V22.0441H5.65623ZM19.2187 22.0441V23.6066C19.2187 23.8454 19.4123 24.0389 19.651 24.0389H21.9115C22.1502 24.0389 22.3438 23.8454 22.3438 23.6066V22.0441H19.2187ZM4.95832 13.0024C4.09537 13.0024 3.39581 13.702 3.39581 14.5649V19.0858C3.39581 19.9487 4.09537 20.6483 4.95832 20.6483H23.0417C23.9046 20.6483 24.6042 19.9487 24.6042 19.0858V14.5649C24.6042 13.702 23.9046 13.0024 23.0417 13.0024H4.95832ZM6.52089 16.8254C6.52089 16.4399 6.83335 16.1275 7.21879 16.1275H9.47921C9.86465 16.1275 10.1771 16.4399 10.1771 16.8254C10.1771 17.2108 9.86465 17.5233 9.47921 17.5233H7.21879C6.83335 17.5233 6.52089 17.2108 6.52089 16.8254ZM17.823 16.8254C17.823 16.4399 18.1354 16.1275 18.5209 16.1275H20.7813C21.1667 16.1275 21.4792 16.4399 21.4792 16.8254C21.4792 17.2108 21.1667 17.5233 20.7813 17.5233H18.5209C18.1354 17.5233 17.823 17.2108 17.823 16.8254Z" fill="#1883FF"/>
</svg>
