<svg width="24" height="24" viewBox="0 0 24 24" fill="none" xmlns="http://www.w3.org/2000/svg">
<path fill-rule="evenodd" clip-rule="evenodd" d="M5.87671 6.01125C6.01095 4.93735 6.92384 4.13147 8.0061 4.13147H15.9939C17.0762 4.13147 17.989 4.93735 18.1233 6.01125L18.6604 10.3083C19.5759 10.5534 20.25 11.3887 20.25 12.3815V15.4335C20.25 16.4031 19.6069 17.2226 18.724 17.4885V18.4855C18.724 19.2493 18.1048 19.8685 17.341 19.8685H15.815C15.0512 19.8685 14.4321 19.2493 14.4321 18.4855V17.5794H9.56792V18.4855C9.56792 19.2493 8.94875 19.8685 8.18497 19.8685H6.65896C5.89518 19.8685 5.27601 19.2493 5.27601 18.4855L5.27601 17.4885C4.39309 17.2226 3.75 16.4031 3.75 15.4335V12.3815C3.75 11.3887 4.42412 10.5534 5.33958 10.3083L5.87671 6.01125ZM6.59821 10.2355H17.4018L16.893 6.16504C16.8363 5.71162 16.4509 5.37135 15.9939 5.37135H12.62V6.31149H13.526C13.8684 6.31149 14.146 6.58904 14.146 6.93143C14.146 7.27381 13.8684 7.55137 13.526 7.55137H10.474C10.1316 7.55137 9.85408 7.27381 9.85408 6.93143C9.85408 6.58904 10.1316 6.31149 10.474 6.31149H11.3801V5.37135H8.0061C7.54914 5.37135 7.1637 5.71162 7.10702 6.16504L6.59821 10.2355ZM6.5159 17.5794L6.5159 18.4855C6.5159 18.5645 6.57995 18.6286 6.65896 18.6286H8.18497C8.26398 18.6286 8.32803 18.5645 8.32803 18.4855V17.5794H6.5159ZM15.672 17.5794V18.4855C15.672 18.5645 15.736 18.6286 15.815 18.6286H17.341C17.4201 18.6286 17.4841 18.5645 17.4841 18.4855V17.5794H15.672ZM5.89595 11.4754C5.39555 11.4754 4.98988 11.8811 4.98988 12.3815V15.4335C4.98988 15.9339 5.39555 16.3396 5.89595 16.3396H18.104C18.6045 16.3396 19.0101 15.9339 19.0101 15.4335V12.3815C19.0101 11.8811 18.6045 11.4754 18.104 11.4754H5.89595ZM6.80206 13.9075C6.80206 13.5651 7.07961 13.2875 7.422 13.2875H8.94801C9.29039 13.2875 9.56795 13.5651 9.56795 13.9075C9.56795 14.2499 9.29039 14.5274 8.94801 14.5274H7.422C7.07961 14.5274 6.80206 14.2499 6.80206 13.9075ZM14.4321 13.9075C14.4321 13.5651 14.7097 13.2875 15.0521 13.2875H16.5781C16.9205 13.2875 17.198 13.5651 17.198 13.9075C17.198 14.2499 16.9205 14.5274 16.5781 14.5274H15.0521C14.7097 14.5274 14.4321 14.2499 14.4321 13.9075Z" fill="#007FA8"/>
</svg>
