<svg width="28" height="28" viewBox="0 0 28 28" fill="none" xmlns="http://www.w3.org/2000/svg">
<path fill-rule="evenodd" clip-rule="evenodd" d="M5.14851 5.15645C5.33357 3.67602 6.59204 2.56506 8.08399 2.56506H19.916C21.408 2.56506 22.6664 3.67602 22.8515 5.15645L23.666 11.6727C25 11.9593 26 13.1454 26 14.5651V19.0859C26 20.4793 25.0366 21.6477 23.7396 21.9614V23.6067C23.7396 24.6164 22.9211 25.4349 21.9115 25.4349H19.651C18.6414 25.4349 17.8229 24.6164 17.8229 23.6067V22.0442H10.1771V23.6067C10.1771 24.6164 9.35859 25.4349 8.34895 25.4349H6.08853C5.07889 25.4349 4.26042 24.6164 4.26042 23.6067L4.26042 21.9614C2.96338 21.6477 2 20.4793 2 19.0859V14.5651C2 13.1454 2.99997 11.9593 4.33398 11.6727L5.14851 5.15645ZM5.7489 11.6067H22.2511L21.4665 5.32958C21.3687 4.54765 20.704 3.96087 19.916 3.96087H14.698V4.82548H16.2605C16.6459 4.82548 16.9584 5.13794 16.9584 5.52339C16.9584 5.90883 16.6459 6.22129 16.2605 6.22129H11.7396C11.3542 6.22129 11.0417 5.90883 11.0417 5.52339C11.0417 5.13794 11.3542 4.82548 11.7396 4.82548H13.3021V3.96087H8.08399C7.29598 3.96087 6.63128 4.54765 6.53354 5.32958L5.7489 11.6067ZM5.65623 22.0442L5.65623 23.6067C5.65623 23.8455 5.84978 24.039 6.08853 24.039H8.34895C8.58771 24.039 8.78126 23.8455 8.78126 23.6067V22.0442H5.65623ZM19.2187 22.0442V23.6067C19.2187 23.8455 19.4123 24.039 19.651 24.039H21.9115C22.1502 24.039 22.3438 23.8455 22.3438 23.6067V22.0442H19.2187ZM4.95832 13.0025C4.09537 13.0025 3.39581 13.7021 3.39581 14.5651V19.0859C3.39581 19.9489 4.09537 20.6484 4.95832 20.6484H23.0417C23.9046 20.6484 24.6042 19.9489 24.6042 19.0859V14.5651C24.6042 13.7021 23.9046 13.0025 23.0417 13.0025H4.95832ZM6.52089 16.8255C6.52089 16.44 6.83335 16.1276 7.21879 16.1276H9.47921C9.86465 16.1276 10.1771 16.44 10.1771 16.8255C10.1771 17.2109 9.86465 17.5234 9.47921 17.5234H7.21879C6.83335 17.5234 6.52089 17.2109 6.52089 16.8255ZM17.823 16.8255C17.823 16.44 18.1354 16.1276 18.5209 16.1276H20.7813C21.1667 16.1276 21.4792 16.44 21.4792 16.8255C21.4792 17.2109 21.1667 17.5234 20.7813 17.5234H18.5209C18.1354 17.5234 17.823 17.2109 17.823 16.8255Z" fill="#002C5F"/>
</svg>
