<svg width="50" height="50" viewBox="0 0 50 50" fill="none" xmlns="http://www.w3.org/2000/svg">
<circle cx="25" cy="25" r="25" fill="#05141F"/>
<path fill-rule="evenodd" clip-rule="evenodd" d="M29.226 11.407C30.0153 10.8483 31.1198 10.9223 32.3733 11.2831C34.2626 11.8296 35.8693 13.4092 36.4249 15.267C36.7917 16.4996 36.8672 17.5864 36.2993 18.3624C35.9003 18.9076 35.2884 19.1602 34.6182 19.2644C34.6621 19.3562 34.6866 19.4587 34.6866 19.5669C34.6866 23.2137 31.6793 26.1701 27.9696 26.1701C24.2599 26.1701 21.2526 23.2137 21.2526 19.5669C21.2526 15.9201 24.2599 12.9637 27.9696 12.9637C28.0931 12.9637 28.2093 12.9941 28.3109 13.0476C28.4181 12.3935 28.6752 11.7968 29.226 11.407ZM28.2443 14.3345C28.1596 14.3686 28.0669 14.3875 27.9696 14.3875C25.0598 14.3875 22.7009 16.7064 22.7009 19.5669C22.7009 22.4274 25.0598 24.7463 27.9696 24.7463C30.8795 24.7463 33.2384 22.4274 33.2384 19.5669C33.2384 19.4831 33.2531 19.4027 33.2802 19.328H31.2124C30.3519 19.328 29.5544 19.115 28.9913 18.5003C28.4437 17.9025 28.2443 17.0594 28.2443 16.0856V14.3345ZM30.0722 12.5624C29.8877 12.693 29.6926 13.0391 29.6926 13.9671V16.0856C29.6926 16.9067 29.8672 17.3288 30.0675 17.5476C30.2524 17.7494 30.5769 17.9042 31.2124 17.9042H33.6956C34.6391 17.9042 34.9908 17.7125 35.1236 17.531C35.2662 17.3361 35.3863 16.8479 35.0353 15.6682C34.6185 14.2749 33.3822 13.0592 31.9657 12.6493C30.7662 12.3041 30.2702 12.4223 30.0722 12.5624ZM18.5338 18.3326C18.9937 18.3206 19.4956 18.3997 19.9178 18.6111C20.2742 18.7895 20.4159 19.2181 20.2344 19.5685C20.0544 19.916 19.6238 20.0559 19.269 19.8839V34.2113C19.269 34.2442 19.2667 34.2767 19.2623 34.3084C19.4923 34.3544 19.718 34.4282 19.925 34.5354C19.9259 34.5359 19.9268 34.5363 19.9277 34.5368L25.6204 37.4473V27.2911C25.6204 26.8979 25.9446 26.5792 26.3445 26.5792C26.7444 26.5792 27.0687 26.8979 27.0687 27.2911V37.3704L31.6922 34.6678C31.6927 34.6674 31.6933 34.6671 31.6939 34.6668C31.8586 34.5684 32.0534 34.368 32.209 34.0957C32.3647 33.8233 32.4411 33.5489 32.4411 33.3453V25.9164C32.4411 25.5233 32.7654 25.2046 33.1653 25.2046C33.5652 25.2046 33.8894 25.5233 33.8894 25.9164V33.3453C33.8894 33.8523 33.7157 34.3661 33.4716 34.7931C33.228 35.2194 32.8742 35.6292 32.441 35.8864L32.4367 35.889L27.7264 38.6423L27.7244 38.6435C27.3138 38.8818 26.815 38.9869 26.3556 38.9988C25.8958 39.0108 25.3938 38.9317 24.9716 38.7203L24.9661 38.7176L19.255 35.7976L19.2506 35.7954C19.1017 35.7179 18.8588 35.6638 18.5749 35.6722C18.2916 35.6807 18.0488 35.7491 17.9016 35.8344C17.9015 35.8345 17.9017 35.8344 17.9016 35.8344L15.3471 37.3211C15.3468 37.3212 15.3465 37.3214 15.3462 37.3215C14.3162 37.9238 13.2047 38.0671 12.3076 37.5355C11.4206 37.0098 11 35.9745 11 34.7775V23.975C11 23.4749 11.1701 22.9643 11.4133 22.5376C11.6561 22.1116 12.0114 21.6999 12.4532 21.4421C12.4532 21.4422 12.4533 21.4421 12.4532 21.4421L17.165 18.6879C17.5757 18.4496 18.0745 18.3445 18.5338 18.3326ZM17.8333 34.3439C17.825 34.301 17.8207 34.2566 17.8207 34.2113V19.961L13.1929 22.6661C13.0257 22.7637 12.831 22.9629 12.6768 23.2335C12.5229 23.5035 12.4483 23.7756 12.4483 23.975V34.7775C12.4483 35.6899 12.762 36.1423 13.0553 36.3161C13.3382 36.4838 13.8526 36.5385 14.6065 36.0976L14.6079 36.0967L17.1643 34.609C17.3697 34.4898 17.5985 34.4025 17.8333 34.3439Z" fill="#73B4FF"/>
</svg>
