<svg width="50" height="51" viewBox="0 0 50 51" fill="none" xmlns="http://www.w3.org/2000/svg">
<circle cx="25" cy="25.0836" r="25" fill="#E3F0FF"/>
<path fill-rule="evenodd" clip-rule="evenodd" d="M29.226 11.4906C30.0153 10.9319 31.1198 11.006 32.3733 11.3667C34.2626 11.9132 35.8693 13.4928 36.4249 15.3506C36.7917 16.5832 36.8672 17.67 36.2993 18.446C35.9003 18.9912 35.2884 19.2438 34.6182 19.348C34.6621 19.4398 34.6866 19.5424 34.6866 19.6505C34.6866 23.2974 31.6793 26.2537 27.9696 26.2537C24.2599 26.2537 21.2526 23.2974 21.2526 19.6505C21.2526 16.0037 24.2599 13.0474 27.9696 13.0474C28.0931 13.0474 28.2093 13.0777 28.3109 13.1312C28.4181 12.4771 28.6752 11.8805 29.226 11.4906ZM28.2443 14.4181C28.1596 14.4523 28.0669 14.4711 27.9696 14.4711C25.0598 14.4711 22.7009 16.79 22.7009 19.6505C22.7009 22.511 25.0598 24.83 27.9696 24.83C30.8795 24.83 33.2384 22.511 33.2384 19.6505C33.2384 19.5667 33.2531 19.4863 33.2802 19.4116H31.2124C30.3519 19.4116 29.5544 19.1986 28.9913 18.5839C28.4437 17.9862 28.2443 17.143 28.2443 16.1693V14.4181ZM30.0722 12.646C29.8877 12.7767 29.6926 13.1228 29.6926 14.0507V16.1693C29.6926 16.9903 29.8672 17.4124 30.0675 17.6312C30.2524 17.833 30.5769 17.9879 31.2124 17.9879H33.6956C34.6391 17.9879 34.9908 17.7961 35.1236 17.6146C35.2662 17.4197 35.3863 16.9315 35.0353 15.7519C34.6185 14.3585 33.3822 13.1428 31.9657 12.7329C30.7662 12.3878 30.2702 12.5059 30.0722 12.646ZM18.5338 18.4162C18.9937 18.4042 19.4956 18.4833 19.9178 18.6947C20.2742 18.8731 20.4159 19.3017 20.2344 19.6521C20.0544 19.9996 19.6238 20.1396 19.269 19.9675V34.2949C19.269 34.3279 19.2667 34.3603 19.2623 34.3921C19.4923 34.438 19.718 34.5118 19.925 34.619C19.9259 34.6195 19.9268 34.62 19.9277 34.6204L25.6204 37.5309V27.3747C25.6204 26.9815 25.9446 26.6628 26.3445 26.6628C26.7444 26.6628 27.0687 26.9815 27.0687 27.3747V37.454L31.6922 34.7514C31.6927 34.7511 31.6933 34.7507 31.6939 34.7504C31.8586 34.652 32.0534 34.4516 32.209 34.1793C32.3647 33.907 32.4411 33.6325 32.4411 33.4289V26C32.4411 25.6069 32.7654 25.2882 33.1653 25.2882C33.5652 25.2882 33.8894 25.6069 33.8894 26V33.4289C33.8894 33.9359 33.7157 34.4497 33.4716 34.8768C33.228 35.303 32.8742 35.7128 32.441 35.9701L32.4367 35.9726L27.7264 38.726L27.7244 38.7271C27.3138 38.9654 26.815 39.0705 26.3556 39.0824C25.8958 39.0944 25.3938 39.0153 24.9716 38.8039L24.9661 38.8012L19.255 35.8813L19.2506 35.879C19.1017 35.8016 18.8588 35.7474 18.5749 35.7558C18.2916 35.7643 18.0488 35.8327 17.9016 35.918C17.9015 35.9181 17.9017 35.918 17.9016 35.918L15.3471 37.4047C15.3468 37.4048 15.3465 37.405 15.3462 37.4052C14.3162 38.0074 13.2047 38.1507 12.3076 37.6191C11.4206 37.0934 11 36.0581 11 34.8611V24.0586C11 23.5585 11.1701 23.0479 11.4133 22.6212C11.6561 22.1952 12.0114 21.7835 12.4532 21.5258C12.4532 21.5258 12.4533 21.5257 12.4532 21.5258L17.165 18.7715C17.5757 18.5332 18.0745 18.4281 18.5338 18.4162ZM17.8333 34.4276C17.825 34.3846 17.8207 34.3402 17.8207 34.2949V20.0446L13.1929 22.7498C13.0257 22.8473 12.831 23.0465 12.6768 23.3171C12.5229 23.5871 12.4483 23.8592 12.4483 24.0586V34.8611C12.4483 35.7735 12.762 36.2259 13.0553 36.3998C13.3382 36.5674 13.8526 36.6221 14.6065 36.1812L14.6079 36.1803L17.1643 34.6926C17.3697 34.5734 17.5985 34.4861 17.8333 34.4276Z" fill="#00418D"/>
</svg>
