<svg width="50" height="50" viewBox="0 0 50 50" fill="none" xmlns="http://www.w3.org/2000/svg">
<circle cx="25" cy="25" r="25" fill="#05141F"/>
<path fill-rule="evenodd" clip-rule="evenodd" d="M31.8732 12.4237C29.444 12.4237 27.3658 13.9457 26.5447 16.0903C26.4042 16.4575 25.9926 16.6411 25.6254 16.5006C25.2582 16.36 25.0746 15.9484 25.2151 15.5813C26.2399 12.9045 28.8343 11 31.8732 11C35.8074 11 39 14.1926 39 18.1268C39 22.061 35.8074 25.2537 31.8732 25.2537C30.3602 25.2537 28.955 24.7807 27.8003 23.9748C27.4779 23.7498 27.3989 23.3061 27.6239 22.9837C27.8489 22.6613 28.2927 22.5823 28.6151 22.8073C29.5388 23.4519 30.6612 23.8299 31.8732 23.8299C35.0211 23.8299 37.5763 21.2747 37.5763 18.1268C37.5763 14.9789 35.0211 12.4237 31.8732 12.4237ZM31.6357 14.5346C32.0289 14.5346 32.3476 14.8534 32.3476 15.2465V17.8766C32.3476 17.9255 32.3694 18.029 32.4386 18.1503C32.5077 18.2715 32.5857 18.343 32.6273 18.3676L32.6292 18.3687L34.6178 19.5555C34.9555 19.757 35.0658 20.194 34.8643 20.5316C34.6629 20.8692 34.2259 20.9795 33.8882 20.7781L31.9015 19.5924C31.9012 19.5922 31.9008 19.592 31.9005 19.5918C31.5962 19.4112 31.3602 19.1333 31.2018 18.8556C31.0432 18.5774 30.9239 18.232 30.9239 17.8766V15.2465C30.9239 14.8534 31.2426 14.5346 31.6357 14.5346ZM11.7119 14.6657C12.105 14.6657 12.4237 14.9844 12.4237 15.3776L12.4237 35.7434H14.6657V25.4582C14.6657 24.8881 14.7658 24.262 15.1123 23.7596C15.4897 23.2124 16.0884 22.9135 16.8438 22.9135H17.577C18.3324 22.9135 18.9311 23.2124 19.3085 23.7596C19.655 24.262 19.7551 24.8881 19.7551 25.4582V35.7434H20.8516V19.9597C20.8516 19.3764 20.968 18.7364 21.3618 18.2289C21.781 17.6886 22.4217 17.415 23.213 17.415H24.0378C24.829 17.415 25.4698 17.6886 25.8889 18.2289C26.2827 18.7364 26.3992 19.3764 26.3992 19.9597V35.7434H27.4956V30.0403C27.4956 29.4702 27.5958 28.8441 27.9422 28.3417C28.3196 27.7945 28.9184 27.4956 29.6738 27.4956H30.4069C31.1623 27.4956 31.7611 27.7945 32.1384 28.3417C32.4849 28.8441 32.585 29.4702 32.585 30.0403V35.7434H34.6224C35.0156 35.7434 35.3343 36.0621 35.3343 36.4553C35.3343 36.8484 35.0156 37.1672 34.6224 37.1672L11.7119 37.1672C11.3187 37.1672 11 36.8484 11 36.4553L11 15.3776C11 14.9844 11.3187 14.6657 11.7119 14.6657ZM31.1613 35.7434V30.0403C31.1613 29.6024 31.0782 29.3121 30.9664 29.15C30.8856 29.0328 30.7512 28.9193 30.4069 28.9193H29.6738C29.3294 28.9193 29.1951 29.0328 29.1142 29.15C29.0025 29.3121 28.9193 29.6024 28.9193 30.0403V35.7434H31.1613ZM24.9755 35.7434V19.9597C24.9755 19.5349 24.8858 19.2585 24.764 19.1016C24.6677 18.9774 24.4837 18.8387 24.0378 18.8387H23.213C22.7671 18.8387 22.583 18.9774 22.4867 19.1016C22.365 19.2585 22.2753 19.5349 22.2753 19.9597V35.7434L24.9755 35.7434ZM18.3314 35.7434V25.4582C18.3314 25.0202 18.2483 24.73 18.1365 24.5679C18.0557 24.4507 17.9213 24.3372 17.577 24.3372H16.8438C16.4995 24.3372 16.3651 24.4507 16.2843 24.5679C16.1726 24.73 16.0894 25.0202 16.0894 25.4582V35.7434H18.3314Z" fill="#73B4FF"/>
</svg>
