<svg width="50" height="50" viewBox="0 0 50 50" fill="none" xmlns="http://www.w3.org/2000/svg">
<circle cx="25" cy="25" r="25" fill="#E3F0FF"/>
<path fill-rule="evenodd" clip-rule="evenodd" d="M11 17.4068C11 13.8684 13.8684 11 17.4068 11H32.5932C36.1316 11 39 13.8684 39 17.4068V32.5932C39 36.1316 36.1316 39 32.5932 39H17.4068C13.8684 39 11 36.1316 11 32.5932V17.4068ZM17.4068 12.4237C14.6547 12.4237 12.4237 14.6547 12.4237 17.4068V32.5932C12.4237 35.3453 14.6547 37.5763 17.4068 37.5763H32.5932C35.3453 37.5763 37.5763 35.3453 37.5763 32.5932V17.4068C37.5763 14.6547 35.3453 12.4237 32.5932 12.4237H17.4068ZM20.2542 19.0678C19.0748 19.0678 18.1186 20.0239 18.1186 21.2034C18.1186 22.3828 19.0748 23.339 20.2542 23.339C21.4337 23.339 22.3898 22.3828 22.3898 21.2034C22.3898 20.0239 21.4337 19.0678 20.2542 19.0678ZM16.6949 21.2034C16.6949 19.2376 18.2885 17.6441 20.2542 17.6441C22.22 17.6441 23.8136 19.2376 23.8136 21.2034C23.8136 23.1691 22.22 24.7627 20.2542 24.7627C18.2885 24.7627 16.6949 23.1691 16.6949 21.2034ZM31.8814 20.2542C31.8814 19.8611 32.2001 19.5424 32.5932 19.5424H34.4915C34.8847 19.5424 35.2034 19.8611 35.2034 20.2542V22.1525C35.2034 22.5457 34.8847 22.8644 34.4915 22.8644C34.0984 22.8644 33.7797 22.5457 33.7797 22.1525V21.9728L31.0084 24.744C30.8576 24.8948 30.6472 24.9701 30.4349 24.9491C30.2227 24.9281 30.0311 24.813 29.9128 24.6355L28.8758 23.0801L26.4525 25.5034C26.1745 25.7814 25.7238 25.7814 25.4458 25.5034C25.1678 25.2254 25.1678 24.7746 25.4458 24.4966L28.4831 21.4593C28.6339 21.3085 28.8444 21.2333 29.0566 21.2543C29.2688 21.2753 29.4604 21.3904 29.5787 21.5678L30.6157 23.1233L32.7729 20.9661H32.5932C32.2001 20.9661 31.8814 20.6474 31.8814 20.2542ZM21.37 25.3069C23.783 25.5843 25.5036 27.9307 25.7098 30.6409C25.7396 31.0329 25.446 31.3749 25.054 31.4047C24.662 31.4345 24.32 31.1409 24.2902 30.7489C24.1168 28.4699 22.7209 26.8936 21.2043 26.721L21.1951 26.7199L21.1951 26.7199C20.5772 26.6415 19.9454 26.6412 19.3116 26.7201L19.3103 26.7203C17.7844 26.9073 16.3912 28.4755 16.2183 30.7489C16.1885 31.1409 15.8465 31.4345 15.4545 31.4047C15.0625 31.3749 14.7688 31.0329 14.7987 30.6409C15.0054 27.9235 16.7305 25.6024 19.1365 25.3072C19.8841 25.2142 20.6335 25.2138 21.37 25.3069Z" fill="#00418D"/>
</svg>
