<svg width="20" height="18" viewBox="0 0 20 18" fill="none" xmlns="http://www.w3.org/2000/svg">
<path fill-rule="evenodd" clip-rule="evenodd" d="M0 1.42102C0 0.868736 0.447715 0.421021 1 0.421021H13.3623C13.9145 0.421021 14.3623 0.868736 14.3623 1.42102C14.3623 1.97331 13.9145 2.42102 13.3623 2.42102H1C0.447715 2.42102 0 1.97331 0 1.42102ZM0 8.92102C0 8.36874 0.447715 7.92102 1 7.92102H19C19.5523 7.92102 20 8.36874 20 8.92102C20 9.47331 19.5523 9.92102 19 9.92102H1C0.447715 9.92102 0 9.47331 0 8.92102ZM0 16.421C0 15.8687 0.447715 15.421 1 15.421H13.3623C13.9145 15.421 14.3623 15.8687 14.3623 16.421C14.3623 16.9733 13.9145 17.421 13.3623 17.421H1C0.447715 17.421 0 16.9733 0 16.421Z" fill="white"/>
</svg>
