<svg width="21" height="18" viewBox="0 0 21 18" fill="none" xmlns="http://www.w3.org/2000/svg">
<path fill-rule="evenodd" clip-rule="evenodd" d="M0.359375 1.42102C0.359375 0.868736 0.80709 0.421021 1.35938 0.421021H13.7216C14.2739 0.421021 14.7216 0.868736 14.7216 1.42102C14.7216 1.97331 14.2739 2.42102 13.7216 2.42102H1.35938C0.80709 2.42102 0.359375 1.97331 0.359375 1.42102ZM0.359375 8.92102C0.359375 8.36874 0.80709 7.92102 1.35938 7.92102H19.3594C19.9117 7.92102 20.3594 8.36874 20.3594 8.92102C20.3594 9.47331 19.9117 9.92102 19.3594 9.92102H1.35938C0.80709 9.92102 0.359375 9.47331 0.359375 8.92102ZM0.359375 16.421C0.359375 15.8687 0.80709 15.421 1.35938 15.421H13.7216C14.2739 15.421 14.7216 15.8687 14.7216 16.421C14.7216 16.9733 14.2739 17.421 13.7216 17.421H1.35938C0.80709 17.421 0.359375 16.9733 0.359375 16.421Z" fill="#05141F"/>
</svg>
