<svg width="21" height="21" viewBox="0 0 21 21" fill="none" xmlns="http://www.w3.org/2000/svg">
<rect x="0.5" y="0.513672" width="20" height="20" rx="10" fill="#05141F"/>
<path fill-rule="evenodd" clip-rule="evenodd" d="M5.1844 7.85571C5.20478 6.98393 5.34358 6.61812 5.53133 6.43249C5.73716 6.22897 6.16033 6.08415 7.2135 6.08415H11.9743C12.3007 6.08415 12.5652 5.81959 12.5652 5.49325C12.5652 5.1669 12.3007 4.90234 11.9743 4.90234H7.2135C6.16977 4.90234 5.28164 5.01742 4.70041 5.59211C4.11684 6.1691 4 7.05269 4 8.08631V12.9416C4 13.9753 4.11684 14.8589 4.70041 15.4358C5.28164 16.0105 6.16977 16.1256 7.2135 16.1256H13.7818C14.8255 16.1256 15.7137 16.0105 16.2949 15.4358C16.8784 14.8589 16.9953 13.9753 16.9953 12.9416V10.5317C16.9953 10.2054 16.7307 9.94079 16.4044 9.94079C16.078 9.94079 15.8135 10.2054 15.8135 10.5317V12.9416C15.8135 13.9813 15.6675 14.3942 15.464 14.5955C15.2581 14.799 14.835 14.9438 13.7818 14.9438H7.2135C6.16033 14.9438 5.73716 14.799 5.53133 14.5955C5.32781 14.3942 5.18181 13.9813 5.18181 12.9416V9.03752H10.2023C10.5287 9.03752 10.7932 8.77296 10.7932 8.44662C10.7932 8.12027 10.5287 7.85571 10.2023 7.85571H5.1844ZM15.2435 4.92782C15.7059 4.88414 16.119 5.09871 16.4737 5.45341C16.8269 5.80657 17.0392 6.21913 16.994 6.68053C16.9518 7.11089 16.6962 7.43699 16.4737 7.65944L14.2823 9.85084C14.1814 9.95176 14.0601 10.0269 13.9589 10.0774C13.8572 10.1283 13.7254 10.1796 13.5859 10.2005L13.5807 10.2013L12.7419 10.3194L12.7399 10.3197C12.4313 10.362 12.1103 10.2776 11.877 10.0443C11.6436 9.81095 11.5592 9.48993 11.6016 9.18136L11.6019 9.1793L11.7207 8.3353C11.7417 8.19582 11.7929 8.06407 11.8438 7.9623C11.8944 7.86115 11.9695 7.73982 12.0704 7.63891L13.9433 5.76596C13.9471 5.76207 13.951 5.75823 13.9549 5.75445L14.2618 5.4475C14.4842 5.22508 14.8111 4.96866 15.2435 4.92782ZM14.2072 7.17341L12.9153 8.4653C12.9116 8.47092 12.9064 8.47973 12.9008 8.49082C12.8949 8.50278 12.8906 8.51326 12.8881 8.52033C12.8881 8.52035 12.8882 8.5203 12.8881 8.52033L12.8041 9.11716L13.4008 9.03312C13.4008 9.03312 13.4009 9.03311 13.4008 9.03312C13.4079 9.03067 13.4185 9.02639 13.4304 9.02041C13.4415 9.01486 13.4503 9.00962 13.4559 9.00591L14.7481 7.71378C14.542 7.5618 14.3597 7.37955 14.2072 7.17341ZM15.6018 6.86005C15.3759 6.73567 15.1878 6.5487 15.0604 6.32027L15.0975 6.28317C15.2531 6.12756 15.3338 6.10636 15.3547 6.10438C15.3597 6.10391 15.3769 6.10228 15.4156 6.11963C15.4595 6.13934 15.5343 6.18531 15.6381 6.28907C15.7399 6.39092 15.7845 6.46404 15.8034 6.5065C15.8199 6.54372 15.8183 6.56003 15.8178 6.56509C15.8157 6.58659 15.7937 6.66819 15.6381 6.82377L15.6018 6.86005ZM6.3627 13.172C6.3627 12.8457 6.62725 12.5811 6.9536 12.5811H8.13495C8.4613 12.5811 8.72585 12.8457 8.72585 13.172C8.72585 13.4984 8.4613 13.7629 8.13495 13.7629H6.9536C6.62725 13.7629 6.3627 13.4984 6.3627 13.172ZM9.02073 13.172C9.02073 12.8457 9.28529 12.5811 9.61163 12.5811H11.9743C12.3007 12.5811 12.5652 12.8457 12.5652 13.172C12.5652 13.4984 12.3007 13.7629 11.9743 13.7629H9.61163C9.28529 13.7629 9.02073 13.4984 9.02073 13.172Z" fill="#73B4FF"/>
</svg>
