<svg width="20" height="20" viewBox="0 0 20 20" fill="none" xmlns="http://www.w3.org/2000/svg">
<rect width="20" height="20" rx="10" fill="white"/>
<path fill-rule="evenodd" clip-rule="evenodd" d="M4.6844 7.34204C4.70478 6.47026 4.84358 6.10445 5.03133 5.91882C5.23716 5.7153 5.66033 5.57048 6.7135 5.57048H11.4743C11.8007 5.57048 12.0652 5.30592 12.0652 4.97958C12.0652 4.65323 11.8007 4.38867 11.4743 4.38867H6.7135C5.66977 4.38867 4.78164 4.50375 4.20041 5.07844C3.61684 5.65543 3.5 6.53902 3.5 7.57264V12.428C3.5 13.4616 3.61684 14.3452 4.20041 14.9222C4.78164 15.4969 5.66977 15.6119 6.7135 15.6119H13.2818C14.3255 15.6119 15.2137 15.4969 15.7949 14.9222C16.3784 14.3452 16.4953 13.4616 16.4953 12.428V10.018C16.4953 9.69168 16.2307 9.42712 15.9044 9.42712C15.578 9.42712 15.3135 9.69168 15.3135 10.018V12.428C15.3135 13.4676 15.1675 13.8806 14.964 14.0818C14.7581 14.2853 14.335 14.4301 13.2818 14.4301H6.7135C5.66033 14.4301 5.23716 14.2853 5.03133 14.0818C4.82781 13.8806 4.68181 13.4676 4.68181 12.428V8.52385H9.70231C10.0287 8.52385 10.2932 8.25929 10.2932 7.93295C10.2932 7.6066 10.0287 7.34204 9.70231 7.34204H4.6844ZM14.7435 4.41414C15.2059 4.37047 15.619 4.58504 15.9737 4.93974C16.3269 5.29289 16.5392 5.70546 16.494 6.16686C16.4518 6.59722 16.1962 6.92332 15.9737 7.14577L13.7823 9.33717C13.6814 9.43809 13.5601 9.5132 13.4589 9.56378C13.3572 9.61466 13.2254 9.66589 13.0859 9.68681L13.0807 9.6876L12.2419 9.80571L12.2399 9.80599C11.9313 9.84835 11.6103 9.76395 11.377 9.53061C11.1436 9.29727 11.0592 8.97626 11.1016 8.66769L11.1019 8.66563L11.2207 7.82162C11.2417 7.68215 11.2929 7.55039 11.3438 7.44862C11.3944 7.34748 11.4695 7.22615 11.5704 7.12523L13.4433 5.25228C13.4471 5.2484 13.451 5.24456 13.4549 5.24078L13.7618 4.93383C13.9842 4.71141 14.3111 4.45499 14.7435 4.41414ZM13.7072 6.65973L12.4153 7.95163C12.4116 7.95725 12.4064 7.96605 12.4008 7.97714C12.3949 7.9891 12.3906 7.99959 12.3881 8.00665C12.3881 8.00668 12.3882 8.00663 12.3881 8.00665L12.3041 8.60348L12.9008 8.51944C12.9008 8.51945 12.9009 8.51944 12.9008 8.51944C12.9079 8.517 12.9185 8.51272 12.9304 8.50674C12.9415 8.50119 12.9503 8.49595 12.9559 8.49224L14.2481 7.20011C14.042 7.04813 13.8597 6.86587 13.7072 6.65973ZM15.1018 6.34638C14.8759 6.222 14.6878 6.03503 14.5604 5.8066L14.5975 5.7695C14.7531 5.61389 14.8338 5.59269 14.8547 5.59071C14.8597 5.59024 14.8769 5.58861 14.9156 5.60596C14.9595 5.62567 15.0343 5.67164 15.1381 5.7754C15.2399 5.87725 15.2845 5.95037 15.3034 5.99283C15.3199 6.03005 15.3183 6.04635 15.3178 6.05142C15.3157 6.07292 15.2937 6.15452 15.1381 6.3101L15.1018 6.34638ZM5.8627 12.6583C5.8627 12.332 6.12725 12.0674 6.4536 12.0674H7.63495C7.9613 12.0674 8.22585 12.332 8.22585 12.6583C8.22585 12.9847 7.9613 13.2492 7.63495 13.2492H6.4536C6.12725 13.2492 5.8627 12.9847 5.8627 12.6583ZM8.52073 12.6583C8.52073 12.332 8.78529 12.0674 9.11163 12.0674H11.4743C11.8007 12.0674 12.0652 12.332 12.0652 12.6583C12.0652 12.9847 11.8007 13.2492 11.4743 13.2492H9.11163C8.78529 13.2492 8.52073 12.9847 8.52073 12.6583Z" fill="#002C5F"/>
</svg>
