<svg width="16" height="17" viewBox="0 0 16 17" fill="none" xmlns="http://www.w3.org/2000/svg">
<path fill-rule="evenodd" clip-rule="evenodd" d="M10.4657 2.6426C11.1227 2.55859 11.7753 2.83014 12.4221 3.43876L12.4231 3.43963C13.0719 4.05322 13.3826 4.69094 13.3363 5.35316C13.2918 5.98913 12.924 6.51894 12.5218 6.94388L12.52 6.94575L11.8735 7.62158C11.8334 7.69064 11.7775 7.74875 11.7111 7.79144L6.95149 12.7674C6.81901 12.9111 6.64459 13.0296 6.48325 13.1158C6.31892 13.2037 6.12578 13.2807 5.9405 13.3137L5.93717 13.3142L4.23849 13.6044C4.23845 13.6044 4.23853 13.6044 4.23849 13.6044C3.79871 13.6802 3.36908 13.571 3.06069 13.2785C2.75277 12.9865 2.62057 12.564 2.66965 12.1223L2.66982 12.1208L2.86617 10.4014C2.89077 10.2168 2.95842 10.0215 3.03605 9.85504C3.11334 9.6893 3.2206 9.50929 3.35106 9.37041L3.35414 9.36713L8.92444 3.54361C8.92476 3.54328 8.92507 3.54295 8.92539 3.54261C9.32765 3.11791 9.83541 2.7232 10.4657 2.6426ZM11.2407 6.83644L11.7956 6.2564C11.7958 6.25612 11.7961 6.25584 11.7964 6.25556C12.143 5.88919 12.3186 5.57217 12.3387 5.28343C12.3571 5.0208 12.2536 4.65588 11.7364 4.16664C11.2224 3.68312 10.8538 3.60112 10.5926 3.63453C10.305 3.67129 9.99768 3.86451 9.65065 4.23109L9.64887 4.23297L9.1038 4.80281C9.35622 5.8394 10.1919 6.63304 11.2407 6.83644ZM8.32421 5.61784C8.72568 6.5603 9.50044 7.29654 10.46 7.65266L6.22528 12.0799L6.21712 12.0887C6.18654 12.1222 6.11508 12.1787 6.01176 12.234C5.91036 12.2882 5.81915 12.3193 5.76672 12.3289C5.7663 12.3289 5.76589 12.329 5.76547 12.3291L4.06935 12.6188C3.89695 12.6485 3.79796 12.5995 3.74881 12.5529C3.69922 12.5059 3.64414 12.4087 3.66346 12.2334C3.66343 12.2336 3.66348 12.2331 3.66346 12.2334L3.85798 10.53C3.86576 10.4764 3.89309 10.3833 3.94234 10.2777C3.99246 10.1702 4.04554 10.0922 4.07878 10.0563L8.32421 5.61784Z" fill="#459BFF"/>
</svg>
