<svg width="16" height="16" viewBox="0 0 16 16" fill="none" xmlns="http://www.w3.org/2000/svg">
<path fill-rule="evenodd" clip-rule="evenodd" d="M10.4657 2.51492C11.1227 2.43091 11.7753 2.70246 12.4221 3.31107L12.4231 3.31194C13.0719 3.92553 13.3826 4.56325 13.3363 5.22547C13.2918 5.86145 12.924 6.39125 12.5218 6.81619L12.52 6.81806L11.8735 7.4939C11.8334 7.56295 11.7775 7.62106 11.7111 7.66375L6.95149 12.6397C6.81901 12.7834 6.64459 12.9019 6.48325 12.9882C6.31892 13.076 6.12578 13.153 5.9405 13.186L5.93717 13.1866L4.23849 13.4767C4.23845 13.4767 4.23853 13.4767 4.23849 13.4767C3.79871 13.5525 3.36908 13.4433 3.06069 13.1508C2.75277 12.8588 2.62057 12.4363 2.66965 11.9946L2.66982 11.9931L2.86617 10.2737C2.89077 10.0891 2.95842 9.89382 3.03605 9.72735C3.11334 9.56161 3.2206 9.38161 3.35106 9.24273L3.35414 9.23944L8.92444 3.41593C8.92476 3.4156 8.92507 3.41526 8.92539 3.41493C9.32765 2.99022 9.83541 2.59552 10.4657 2.51492ZM11.2407 6.70875L11.7956 6.12872C11.7958 6.12844 11.7961 6.12815 11.7964 6.12787C12.143 5.7615 12.3186 5.44448 12.3387 5.15574C12.3571 4.89311 12.2536 4.5282 11.7364 4.03895C11.2224 3.55544 10.8538 3.47343 10.5926 3.50684C10.305 3.54361 9.99768 3.73682 9.65065 4.10341L9.64887 4.10528L9.1038 4.67513C9.35622 5.71172 10.1919 6.50536 11.2407 6.70875ZM8.32421 5.49016C8.72568 6.43262 9.50044 7.16885 10.46 7.52498L6.22528 11.9522L6.21712 11.961C6.18654 11.9945 6.11508 12.0511 6.01176 12.1063C5.91036 12.1605 5.81915 12.1916 5.76672 12.2012C5.7663 12.2013 5.76589 12.2013 5.76547 12.2014L4.06935 12.4911C3.89695 12.5208 3.79796 12.4718 3.74881 12.4252C3.69922 12.3782 3.64414 12.281 3.66346 12.1057C3.66343 12.1059 3.66348 12.1055 3.66346 12.1057L3.85798 10.4023C3.86576 10.3487 3.89309 10.2556 3.94234 10.15C3.99246 10.0425 4.04554 9.96447 4.07878 9.92861L8.32421 5.49016Z" fill="#00418D"/>
</svg>
