<svg width="20" height="20" viewBox="0 0 20 20" fill="none" xmlns="http://www.w3.org/2000/svg">
<path fill-rule="evenodd" clip-rule="evenodd" d="M2.7587 2.93366C2.91821 1.65757 4.00298 0.699951 5.28901 0.699951H14.711C15.997 0.699951 17.0818 1.65757 17.2413 2.93366L17.8733 7.98979C18.9549 8.28512 19.75 9.27469 19.75 10.45V14.05C19.75 15.1973 18.9923 16.1676 17.95 16.4879V17.65C17.95 18.5612 17.2113 19.2999 16.3 19.2999H14.5C13.5887 19.2999 12.85 18.5612 12.85 17.65V16.5999H7.15V17.65C7.15 18.5612 6.41127 19.2999 5.5 19.2999H3.7C2.78873 19.2999 2.05 18.5612 2.05 17.65L2.05 16.4879C1.0077 16.1676 0.25 15.1973 0.25 14.05V10.45C0.25 9.27469 1.04507 8.28512 2.12668 7.98979L2.7587 2.93366ZM3.64959 7.89995H16.3504L15.7529 3.11971C15.6872 2.59426 15.2405 2.19995 14.711 2.19995H10.75V3.49995H11.8C12.2143 3.49995 12.55 3.83574 12.55 4.24995C12.55 4.66416 12.2143 4.99995 11.8 4.99995H8.20004C7.78582 4.99995 7.45004 4.66416 7.45004 4.24995C7.45004 3.83574 7.78582 3.49995 8.20004 3.49995H9.25004V2.19995H5.28901C4.75947 2.19995 4.3128 2.59426 4.24712 3.11971L3.64959 7.89995ZM3.55 16.5999L3.55 17.65C3.55 17.7328 3.61716 17.7999 3.7 17.7999H5.5C5.58284 17.7999 5.65 17.7328 5.65 17.65V16.5999H3.55ZM14.35 16.5999V17.65C14.35 17.7328 14.4172 17.7999 14.5 17.7999H16.3C16.3828 17.7999 16.45 17.7328 16.45 17.65V16.5999H14.35ZM2.8 9.39995C2.2201 9.39995 1.75 9.87005 1.75 10.45V14.05C1.75 14.6298 2.2201 15.0999 2.8 15.0999H17.2C17.7799 15.0999 18.25 14.6298 18.25 14.05V10.45C18.25 9.87005 17.7799 9.39995 17.2 9.39995H2.8ZM3.85004 12.2499C3.85004 11.8357 4.18582 11.4999 4.60004 11.4999H6.40004C6.81425 11.4999 7.15004 11.8357 7.15004 12.2499C7.15004 12.6642 6.81425 12.9999 6.40004 12.9999H4.60004C4.18582 12.9999 3.85004 12.6642 3.85004 12.2499ZM12.85 12.2499C12.85 11.8357 13.1858 11.4999 13.6 11.4999H15.4C15.8143 11.4999 16.15 11.8357 16.15 12.2499C16.15 12.6642 15.8143 12.9999 15.4 12.9999H13.6C13.1858 12.9999 12.85 12.6642 12.85 12.2499Z" fill="#05141F"/>
</svg>
