<svg width="20" height="20" viewBox="0 0 20 20" fill="none" xmlns="http://www.w3.org/2000/svg">
<path fill-rule="evenodd" clip-rule="evenodd" d="M0 2C0 0.89543 0.89543 1.80816e-08 2 1.80816e-08H9C9.55229 1.80816e-08 10 0.447715 10 1C10 1.55228 9.55229 2 9 2H2V18H18V11C18 10.4477 18.4477 10 19 10C19.5523 10 20 10.4477 20 11V18C20 19.1046 19.1046 20 18 20H2C0.89544 20 0 19.1046 0 18V2ZM16.13 1.80816e-08C16.3954 -5.04074e-05 16.6499 0.10537 16.8375 0.293048L19.7073 3.16409C20.0976 3.55458 20.0976 4.1875 19.7073 4.57799L11.5819 12.707C11.3943 12.8946 11.1399 13 10.8746 13H8C7.44772 13 7 12.5523 7 12V9.13996C7 8.87495 7.10519 8.62078 7.29247 8.43328L15.4227 0.293317C15.6102 0.105568 15.8647 5.04436e-05 16.13 1.80816e-08ZM16.1305 2.41479L9 9.55382V11H10.4603L17.5861 3.87104L16.1305 2.41479Z" fill="white"/>
</svg>
