<svg width="21" height="20" viewBox="0 0 21 20" fill="none" xmlns="http://www.w3.org/2000/svg">
<path fill-rule="evenodd" clip-rule="evenodd" d="M0.359375 2C0.359375 0.89543 1.25481 1.80816e-08 2.35938 1.80816e-08H9.35938C9.91166 1.80816e-08 10.3594 0.447715 10.3594 1C10.3594 1.55228 9.91166 2 9.35938 2H2.35938V18H18.3594V11C18.3594 10.4477 18.8071 10 19.3594 10C19.9117 10 20.3594 10.4477 20.3594 11V18C20.3594 19.1046 19.464 20 18.3594 20H2.35938C1.25481 20 0.359375 19.1046 0.359375 18V2ZM16.4894 1.80816e-08C16.7548 -5.04074e-05 17.0093 0.10537 17.1969 0.293048L20.0666 3.16409C20.457 3.55458 20.457 4.1875 20.0666 4.57799L11.9413 12.707C11.7537 12.8946 11.4993 13 11.234 13H8.35938C7.80709 13 7.35938 12.5523 7.35938 12V9.13996C7.35938 8.87495 7.46457 8.62078 7.65184 8.43328L15.7821 0.293317C15.9696 0.105568 16.224 5.04436e-05 16.4894 1.80816e-08ZM16.4899 2.41479L9.35938 9.55382V11H10.8196L17.9455 3.87104L16.4899 2.41479Z" fill="#05141F"/>
</svg>
