<svg width="17" height="17" viewBox="0 0 17 17" fill="none" xmlns="http://www.w3.org/2000/svg">
<path fill-rule="evenodd" clip-rule="evenodd" d="M11.2104 3.19265C11.8674 3.10864 12.5199 3.38019 13.1668 3.98881L13.1677 3.98968C13.8165 4.60327 14.1272 5.24099 14.0809 5.90321C14.0365 6.53918 13.6687 7.06899 13.2664 7.49393L13.2646 7.4958L12.6182 8.17163C12.5781 8.24069 12.5221 8.2988 12.4557 8.34148L7.69612 13.3175C7.56363 13.4611 7.38922 13.5796 7.22788 13.6659C7.06355 13.7538 6.87041 13.8308 6.68513 13.8637L6.6818 13.8643L4.98312 14.1544C4.98308 14.1544 4.98316 14.1544 4.98312 14.1544C4.54334 14.2302 4.11371 14.121 3.80532 13.8286C3.4974 13.5365 3.3652 13.1141 3.41428 12.6723L3.41445 12.6708L3.6108 10.9514C3.6354 10.7669 3.70304 10.5716 3.78068 10.4051C3.85797 10.2393 3.96522 10.0593 4.09569 9.92046L4.09877 9.91718L9.66907 4.09366C9.66939 4.09333 9.6697 4.093 9.67002 4.09266C10.0723 3.66796 10.58 3.27325 11.2104 3.19265ZM11.9854 7.38649L12.5402 6.80645C12.5405 6.80617 12.5407 6.80589 12.541 6.80561C12.8876 6.43924 13.0632 6.12222 13.0834 5.83348C13.1017 5.57085 12.9982 5.20593 12.481 4.71668C11.967 4.23317 11.5985 4.15117 11.3372 4.18458C11.0497 4.22134 10.7423 4.41455 10.3953 4.78114L10.3935 4.78302L9.84843 5.35286C10.1008 6.38945 10.9365 7.18309 11.9854 7.38649ZM9.06884 6.16789C9.4703 7.11035 10.2451 7.84659 11.2046 8.20271L6.96991 12.63L6.96175 12.6387C6.93117 12.6723 6.8597 12.7288 6.75638 12.784C6.65499 12.8382 6.56378 12.8694 6.51135 12.8789C6.51093 12.879 6.51051 12.8791 6.5101 12.8791L4.81398 13.1688C4.64158 13.1986 4.54259 13.1496 4.49344 13.103C4.44385 13.0559 4.38877 12.9588 4.40809 12.7834C4.40806 12.7836 4.40811 12.7832 4.40809 12.7834L4.60261 11.0801C4.61039 11.0265 4.63772 10.9333 4.68697 10.8277C4.73709 10.7203 4.79017 10.6422 4.8234 10.6063L9.06884 6.16789Z" fill="#459BFF"/>
</svg>
