<svg width="17" height="17" viewBox="0 0 17 17" fill="none" xmlns="http://www.w3.org/2000/svg">
<path fill-rule="evenodd" clip-rule="evenodd" d="M10.7211 3.19265C11.3781 3.10864 12.0307 3.38019 12.6775 3.98881L12.6784 3.98968C13.3272 4.60327 13.638 5.24099 13.5917 5.90321C13.5472 6.53918 13.1794 7.06899 12.7771 7.49393L12.7754 7.4958L12.1289 8.17163C12.0888 8.24069 12.0328 8.2988 11.9664 8.34148L7.20686 13.3175C7.07438 13.4611 6.89996 13.5796 6.73862 13.6659C6.57429 13.7538 6.38115 13.8308 6.19588 13.8637L6.19254 13.8643L4.49386 14.1544C4.49382 14.1544 4.4939 14.1544 4.49386 14.1544C4.05408 14.2302 3.62446 14.121 3.31606 13.8286C3.00814 13.5365 2.87594 13.1141 2.92502 12.6723L2.92519 12.6708L3.12154 10.9514C3.14614 10.7669 3.21379 10.5716 3.29142 10.4051C3.36871 10.2393 3.47597 10.0593 3.60643 9.92046L3.60951 9.91718L9.17981 4.09366C9.18013 4.09333 9.18044 4.093 9.18076 4.09266C9.58302 3.66796 10.0908 3.27325 10.7211 3.19265ZM11.4961 7.38649L12.0509 6.80645C12.0512 6.80617 12.0515 6.80589 12.0517 6.80561C12.3984 6.43924 12.5739 6.12222 12.5941 5.83348C12.6125 5.57085 12.509 5.20593 11.9918 4.71668C11.4777 4.23317 11.1092 4.15117 10.8479 4.18458C10.5604 4.22134 10.2531 4.41455 9.90602 4.78114L9.90424 4.78302L9.35917 5.35286C9.61159 6.38945 10.4473 7.18309 11.4961 7.38649ZM8.57958 6.16789C8.98105 7.11035 9.75581 7.84659 10.7154 8.20271L6.48065 12.63L6.47249 12.6387C6.44191 12.6723 6.37045 12.7288 6.26713 12.784C6.16574 12.8382 6.07453 12.8694 6.02209 12.8789C6.02167 12.879 6.02126 12.8791 6.02084 12.8791L4.32472 13.1688C4.15232 13.1986 4.05333 13.1496 4.00418 13.103C3.95459 13.0559 3.89951 12.9588 3.91883 12.7834C3.91881 12.7836 3.91885 12.7832 3.91883 12.7834L4.11335 11.0801C4.12113 11.0265 4.14846 10.9333 4.19771 10.8277C4.24784 10.7203 4.30091 10.6422 4.33415 10.6063L8.57958 6.16789Z" fill="white"/>
</svg>
