<svg width="11" height="10" viewBox="0 0 11 10" fill="none" xmlns="http://www.w3.org/2000/svg">
<path fill-rule="evenodd" clip-rule="evenodd" d="M5.70605 0C5.9822 0 6.20605 0.223858 6.20605 0.5V4.5L10.2061 4.5C10.4822 4.5 10.7061 4.72386 10.7061 5C10.7061 5.27614 10.4822 5.5 10.2061 5.5L6.20605 5.5V9.5C6.20605 9.77614 5.9822 10 5.70605 10C5.42991 10 5.20605 9.77614 5.20605 9.5L5.20605 5.5L1.20605 5.5C0.929912 5.5 0.706055 5.27614 0.706055 5C0.706055 4.72386 0.929912 4.5 1.20605 4.5L5.20605 4.5V0.5C5.20605 0.223858 5.42991 0 5.70605 0Z" fill="white"/>
</svg>
