<svg width="21" height="20" viewBox="0 0 21 20" fill="none" xmlns="http://www.w3.org/2000/svg">
<path fill-rule="evenodd" clip-rule="evenodd" d="M1.35938 0C1.91166 0 2.35938 0.447715 2.35938 1V18H19.3594C19.9117 18 20.3594 18.4477 20.3594 19C20.3594 19.5523 19.9117 20 19.3594 20H1.35938C0.80709 20 0.359375 19.5523 0.359375 19V1C0.359375 0.447715 0.80709 0 1.35938 0ZM11.6452 1.28571C12.1975 1.28571 12.6452 1.73343 12.6452 2.28571V15C12.6452 15.5523 12.1975 16 11.6452 16C11.0929 16 10.6452 15.5523 10.6452 15V2.28571C10.6452 1.73343 11.0929 1.28571 11.6452 1.28571ZM16.788 5.28569C17.3403 5.28569 17.788 5.73341 17.788 6.28569V15C17.788 15.5523 17.3403 16 16.788 16C16.2357 16 15.788 15.5523 15.788 15V6.28569C15.788 5.73341 16.2357 5.28569 16.788 5.28569ZM6.50223 7.99997C7.05452 7.99997 7.50223 8.44769 7.50223 8.99997V15C7.50223 15.5523 7.05452 16 6.50223 16C5.94995 16 5.50223 15.5523 5.50223 15V8.99997C5.50223 8.44769 5.94995 7.99997 6.50223 7.99997Z" fill="#05141F"/>
</svg>
