<svg width="20" height="20" viewBox="0 0 20 20" fill="none" xmlns="http://www.w3.org/2000/svg">
<path fill-rule="evenodd" clip-rule="evenodd" d="M1 0C1.55228 0 2 0.447715 2 1V18H19C19.5523 18 20 18.4477 20 19C20 19.5523 19.5523 20 19 20H1C0.447715 20 0 19.5523 0 19V1C0 0.447715 0.447715 0 1 0ZM11.2858 1.28571C11.8381 1.28571 12.2858 1.73343 12.2858 2.28571V15C12.2858 15.5523 11.8381 16 11.2858 16C10.7336 16 10.2858 15.5523 10.2858 15V2.28571C10.2858 1.73343 10.7336 1.28571 11.2858 1.28571ZM16.4286 5.28569C16.9809 5.28569 17.4286 5.73341 17.4286 6.28569V15C17.4286 15.5523 16.9809 16 16.4286 16C15.8763 16 15.4286 15.5523 15.4286 15V6.28569C15.4286 5.73341 15.8763 5.28569 16.4286 5.28569ZM6.14286 7.99997C6.69514 7.99997 7.14286 8.44769 7.14286 8.99997V15C7.14286 15.5523 6.69514 16 6.14286 16C5.59057 16 5.14286 15.5523 5.14286 15V8.99997C5.14286 8.44769 5.59057 7.99997 6.14286 7.99997Z" fill="white"/>
</svg>
