<svg width="22" height="39" viewBox="0 0 22 39" fill="none" xmlns="http://www.w3.org/2000/svg">
<path d="M21.5386 14.1632C21.8389 13.1614 22 12.0995 22 11C22 4.92487 17.0752 0 11 0C4.9248 0 0 4.92487 0 11C0 12.0995 0.161133 13.1614 0.461426 14.1632C0.472168 14.227 0.489746 14.291 0.513672 14.3546L0.566406 14.4934C0.658203 14.7678 0.760742 15.0373 0.873047 15.3016L10.0649 37.535C10.3916 38.3955 11.6084 38.3955 11.9351 37.535L21.127 15.3016C21.2393 15.0373 21.3418 14.7678 21.4336 14.4934L21.4863 14.3546C21.5103 14.291 21.5278 14.227 21.5386 14.1632Z" fill="#0057BB"/>
<path fill-rule="evenodd" clip-rule="evenodd" d="M6.89437 8.06395C6.9882 7.3133 7.6263 6.75 8.38278 6.75H13.6172C14.3737 6.75 15.0118 7.31331 15.1056 8.06395L15.45 10.8187C16.0586 11.0098 16.5 11.5783 16.5 12.25V14.25C16.5 14.9031 16.0826 15.4587 15.5 15.6646V16.25C15.5 16.8023 15.0523 17.25 14.5 17.25H13.5C12.9477 17.25 12.5 16.8023 12.5 16.25V15.75H9.5V16.25C9.5 16.8023 9.05228 17.25 8.5 17.25H7.5C6.94772 17.25 6.5 16.8023 6.5 16.25V15.6646C5.9174 15.4587 5.5 14.9031 5.5 14.25V12.25C5.5 11.5783 5.94145 11.0098 6.55003 10.8187L6.89437 8.06395ZM7.49984 13.2389C7.49984 12.9627 7.72369 12.7389 7.99984 12.7389H8.99984C9.27598 12.7389 9.49984 12.9627 9.49984 13.2389C9.49984 13.515 9.27598 13.7389 8.99984 13.7389H7.99984C7.72369 13.7389 7.49984 13.515 7.49984 13.2389ZM12.4998 13.2389C12.4998 12.9627 12.7237 12.7389 12.9998 12.7389H13.9998C14.276 12.7389 14.4998 12.9627 14.4998 13.2389C14.4998 13.515 14.276 13.7389 13.9998 13.7389H12.9998C12.7237 13.7389 12.4998 13.515 12.4998 13.2389ZM14.4337 10.75H7.56653L7.88678 8.18798C7.91806 7.93777 8.13076 7.75 8.38292 7.75H10.5002V8.3114H10.0002C9.72402 8.3114 9.50016 8.53526 9.50016 8.8114C9.50016 9.08754 9.72402 9.3114 10.0002 9.3114H12.0002C12.2763 9.3114 12.5002 9.08754 12.5002 8.8114C12.5002 8.53526 12.2763 8.3114 12.0002 8.3114H11.5002V7.75H13.6174C13.8695 7.75 14.0822 7.93777 14.1135 8.18799L14.4337 10.75Z" fill="white"/>
</svg>
