<svg width="22" height="39" viewBox="0 0 22 39" fill="none" xmlns="http://www.w3.org/2000/svg">
<path d="M21.5386 14.1632C21.8389 13.1614 22 12.0995 22 11C22 4.92487 17.0752 0 11 0C4.9248 0 0 4.92487 0 11C0 12.0995 0.161133 13.1614 0.461426 14.1632C0.472168 14.227 0.489746 14.291 0.513672 14.3546L0.566406 14.4934C0.658203 14.7678 0.760742 15.0373 0.873047 15.3016L10.0649 37.535C10.3916 38.3955 11.6084 38.3955 11.9351 37.535L21.127 15.3016C21.2393 15.0373 21.3418 14.7678 21.4336 14.4934L21.4863 14.3546C21.5103 14.291 21.5278 14.227 21.5386 14.1632Z" fill="#0057BB"/>
<path fill-rule="evenodd" clip-rule="evenodd" d="M5.94862 8.44268C5.94862 7.61753 6.61754 6.94861 7.44269 6.94861H11.2372C12.0623 6.94861 12.7312 7.61753 12.7312 8.44268V10.5059H13.6087C14.1659 10.5059 14.5668 10.7503 14.8102 11.0884C15.0336 11.3987 15.1028 11.7546 15.1028 12V14.1344C15.1028 14.357 15.2833 14.5375 15.5059 14.5375C15.7286 14.5375 15.9091 14.357 15.9091 14.1344V10.0631L14.8497 8.79187C14.6569 8.56045 14.6882 8.2165 14.9196 8.02365C15.151 7.8308 15.495 7.86206 15.6878 8.09349L16.8736 9.51641C16.9553 9.61444 17 9.738 17 9.8656V14.1344C17 14.9595 16.3311 15.6285 15.5059 15.6285C14.6808 15.6285 14.0119 14.9595 14.0119 14.1344V12C14.0119 11.9292 13.9861 11.8108 13.9249 11.7258C13.8983 11.6888 13.8669 11.6605 13.827 11.6399C13.7876 11.6195 13.7205 11.5968 13.6087 11.5968H12.7312V15.9605H13.1344C13.4356 15.9605 13.6798 16.2047 13.6798 16.5059C13.6798 16.8072 13.4356 17.0514 13.1344 17.0514H5.54545C5.24421 17.0514 5 16.8072 5 16.5059C5 16.2047 5.24421 15.9605 5.54545 15.9605H5.94862V8.44268ZM9.56397 9.3682C9.83868 9.49182 9.96116 9.81473 9.83754 10.0894L9.2811 11.326L10.2285 11.2207C10.4271 11.1987 10.6219 11.287 10.7362 11.4509C10.8505 11.6148 10.866 11.8281 10.7766 12.0068L9.828 13.904C9.69328 14.1735 9.36564 14.2827 9.0962 14.1479C8.82675 14.0132 8.71754 13.6856 8.85226 13.4161L9.35249 12.4157L8.45175 12.5158C8.25711 12.5374 8.06581 12.453 7.95055 12.2947C7.83528 12.1364 7.81374 11.9284 7.8941 11.7498L8.84272 9.64178C8.96634 9.36706 9.28925 9.24458 9.56397 9.3682Z" fill="white"/>
</svg>
