<svg width="10" height="19" viewBox="0 0 10 19" fill="none" xmlns="http://www.w3.org/2000/svg">
<path d="M9.79026 7.26047C9.92676 6.8051 10 6.32243 10 5.82263C10 3.06121 7.76145 0.822632 5 0.822632C2.23855 0.822632 0 3.06121 0 5.82263C0 6.32243 0.0732422 6.8051 0.209739 7.26047C0.214622 7.28946 0.222612 7.31856 0.233487 7.34747L0.257457 7.41056C0.299183 7.53526 0.345792 7.65778 0.396839 7.77789L4.57497 17.884C4.72346 18.2751 5.27655 18.2751 5.42503 17.884L9.60316 7.77789C9.65421 7.65778 9.70082 7.53526 9.74254 7.41056L9.76651 7.34747C9.77739 7.31856 9.78538 7.28946 9.79026 7.26047Z" fill="#E9516A"/>
<path d="M9.79026 7.26047C9.92676 6.8051 10 6.32243 10 5.82263C10 3.06121 7.76145 0.822632 5 0.822632C2.23855 0.822632 0 3.06121 0 5.82263C0 6.32243 0.0732422 6.8051 0.209739 7.26047C0.214622 7.28946 0.222612 7.31856 0.233487 7.34747L0.257457 7.41056C0.299183 7.53526 0.345792 7.65778 0.396839 7.77789L4.57497 17.884C4.72346 18.2751 5.27655 18.2751 5.42503 17.884L9.60316 7.77789C9.65421 7.65778 9.70082 7.53526 9.74254 7.41056L9.76651 7.34747C9.77739 7.31856 9.78538 7.28946 9.79026 7.26047Z" fill="#0057BB"/>
</svg>
