<svg width="22" height="39" viewBox="0 0 22 39" fill="none" xmlns="http://www.w3.org/2000/svg">
<path d="M21.5386 14.1632C21.8389 13.1614 22 12.0995 22 11C22 4.92487 17.0752 0 11 0C4.9248 0 0 4.92487 0 11C0 12.0995 0.161133 13.1614 0.461426 14.1632C0.472168 14.227 0.489746 14.291 0.513672 14.3546L0.566406 14.4934C0.658203 14.7678 0.760742 15.0373 0.873047 15.3016L10.0649 37.535C10.3916 38.3955 11.6084 38.3955 11.9351 37.535L21.127 15.3016C21.2393 15.0373 21.3418 14.7678 21.4336 14.4934L21.4863 14.3546C21.5103 14.291 21.5278 14.227 21.5386 14.1632Z" fill="#E9516A"/>
<path fill-rule="evenodd" clip-rule="evenodd" d="M8.75 6.5C9.02614 6.5 9.25 6.72386 9.25 7V8.45804L12.75 8.45804V7C12.75 6.72386 12.9739 6.5 13.25 6.5C13.5261 6.5 13.75 6.72386 13.75 7V8.45804L15.75 8.45804C16.0261 8.45804 16.25 8.6819 16.25 8.95804C16.25 9.23418 16.0261 9.45804 15.75 9.45804H14.75V13.3636C14.75 14.4608 13.8445 15.3322 12.75 15.3322H11.75V15.7762C11.75 16.7382 10.9565 17.5 10 17.5H8.5119C8.23576 17.5 8.0119 17.2761 8.0119 17C8.0119 16.7239 8.23576 16.5 8.5119 16.5H10C10.4243 16.5 10.75 16.166 10.75 15.7762V15.3322H9.25C8.15548 15.3322 7.25 14.4608 7.25 13.3636V9.45804H6.25C5.97386 9.45804 5.75 9.23418 5.75 8.95804C5.75 8.6819 5.97386 8.45804 6.25 8.45804L8.25 8.45804V7C8.25 6.72386 8.47386 6.5 8.75 6.5ZM11.2088 9.97227C11.4597 10.0876 11.5696 10.3845 11.4543 10.6354L11.0726 11.4658L11.6959 11.398C11.8786 11.3782 12.0574 11.4601 12.1617 11.6113C12.2659 11.7626 12.2789 11.9589 12.1953 12.1225L11.4453 13.5911C11.3197 13.837 11.0185 13.9345 10.7726 13.8089C10.5267 13.6833 10.4291 13.3821 10.5547 13.1362L10.8836 12.4923L10.3041 12.5553C10.1251 12.5748 9.94948 12.4966 9.84427 12.3505C9.73906 12.2044 9.72051 12.013 9.79569 11.8495L10.5457 10.2178C10.661 9.96685 10.9579 9.85694 11.2088 9.97227Z" fill="white"/>
</svg>
