<svg width="10" height="18" viewBox="0 0 10 18" fill="none" xmlns="http://www.w3.org/2000/svg">
<path d="M9.79026 7.01352C9.92676 6.55816 10 6.07548 10 5.57568C10 2.81426 7.76145 0.575684 5 0.575684C2.23855 0.575684 0 2.81426 0 5.57568C0 6.07548 0.0732422 6.55816 0.209739 7.01352C0.214622 7.04251 0.222612 7.07161 0.233487 7.10052L0.257457 7.16361C0.299183 7.28832 0.345792 7.41083 0.396839 7.53094L4.57497 17.637C4.72346 18.0282 5.27655 18.0282 5.42503 17.637L9.60316 7.53094C9.65421 7.41083 9.70082 7.28832 9.74254 7.16361L9.76651 7.10052C9.77739 7.07161 9.78538 7.04251 9.79026 7.01352Z" fill="#E9516A"/>
</svg>
