<svg width="22" height="39" viewBox="0 0 22 39" fill="none" xmlns="http://www.w3.org/2000/svg">
<path d="M21.5386 14.1632C21.8389 13.1614 22 12.0995 22 11C22 4.92487 17.0752 0 11 0C4.9248 0 0 4.92487 0 11C0 12.0995 0.161133 13.1614 0.461426 14.1632C0.472168 14.227 0.489746 14.291 0.513672 14.3546L0.566406 14.4934C0.658203 14.7678 0.760742 15.0373 0.873047 15.3016L10.0649 37.535C10.3916 38.3955 11.6084 38.3955 11.9351 37.535L21.127 15.3016C21.2393 15.0373 21.3418 14.7678 21.4336 14.4934L21.4863 14.3546C21.5103 14.291 21.5278 14.227 21.5386 14.1632Z" fill="#E9516A"/>
<path d="M12.4231 15.6956C12.4231 15.9718 12.6469 16.1956 12.9231 16.1956C13.1992 16.1956 13.4231 15.9718 13.4231 15.6956H12.4231ZM8.57692 15.6956C8.57692 15.9718 8.80078 16.1956 9.07692 16.1956C9.35307 16.1956 9.57692 15.9718 9.57692 15.6956H8.57692ZM7.4757 10.8715L7.78401 11.2651H7.78401L7.4757 10.8715ZM10.5526 8.4615L10.2443 8.06787V8.06787L10.5526 8.4615ZM11.4474 8.4615L11.7557 8.06787V8.06787L11.4474 8.4615ZM14.5243 10.8715L14.216 11.2651V11.2651L14.5243 10.8715ZM16 16.1956C16.2761 16.1956 16.5 15.9718 16.5 15.6956C16.5 15.4195 16.2761 15.1956 16 15.1956V16.1956ZM6 15.1956C5.72386 15.1956 5.5 15.4195 5.5 15.6956C5.5 15.9718 5.72386 16.1956 6 16.1956V15.1956ZM10.5 15.6956C10.5 15.9718 10.7239 16.1956 11 16.1956C11.2761 16.1956 11.5 15.9718 11.5 15.6956H10.5ZM11.5 12.3247C11.5 12.0486 11.2761 11.8247 11 11.8247C10.7239 11.8247 10.5 12.0486 10.5 12.3247H11.5ZM9.07692 13.5102C8.80078 13.5102 8.57692 13.734 8.57692 14.0102C8.57692 14.2863 8.80078 14.5102 9.07692 14.5102V13.5102ZM12.9231 14.5102C13.1992 14.5102 13.4231 14.2863 13.4231 14.0102C13.4231 13.734 13.1992 13.5102 12.9231 13.5102V14.5102ZM9.46154 12.8247H12.5385V11.8247H9.46154V12.8247ZM12.4231 12.7461V15.6956H13.4231V12.7461H12.4231ZM9.57692 15.6956V12.7461H8.57692V15.6956H9.57692ZM12.5385 12.8247C12.491 12.8247 12.457 12.8026 12.4411 12.7852C12.4259 12.7686 12.4231 12.7534 12.4231 12.7461H13.4231C13.4231 12.2812 13.069 11.8247 12.5385 11.8247V12.8247ZM9.46154 11.8247C8.93102 11.8247 8.57692 12.2812 8.57692 12.7461H9.57692C9.57692 12.7534 9.57406 12.7686 9.55886 12.7852C9.54298 12.8026 9.50901 12.8247 9.46154 12.8247V11.8247ZM14.3462 11.557V15.6956H15.3462V11.557H14.3462ZM7.65385 15.6956V11.557H6.65385V15.6956H7.65385ZM7.78401 11.2651L10.8609 8.85514L10.2443 8.06787L7.16739 10.4779L7.78401 11.2651ZM11.1391 8.85514L14.216 11.2651L14.8326 10.4779L11.7557 8.06787L11.1391 8.85514ZM10.8609 8.85514C10.9474 8.78738 11.0526 8.78738 11.1391 8.85514L11.7557 8.06787C11.307 7.71647 10.693 7.71647 10.2443 8.06787L10.8609 8.85514ZM15.3462 11.557C15.3462 11.142 15.1638 10.7373 14.8326 10.4779L14.216 11.2651C14.2888 11.3221 14.3462 11.428 14.3462 11.557H15.3462ZM7.65385 11.557C7.65385 11.428 7.71121 11.3221 7.78401 11.2651L7.16739 10.4779C6.83621 10.7373 6.65385 11.142 6.65385 11.557H7.65385ZM16 15.1956H6V16.1956H16V15.1956ZM11.5 15.6956V12.3247H10.5V15.6956H11.5ZM9.07692 14.5102L12.9231 14.5102V13.5102L9.07692 13.5102V14.5102Z" fill="white"/>
</svg>
