<svg width="20" height="18" viewBox="0 0 20 18" fill="none" xmlns="http://www.w3.org/2000/svg">
<path fill-rule="evenodd" clip-rule="evenodd" d="M0 1.28577C0 0.733482 0.447715 0.285767 1 0.285767H17.9714C18.5237 0.285767 18.9714 0.733482 18.9714 1.28577C18.9714 1.83805 18.5237 2.28577 17.9714 2.28577H1C0.447715 2.28577 0 1.83805 0 1.28577ZM8.54975 9.6108C8.54975 6.94603 10.71 4.7858 13.3747 4.7858C16.0395 4.7858 18.1997 6.94603 18.1997 9.6108C18.1997 10.6985 17.8398 11.7021 17.2326 12.5091L19.7096 15.004C20.0988 15.3959 20.0965 16.029 19.7046 16.4182C19.3126 16.8073 18.6795 16.805 18.2904 16.4131L15.7227 13.8269C15.0278 14.2148 14.2271 14.4358 13.3747 14.4358C10.71 14.4358 8.54975 12.2756 8.54975 9.6108ZM13.3747 6.7858C11.8146 6.7858 10.5497 8.0506 10.5497 9.6108C10.5497 11.171 11.8146 12.4358 13.3747 12.4358C14.9349 12.4358 16.1997 11.171 16.1997 9.6108C16.1997 8.0506 14.9349 6.7858 13.3747 6.7858ZM0 9.00005C0 8.44777 0.447715 8.00005 1 8.00005H5.62857C6.18086 8.00005 6.62857 8.44777 6.62857 9.00005C6.62857 9.55234 6.18086 10.0001 5.62857 10.0001H1C0.447715 10.0001 0 9.55234 0 9.00005ZM0 16.7143C0 16.1621 0.447715 15.7143 1 15.7143H8.71428C9.26657 15.7143 9.71428 16.1621 9.71428 16.7143C9.71428 17.2666 9.26657 17.7143 8.71428 17.7143H1C0.447715 17.7143 0 17.2666 0 16.7143Z" fill="white"/>
</svg>
