<svg width="21" height="18" viewBox="0 0 21 18" fill="none" xmlns="http://www.w3.org/2000/svg">
<path fill-rule="evenodd" clip-rule="evenodd" d="M0.359375 1.28577C0.359375 0.733482 0.80709 0.285767 1.35938 0.285767H18.3308C18.8831 0.285767 19.3308 0.733482 19.3308 1.28577C19.3308 1.83805 18.8831 2.28577 18.3308 2.28577H1.35938C0.80709 2.28577 0.359375 1.83805 0.359375 1.28577ZM8.90912 9.6108C8.90912 6.94603 11.0694 4.7858 13.7341 4.7858C16.3989 4.7858 18.5591 6.94603 18.5591 9.6108C18.5591 10.6985 18.1992 11.7021 17.592 12.5091L20.069 15.004C20.4581 15.3959 20.4559 16.029 20.0639 16.4182C19.672 16.8073 19.0388 16.805 18.6497 16.4131L16.0821 13.8269C15.3872 14.2148 14.5865 14.4358 13.7341 14.4358C11.0694 14.4358 8.90912 12.2756 8.90912 9.6108ZM13.7341 6.7858C12.1739 6.7858 10.9091 8.0506 10.9091 9.6108C10.9091 11.171 12.1739 12.4358 13.7341 12.4358C15.2943 12.4358 16.5591 11.171 16.5591 9.6108C16.5591 8.0506 15.2943 6.7858 13.7341 6.7858ZM0.359375 9.00005C0.359375 8.44777 0.80709 8.00005 1.35938 8.00005H5.98795C6.54023 8.00005 6.98795 8.44777 6.98795 9.00005C6.98795 9.55234 6.54023 10.0001 5.98795 10.0001H1.35938C0.80709 10.0001 0.359375 9.55234 0.359375 9.00005ZM0.359375 16.7143C0.359375 16.1621 0.80709 15.7143 1.35938 15.7143H9.07366C9.62594 15.7143 10.0737 16.1621 10.0737 16.7143C10.0737 17.2666 9.62594 17.7143 9.07366 17.7143H1.35938C0.80709 17.7143 0.359375 17.2666 0.359375 16.7143Z" fill="#05141F"/>
</svg>
