<svg width="18" height="20" viewBox="0 0 18 20" fill="none" xmlns="http://www.w3.org/2000/svg">
<path fill-rule="evenodd" clip-rule="evenodd" d="M9.63188 0.292893C10.0224 -0.0976313 10.6556 -0.0976308 11.0461 0.292894L14.2838 3.53062C14.6743 3.92115 14.6743 4.55431 14.2838 4.94483L11.0461 8.18256C10.6556 8.57309 10.0224 8.57309 9.63188 8.18256C9.24135 7.79204 9.24135 7.15887 9.63188 6.76835L11.372 5.02823C10.6354 4.74942 9.83638 4.59665 9.00002 4.59665C5.29878 4.59665 2.29834 7.59709 2.29834 11.2983C2.29834 14.9996 5.29878 18 9.00002 18C12.7013 18 15.7017 14.9996 15.7017 11.2983C15.7017 10.7424 15.6342 10.2036 15.5075 9.68909C15.3754 9.15283 15.703 8.61102 16.2393 8.47892C16.7755 8.34682 17.3173 8.67445 17.4494 9.21071C17.6144 9.88051 17.7017 10.5799 17.7017 11.2983C17.7017 16.1041 13.8058 20 9.00002 20C4.19421 20 0.29834 16.1041 0.29834 11.2983C0.29834 6.49252 4.19421 2.59665 9.00002 2.59665C9.57594 2.59665 10.1392 2.65272 10.6845 2.75976L9.63188 1.70711C9.24135 1.31658 9.24135 0.683417 9.63188 0.292893Z" fill="white"/>
</svg>
