<svg width="21" height="20" viewBox="0 0 21 20" fill="none" xmlns="http://www.w3.org/2000/svg">
<path fill-rule="evenodd" clip-rule="evenodd" d="M6.48965 2.43915C6.48965 1.88686 6.9371 1.43915 7.48906 1.43915H19.36C19.9119 1.43915 20.3594 1.88686 20.3594 2.43915C20.3594 2.99143 19.9119 3.43915 19.36 3.43915H7.48906C6.9371 3.43915 6.48965 2.99143 6.48965 2.43915ZM6.48965 9.99999C6.48965 9.44771 6.9371 8.99999 7.48906 8.99999H19.36C19.9119 8.99999 20.3594 9.44771 20.3594 9.99999C20.3594 10.5523 19.9119 11 19.36 11H7.48906C6.9371 11 6.48965 10.5523 6.48965 9.99999ZM6.48965 17.5608C6.48965 17.0086 6.9371 16.5608 7.48906 16.5608H19.36C19.9119 16.5608 20.3594 17.0086 20.3594 17.5608C20.3594 18.1131 19.9119 18.5608 19.36 18.5608H7.48906C6.9371 18.5608 6.48965 18.1131 6.48965 17.5608Z" fill="#05141F"/>
<path d="M4.23538 2.43915C4.23538 3.51012 3.36771 4.37831 2.29738 4.37831C1.22705 4.37831 0.359375 3.51012 0.359375 2.43915C0.359375 1.36819 1.22705 0.5 2.29738 0.5C3.36771 0.5 4.23538 1.36819 4.23538 2.43915Z" fill="#05141F"/>
<path d="M4.23538 10C4.23538 11.071 3.36771 11.9392 2.29738 11.9392C1.22705 11.9392 0.359375 11.071 0.359375 10C0.359375 8.92904 1.22705 8.06086 2.29738 8.06086C3.36771 8.06086 4.23538 8.92904 4.23538 10Z" fill="#05141F"/>
<path d="M4.23538 17.5608C4.23538 18.6318 3.36771 19.5 2.29738 19.5C1.22705 19.5 0.359375 18.6318 0.359375 17.5608C0.359375 16.4899 1.22705 15.6217 2.29738 15.6217C3.36771 15.6217 4.23538 16.4899 4.23538 17.5608Z" fill="#05141F"/>
</svg>
