<svg width="20" height="20" viewBox="0 0 20 20" fill="none" xmlns="http://www.w3.org/2000/svg">
<path fill-rule="evenodd" clip-rule="evenodd" d="M6.13027 2.43915C6.13027 1.88686 6.57772 1.43915 7.12968 1.43915H19.0006C19.5526 1.43915 20 1.88686 20 2.43915C20 2.99143 19.5526 3.43915 19.0006 3.43915H7.12968C6.57772 3.43915 6.13027 2.99143 6.13027 2.43915ZM6.13027 9.99999C6.13027 9.44771 6.57772 8.99999 7.12968 8.99999H19.0006C19.5526 8.99999 20 9.44771 20 9.99999C20 10.5523 19.5526 11 19.0006 11H7.12968C6.57772 11 6.13027 10.5523 6.13027 9.99999ZM6.13027 17.5608C6.13027 17.0086 6.57772 16.5608 7.12968 16.5608H19.0006C19.5526 16.5608 20 17.0086 20 17.5608C20 18.1131 19.5526 18.5608 19.0006 18.5608H7.12968C6.57772 18.5608 6.13027 18.1131 6.13027 17.5608Z" fill="white"/>
<path d="M3.87601 2.43915C3.87601 3.51012 3.00833 4.37831 1.938 4.37831C0.867674 4.37831 0 3.51012 0 2.43915C0 1.36819 0.867674 0.5 1.938 0.5C3.00833 0.5 3.87601 1.36819 3.87601 2.43915Z" fill="white"/>
<path d="M3.87601 10C3.87601 11.071 3.00833 11.9392 1.938 11.9392C0.867674 11.9392 0 11.071 0 10C0 8.92904 0.867674 8.06086 1.938 8.06086C3.00833 8.06086 3.87601 8.92904 3.87601 10Z" fill="white"/>
<path d="M3.87601 17.5608C3.87601 18.6318 3.00833 19.5 1.938 19.5C0.867674 19.5 0 18.6318 0 17.5608C0 16.4899 0.867674 15.6217 1.938 15.6217C3.00833 15.6217 3.87601 16.4899 3.87601 17.5608Z" fill="white"/>
</svg>
