<svg width="16" height="17" viewBox="0 0 16 17" fill="none" xmlns="http://www.w3.org/2000/svg">
<path fill-rule="evenodd" clip-rule="evenodd" d="M2 4.45481C2 3.24373 2.8468 2.12769 4.04396 2.12769H11.956C13.1532 2.12769 14 3.24373 14 4.45481V11.8006C14 13.0116 13.1532 14.1277 11.956 14.1277H4.04396C2.8468 14.1277 2 13.0116 2 11.8006V4.45481ZM4.04396 3.05076C3.49322 3.05076 2.92308 3.60522 2.92308 4.45481V11.8006C2.92308 12.6501 3.49322 13.2046 4.04396 13.2046H5.17725V10.1105C5.17725 9.31597 5.80596 8.64837 6.61012 8.64837H9.38988C10.194 8.64837 10.8228 9.31597 10.8228 10.1105V13.2046H11.956C12.5068 13.2046 13.0769 12.6501 13.0769 11.8006V4.45481C13.0769 3.60522 12.5068 3.05076 11.956 3.05076H4.04396ZM9.89968 13.2046V10.1105C9.89968 9.79978 9.65863 9.57144 9.38988 9.57144H6.61012C6.34137 9.57144 6.10032 9.79978 6.10032 10.1105V13.2046H9.89968Z" fill="white"/>
</svg>
