<svg width="13" height="13" viewBox="0 0 13 13" fill="none" xmlns="http://www.w3.org/2000/svg">
<path fill-rule="evenodd" clip-rule="evenodd" d="M0.693359 2.82713C0.693359 1.61604 1.54016 0.5 2.73732 0.5H10.6494C11.8466 0.5 12.6934 1.61604 12.6934 2.82713V10.1729C12.6934 11.384 11.8466 12.5 10.6494 12.5H2.73732C1.54016 12.5 0.693359 11.384 0.693359 10.1729V2.82713ZM2.73732 1.42308C2.18658 1.42308 1.61644 1.97754 1.61644 2.82713V10.1729C1.61644 11.0225 2.18658 11.5769 2.73732 11.5769H3.87061V8.48279C3.87061 7.68828 4.49932 7.02068 5.30348 7.02068H8.08324C8.8874 7.02068 9.51611 7.68828 9.51611 8.48279V11.5769H10.6494C11.2001 11.5769 11.7703 11.0225 11.7703 10.1729V2.82713C11.7703 1.97754 11.2001 1.42308 10.6494 1.42308H2.73732ZM8.59304 11.5769V8.48279C8.59304 8.17209 8.35199 7.94376 8.08324 7.94376H5.30348C5.03473 7.94376 4.79368 8.17209 4.79368 8.48279V11.5769H8.59304Z" fill="white"/>
</svg>
