<svg width="17" height="17" viewBox="0 0 17 17" fill="none" xmlns="http://www.w3.org/2000/svg">
<path fill-rule="evenodd" clip-rule="evenodd" d="M2.42529 5.21873C2.42529 4.00764 3.27209 2.8916 4.46925 2.8916H12.3813C13.5785 2.8916 14.4253 4.00764 14.4253 5.21873V12.5645C14.4253 13.7756 13.5785 14.8916 12.3813 14.8916H4.46925C3.27209 14.8916 2.42529 13.7756 2.42529 12.5645V5.21873ZM4.46925 3.81468C3.91852 3.81468 3.34837 4.36914 3.34837 5.21873V12.5645C3.34837 13.4141 3.91852 13.9685 4.46925 13.9685H5.60254V10.8744C5.60254 10.0799 6.23126 9.41228 7.03541 9.41228H9.81517C10.6193 9.41228 11.248 10.0799 11.248 10.8744V13.9685H12.3813C12.9321 13.9685 13.5022 13.4141 13.5022 12.5645V5.21873C13.5022 4.36914 12.9321 3.81468 12.3813 3.81468H4.46925ZM10.325 13.9685V10.8744C10.325 10.5637 10.0839 10.3354 9.81517 10.3354H7.03541C6.76666 10.3354 6.52562 10.5637 6.52562 10.8744V13.9685H10.325Z" fill="white"/>
</svg>
