<svg width="18" height="19" viewBox="0 0 18 19" fill="none" xmlns="http://www.w3.org/2000/svg">
<path fill-rule="evenodd" clip-rule="evenodd" d="M8.27232 3.68681C5.5292 3.68681 3.30546 5.91055 3.30546 8.65367C3.30546 11.3968 5.5292 13.6205 8.27232 13.6205C11.0154 13.6205 13.2392 11.3968 13.2392 8.65367C13.2392 5.91055 11.0154 3.68681 8.27232 3.68681ZM2.2002 8.65367C2.2002 5.30013 4.91878 2.58154 8.27232 2.58154C11.6259 2.58154 14.3444 5.30013 14.3444 8.65367C14.3444 9.98876 13.9136 11.2232 13.1833 12.2256L16.0383 15.0806C16.2541 15.2964 16.2541 15.6463 16.0383 15.8621C15.8225 16.078 15.4726 16.078 15.2568 15.8621L12.4525 13.0579C11.3638 14.0916 9.89212 14.7258 8.27232 14.7258C4.91878 14.7258 2.2002 12.0072 2.2002 8.65367Z" fill="#2B4D66"/>
</svg>
