<svg width="20" height="20" viewBox="0 0 20 20" fill="none" xmlns="http://www.w3.org/2000/svg">
<path fill-rule="evenodd" clip-rule="evenodd" d="M8.70477 2C5.00183 2 2 5.00183 2 8.70477C2 12.4077 5.00183 15.4095 8.70477 15.4095C12.4077 15.4095 15.4095 12.4077 15.4095 8.70477C15.4095 5.00183 12.4077 2 8.70477 2ZM0 8.70477C0 3.89726 3.89726 0 8.70477 0C13.5123 0 17.4095 3.89726 17.4095 8.70477C17.4095 10.5485 16.8363 12.2584 15.8584 13.6659L19.7071 17.5146C20.0976 17.9051 20.0976 18.5383 19.7071 18.9288C19.3166 19.3193 18.6834 19.3193 18.2929 18.9288L14.5338 15.1698C12.9907 16.562 10.9467 17.4095 8.70477 17.4095C3.89726 17.4095 0 13.5123 0 8.70477Z" fill="white"/>
</svg>
