<svg width="21" height="20" viewBox="0 0 21 20" fill="none" xmlns="http://www.w3.org/2000/svg">
<path fill-rule="evenodd" clip-rule="evenodd" d="M10.9804 2.46441C10.7979 1.8452 9.92086 1.8452 9.73835 2.46441L9.6257 2.84651C9.14886 4.46432 7.30099 5.22972 5.81985 4.42294L5.47006 4.23239C5.47005 4.23239 5.47006 4.2324 5.47006 4.23239C4.90314 3.92361 4.28297 4.5438 4.59175 5.11068L4.78228 5.46049C4.78228 5.46049 4.78229 5.4605 4.78228 5.46049C5.58904 6.94162 4.82369 8.78948 3.20588 9.26633C3.20588 9.26633 3.20588 9.26633 3.20588 9.26633L2.82379 9.37896C2.20458 9.56147 2.20457 10.4385 2.82378 10.621L3.20587 10.7337C3.20587 10.7337 3.20587 10.7337 3.20587 10.7337C4.82368 11.2105 5.58905 13.0584 4.7823 14.5395C4.78229 14.5395 4.7823 14.5395 4.7823 14.5395L4.59176 14.8893C4.28298 15.4562 4.90313 16.0764 5.47006 15.7676L5.81983 15.5771C7.30095 14.7703 9.14881 15.5357 9.62568 17.1534C9.62568 17.1534 9.62569 17.1535 9.62568 17.1534L9.73833 17.5355C9.92085 18.1547 10.7979 18.1548 10.9804 17.5356L11.093 17.1535C11.5699 15.5357 13.4177 14.7703 14.8989 15.5771L15.2487 15.7676C15.8156 16.0764 16.4358 15.4562 16.127 14.8893L15.9365 14.5395C15.9365 14.5395 15.9365 14.5395 15.9365 14.5395C15.1297 13.0584 15.8951 11.2105 17.5129 10.7337L17.895 10.621C18.5142 10.4385 18.5142 9.56147 17.895 9.37896L17.5129 9.26633C15.8951 8.78949 15.1297 6.94165 15.9364 5.46052C15.9364 5.46053 15.9364 5.46051 15.9364 5.46052L16.127 5.1107C16.4358 4.54383 15.8156 3.9236 15.2487 4.23238C15.2487 4.23238 15.2487 4.23238 15.2487 4.23238L14.8989 4.42293C13.4178 5.22971 11.5699 4.46432 11.093 2.84651L10.9804 2.46441ZM12.8988 1.8989C12.1525 -0.632968 8.56629 -0.632966 7.81997 1.8989C7.81996 1.89892 7.81997 1.89888 7.81997 1.8989L7.70732 2.281C7.5907 2.67664 7.13879 2.86389 6.77656 2.6666C6.77655 2.6666 6.77657 2.6666 6.77656 2.6666L6.42676 2.47606C4.10872 1.21342 1.57275 3.74927 2.83539 6.06734C2.83539 6.06734 2.8354 6.06735 2.83539 6.06734L3.02593 6.41716C3.22324 6.7794 3.03606 7.23132 2.64043 7.34793L2.25834 7.46055C2.25833 7.46056 2.25834 7.46055 2.25834 7.46055C-0.273609 8.20685 -0.273615 11.7932 2.25834 12.5394L2.64042 12.6521C3.03605 12.7687 3.22325 13.2206 3.02594 13.5828L2.8354 13.9326C2.8354 13.9326 2.83541 13.9326 2.8354 13.9326C1.57276 16.2507 4.1087 18.7866 6.42674 17.524L6.77654 17.3334C6.77653 17.3334 6.77655 17.3334 6.77654 17.3334C7.13877 17.1361 7.59069 17.3233 7.7073 17.7189L7.81995 18.101C7.81994 18.101 7.81995 18.1011 7.81995 18.101C8.56627 20.6329 12.1525 20.633 12.8988 18.1011C12.8988 18.1011 12.8988 18.1011 12.8988 18.1011L13.0114 17.719C13.128 17.3234 13.58 17.1361 13.9422 17.3334C13.9422 17.3334 13.9422 17.3334 13.9422 17.3334L14.292 17.5239C16.61 18.7866 19.146 16.2507 17.8834 13.9327C17.8833 13.9327 17.8834 13.9327 17.8834 13.9327L17.6928 13.5828C17.4955 13.2206 17.6827 12.7687 18.0783 12.6521L18.4604 12.5394C20.9924 11.7932 20.9924 8.20684 18.4604 7.46056L18.0783 7.34793C17.6827 7.23132 17.4955 6.77942 17.6928 6.41718L17.8833 6.06736C17.8833 6.06737 17.8833 6.06735 17.8833 6.06736C19.146 3.74928 16.61 1.21341 14.292 2.47604L13.9422 2.66659C13.9422 2.6666 13.9422 2.66659 13.9422 2.66659C13.58 2.86388 13.1281 2.6767 13.0114 2.28106L12.8988 1.8989C12.8988 1.89892 12.8988 1.89888 12.8988 1.8989ZM10.3594 7.14286C8.78143 7.14286 7.50224 8.42205 7.50224 10C7.50224 11.578 8.78143 12.8571 10.3594 12.8571C11.9374 12.8571 13.2165 11.578 13.2165 10C13.2165 8.42205 11.9374 7.14286 10.3594 7.14286ZM5.50224 10C5.50224 7.31747 7.67686 5.14286 10.3594 5.14286C13.0419 5.14286 15.2165 7.31747 15.2165 10C15.2165 12.6825 13.0419 14.8571 10.3594 14.8571C7.67687 14.8571 5.50224 12.6825 5.50224 10Z" fill="#05141F"/>
</svg>
