<svg width="20" height="20" viewBox="0 0 20 20" fill="none" xmlns="http://www.w3.org/2000/svg">
<path fill-rule="evenodd" clip-rule="evenodd" d="M10.621 2.46441C10.4385 1.8452 9.56149 1.8452 9.37898 2.46441L9.26633 2.84651C8.78948 4.46432 6.94162 5.22972 5.46048 4.42294L5.11068 4.23239C5.11067 4.23239 5.11069 4.2324 5.11068 4.23239C4.54376 3.92361 3.9236 4.5438 4.23237 5.11068L4.42291 5.46049C4.4229 5.46049 4.42291 5.4605 4.42291 5.46049C5.22966 6.94162 4.46432 8.78948 2.8465 9.26633C2.8465 9.26633 2.84651 9.26633 2.8465 9.26633L2.46441 9.37896C1.8452 9.56147 1.84519 10.4385 2.46441 10.621L2.84649 10.7337C2.84649 10.7337 2.8465 10.7337 2.84649 10.7337C4.46431 11.2105 5.22968 13.0584 4.42292 14.5395C4.42292 14.5395 4.42293 14.5395 4.42292 14.5395L4.23239 14.8893C3.9236 15.4562 4.54376 16.0764 5.11068 15.7676L5.46045 15.5771C6.94158 14.7703 8.78943 15.5357 9.26631 17.1534C9.2663 17.1534 9.26632 17.1535 9.26631 17.1534L9.37896 17.5355C9.56147 18.1547 10.4385 18.1548 10.621 17.5356L10.7337 17.1535C11.2105 15.5357 13.0584 14.7703 14.5395 15.5771L14.8893 15.7676C15.4562 16.0764 16.0764 15.4562 15.7676 14.8893L15.5771 14.5395C15.5771 14.5395 15.5771 14.5395 15.5771 14.5395C14.7703 13.0584 15.5357 11.2105 17.1535 10.7337L17.5356 10.621C18.1548 10.4385 18.1548 9.56147 17.5356 9.37896L17.1535 9.26633C15.5357 8.78949 14.7703 6.94165 15.5771 5.46052C15.5771 5.46053 15.5771 5.46051 15.5771 5.46052L15.7676 5.1107C16.0764 4.54383 15.4563 3.9236 14.8893 4.23238C14.8893 4.23238 14.8893 4.23238 14.8893 4.23238L14.5395 4.42293C13.0584 5.22971 11.2105 4.46432 10.7337 2.84651L10.621 2.46441ZM12.5394 1.8989C11.7931 -0.632968 8.20691 -0.632966 7.46059 1.8989C7.46059 1.89892 7.4606 1.89888 7.46059 1.8989L7.34794 2.281C7.23133 2.67664 6.77941 2.86389 6.41718 2.6666C6.41718 2.6666 6.41719 2.6666 6.41718 2.6666L6.06739 2.47606C3.74935 1.21342 1.21338 3.74927 2.47602 6.06734C2.47601 6.06734 2.47602 6.06735 2.47602 6.06734L2.66655 6.41716C2.86387 6.7794 2.67669 7.23132 2.28105 7.34793L1.89896 7.46055C1.89896 7.46056 1.89896 7.46055 1.89896 7.46055C-0.632984 8.20685 -0.63299 11.7932 1.89896 12.5394L2.28104 12.6521C2.67668 12.7687 2.86388 13.2206 2.66656 13.5828L2.47603 13.9326C2.47603 13.9326 2.47603 13.9326 2.47603 13.9326C1.21339 16.2507 3.74933 18.7866 6.06737 17.524L6.41716 17.3334C6.41715 17.3334 6.41717 17.3334 6.41716 17.3334C6.77939 17.1361 7.23131 17.3233 7.34792 17.7189L7.46057 18.101C7.46057 18.101 7.46058 18.1011 7.46057 18.101C8.20689 20.6329 11.7931 20.633 12.5394 18.1011C12.5394 18.1011 12.5394 18.1011 12.5394 18.1011L12.6521 17.719C12.7687 17.3234 13.2206 17.1361 13.5828 17.3334C13.5828 17.3334 13.5828 17.3334 13.5828 17.3334L13.9326 17.5239C16.2506 18.7866 18.7866 16.2507 17.524 13.9327C17.524 13.9327 17.524 13.9327 17.524 13.9327L17.3334 13.5828C17.1361 13.2206 17.3233 12.7687 17.7189 12.6521L18.101 12.5394C20.633 11.7932 20.633 8.20684 18.101 7.46056L17.7189 7.34793C17.3233 7.23132 17.1361 6.77942 17.3334 6.41718L17.524 6.06736C17.524 6.06737 17.524 6.06735 17.524 6.06736C18.7866 3.74928 16.2507 1.21341 13.9326 2.47604L13.5828 2.66659C13.5828 2.6666 13.5828 2.66659 13.5828 2.66659C13.2206 2.86388 12.7687 2.6767 12.6521 2.28106L12.5394 1.8989C12.5394 1.89892 12.5394 1.89888 12.5394 1.8989ZM10 7.14286C8.42205 7.14286 7.14287 8.42205 7.14287 10C7.14287 11.578 8.42205 12.8571 10 12.8571C11.578 12.8571 12.8572 11.578 12.8572 10C12.8572 8.42205 11.578 7.14286 10 7.14286ZM5.14287 10C5.14287 7.31747 7.31749 5.14286 10 5.14286C12.6825 5.14286 14.8572 7.31747 14.8572 10C14.8572 12.6825 12.6825 14.8571 10 14.8571C7.31749 14.8571 5.14287 12.6825 5.14287 10Z" fill="white"/>
</svg>
