<svg width="51" height="50" viewBox="0 0 51 50" fill="none" xmlns="http://www.w3.org/2000/svg">
<rect x="0.5" width="50" height="50" rx="25" fill="#CFE5FF"/>
<path fill-rule="evenodd" clip-rule="evenodd" d="M24.5961 12.8292C21.4148 12.8292 18.8357 15.4082 18.8357 18.5896C18.8357 21.771 21.4148 24.35 24.5961 24.35C27.7775 24.35 30.3565 21.771 30.3565 18.5896C30.3565 15.4082 27.7775 12.8292 24.5961 12.8292ZM17.5357 18.5896C17.5357 14.6902 20.6968 11.5292 24.5961 11.5292C28.4955 11.5292 31.6565 14.6902 31.6565 18.5896C31.6565 22.4889 28.4955 25.65 24.5961 25.65C20.6968 25.65 17.5357 22.4889 17.5357 18.5896ZM32.2886 28.2141C31.2381 28.2141 30.2641 28.5825 29.4886 29.2007L29.4874 29.2016C28.4594 30.0173 27.8103 31.2803 27.8103 32.6925C27.8103 33.5322 28.0453 34.3245 28.4571 34.9924L28.4626 35.0012L28.4625 35.0013C29.2343 36.2988 30.6544 37.1708 32.2886 37.1708C33.4212 37.1708 34.4463 36.757 35.2257 36.0556C35.2313 36.0505 35.237 36.0455 35.2428 36.0407C35.5821 35.7561 35.8799 35.4037 36.1119 35.006L36.1201 34.9924C36.5319 34.3245 36.7669 33.5322 36.7669 32.6925C36.7669 30.2181 34.763 28.2141 32.2886 28.2141ZM28.6788 28.1836C29.6725 27.3918 30.929 26.9141 32.2886 26.9141C35.481 26.9141 38.0669 29.5001 38.0669 32.6925C38.0669 33.7731 37.7651 34.7987 37.2308 35.6679C36.9268 36.1872 36.5368 36.6503 36.0869 37.0294C35.0724 37.9387 33.7418 38.4708 32.2886 38.4708C30.1811 38.4708 28.346 37.3448 27.3479 35.6703C26.8127 34.8006 26.5103 33.7741 26.5103 32.6925C26.5103 31.6343 26.794 30.6386 27.2934 29.7828C26.4305 29.596 25.5253 29.4962 24.5962 29.4962C18.7469 29.4962 14.2331 33.3365 14.2331 37.8208C14.2331 38.1798 13.9421 38.4708 13.5831 38.4708C13.2241 38.4708 12.9331 38.1798 12.9331 37.8208C12.9331 32.3817 18.2913 28.1962 24.5962 28.1962C25.8302 28.1962 27.0287 28.3561 28.1566 28.6533C28.3207 28.4864 28.495 28.3295 28.6788 28.1836ZM34.7659 30.9947C35.0096 31.2583 34.9935 31.6695 34.73 31.9132L31.9992 34.4389C31.7429 34.676 31.3451 34.6682 31.0982 34.4213L29.829 33.1521C29.5751 32.8982 29.5751 32.4867 29.829 32.2328C30.0828 31.979 30.4944 31.979 30.7482 32.2328L31.5754 33.0601L33.8473 30.9589C34.1109 30.7151 34.5221 30.7312 34.7659 30.9947Z" fill="#459BFF"/>
</svg>
