<svg width="51" height="50" viewBox="0 0 51 50" fill="none" xmlns="http://www.w3.org/2000/svg">
<rect x="0.5" width="50" height="50" rx="25" fill="#002C5F"/>
<path fill-rule="evenodd" clip-rule="evenodd" d="M24.6016 12.8292C21.4203 12.8292 18.8412 15.4082 18.8412 18.5896C18.8412 21.771 21.4203 24.35 24.6016 24.35C27.783 24.35 30.362 21.771 30.362 18.5896C30.362 15.4082 27.783 12.8292 24.6016 12.8292ZM17.5412 18.5896C17.5412 14.6902 20.7023 11.5292 24.6016 11.5292C28.501 11.5292 31.662 14.6902 31.662 18.5896C31.662 22.4889 28.501 25.65 24.6016 25.65C20.7023 25.65 17.5412 22.4889 17.5412 18.5896ZM24.6016 29.4962C18.7524 29.4962 14.2385 33.3365 14.2385 37.8208C14.2385 38.1798 13.9475 38.4708 13.5885 38.4708C13.2296 38.4708 12.9385 38.1798 12.9385 37.8208C12.9385 32.3817 18.2968 28.1962 24.6016 28.1962C25.9975 28.1962 27.3427 28.3975 28.5968 28.7751C28.9405 28.8786 29.1353 29.2412 29.0318 29.5849C28.9283 29.9286 28.5657 30.1234 28.222 30.0199C27.0914 29.6795 25.8725 29.4962 24.6016 29.4962ZM35.0611 28.4208C35.7875 28.3462 36.4825 28.6666 37.1384 29.3225C37.7991 29.9832 38.1237 30.6804 38.0516 31.4087C37.9829 32.1027 37.5664 32.6601 37.1384 33.088L36.5928 33.6337C36.5383 33.723 36.4638 33.7964 36.3769 33.8495L32.6069 37.6195C32.4525 37.7823 32.2544 37.9071 32.0815 37.9935C31.9018 38.0834 31.6898 38.1613 31.4852 38.1936L31.4744 38.1953L29.7449 38.4386C29.7447 38.4387 29.7452 38.4386 29.7449 38.4386C29.2605 38.5076 28.7792 38.379 28.437 38.0368C28.0947 37.6946 27.966 37.2139 28.0351 36.7294C28.0351 36.7292 28.035 36.7297 28.0351 36.7294L28.2801 34.9886C28.3128 34.7813 28.3921 34.5714 28.4816 34.3943C28.5712 34.2173 28.6948 34.0264 28.8472 33.874L32.7235 29.9977C32.7293 29.9916 32.7352 29.9857 32.7413 29.9799L33.3858 29.3354C33.8138 28.9074 34.3703 28.4918 35.0611 28.4208ZM32.9583 31.6013L29.7664 34.7932C29.7394 34.8203 29.6899 34.8858 29.6416 34.9812C29.5949 35.0736 29.5715 35.1502 29.5648 35.1879L29.3223 36.9114L29.3221 36.9127C29.3016 37.0562 29.346 37.1074 29.3562 37.1176C29.3664 37.1278 29.4175 37.1722 29.5611 37.1517L31.286 36.9089C31.3263 36.9019 31.4071 36.8773 31.5002 36.8307C31.5448 36.8085 31.5841 36.7851 31.6152 36.7635C31.6305 36.7529 31.6424 36.7436 31.6511 36.7363C31.6554 36.7327 31.6586 36.7298 31.6608 36.7277C31.6631 36.7256 31.664 36.7246 31.6639 36.7247C31.6667 36.7217 31.6695 36.7187 31.6724 36.7157C31.6751 36.7129 31.6779 36.7101 31.6806 36.7073L34.8687 33.5193C34.0588 33.0797 33.3948 32.4132 32.9583 31.6013ZM35.844 32.544C34.9713 32.1923 34.2823 31.4996 33.9353 30.6244L34.3051 30.2546C34.6591 29.9005 34.9488 29.7392 35.1939 29.714C35.4034 29.6925 35.734 29.7566 36.2192 30.2418C36.7124 30.735 36.7788 31.0699 36.7579 31.2807C36.7337 31.5259 36.5733 31.8147 36.2192 32.1688L35.844 32.544Z" fill="white"/>
</svg>
