<svg width="51" height="50" viewBox="0 0 51 50" fill="none" xmlns="http://www.w3.org/2000/svg">
<rect x="0.5" width="50" height="50" rx="25" fill="#CFE5FF"/>
<path fill-rule="evenodd" clip-rule="evenodd" d="M25.1638 12.177C21.9824 12.177 19.4034 14.756 19.4034 17.9374C19.4034 21.1188 21.9824 23.6978 25.1638 23.6978C28.3451 23.6978 30.9242 21.1188 30.9242 17.9374C30.9242 14.756 28.3451 12.177 25.1638 12.177ZM18.1034 17.9374C18.1034 14.0381 21.2644 10.877 25.1638 10.877C29.0631 10.877 32.2242 14.0381 32.2242 17.9374C32.2242 21.8368 29.0631 24.9978 25.1638 24.9978C21.2644 24.9978 18.1034 21.8368 18.1034 17.9374ZM33.392 28.8218C31.9294 28.8218 31.2896 29.194 30.9732 29.8033C30.8077 30.1219 30.4153 30.2461 30.0967 30.0806C29.7782 29.9152 29.654 29.5228 29.8195 29.2042C30.4696 27.9523 31.7415 27.5218 33.392 27.5218H33.4623C34.7358 27.5218 35.7964 27.7729 36.5222 28.4987C37.2481 29.2246 37.4991 30.2852 37.4991 31.5587V35.0862C37.4991 36.3596 37.2481 37.4202 36.5222 38.1461C35.7964 38.872 34.7358 39.123 33.4623 39.123H33.392C31.7398 39.123 30.468 38.6911 29.8191 37.4373C29.654 37.1185 29.7787 36.7262 30.0975 36.5612C30.4163 36.3962 30.8085 36.5209 30.9736 36.8397C31.2895 37.45 31.9286 37.823 33.392 37.823H33.4623C34.6072 37.823 35.24 37.5898 35.603 37.2268C35.9659 36.8639 36.1991 36.2311 36.1991 35.0862V31.5587C36.1991 30.4138 35.9659 29.7809 35.603 29.418C35.24 29.055 34.6072 28.8218 33.4623 28.8218H33.392ZM25.1638 28.8441C19.3146 28.8441 14.8007 32.6844 14.8007 37.1686C14.8007 37.5276 14.5097 37.8186 14.1507 37.8186C13.7917 37.8186 13.5007 37.5276 13.5007 37.1686C13.5007 31.7296 18.8589 27.5441 25.1638 27.5441C25.712 27.5441 26.2532 27.5756 26.7842 27.6367C27.1408 27.6778 27.3967 28.0002 27.3556 28.3568C27.3146 28.7134 26.9922 28.9693 26.6356 28.9282C26.1537 28.8728 25.6622 28.8441 25.1638 28.8441ZM31.6014 31.0449C31.8553 30.7911 32.2668 30.7911 32.5207 31.0449L34.3331 32.8574C34.455 32.9793 34.5235 33.1446 34.5235 33.317C34.5235 33.4894 34.455 33.6547 34.3331 33.7766L32.5207 35.5891C32.2668 35.8429 31.8553 35.8429 31.6014 35.5891C31.3476 35.3352 31.3476 34.9237 31.6014 34.6698L32.3042 33.967H26.2991C25.9401 33.967 25.6491 33.676 25.6491 33.317C25.6491 32.958 25.9401 32.667 26.2991 32.667H32.3042L31.6014 31.9642C31.3476 31.7103 31.3476 31.2988 31.6014 31.0449Z" fill="#459BFF"/>
</svg>
