<svg width="50" height="50" viewBox="0 0 50 50" fill="none" xmlns="http://www.w3.org/2000/svg">
<rect width="50" height="50" rx="25" fill="#CFE5FF"/>
<path fill-rule="evenodd" clip-rule="evenodd" d="M24.0966 12.8293C20.9152 12.8293 18.3362 15.4083 18.3362 18.5897C18.3362 21.7711 20.9152 24.3501 24.0966 24.3501C27.278 24.3501 29.857 21.7711 29.857 18.5897C29.857 15.4083 27.278 12.8293 24.0966 12.8293ZM17.0362 18.5897C17.0362 14.6903 20.1973 11.5293 24.0966 11.5293C27.996 11.5293 31.157 14.6903 31.157 18.5897C31.157 22.4891 27.996 25.6501 24.0966 25.6501C20.1973 25.6501 17.0362 22.4891 17.0362 18.5897ZM31.7891 28.2143C30.7386 28.2143 29.7646 28.5826 28.9891 29.2008L28.9879 29.2017C27.9599 30.0174 27.3108 31.2804 27.3108 32.6926C27.3108 33.5323 27.5458 34.3246 27.9576 34.9925L27.9631 35.0013L27.963 35.0014C28.7348 36.2989 30.1548 37.1709 31.7891 37.1709C32.9217 37.1709 33.9467 36.7572 34.7262 36.0557C34.7318 36.0506 34.7375 36.0457 34.7433 36.0408C35.0826 35.7562 35.3804 35.4038 35.6124 35.0062L35.6206 34.9925C36.0324 34.3246 36.2674 33.5323 36.2674 32.6926C36.2674 30.2182 34.2635 28.2143 31.7891 28.2143ZM28.1793 28.1838C29.173 27.3919 30.4295 26.9143 31.7891 26.9143C34.9815 26.9143 37.5674 29.5002 37.5674 32.6926C37.5674 33.7732 37.2656 34.7988 36.7313 35.668C36.4273 36.1873 36.0373 36.6505 35.5874 37.0295C34.5729 37.9389 33.2423 38.4709 31.7891 38.4709C29.6816 38.4709 27.8465 37.3449 26.8484 35.6704C26.3132 34.8007 26.0108 33.7742 26.0108 32.6926C26.0108 31.6345 26.2945 30.6387 26.7939 29.7829C25.931 29.5961 25.0258 29.4963 24.0967 29.4963C18.2474 29.4963 13.7336 33.3367 13.7336 37.8209C13.7336 38.1799 13.4426 38.4709 13.0836 38.4709C12.7246 38.4709 12.4336 38.1799 12.4336 37.8209C12.4336 32.3818 17.7918 28.1963 24.0967 28.1963C25.3307 28.1963 26.5292 28.3563 27.6571 28.6534C27.8212 28.4865 27.9955 28.3296 28.1793 28.1838ZM34.2663 30.9948C34.5101 31.2584 34.494 31.6696 34.2305 31.9134L31.4997 34.439C31.2433 34.6761 30.8456 34.6683 30.5987 34.4215L29.3294 33.1522C29.0756 32.8984 29.0756 32.4868 29.3294 32.233C29.5833 31.9791 29.9948 31.9791 30.2487 32.233L31.0759 33.0602L33.3478 30.959C33.6114 30.7152 34.0226 30.7313 34.2663 30.9948Z" fill="#002C5F"/>
</svg>
