<svg width="50" height="50" viewBox="0 0 50 50" fill="none" xmlns="http://www.w3.org/2000/svg">
<rect width="50" height="50" rx="25" fill="#CFE5FF"/>
<path fill-rule="evenodd" clip-rule="evenodd" d="M24.663 12.177C21.4816 12.177 18.9026 14.756 18.9026 17.9374C18.9026 21.1187 21.4816 23.6978 24.663 23.6978C27.8444 23.6978 30.4234 21.1187 30.4234 17.9374C30.4234 14.756 27.8444 12.177 24.663 12.177ZM17.6026 17.9374C17.6026 14.038 20.7637 10.877 24.663 10.877C28.5624 10.877 31.7234 14.038 31.7234 17.9374C31.7234 21.8367 28.5624 24.9978 24.663 24.9978C20.7637 24.9978 17.6026 21.8367 17.6026 17.9374ZM32.8912 28.8218C31.4287 28.8218 30.7889 29.1939 30.4724 29.8033C30.307 30.1219 29.9146 30.246 29.596 30.0806C29.2774 29.9151 29.1533 29.5227 29.3187 29.2042C29.9688 27.9523 31.2408 27.5218 32.8912 27.5218H32.9616C34.2351 27.5218 35.2956 27.7728 36.0215 28.4987C36.7474 29.2245 36.9984 30.2851 36.9984 31.5586V35.0861C36.9984 36.3596 36.7474 37.4201 36.0215 38.146C35.2956 38.8719 34.2351 39.1229 32.9616 39.1229H32.8912C31.2391 39.1229 29.9673 38.691 29.3183 37.4372C29.1533 37.1184 29.278 36.7262 29.5968 36.5612C29.9156 36.3961 30.3078 36.5208 30.4728 36.8396C30.7887 37.45 31.4279 37.8229 32.8912 37.8229H32.9616C34.1065 37.8229 34.7393 37.5897 35.1023 37.2268C35.4652 36.8638 35.6984 36.231 35.6984 35.0861V31.5586C35.6984 30.4137 35.4652 29.7809 35.1023 29.4179C34.7393 29.055 34.1065 28.8218 32.9616 28.8218H32.8912ZM24.6631 28.844C18.8138 28.844 14.3 32.6843 14.3 37.1686C14.3 37.5275 14.009 37.8186 13.65 37.8186C13.291 37.8186 13 37.5275 13 37.1686C13 31.7295 18.3582 27.544 24.6631 27.544C25.2113 27.544 25.7525 27.5756 26.2835 27.6367C26.6401 27.6777 26.8959 28.0001 26.8549 28.3567C26.8138 28.7134 26.4915 28.9692 26.1348 28.9282C25.653 28.8727 25.1614 28.844 24.6631 28.844ZM31.1007 31.0449C31.3545 30.791 31.7661 30.791 32.0199 31.0449L33.8324 32.8573C33.9543 32.9792 34.0228 33.1445 34.0228 33.3169C34.0228 33.4893 33.9543 33.6547 33.8324 33.7766L32.0199 35.589C31.7661 35.8428 31.3545 35.8428 31.1007 35.589C30.8469 35.3352 30.8469 34.9236 31.1007 34.6698L31.8035 33.9669H25.7984C25.4394 33.9669 25.1484 33.6759 25.1484 33.3169C25.1484 32.9579 25.4394 32.6669 25.7984 32.6669H31.8035L31.1007 31.9641C30.8469 31.7103 30.8469 31.2987 31.1007 31.0449Z" fill="#002C5F"/>
</svg>
