<svg width="50" height="50" viewBox="0 0 50 50" fill="none" xmlns="http://www.w3.org/2000/svg">
<rect width="50" height="50" rx="25" fill="#CFE5FF"/>
<path fill-rule="evenodd" clip-rule="evenodd" d="M24.1006 12.8293C20.9192 12.8293 18.3402 15.4083 18.3402 18.5897C18.3402 21.7711 20.9192 24.3501 24.1006 24.3501C27.282 24.3501 29.861 21.7711 29.861 18.5897C29.861 15.4083 27.282 12.8293 24.1006 12.8293ZM17.0402 18.5897C17.0402 14.6903 20.2013 11.5293 24.1006 11.5293C28 11.5293 31.161 14.6903 31.161 18.5897C31.161 22.4891 28 25.6501 24.1006 25.6501C20.2013 25.6501 17.0402 22.4891 17.0402 18.5897ZM24.1006 29.4963C18.2514 29.4963 13.7375 33.3367 13.7375 37.8209C13.7375 38.1799 13.4465 38.4709 13.0875 38.4709C12.7285 38.4709 12.4375 38.1799 12.4375 37.8209C12.4375 32.3818 17.7957 28.1963 24.1006 28.1963C25.4964 28.1963 26.8417 28.3977 28.0957 28.7752C28.4395 28.8787 28.6342 29.2413 28.5308 29.585C28.4273 29.9288 28.0647 30.1235 27.721 30.02C26.5904 29.6796 25.3715 29.4963 24.1006 29.4963ZM34.56 28.4209C35.2864 28.3463 35.9815 28.6668 36.6374 29.3227C37.298 29.9833 37.6227 30.6805 37.5506 31.4089C37.4819 32.1028 37.0654 32.6602 36.6374 33.0882L36.0917 33.6338C36.0373 33.7231 35.9627 33.7965 35.8759 33.8496L32.1059 37.6196C31.9514 37.7824 31.7533 37.9073 31.5805 37.9937C31.4007 38.0835 31.1888 38.1614 30.9841 38.1937L30.9734 38.1954L29.2439 38.4387C29.2436 38.4388 29.2442 38.4387 29.2439 38.4387C28.7595 38.5077 28.2781 38.3791 27.9359 38.0369C27.5937 37.6947 27.465 37.214 27.534 36.7296C27.534 36.7298 27.5341 36.7294 27.534 36.7296L27.779 34.9887C27.8118 34.7814 27.891 34.5715 27.9806 34.3945C28.0702 34.2174 28.1937 34.0265 28.3462 33.8741L32.2225 29.9978C32.2283 29.9918 32.2342 29.9858 32.2402 29.98L32.8848 29.3355C33.3128 28.9075 33.8692 28.4919 34.56 28.4209ZM32.4573 31.6015L29.2654 34.7933C29.2383 34.8204 29.1889 34.8859 29.1406 34.9813C29.0938 35.0737 29.0704 35.1503 29.0638 35.188L28.8212 36.9115L28.821 36.9128C28.8005 37.0564 28.845 37.1075 28.8552 37.1177C28.8654 37.1279 28.9165 37.1723 29.0601 37.1518L30.785 36.909C30.8252 36.902 30.9061 36.8774 30.9992 36.8309C31.0438 36.8086 31.083 36.7853 31.1142 36.7636C31.1295 36.753 31.1414 36.7438 31.1501 36.7364C31.1544 36.7328 31.1576 36.7299 31.1598 36.7278C31.162 36.7257 31.163 36.7247 31.1629 36.7248C31.1657 36.7218 31.1685 36.7188 31.1713 36.7159C31.1741 36.713 31.1768 36.7102 31.1796 36.7075L34.3676 33.5194C33.5577 33.0799 32.8938 32.4133 32.4573 31.6015ZM35.3429 32.5441C34.4703 32.1924 33.7812 31.4997 33.4343 30.6245L33.804 30.2547C34.1581 29.9007 34.4478 29.7393 34.6929 29.7141C34.9024 29.6926 35.233 29.7567 35.7181 30.2419C36.2114 30.7351 36.2778 31.07 36.2569 31.2808C36.2326 31.526 36.0722 31.8148 35.7181 32.1689L35.3429 32.5441Z" fill="#459BFF"/>
<rect width="50" height="50" rx="25" fill="#73B4FF"/>
<path fill-rule="evenodd" clip-rule="evenodd" d="M24.1006 12.8293C20.9192 12.8293 18.3402 15.4083 18.3402 18.5897C18.3402 21.7711 20.9192 24.3501 24.1006 24.3501C27.282 24.3501 29.861 21.7711 29.861 18.5897C29.861 15.4083 27.282 12.8293 24.1006 12.8293ZM17.0402 18.5897C17.0402 14.6903 20.2013 11.5293 24.1006 11.5293C28 11.5293 31.161 14.6903 31.161 18.5897C31.161 22.4891 28 25.6501 24.1006 25.6501C20.2013 25.6501 17.0402 22.4891 17.0402 18.5897ZM24.1006 29.4963C18.2514 29.4963 13.7375 33.3367 13.7375 37.8209C13.7375 38.1799 13.4465 38.4709 13.0875 38.4709C12.7285 38.4709 12.4375 38.1799 12.4375 37.8209C12.4375 32.3818 17.7957 28.1963 24.1006 28.1963C25.4964 28.1963 26.8417 28.3977 28.0957 28.7752C28.4395 28.8787 28.6342 29.2413 28.5308 29.585C28.4273 29.9288 28.0647 30.1235 27.721 30.02C26.5904 29.6796 25.3715 29.4963 24.1006 29.4963ZM34.56 28.4209C35.2864 28.3463 35.9815 28.6668 36.6374 29.3227C37.298 29.9833 37.6227 30.6805 37.5506 31.4089C37.4819 32.1028 37.0654 32.6602 36.6374 33.0882L36.0917 33.6338C36.0373 33.7231 35.9627 33.7965 35.8759 33.8496L32.1059 37.6196C31.9514 37.7824 31.7533 37.9073 31.5805 37.9937C31.4007 38.0835 31.1888 38.1614 30.9841 38.1937L30.9734 38.1954L29.2439 38.4387C29.2436 38.4388 29.2442 38.4387 29.2439 38.4387C28.7595 38.5077 28.2781 38.3791 27.9359 38.0369C27.5937 37.6947 27.465 37.214 27.534 36.7296C27.534 36.7298 27.5341 36.7294 27.534 36.7296L27.779 34.9887C27.8118 34.7814 27.891 34.5715 27.9806 34.3945C28.0702 34.2174 28.1937 34.0265 28.3462 33.8741L32.2225 29.9978C32.2283 29.9918 32.2342 29.9858 32.2402 29.98L32.8848 29.3355C33.3128 28.9075 33.8692 28.4919 34.56 28.4209ZM32.4573 31.6015L29.2654 34.7933C29.2383 34.8204 29.1889 34.8859 29.1406 34.9813C29.0938 35.0737 29.0704 35.1503 29.0638 35.188L28.8212 36.9115L28.821 36.9128C28.8005 37.0564 28.845 37.1075 28.8552 37.1177C28.8654 37.1279 28.9165 37.1723 29.0601 37.1518L30.785 36.909C30.8252 36.902 30.9061 36.8774 30.9992 36.8309C31.0438 36.8086 31.083 36.7853 31.1142 36.7636C31.1295 36.753 31.1414 36.7438 31.1501 36.7364C31.1544 36.7328 31.1576 36.7299 31.1598 36.7278C31.162 36.7257 31.163 36.7247 31.1629 36.7248C31.1657 36.7218 31.1685 36.7188 31.1713 36.7159C31.1741 36.713 31.1768 36.7102 31.1796 36.7075L34.3676 33.5194C33.5577 33.0799 32.8938 32.4133 32.4573 31.6015ZM35.3429 32.5441C34.4703 32.1924 33.7812 31.4997 33.4343 30.6245L33.804 30.2547C34.1581 29.9007 34.4478 29.7393 34.6929 29.7141C34.9024 29.6926 35.233 29.7567 35.7181 30.2419C36.2114 30.7351 36.2778 31.07 36.2569 31.2808C36.2326 31.526 36.0722 31.8148 35.7181 32.1689L35.3429 32.5441Z" fill="#002C5F"/>
</svg>
