<svg width="18" height="18" viewBox="0 0 18 18" fill="none" xmlns="http://www.w3.org/2000/svg">
<path fill-rule="evenodd" clip-rule="evenodd" d="M9.00012 1.98114C6.48713 1.98114 4.48609 3.9608 4.48609 6.35882C4.48609 6.91181 4.68591 7.66763 5.06408 8.53878C5.43549 9.39435 5.94999 10.2957 6.51027 11.1189C7.07164 11.9436 7.66297 12.6663 8.17779 13.1725C8.4364 13.4268 8.65855 13.6094 8.83335 13.7229C8.91125 13.7734 8.96615 13.8013 9.00012 13.8164C9.0341 13.8013 9.08899 13.7734 9.16689 13.7229C9.3417 13.6094 9.56385 13.4268 9.82245 13.1725C10.3373 12.6663 10.9286 11.9436 11.49 11.1189C12.0503 10.2957 12.5648 9.39435 12.9362 8.53878C13.3143 7.66763 13.5142 6.91181 13.5142 6.35882C13.5142 3.9608 11.5131 1.98114 9.00012 1.98114ZM2.85162 6.35882C2.85162 3.01848 5.62459 0.34668 9.00012 0.34668C12.3757 0.34668 15.1486 3.01848 15.1486 6.35882C15.1486 7.24034 14.8487 8.23777 14.4355 9.18963C14.0772 10.0149 13.6109 10.8576 13.1055 11.6399H14.0883C14.5924 11.6399 15.0637 11.8899 15.3464 12.3073L17.3612 15.282C18.0446 16.291 17.3218 17.6536 16.1031 17.6536H1.89705C0.678413 17.6536 -0.0444022 16.291 0.638987 15.282L2.65379 12.3073C2.93648 11.8899 3.40776 11.6399 3.91185 11.6399H4.89472C4.38935 10.8576 3.92306 10.0149 3.56479 9.18963C3.15158 8.23777 2.85162 7.24034 2.85162 6.35882ZM12.0101 13.1682C11.6598 13.6077 11.3067 14.0053 10.9684 14.338C10.6647 14.6366 10.3558 14.8997 10.0568 15.0938C9.78296 15.2716 9.40921 15.464 9.00012 15.464C8.59103 15.464 8.21728 15.2716 7.94341 15.0938C7.64445 14.8997 7.33556 14.6366 7.03187 14.338C6.6935 14.0053 6.34048 13.6077 5.99017 13.1682C5.87119 13.2357 5.73356 13.2744 5.58711 13.2744H3.97286L2.11383 16.0191H15.8863L14.0273 13.2744H12.4131C12.2666 13.2744 12.129 13.2358 12.0101 13.1682ZM9.00008 7.17963C9.5571 7.17963 10.0087 6.72808 10.0087 6.17106C10.0087 5.61404 9.5571 5.16248 9.00008 5.16248C8.44306 5.16248 7.99151 5.61404 7.99151 6.17106C7.99151 6.72808 8.44306 7.17963 9.00008 7.17963ZM11.6431 6.17106C11.6431 7.63077 10.4598 8.8141 9.00008 8.8141C7.54037 8.8141 6.35704 7.63077 6.35704 6.17106C6.35704 4.71135 7.54037 3.52802 9.00008 3.52802C10.4598 3.52802 11.6431 4.71135 11.6431 6.17106Z" fill="white"/>
</svg>
