<svg width="18" height="18" viewBox="0 0 18 18" fill="none" xmlns="http://www.w3.org/2000/svg">
<path fill-rule="evenodd" clip-rule="evenodd" d="M9.00012 1.98102C6.48713 1.98102 4.48609 3.96068 4.48609 6.3587C4.48609 6.91168 4.68591 7.66751 5.06408 8.53866C5.43549 9.39423 5.94999 10.2956 6.51027 11.1187C7.07164 11.9435 7.66297 12.6662 8.17779 13.1724C8.4364 13.4267 8.65855 13.6093 8.83335 13.7228C8.91125 13.7733 8.96615 13.8012 9.00012 13.8163C9.0341 13.8012 9.08899 13.7733 9.16689 13.7228C9.3417 13.6093 9.56385 13.4267 9.82245 13.1724C10.3373 12.6662 10.9286 11.9435 11.49 11.1187C12.0503 10.2956 12.5648 9.39423 12.9362 8.53866C13.3143 7.66751 13.5142 6.91168 13.5142 6.3587C13.5142 3.96068 11.5131 1.98102 9.00012 1.98102ZM2.85162 6.3587C2.85162 3.01835 5.62459 0.346558 9.00012 0.346558C12.3757 0.346558 15.1486 3.01835 15.1486 6.3587C15.1486 7.24022 14.8487 8.23764 14.4355 9.18951C14.0772 10.0148 13.6109 10.8574 13.1055 11.6398H14.0883C14.5924 11.6398 15.0637 11.8898 15.3464 12.3071L17.3612 15.2819C18.0446 16.2909 17.3218 17.6535 16.1031 17.6535H1.89705C0.678413 17.6535 -0.0444022 16.2909 0.638987 15.2819L2.65379 12.3071C2.93648 11.8898 3.40776 11.6398 3.91185 11.6398H4.89472C4.38935 10.8574 3.92306 10.0148 3.56479 9.18951C3.15158 8.23764 2.85162 7.24022 2.85162 6.3587ZM12.0101 13.1681C11.6598 13.6075 11.3067 14.0052 10.9684 14.3379C10.6647 14.6365 10.3558 14.8996 10.0568 15.0937C9.78296 15.2715 9.40921 15.4639 9.00012 15.4639C8.59103 15.4639 8.21728 15.2715 7.94341 15.0937C7.64445 14.8996 7.33556 14.6365 7.03187 14.3379C6.6935 14.0052 6.34048 13.6075 5.99017 13.1681C5.87119 13.2356 5.73356 13.2742 5.58711 13.2742H3.97286L2.11383 16.019H15.8863L14.0273 13.2742H12.4131C12.2666 13.2742 12.129 13.2356 12.0101 13.1681ZM9.00008 7.17951C9.5571 7.17951 10.0087 6.72796 10.0087 6.17094C10.0087 5.61392 9.5571 5.16236 9.00008 5.16236C8.44306 5.16236 7.99151 5.61392 7.99151 6.17094C7.99151 6.72796 8.44306 7.17951 9.00008 7.17951ZM11.6431 6.17094C11.6431 7.63065 10.4598 8.81398 9.00008 8.81398C7.54037 8.81398 6.35704 7.63065 6.35704 6.17094C6.35704 4.71123 7.54037 3.5279 9.00008 3.5279C10.4598 3.5279 11.6431 4.71123 11.6431 6.17094Z" fill="#05141F"/>
</svg>
