<svg width="20" height="20" viewBox="0 0 20 20" fill="none" xmlns="http://www.w3.org/2000/svg">
<path fill-rule="evenodd" clip-rule="evenodd" d="M10 2C7.44568 2 5.375 4.07068 5.375 6.625C5.375 9.17932 7.44568 11.25 10 11.25C12.5543 11.25 14.625 9.17932 14.625 6.625C14.625 4.07068 12.5543 2 10 2ZM14.0144 11.8957C15.6011 10.6853 16.625 8.77471 16.625 6.625C16.625 2.96611 13.6589 0 10 0C6.34111 0 3.375 2.96611 3.375 6.625C3.375 8.77471 4.39888 10.6853 5.98559 11.8957C4.88914 12.2662 3.89096 12.7858 3.03604 13.427C1.21793 14.7906 0 16.7507 0 19C0 19.5523 0.447715 20 1 20C1.55228 20 2 19.5523 2 19C2 17.5214 2.79678 16.1065 4.23604 15.027C5.6756 13.9474 7.71017 13.25 10 13.25C12.2898 13.25 14.3244 13.9474 15.764 15.027C17.2032 16.1065 18 17.5214 18 19C18 19.5523 18.4477 20 19 20C19.5523 20 20 19.5523 20 19C20 16.7507 18.7821 14.7906 16.964 13.427C16.109 12.7858 15.1109 12.2662 14.0144 11.8957Z" fill="white"/>
</svg>
