<svg width="21" height="20" viewBox="0 0 21 20" fill="none" xmlns="http://www.w3.org/2000/svg">
<path fill-rule="evenodd" clip-rule="evenodd" d="M10.3594 2C7.80506 2 5.73438 4.07068 5.73438 6.625C5.73438 9.17932 7.80506 11.25 10.3594 11.25C12.9137 11.25 14.9844 9.17932 14.9844 6.625C14.9844 4.07068 12.9137 2 10.3594 2ZM14.3738 11.8957C15.9605 10.6853 16.9844 8.77471 16.9844 6.625C16.9844 2.96611 14.0183 0 10.3594 0C6.70049 0 3.73438 2.96611 3.73438 6.625C3.73438 8.77471 4.75826 10.6853 6.34497 11.8957C5.24852 12.2662 4.25034 12.7858 3.39541 13.427C1.57731 14.7906 0.359375 16.7507 0.359375 19C0.359375 19.5523 0.80709 20 1.35938 20C1.91166 20 2.35938 19.5523 2.35938 19C2.35938 17.5214 3.15616 16.1065 4.59541 15.027C6.03498 13.9474 8.06954 13.25 10.3594 13.25C12.6492 13.25 14.6838 13.9474 16.1233 15.027C17.5626 16.1065 18.3594 17.5214 18.3594 19C18.3594 19.5523 18.8071 20 19.3594 20C19.9117 20 20.3594 19.5523 20.3594 19C20.3594 16.7507 19.1414 14.7906 17.3233 13.427C16.4684 12.7858 15.4702 12.2662 14.3738 11.8957Z" fill="#05141F"/>
</svg>
