<svg width="20" height="20" viewBox="0 0 20 20" fill="none" xmlns="http://www.w3.org/2000/svg">
<path fill-rule="evenodd" clip-rule="evenodd" d="M0 3.57143C0 1.59898 1.59898 0 3.57143 0H16.4286C18.401 0 20 1.59898 20 3.57143L20 12.262C20 13.1536 19.7395 14.0833 19.216 14.8163C18.6804 15.566 17.8353 16.1429 16.7394 16.1429H11V18H15.1429C15.6951 18 16.1429 18.4477 16.1429 19C16.1429 19.5523 15.6951 20 15.1429 20H4.85714C4.30486 20 3.85714 19.5523 3.85714 19C3.85714 18.4477 4.30486 18 4.85714 18H9V16.1429H3.57143C1.2158 16.1429 0 14.0295 0 12.262V3.57143ZM16.7394 14.1429C17.0636 14.1429 17.3488 13.9894 17.5885 13.6538C17.6709 13.5385 17.7434 13.4063 17.8036 13.262H2.22918C2.50281 13.799 2.99634 14.1429 3.57143 14.1429H16.7394ZM2 11.262H18L18 3.57143C18 2.70355 17.2964 2 16.4286 2H3.57143C2.70355 2 2 2.70355 2 3.57143V11.262ZM13.9542 4.38399C14.3376 4.78154 14.3261 5.4146 13.9285 5.79797L9.99101 9.59484C9.79834 9.78063 9.53923 9.88142 9.27166 9.87468C9.00409 9.86793 8.75039 9.7542 8.56733 9.55894L6.45796 7.30894C6.08023 6.90603 6.10064 6.27319 6.50356 5.89546C6.90647 5.51773 7.5393 5.53814 7.91703 5.94106L9.33278 7.45118L12.5402 4.35828C12.9378 3.97492 13.5709 3.98643 13.9542 4.38399Z" fill="white"/>
</svg>
