<svg width="21" height="20" viewBox="0 0 21 20" fill="none" xmlns="http://www.w3.org/2000/svg">
<path fill-rule="evenodd" clip-rule="evenodd" d="M0.359375 3.57143C0.359375 1.59898 1.95836 0 3.9308 0H16.7879C18.7604 0 20.3594 1.59898 20.3594 3.57143L20.3594 12.262C20.3594 13.1536 20.0989 14.0833 19.5753 14.8163C19.0398 15.566 18.1947 16.1429 17.0987 16.1429H11.3594V18H15.5022C16.0545 18 16.5022 18.4477 16.5022 19C16.5022 19.5523 16.0545 20 15.5022 20H5.21652C4.66423 20 4.21652 19.5523 4.21652 19C4.21652 18.4477 4.66423 18 5.21652 18H9.35937V16.1429H3.9308C1.57518 16.1429 0.359375 14.0295 0.359375 12.262V3.57143ZM17.0987 14.1429C17.423 14.1429 17.7082 13.9894 17.9479 13.6538C18.0302 13.5385 18.1027 13.4063 18.163 13.262H2.58855C2.86218 13.799 3.35571 14.1429 3.9308 14.1429H17.0987ZM2.35938 11.262H18.3594L18.3594 3.57143C18.3594 2.70355 17.6558 2 16.7879 2H3.9308C3.06293 2 2.35938 2.70355 2.35938 3.57143V11.262ZM14.3136 4.38399C14.6969 4.78154 14.6854 5.4146 14.2879 5.79797L10.3504 9.59484C10.1577 9.78063 9.89861 9.88142 9.63104 9.87468C9.36347 9.86793 9.10977 9.7542 8.92671 9.55894L6.81734 7.30894C6.4396 6.90603 6.46002 6.27319 6.86293 5.89546C7.26584 5.51773 7.89868 5.53814 8.27641 5.94106L9.69215 7.45118L12.8996 4.35828C13.2972 3.97492 13.9302 3.98643 14.3136 4.38399Z" fill="#05141F"/>
</svg>
